<svg width="134" height="121" viewBox="0 0 134 121" fill="none" xmlns="http://www.w3.org/2000/svg">
<path d="M2 0C0.89543 0 0 0.89543 0 2C0 3.10457 0.89543 4 2 4V2V0ZM117.586 120.414C118.367 121.195 119.633 121.195 120.414 120.414L133.142 107.686C133.923 106.905 133.923 105.639 133.142 104.858C132.361 104.077 131.095 104.077 130.314 104.858L119 116.172L107.686 104.858C106.905 104.077 105.639 104.077 104.858 104.858C104.077 105.639 104.077 106.905 104.858 107.686L117.586 120.414ZM2 2V4C65.5127 4 117 55.4873 117 119H119H121C121 53.2781 67.7219 0 2 0V2Z" fill="#231F20"/>
</svg>
