<svg width="48" height="48" viewBox="0 0 48 48" fill="none" xmlns="http://www.w3.org/2000/svg">
<path d="M20.486 32.6278L12 24.1398L14.828 21.3118L20.486 26.9678L31.798 15.6538L34.628 18.4838L20.486 32.6278Z" fill="black"/>
<path fill-rule="evenodd" clip-rule="evenodd" d="M2 24C2 11.85 11.85 2 24 2C36.15 2 46 11.85 46 24C46 36.15 36.15 46 24 46C11.85 46 2 36.15 2 24ZM24 42C21.6362 42 19.2956 41.5344 17.1117 40.6298C14.9278 39.7253 12.9435 38.3994 11.2721 36.7279C9.60062 35.0565 8.27475 33.0722 7.37017 30.8883C6.46558 28.7044 6 26.3638 6 24C6 21.6362 6.46558 19.2956 7.37017 17.1117C8.27475 14.9278 9.60062 12.9435 11.2721 11.2721C12.9435 9.60062 14.9278 8.27475 17.1117 7.37017C19.2956 6.46558 21.6362 6 24 6C28.7739 6 33.3523 7.89642 36.7279 11.2721C40.1036 14.6477 42 19.2261 42 24C42 28.7739 40.1036 33.3523 36.7279 36.7279C33.3523 40.1036 28.7739 42 24 42Z" fill="black"/>
</svg>
