<svg width="48" height="48" viewBox="0 0 48 48" fill="none" xmlns="http://www.w3.org/2000/svg">
<path d="M24 44C22.364 44 20.8 43.34 17.674 42.02C9.892 38.732 6 37.086 6 34.32V14M24 44C25.636 44 27.2 43.34 30.326 42.02C38.108 38.732 42 37.086 42 34.32V14M24 44V22.71M12 24L16 26M34 8L14 18M16.652 19.382L10.81 16.556C7.604 15.004 6 14.228 6 13C6 11.772 7.604 10.996 10.81 9.444L16.65 6.618C20.26 4.872 22.06 4 24 4C25.94 4 27.742 4.872 31.348 6.618L37.19 9.444C40.396 10.996 42 11.772 42 13C42 14.228 40.396 15.004 37.19 16.556L31.35 19.382C27.74 21.128 25.94 22 24 22C22.06 22 20.258 21.128 16.652 19.382Z" stroke="black" stroke-width="3" stroke-linecap="round" stroke-linejoin="round"/>
</svg>
