<svg width="48" height="48" viewBox="0 0 48 48" fill="none" xmlns="http://www.w3.org/2000/svg">
<path fill-rule="evenodd" clip-rule="evenodd" d="M21 4C18.2892 4.00023 15.6177 4.64873 13.2085 5.89139C10.7993 7.13405 8.7222 8.93483 7.15049 11.1435C5.57878 13.3522 4.55804 15.9047 4.17344 18.5881C3.78883 21.2715 4.05152 24.0079 4.93958 26.5692C5.82763 29.1304 7.31531 31.4421 9.27849 33.3115C11.2417 35.1808 13.6234 36.5536 16.225 37.3152C18.8267 38.0768 21.5727 38.2053 24.2341 37.6898C26.8954 37.1744 29.3949 36.0299 31.524 34.352L38.828 41.656C39.2052 42.0203 39.7104 42.2219 40.2348 42.2173C40.7592 42.2128 41.2608 42.0025 41.6317 41.6316C42.0025 41.2608 42.2128 40.7592 42.2174 40.2348C42.2219 39.7104 42.0203 39.2052 41.656 38.828L34.352 31.524C36.328 29.0172 37.5583 26.0048 37.9022 22.8315C38.2461 19.6581 37.6896 16.452 36.2965 13.5802C34.9033 10.7083 32.7298 8.28671 30.0246 6.59246C27.3195 4.89821 24.1919 3.99979 21 4ZM8.00002 21C8.00002 17.5522 9.36966 14.2456 11.8076 11.8076C14.2456 9.36964 17.5522 8 21 8C24.4478 8 27.7544 9.36964 30.1924 11.8076C32.6304 14.2456 34 17.5522 34 21C34 24.4478 32.6304 27.7544 30.1924 30.1924C27.7544 32.6304 24.4478 34 21 34C17.5522 34 14.2456 32.6304 11.8076 30.1924C9.36966 27.7544 8.00002 24.4478 8.00002 21Z" fill="black"/>
</svg>
