<svg width="48" height="48" viewBox="0 0 48 48" fill="none" xmlns="http://www.w3.org/2000/svg">
<path d="M19.834 14.1518C20.1812 14.5059 20.3757 14.982 20.3757 15.4778C20.3757 15.9737 20.1812 16.4498 19.834 16.8038L16.804 19.8338C16.45 20.181 15.9739 20.3754 15.478 20.3754C14.9822 20.3754 14.5061 20.181 14.152 19.8338L9.05605 14.7398C8.06605 13.7518 6.40205 14.0738 6.16405 15.4518C5.85306 17.2553 5.98226 19.1073 6.54065 20.8501C7.09903 22.593 8.07009 24.1752 9.37124 25.4622C10.6724 26.7492 12.2651 27.7029 14.014 28.2422C15.7628 28.7815 17.616 28.8905 19.416 28.5598C21.056 28.2598 22.83 28.5158 24.008 29.6918L35.14 40.8258C35.5105 41.2114 35.9541 41.5192 36.445 41.7312C36.9358 41.9432 37.4641 42.0552 37.9987 42.0605C38.5334 42.0659 39.0637 41.9645 39.5587 41.7624C40.0537 41.5602 40.5034 41.2614 40.8815 40.8833C41.2596 40.5052 41.5584 40.0555 41.7606 39.5605C41.9627 39.0655 42.0641 38.5351 42.0587 38.0005C42.0534 37.4658 41.9414 36.9376 41.7294 36.4467C41.5174 35.9559 41.2096 35.5123 40.8241 35.1418L29.69 24.0098C28.514 22.8318 28.258 21.0558 28.558 19.4178C28.8878 17.618 28.7781 15.7651 28.2385 14.0167C27.6988 12.2683 26.7451 10.676 25.4583 9.37511C24.1715 8.0742 22.5897 7.10313 20.8473 6.5444C19.1049 5.98567 17.2534 5.8558 15.45 6.16582C14.072 6.40582 13.75 8.06782 14.738 9.05782L19.834 14.1518Z" stroke="black" stroke-width="3" stroke-linecap="round" stroke-linejoin="round"/>
</svg>
