<svg width="170" height="170" viewBox="0 0 170 170" fill="none" xmlns="http://www.w3.org/2000/svg">
<path fill-rule="evenodd" clip-rule="evenodd" d="M155.834 85C155.834 45.8787 124.122 14.1666 85.0003 14.1666C45.8791 14.1666 14.167 45.8787 14.167 85C14.167 124.121 45.8791 155.833 85.0003 155.833C124.122 155.833 155.834 124.121 155.834 85ZM85.0003 49.5833C86.8789 49.5833 88.6806 50.3296 90.009 51.658C91.3374 52.9863 92.0837 54.788 92.0837 56.6666V92.0833C92.0837 93.9619 91.3374 95.7636 90.009 97.092C88.6806 98.4203 86.8789 99.1666 85.0003 99.1666C83.1217 99.1666 81.32 98.4203 79.9917 97.092C78.6633 95.7636 77.917 93.9619 77.917 92.0833V56.6666C77.917 54.788 78.6633 52.9863 79.9917 51.658C81.32 50.3296 83.1217 49.5833 85.0003 49.5833ZM77.917 113.333C77.917 111.455 78.6633 109.653 79.9917 108.325C81.32 106.996 83.1217 106.25 85.0003 106.25H85.057C86.9356 106.25 88.7373 106.996 90.0657 108.325C91.394 109.653 92.1403 111.455 92.1403 113.333C92.1403 115.212 91.394 117.014 90.0657 118.342C88.7373 119.67 86.9356 120.417 85.057 120.417H85.0003C83.1217 120.417 81.32 119.67 79.9917 118.342C78.6633 117.014 77.917 115.212 77.917 113.333Z" fill="#FCBF02" fill-opacity="0.6"/>
</svg>
