<?xml version="1.0" encoding="UTF-8"?>
<svg id="Layer_1" xmlns="http://www.w3.org/2000/svg" version="1.1" viewBox="0 0 240 26.5">
  <!-- Generator: Adobe Illustrator 29.5.1, SVG Export Plug-In . SVG Version: 2.1.0 Build 141)  -->
  <defs>
    <style>
      .st0 {
        fill: #ee3524;
      }
    </style>
  </defs>
  <polygon class="st0" points="57.6 26.5 57.6 23.4 56.4 23.4 56.4 23 59.3 23 59.3 23.4 58.1 23.4 58.1 26.5 57.6 26.5"/>
  <polygon class="st0" points="59.8 23 60.6 23 61.6 25.9 62.6 23 63.4 23 63.4 26.5 63 26.5 63 23.3 61.8 26.5 61.3 26.5 60.2 23.3 60.2 26.5 59.8 26.5 59.8 23"/>
  <path d="M240,19.5c0,1.4-1.1,2.5-2.5,2.5s-2.5-1.1-2.5-2.5,1.2-2.5,2.5-2.5,2.5,1.1,2.5,2.5M235.3,19.5c0,1.2,1,2.2,2.2,2.2s2.2-1,2.2-2.2-1-2.2-2.2-2.2-2.2,1-2.2,2.2M236.6,18.1h.9c.2,0,.9,0,.9.7s0,.5-.5.6l.4.5.2.8h-.4v-.7c-.1,0-.7-.5-.7-.5h-.5v1.2h-.4v-2.7h0ZM237,19.2h.6l.5-.4-.5-.4h-.6v.8Z"/>
  <path d="M73.1,5c3.8.2,7.5.3,11.3.5,5,.2,6.8,1.6,6.2,4.1-.5,2-2.4,3-4.7,3.5h0c2.3.2,4.3,1.2,3.7,3.8-.3,1.2-1,2.2-1.8,2.8-1.3.9-2.4,1.3-6,1.4-4.1.2-8.1.3-12.2.5,1.2-5.6,2.3-11,3.5-16.4M77.2,18.3c.7,0,1.4,0,2.1,0,2.4,0,3.4-.7,3.7-2,.3-1.3-.4-1.9-2.9-1.8-.7,0-1.4,0-2.1,0-.3,1.3-.6,2.6-.9,3.8M78.7,11.6c.7,0,1.4,0,2.1,0,2,0,2.8-.6,3-1.7.2-1.1-.1-1.7-2.3-1.7-.7,0-1.4,0-2,0-.3,1.1-.5,2.3-.8,3.4"/>
  <path d="M111.8,18c-2.2,1.5-5.3,2.5-9.5,2.6-8.1.3-10.3-3-9.2-7.5.7-2.9,2.5-4.9,4.7-6,1.8-.9,4-1.5,8.3-1.4,8.1.2,10.3,3.3,9.2,7.4-.5,2.1-1.7,3.7-3.4,4.9M105.1,8.9c-2.3,0-4.3,1.3-5,4.2-.7,3,.6,4.3,2.9,4.2,2.3,0,4.3-1.4,5-4.2.7-2.8-.6-4.2-2.9-4.2"/>
  <path d="M118.5,6.4c2.3,0,4.5,0,6.7.1v8.3h0c1.8-2.8,3.5-5.5,5.3-8.2,2.6,0,5.2,0,7.8,0,.3,2.7.6,5.4.9,8.1h0c1.5-2.7,2.9-5.4,4.4-8.1,2.1,0,4.2,0,6.3,0-2.5,4.3-5,8.6-7.5,12.9-2.9,0-5.9,0-8.8,0-.3-2.6-.6-5.3-.8-7.9h0c-1.7,2.6-3.4,5.3-5.1,8-2.9,0-5.9,0-8.9.1-.1-4.5-.2-9-.4-13.5"/>
  <path d="M153.4,6.7c5.1,0,10.2,0,15.2,0-.3.9-.5,1.8-.7,2.7-2.7,0-5.5,0-8.3,0-.2.9-.5,1.8-.7,2.7,2.6,0,5.2,0,7.9,0-.2.9-.5,1.8-.7,2.7-2.6,0-5.2,0-7.9,0-.4,1.6-.9,3.2-1.3,4.8-2.3,0-4.7,0-7,0,1.2-4.3,2.4-8.6,3.5-12.8"/>
  <path d="M172.4,6.6c2.3,0,4.7,0,7,0-.9,3.3-1.8,6.7-2.7,10,2.6,0,5.1,0,7.6,0-.3,1.1-.6,2.2-.9,3.2-4.9,0-9.7-.1-14.6-.2,1.2-4.3,2.3-8.7,3.5-13"/>
  <path d="M190.8,6.3c5.3-.1,10.6-.2,15.9-.4-.2,1-.5,2-.7,3-3,0-6.1,0-9.1.1-.2.9-.4,1.7-.6,2.6,2.8,0,5.7,0,8.6,0-.2,1-.5,2-.7,3-2.9,0-5.7,0-8.6,0-.2.8-.4,1.7-.6,2.5,3.1,0,6.1,0,9.2.1-.2,1-.5,2-.7,3-5.3-.1-10.7-.3-16-.4,1.2-4.5,2.3-9,3.5-13.5"/>
  <path d="M216.4,12.9c-1.8-2.4-3.7-4.8-5.5-7.1,3,0,6.1-.2,9.1-.3.9,1.5,1.8,3.1,2.7,4.7,1.7-1.6,3.3-3.3,5-5,2.9-.1,5.7-.2,8.6-.4-3,2.8-6.1,5.5-9.1,8.1,1.9,2.7,3.9,5.5,5.8,8.3-3-.1-6.1-.3-9.1-.4-1-1.8-1.9-3.6-2.9-5.3-1.8,1.7-3.6,3.4-5.4,5-2.8,0-5.6-.2-8.4-.3,3.1-2.4,6.2-4.8,9.3-7.4"/>
  <path class="st0" d="M32.3,0C14.5,0,0,5.9,0,13.1s4.7,7.8,12.1,10.2c3.7-.5,8.5-1.2,12-1.9,3.7-.8,8.1-2,11.3-3.9,0,0-1.1-1.2-5.8-2.7-5-1.6-13.3-3.4-13.3-3.4,0,0,3.8-.3,4.5-.4,3.1-.3,8.2-.7,12.8-1.7,3.2-.7,6.9-1.7,9.4-3.1,0,0-.9-.9-5.2-2.2-4.7-1.3-10.8-2.5-10.8-2.5,0,0,7-.1,15.3,1.3,9.3,1.7,11.9,3.6,11.9,3.6,0,0-8.1,4.2-19.9,5-3.3.2-8.5.2-12.4.1,3.9.2,9.2.7,14.4,1.8,10.2,2.2,12.8,4.5,12.8,4.5,0,0-11.1,5.2-25.1,6.4-2.4.2-5,.2-7.5.2,4.7,1.1,10.1,1.7,15.8,1.7,17.9,0,32.3-5.9,32.3-13.1,0-7.2-14.5-13.1-32.3-13.1"/>
</svg>