<?xml version="1.0" encoding="UTF-8"?>
<svg id="layer" xmlns="http://www.w3.org/2000/svg" version="1.1" viewBox="0 0 600.1 91.1">
  <!-- Generator: Adobe Illustrator 29.5.1, SVG Export Plug-In . SVG Version: 2.1.0 Build 141)  -->
  <g>
    <path d="M216.9.6C112.9-2.2,34.5,13.1,31,38.8c-1.8,13.2,45,35.8,73.4,40.9-25.3,5-59.2,7.7-101.6,7.6l-2.8,2.1c114.1,6,193.2-3.8,196.6-31.4,2.2-17.9-58-38.5-58-38.5l-2.5.6s22.8,10.8,22.8,24.9-17,26.6-50.3,33.8c-22.2-8-35.2-17.8-35-28.4.4-24.7,51.6-44,141.8-46.6l1.5-3.2Z"/>
    <path d="M240.7,72.7c3.1,0,6.4-2.5,7.4-5.6l2-6.1h20.8l-9.1,27.8h-65L225.8.2h65l-7.7,23.5h-20.8l.3-.9c1-3.1-.7-5.6-3.7-5.6h-9.7c-3.1,0-6.3,2.6-7.3,5.6l-14.5,44.4c-1,2.9.7,5.6,3.8,5.6h9.5Z"/>
  </g>
  <polygon points="292.7 .4 316 .4 320.9 29.2 342 .4 366.3 .4 325.4 56 315 88.9 292.3 88.9 302.2 56 292.7 .4"/>
  <g>
    <path d="M485.7,72.1h-34.7s-6.8-.3-4.8-6.6l4.2-12.8h37.2l5.4-16.5h-37.3s2.2-6.6,4.5-13.6c2.2-6.8,8.9-6.1,8.9-6.1h30.3L504.8,0h-60.5l-29,88.6h65l5.4-16.5ZM530.1,61.4c-.6,0-.9.7-1.6,1.7l-17.3,25.6h-27.1l30.6-44.6L511.4.1h23.8l1.7,24c0,.4,0,1.1.3,1.1s.3-.4.7-.8L555,.1h27.5l-30.2,41.1,4.3,47.5h-23.5l-2.5-25.4c0-1.3,0-1.9-.5-1.9M385.4,72c3,0,7.8-2.2,9.2-5.4l1.6-4.7c1.9-5.9,4.1-10.1-4.5-10.1h-15.6l-6.7,20.3h16ZM417.3.1c11.8,0,15.7,8.3,12.6,17.8l-5,14.5c-3.1,8.4-12.4,10.4-12.4,10.4,11.2,2,7,12.4,7,12.4-1.2,4.3-1.9,6.7-3.3,10.9-1.9,5.9-3.4,10.7-5.2,15-1.7,4.1-7.4,7.5-15,7.5h-55.7L369.3,0h48ZM399,16.6h-11.4l-6.3,19.3h11c8.3.3,11.9-3.2,13.8-9.1l1.7-4.8c1-3-.1-5.4-2.4-5.4h-6.4Z"/>
    <path d="M592.6,6.7c1.1,0,2-.1,2.4-1.3.3-1-.5-1.2-1.4-1.2h-1.7l-.8,2.6h1.5ZM589.6,11.4h-1.2l2.7-8.3h3.1c1.9,0,2.7.7,2.1,2.3-.5,1.5-1.6,2.1-2.9,2.3l1.2,3.6h-1.4l-1-3.6h-1.4l-1.2,3.7ZM590.5,13.2c3.2,0,6.6-2.5,7.8-6,1.1-3.4-.6-5.9-3.8-5.9s-6.7,2.6-7.8,5.9c-1.2,3.5.6,6,3.8,6M585.2,7.2c1.3-4.1,5.7-7.1,9.6-7.1s6.2,3,4.9,7.1c-1.4,4.2-5.7,7.2-9.6,7.2s-6.2-3-4.9-7.2"/>
  </g>
</svg>