<?xml version="1.0" encoding="UTF-8"?>
<svg id="_Слой_1" xmlns="http://www.w3.org/2000/svg" version="1.1" viewBox="0 0 2426.4 246.7">
  <!-- Generator: Adobe Illustrator 29.5.1, SVG Export Plug-In . SVG Version: 2.1.0 Build 141)  -->
  <defs>
    <style>
      .st0 {
        fill-rule: evenodd;
      }
    </style>
  </defs>
  <path class="st0" d="M306.1,96c-4.7-49,0-88.7-66.6-93.4-70.1,0-63.1,75.9-65.4,75.9h-8.2c2.3,17.1,4.2,34.2,5.8,51.4v73.6h43.2v-74.7c16.3,1.2,35,1.2,50.2,1.2v73.6h42l.2-.2c0-22.2-1.2-65.4-1.2-107.4ZM218.4,77.5c0-11.7,1.2-28,23.3-28s22.2,16.4,22.2,28h-45.5Z"/>
  <path class="st0" d="M1005.2,142.9s38.5-21,38.5-61.9-30.3-68.9-63-68.9h-59.5v191.5h40.9v-46.7l35,46.7h49l-40.9-60.7ZM997.1,78.6c0,17.5-16.3,24.5-37.4,24.5v-51.4c23.3,0,37.4,9.3,37.4,26.8h0ZM884.9,128.9v-39.7h-56v-36.2h52.5V13.3h-91.1v73.6h-9.4l8.2,32.7v84.1h92.2v-36.2h-54.9v-38.5h58.5Z"/>
  <path class="st0" d="M1506.2,142.9s38.5-21,38.5-61.9-30.3-68.9-63-68.9h-59.5v191.5h40.9v-46.7l35,46.7h49l-40.9-60.7ZM1498.1,78.6c0,17.5-16.4,24.5-37.4,24.5v-51.4c23.3,0,37.4,9.3,37.4,26.8h0ZM1667.4,127.8v-39.7h-56v-36.2h52.5V12.1h-91.1v73.6h-10.5l8.2,32.7v84.1h92.2v-36.2h-53.7v-38.5h58.4Z"/>
  <path class="st0" d="M2400.5,52.2c-2.5-3.9-4.5-6.6-6.2-8.3-1-.9-2.2-1.7-3.5-2.2,3.6-.3,6.5-1.5,8.7-3.8s3.3-5.9,3.3-8-.6-4.2-1.9-6.1-3.1-3.2-5.3-4-5.8-1.2-10.7-1.2h-14.4v41.9h6.6v-17.8h4c2.4,0,4.2.4,5.4,1.4,1.8,1.3,4.2,4.5,7.1,9.7l3.7,6.6h8.3l-5.1-8.2h0ZM2385.4,36.9h-8.1v-12.6h7.7c3.3,0,5.6.2,6.8.7,1.1.5,2.1,1.2,2.8,2.2.6.9,1,2.1,1,3.3,0,1.8-.8,3.5-2.2,4.6-1.4,1.2-4.1,1.8-8,1.8ZM2400.5,52.2c-2.5-3.9-4.5-6.6-6.2-8.3-1-.9-2.2-1.7-3.5-2.2,3.6-.3,6.5-1.5,8.7-3.8s3.3-5.9,3.3-8-.6-4.2-1.9-6.1-3.1-3.2-5.3-4-5.8-1.2-10.7-1.2h-14.4v41.9h6.6v-17.8h4c2.4,0,4.2.4,5.4,1.4,1.8,1.3,4.2,4.5,7.1,9.7l3.7,6.6h8.3l-5.1-8.2h0ZM2385.4,36.9h-8.1v-12.6h7.7c3.3,0,5.6.2,6.8.7,1.1.5,2.1,1.2,2.8,2.2.6.9,1,2.1,1,3.3,0,1.8-.8,3.5-2.2,4.6-1.4,1.2-4.1,1.8-8,1.8ZM2400.5,52.2c-2.5-3.9-4.5-6.6-6.2-8.3-1-.9-2.2-1.7-3.5-2.2,3.6-.3,6.5-1.5,8.7-3.8s3.3-5.9,3.3-8-.6-4.2-1.9-6.1-3.1-3.2-5.3-4-5.8-1.2-10.7-1.2h-14.4v41.9h6.6v-17.8h4c2.4,0,4.2.4,5.4,1.4,1.8,1.3,4.2,4.5,7.1,9.7l3.7,6.6h8.3l-5.1-8.2h0ZM2385.4,36.9h-8.1v-12.6h7.7c3.3,0,5.6.2,6.8.7,1.1.5,2.1,1.2,2.8,2.2.6.9,1,2.1,1,3.3,0,1.8-.8,3.5-2.2,4.6-1.4,1.2-4.1,1.8-8,1.8ZM2400.5,52.2c-2.5-3.9-4.5-6.6-6.2-8.3-1-.9-2.2-1.7-3.5-2.2,3.6-.3,6.5-1.5,8.7-3.8s3.3-5.9,3.3-8-.6-4.2-1.9-6.1-3.1-3.2-5.3-4-5.8-1.2-10.7-1.2h-14.4v41.9h6.6v-17.8h4c2.4,0,4.2.4,5.4,1.4,1.8,1.3,4.2,4.5,7.1,9.7l3.7,6.6h8.3l-5.1-8.2h0ZM2385.4,36.9h-8.1v-12.6h7.7c3.3,0,5.6.2,6.8.7,1.1.5,2.1,1.2,2.8,2.2.6.9,1,2.1,1,3.3,0,1.8-.8,3.5-2.2,4.6-1.4,1.2-4.1,1.8-8,1.8ZM2400.5,52.2c-2.5-3.9-4.5-6.6-6.2-8.3-1-.9-2.2-1.7-3.5-2.2,3.6-.3,6.5-1.5,8.7-3.8s3.3-5.9,3.3-8-.6-4.2-1.9-6.1-3.1-3.2-5.3-4-5.8-1.2-10.7-1.2h-14.4v41.9h6.6v-17.8h4c2.4,0,4.2.4,5.4,1.4,1.8,1.3,4.2,4.5,7.1,9.7l3.7,6.6h8.3l-5.1-8.2h0ZM2385.4,36.9h-8.1v-12.6h7.7c3.3,0,5.6.2,6.8.7,1.1.5,2.1,1.2,2.8,2.2.6.9,1,2.1,1,3.3,0,1.8-.8,3.5-2.2,4.6-1.4,1.2-4.1,1.8-8,1.8ZM2400.5,52.2c-2.5-3.9-4.5-6.6-6.2-8.3-1-.9-2.2-1.7-3.5-2.2,3.6-.3,6.5-1.5,8.7-3.8s3.3-5.9,3.3-8-.6-4.2-1.9-6.1-3.1-3.2-5.3-4-5.8-1.2-10.7-1.2h-14.4v41.9h6.6v-17.8h4c2.4,0,4.2.4,5.4,1.4,1.8,1.3,4.2,4.5,7.1,9.7l3.7,6.6h8.3l-5.1-8.2h0ZM2385.4,36.9h-8.1v-12.6h7.7c3.3,0,5.6.2,6.8.7,1.1.5,2.1,1.2,2.8,2.2.6.9,1,2.1,1,3.3,0,1.8-.8,3.5-2.2,4.6-1.4,1.2-4.1,1.8-8,1.8ZM2421.2,19.4c-3.4-6.3-8.3-11-14.5-14.4-6.2-3.3-12.6-5-19.1-5h-.2c-6.7,0-13.2,1.7-19.1,5-6.2,3.3-11.2,8.3-14.6,14.4-3.4,6.2-5.2,12.8-5.2,19.5s1.8,13.1,5.2,19.3c3.4,6.2,8.2,11,14.4,14.4,5.9,3.3,12.6,5.1,19.4,5.1s13.5-1.7,19.4-5.1c6.2-3.4,11-8.3,14.4-14.4s5.1-12.5,5.1-19.3-1.7-13.3-5.2-19.5h0ZM2415.7,55.1c-2.9,5.1-6.9,9.1-12,12s-10.5,4.3-16.1,4.3-11.3-1.5-16.2-4.3c-5.1-2.8-9.1-6.9-12-12s-4.3-10.4-4.3-16.1,1.5-11.1,4.4-16.3c2.8-5.1,7-9.2,12.1-12,5.2-2.8,10.5-4.2,16-4.2s11,1.5,15.8,4.2c5.2,2.7,9.4,6.9,12.2,12,3,5.2,4.4,10.7,4.4,16.3s-1.5,11-4.3,16.1h0ZM2394.3,43.9c-1-.9-2.2-1.7-3.5-2.2,3.6-.3,6.5-1.5,8.7-3.8s3.3-5.9,3.3-8-.6-4.2-1.9-6.1-3.1-3.2-5.3-4-5.8-1.2-10.7-1.2h-14.4v41.9h6.6v-17.8h4c2.4,0,4.2.4,5.4,1.4,1.8,1.3,4.2,4.5,7.1,9.7l3.7,6.6h8.3l-5.1-8.2c-2.5-3.9-4.5-6.6-6.2-8.3h0ZM2385.4,36.9h-8.1v-12.6h7.7c3.3,0,5.6.2,6.8.7,1.1.5,2.1,1.2,2.8,2.2.6.9,1,2.1,1,3.3,0,1.8-.8,3.5-2.2,4.6-1.4,1.2-4.1,1.8-8,1.8ZM2400.5,52.2c-2.5-3.9-4.5-6.6-6.2-8.3-1-.9-2.2-1.7-3.5-2.2,3.6-.3,6.5-1.5,8.7-3.8s3.3-5.9,3.3-8-.6-4.2-1.9-6.1-3.1-3.2-5.3-4-5.8-1.2-10.7-1.2h-14.4v41.9h6.6v-17.8h4c2.4,0,4.2.4,5.4,1.4,1.8,1.3,4.2,4.5,7.1,9.7l3.7,6.6h8.3l-5.1-8.2h0ZM2385.4,36.9h-8.1v-12.6h7.7c3.3,0,5.6.2,6.8.7,1.1.5,2.1,1.2,2.8,2.2.6.9,1,2.1,1,3.3,0,1.8-.8,3.5-2.2,4.6-1.4,1.2-4.1,1.8-8,1.8ZM2400.5,52.2c-2.5-3.9-4.5-6.6-6.2-8.3-1-.9-2.2-1.7-3.5-2.2,3.6-.3,6.5-1.5,8.7-3.8s3.3-5.9,3.3-8-.6-4.2-1.9-6.1-3.1-3.2-5.3-4-5.8-1.2-10.7-1.2h-14.4v41.9h6.6v-17.8h4c2.4,0,4.2.4,5.4,1.4,1.8,1.3,4.2,4.5,7.1,9.7l3.7,6.6h8.3l-5.1-8.2h0ZM2385.4,36.9h-8.1v-12.6h7.7c3.3,0,5.6.2,6.8.7,1.1.5,2.1,1.2,2.8,2.2.6.9,1,2.1,1,3.3,0,1.8-.8,3.5-2.2,4.6-1.4,1.2-4.1,1.8-8,1.8ZM2400.5,52.2c-2.5-3.9-4.5-6.6-6.2-8.3-1-.9-2.2-1.7-3.5-2.2,3.6-.3,6.5-1.5,8.7-3.8s3.3-5.9,3.3-8-.6-4.2-1.9-6.1-3.1-3.2-5.3-4-5.8-1.2-10.7-1.2h-14.4v41.9h6.6v-17.8h4c2.4,0,4.2.4,5.4,1.4,1.8,1.3,4.2,4.5,7.1,9.7l3.7,6.6h8.3l-5.1-8.2h0ZM2385.4,36.9h-8.1v-12.6h7.7c3.3,0,5.6.2,6.8.7,1.1.5,2.1,1.2,2.8,2.2.6.9,1,2.1,1,3.3,0,1.8-.8,3.5-2.2,4.6-1.4,1.2-4.1,1.8-8,1.8ZM2400.5,52.2c-2.5-3.9-4.5-6.6-6.2-8.3-1-.9-2.2-1.7-3.5-2.2,3.6-.3,6.5-1.5,8.7-3.8s3.3-5.9,3.3-8-.6-4.2-1.9-6.1-3.1-3.2-5.3-4-5.8-1.2-10.7-1.2h-14.4v41.9h6.6v-17.8h4c2.4,0,4.2.4,5.4,1.4,1.8,1.3,4.2,4.5,7.1,9.7l3.7,6.6h8.3l-5.1-8.2h0ZM2385.4,36.9h-8.1v-12.6h7.7c3.3,0,5.6.2,6.8.7,1.1.5,2.1,1.2,2.8,2.2.6.9,1,2.1,1,3.3,0,1.8-.8,3.5-2.2,4.6-1.4,1.2-4.1,1.8-8,1.8ZM2046.7,10.8h.1v42.1h42v150.6h44.4V54h45.5V10.8h-132ZM1269.2,10.8v42.1h42.1v150.6h44.3V54h44.4V10.8h-130.8ZM507.9,10.9h-26.9l-43.2,78.2-38.5-78.2h-29.2l-25.7,192.7h37.4l16.4-94.6,39.7,63,38.5-63,10.5,94.6h42l-21-192.7h0ZM730.9,10.9h-26.9l-42,78.2-38.5-78.2h-29.2l-26.9,192.7h37.3l16.4-94.6,40.9,63,37.4-63,10.5,94.6h43.2l-22.2-192.7ZM88.8,7.4v71.2h-44.4V7.4H.2v239.3l42-25.7v-88.7h45.5v72.4h42V7.4h-40.9ZM0,7.4h.2-.2ZM1195.6,65.8c-1.2-24.6,46.7-16.4,46.7-16.4V14.4s-22.2-7-47.9-2.3c-28,3.5-45.5,24.5-42,53.7,2.4,37.4,51.4,52.6,51.4,80.6-1.2,19.8-50.2,14-50.2,14v43.2h39.7s40.9,3.5,53.7-43.2c14-49.1-50.2-66.6-51.4-94.6h0ZM2287.3,10.9v74.7h-40.9V10.9h-43.1v73.6h-12.8l12.8,44.4v75.9h42v-75.9h38.5v74.7h43.2V10.9h-39.7ZM1875.2,106.7c0,86.4,66.6,96.9,66.6,96.9h75.9v-112.1h-40.9v68.9h0s-59.5,11.7-57.2-53.7c2.3-75.9,98.1-51.4,98.1-51.4,0,0,1.2,5.8,1.2-43.2,0,0-143.6-28-143.6,94.6h0ZM1813.3,10.9v61.9l-66.5-60.7h-40.9v191.4h43.1v-121.4l59.6,51.4v70.1h44.4V10.9h-39.7ZM1705.8,203.5h0Z"/>
</svg>