<?xml version="1.0" encoding="UTF-8"?>
<svg id="_Слой_1" xmlns="http://www.w3.org/2000/svg" version="1.1" viewBox="0 0 2426.4 474.3">
  <!-- Generator: Adobe Illustrator 29.5.1, SVG Export Plug-In . SVG Version: 2.1.0 Build 141)  -->
  <defs>
    <style>
      .st0 {
        fill: #cf4044;
      }

      .st0, .st1 {
        fill-rule: evenodd;
      }
    </style>
  </defs>
  <path class="st1" d="M439.4,106.7c35.5.6,35.1,2.4,58.4-12.6,15.9-10.1,31.5-20.8,46.8-32,23.8-17.4,26.2-24.8-16-34.2-34.3-7.7-44.7-10.4-81,10.3-50.6,28.8-198.6,132.4-349.2,276.2-38.8,6.8-70.8,21.7-83.3,30.8-12.6,9.1-13.5,11.5-1.1,29.7,16.8,24.8,17.5,25.4,45.4,12,14.8-7.1,36.8-20,56.2-34.8,85.6-16,276.2-17.1,511.3,49.1,20.8,5.9,26.6,9.1,11.4-24-14.6-31.7-12.8-30-53.6-39.9-151.7-37.1-313.9-42.2-407.5-33.1,94.7-78.7,168.7-141.5,262.3-197.4h-.1Z"/>
  <path class="st1" d="M658.6,55.4c-16.7,4.4-66.2,19.4-87.9,26.3s-23.8,6.9-22.8,27.4c1.1,25.1,3.4,25.1,18.3,19.4,14.8-5.7,87-28.1,107.9-34.1,16-4.6,16.3-9,13.7-24-3.9-22.3-7.4-20.7-29.1-15h-.1ZM490,142.7c-16.3,12.8-79.6,68.5-116.4,110.4-10.1,11.5-10.3,7.7-.9,36.8,4.5,13.8,8.5,34.3,28.2,12s107.9-95.9,125-109.6,17.3-16.4,2.6-41.9c-16.3-28.2-22.3-20.5-38.5-7.7h0Z"/>
  <path class="st1" d="M833.9,20.3c-46.2,2.6-81.3,27.4-131.8,71.9-26,22.8-51.3,46.4-76,70.7-30.1-7.9-55.7-16.1-61-18.5-7.7-3.4-12-2.6-10.3,8.6,2.5,16.5,6.9,32.6,36.4,45.3-23.8,25-46.8,50.7-69,77.1-9.5,11.3-9.4,12.8,3.4,32.5,11.8,18.1,18.1,14.7,25.7,6.8,25.6-26.8,59.4-63.6,97-100.8,24.4,5.2,52.5,8.4,68.1,10.4-6.3,7.9-12.4,16.1-18.1,24.5-10.4,15.2-8.6,25.7,2.6,43.6,11.1,18,24.8,33.4,65.9,17.1,41.1-16.3,77-41.1,85.6-54.8,8.6-13.7,9.4-16.3-12-10.3s-48.8,18.8-91.6,24.8c6-11.5,17.2-25.8,30.4-40.2,36.1,1.6,88.8.9,132.3-20.5,27.8-13.7,22.3-38.5,6-62.5s-32.5-41.1-82.2-20.5c-28.5,11.8-57.9,33.8-84.4,60.1-19.7-2.3-48-5.6-63.6-8.8,34.5-31.5,70.8-60.7,106.2-81.3,34.9-20.3,53.9-17.1,60.8-.9,4.6,11,13.2,14.7,22.3,7.7,9.4-7.3,15.8-20.5,15-34.2-1.9-31.4-21.9-49.9-57.8-47.9h0ZM862,156.1c32.5-13.7,50.1,13.4,15.3,21.7-18.3,4.4-36.8,9.1-55.9,10.3,15.7-13.6,32.6-28.7,40.6-32.1h0ZM1579.6,39.4c-4.9,3.9-26.1,25.4-54.3,54.7-37.2,5.3-75.1,11.4-113.5,18.4-27.3,4.9-21.6,10.3-16,28.5,4.6,14.9,8.4,20.8,24,17.1,14-3.4,28.4-6.5,43.1-9.5-48.2,28.5-128.9,71.2-200.3,112.3,24.7-25.5,50.2-50.3,76.5-74.2,11.4-10.3,8-13.7-3.4-33.1-12.4-21.1-13.7-27.4-29.7-14.9-16,12.6-95.9,97-139.2,145-10.8,12-6.8,21.7,8,36.5s18.3,19.4,44.5,4.6c25.6-14.5,143.8-84.4,212.7-132.3-42.4,45-81.7,87.2-98.8,106-10.8,12-8,16,6.9,29.7,15.4,14.2,18.3,19.4,44.5,4.6,22.7-12.8,148.5-100,224.6-154.4-31.5,29.6-70.5,69.2-98.1,105.3-9.8,12.9-9.1,16,5.7,33.1,14.8,17.1,18.3,18.3,31.9,4.6,13.7-13.7,92.5-83.3,163.2-113-33.1,46.8-52.5,69.6-62.8,82.2-10.3,12.5-5.7,19.1,13.7,34.2,15.7,12.3,17.4,10.4,36.7-1.9,28.5-18.1,62.1-31.1,95.5-45,1.8,22.4,12.4,48,33.1,48s117.5-52.8,207-115.1c7,9,15.1,15.7,22.4,21.4-34.4,15.6-65.6,31.2-86.9,43.5-17.3,10-19.4,9.1-11.4,26.2s4.5,18.9,18.3,20.5c115.8,14.1,161.6-22.8,161.6-59.3s-9.4-27.2-18.7-35.2c20.8-10,50.3-19.9,76-29.6,8.7,34.2,51.4,37.1,54.7,60,2.8,19.5-61.5,27.7-86.6,23.1s-16.3,9.8-1.1,22.8c16.7,14.4,20.5,23.1,55.9,20.5,50.2-3.6,99.3-22.8,99.3-54.8s-52.1-63.1-60.5-81c-6.8-14.5,14.8-21.8,42.2-17.1,10.8,13.1,8.3,13.2,32.1,9,8.3-1.4,16.6-3.1,24.8-4.9,6.2-1.5,5.6-1.5,4.2-9.2-.9-5.2-2-10.3-3.5-15.4-3.4-12-4-13.7-74.8-19.4-44.7-3.6-83.8,17.3-87.9,49.2-27,8.4-63.9,19.7-93.8,32-31.4-25.9-29.6-42.6,5.1-42.6s43.6,2.4,50.1,3.6c14.5,2.6,19.7-2.9,17.1-19.4-2.2-14.1-2-14.3-13.3-19.3-10.7-4.7-34.7-9.3-47.2-9.3-73.3,0-101.9,35-87.4,69.3-38.1,22.7-125.7,65.7-146.4,74.5-19.5,8.2-30.6,15.4-26.1-13.9,55.7-18.7,145.9-49.4,145.9-77.5s-29.7-44.5-61.6-44.5c-74.8,0-126.7,67.3-139.7,114.8-14.2,4.9-36.3,10-53,15.3,11.7-16,26.4-46.9,34.2-66.2,8-19.7,8-20-3.4-31.7-11.7-12-12.3-11.7-24-9.4-18.2,3.6-54.8,20.5-78.8,36.5,16-16,18.3-19.4,25.1-27.4,6.8-8,2.3-13.7-9.1-25.1s-13.4-17.5-23.8-10.8c-38.9,21.6-139.8,82.5-237.4,138.6,23.7-24.4,93.3-92.8,140.2-138.4,126-17.7,267.9-23.5,417.9-12.2,25.5,1.9,16-8,3.5-24-12.6-16-16-21.3-37.7-22.8-96.1-6.7-210.3-2.6-334.5,11.1,5.3-7.1,1.4-12.2-8-28.2-12.5-21.1-13.7-27.4-29.7-14.8h.2ZM1988.6,297.9c21-13.6,63.3-33.6,87.9-47.3,18.9,20.6-11.6,40.1-87.9,47.3ZM1953.6,162.7c28.6,5.7-9.9,28.8-88.6,61.2,22.3-33.5,63.6-66.2,88.6-61.2Z"/>
  <path class="st1" d="M1432.8,58.4c-8.4-21.3-9.2-21.6-20.1-21.6-140.4,0-266.1,14.8-393,37.7-22.7,4.1-19.3,8.2-10.5,26.2,9,18.3,15.9,18.7,25,17.3,16.8-2.7,33.5-5.6,50.2-8.7-19.4,17.2-38.4,35-56.8,53.3-20.3,2.8-40.5,6.2-60.5,10.3-19.5,4-17.5,5.5-10.8,24.9,5,14.7,8.3,19.9,16.5,18.5l3.3-.5c-41.2,44.1-80.2,90-107.8,127.7-9.9,13.6-11.5,20.6-2.6,45.3,10.5,29.3,14.6,30.7,27.1,14.3,36.1-47.5,105.1-127.8,172.5-198.3,43.4-3.2,89.4-5.6,148.4-3.2,18.4.7,17.9-5.8,8.8-30.1-8-21-10-22.7-21.4-22.6-22.2.2-51.9,1.5-84.6,4.1,24.6-24,47.7-44.8,67.3-60.3,36.1-4.1,87.7-8.1,126.9-7.8,9,16.1,14.7,16.1,29.6,14,14.9-2.2,54.3-6.4,76.6-10.8,23.9-4.7,24.9-7,16-29.7h0Z"/>
  <path class="st0" d="M434.2,86.5c35.5.6,35.1,2.4,58.4-12.6,15.9-10.1,31.6-20.8,46.8-32,23.8-17.4,26.2-24.8-16-34.2-34.3-7.7-44.7-10.4-81,10.3-50.6,28.8-198.6,132.4-349.2,276.2-38.8,6.8-70.8,21.7-83.3,30.8-12.6,9.1-13.5,11.5-1.1,29.7,16.8,24.9,17.5,25.4,45.4,12,14.8-7.1,36.8-20,56.2-34.8,85.6-16,276.2-17.1,511.3,49.1,20.8,5.8,26.6,9.1,11.4-24-14.6-31.7-12.8-30-53.6-39.9-151.7-37.1-313.9-42.2-407.5-33.1,94.7-78.7,168.7-141.5,262.3-197.4h-.1Z"/>
  <path class="st0" d="M653.4,35.1c-16.7,4.4-66.2,19.4-87.9,26.2s-23.8,6.9-22.8,27.4c1.1,25.1,3.4,25.1,18.3,19.4,14.8-5.7,87-28.1,107.9-34.1,16-4.6,16.3-9,13.7-24-3.8-22.3-7.4-20.7-29.1-15h-.1ZM484.8,122.4c-16.3,12.8-79.6,68.5-116.4,110.4-10.1,11.5-10.3,7.7-.9,36.8,4.5,13.8,8.6,34.3,28.2,12,19.7-22.3,107.9-95.9,125-109.6s17.3-16.4,2.6-41.9c-16.3-28.2-22.3-20.6-38.5-7.7h0Z"/>
  <path class="st0" d="M828.7,0c-46.2,2.6-81.3,27.4-131.8,71.9-26,22.8-51.3,46.4-76,70.7-30.1-7.9-55.7-16.1-61-18.5-7.7-3.4-12-2.6-10.3,8.6,2.5,16.6,6.9,32.6,36.4,45.3-23.8,24.9-46.8,50.6-69,77.1-9.5,11.3-9.4,12.8,3.4,32.5,11.8,18.1,18.1,14.7,25.7,6.9,25.6-26.8,59.4-63.6,97-100.8,24.4,5.2,52.4,8.4,68.1,10.4-6.3,7.9-12.4,16.1-18.1,24.5-10.4,15.2-8.6,25.7,2.6,43.7,11.1,18,24.8,33.4,65.9,17.1,41.1-16.3,77-41.1,85.6-54.8s9.4-16.3-12-10.3-48.8,18.8-91.6,24.8c6-11.5,17.2-25.8,30.4-40.2,36.1,1.6,88.8.9,132.2-20.5,27.8-13.7,22.3-38.5,6-62.5s-32.5-41.1-82.2-20.5c-28.5,11.8-57.9,33.8-84.4,60.1-19.7-2.3-48-5.6-63.6-8.8,34.5-31.5,70.8-60.7,106.2-81.3,34.9-20.3,53.9-17.1,60.8-.9,4.6,11,13.2,14.7,22.3,7.7,9.4-7.3,15.8-20.5,15-34.2-2-31.4-21.9-49.9-57.8-47.9h.2ZM856.9,135.8c32.5-13.7,50.1,13.3,15.3,21.7-18.3,4.4-36.8,9.1-55.9,10.3,15.7-13.6,32.6-28.7,40.6-32.1h0ZM1574.4,19.1c-4.9,3.9-26.1,25.4-54.3,54.7-37.2,5.3-75.1,11.5-113.5,18.4-27.3,4.9-21.6,10.2-16,28.5,4.6,14.8,8.4,20.8,24,17.1,14-3.3,28.4-6.5,43.1-9.5-48.2,28.5-128.9,71.2-200.3,112.2,24.7-25.5,50.2-50.3,76.5-74.2,11.4-10.3,8-13.7-3.4-33.1-12.4-21.1-13.7-27.4-29.7-14.8s-95.9,97-139.2,145c-10.8,12-6.8,21.7,8,36.5s18.3,19.4,44.5,4.6c25.6-14.5,143.8-84.4,212.7-132.3-42.4,45-81.7,87.2-98.8,106-10.8,12-8,16,6.8,29.7,15.4,14.2,18.3,19.4,44.5,4.6,22.7-12.8,148.5-100,224.6-154.4-31.5,29.6-70.5,69.2-98.1,105.3-9.9,12.9-9.1,16,5.7,33.1s18.3,18.3,32,4.6c13.7-13.7,92.4-83.3,163.2-113-33.1,46.8-52.5,69.6-62.7,82.2-10.3,12.6-5.7,19.1,13.7,34.3,15.8,12.3,17.4,10.4,36.7-1.9,28.5-18.1,62.1-31.1,95.5-45,1.8,22.4,12.4,48,33.1,48s117.5-52.8,207-115.2c7,9,15.1,15.7,22.4,21.4-34.4,15.6-65.6,31.2-86.9,43.5-17.3,10-19.4,9.1-11.4,26.2s4.5,18.9,18.3,20.5c115.8,14.1,161.6-22.8,161.6-59.3s-9.4-27.2-18.7-35.2c20.8-10,50.3-19.9,76-29.6,8.7,34.1,51.5,37.1,54.7,60,2.8,19.5-61.5,27.7-86.6,23.1s-16.3,9.8-1.1,22.8c16.7,14.4,20.5,23,55.9,20.5,50.2-3.6,99.3-22.8,99.3-54.8s-52.1-63-60.5-81c-6.8-14.5,14.9-21.8,42.2-17.1,10.9,13.1,8.3,13.2,32.1,9,8.3-1.4,16.6-3.1,24.8-4.9,6.2-1.5,5.6-1.5,4.2-9.2-.9-5.2-2-10.3-3.5-15.4-3.4-12-4-13.7-74.8-19.4-44.7-3.6-83.8,17.3-87.9,49.2-27,8.4-63.9,19.7-93.8,32-31.4-25.9-29.6-42.6,5.1-42.6s43.6,2.4,50.1,3.6c14.5,2.6,19.7-2.9,17.1-19.4-2.2-14.1-2-14.3-13.3-19.3-10.7-4.7-34.7-9.3-47.2-9.3-73.3,0-101.9,35-87.4,69.3-38.1,22.7-125.7,65.8-146.4,74.5-19.5,8.2-30.6,15.4-26.1-13.8,55.7-18.8,145.9-49.4,145.9-77.5s-29.7-44.5-61.6-44.5c-74.9,0-126.7,67.3-139.7,114.8-14.2,4.9-36.3,10-53,15.3,11.7-16,26.4-46.9,34.3-66.2,8-19.7,8-20-3.5-31.7-11.7-12-12.3-11.7-24-9.4-18.2,3.6-54.8,20.5-78.7,36.5,16-16,18.3-19.4,25.1-27.4,6.8-8,2.3-13.7-9.1-25.1s-13.4-17.5-23.8-10.8c-38.9,21.6-139.8,82.5-237.4,138.6,23.7-24.4,93.3-92.8,140.2-138.4,126-17.7,267.9-23.5,417.9-12.2,25.4,1.9,16-8,3.4-24s-16-21.3-37.7-22.8c-96.1-6.7-210.3-2.6-334.5,11.1,5.3-7.1,1.5-12.2-8-28.2-12.5-21.1-13.7-27.4-29.7-14.8h0ZM1983.4,277.7c21-13.6,63.3-33.6,87.9-47.3,18.9,20.6-11.6,40.1-87.9,47.3h0ZM1948.4,142.5c28.6,5.7-9.9,28.8-88.6,61.2,22.3-33.5,63.6-66.2,88.6-61.2Z"/>
  <path class="st0" d="M1427.6,38.2c-8.3-21.3-9.2-21.7-20.1-21.7-140.4,0-266.1,14.8-393,37.7-22.7,4.1-19.3,8.3-10.5,26.2,9,18.3,15.9,18.8,25,17.3,15.5-2.4,32.4-5.4,50.2-8.7-19.4,17.2-38.4,35-56.8,53.3-20.3,2.8-40.5,6.2-60.5,10.3-19.5,4-17.5,5.5-10.8,24.9,5,14.7,8.3,19.9,16.5,18.5l3.3-.5c-41.2,44.1-80.2,90-107.8,127.7-9.9,13.6-11.5,20.6-2.6,45.3,10.5,29.3,14.6,30.7,27.1,14.3,36.1-47.5,105.1-127.8,172.5-198.3,43.4-3.2,89.4-5.6,148.4-3.2,18.4.8,18-5.8,8.8-30-8-21-10-22.7-21.4-22.6-22.2.2-51.9,1.5-84.6,4.1,24.6-24,47.7-44.8,67.3-60.3,36.1-4.1,87.7-8.1,126.9-7.8,9,16.1,14.7,16.1,29.5,13.9,14.9-2.2,54.3-6.3,76.6-10.7,23.9-4.7,24.9-7,16-29.7h0Z"/>
  <path class="st1" d="M1118.6,440.3c-3,4.2-8.5,10.6-12.9,10.6s-5.2-2.9-5.2-8.1c0-8.1,5-48.2,6.7-53-2.4.7-4.6,1.3-7,1.9v-2.2l16.3-7.6c-2.7,13-7.6,51.4-7.6,58s.7,3.9,2,3.9,2.9-1.5,6.3-5l1.4,1.4h0ZM1114.4,356.4c1.7,0,4.8,1,4.8,6.4s-2.1,6.9-5.5,6.9-5-1.1-5-6.2,2.9-7.1,5.8-7.1h-.1ZM1187.3,441.9c-3.9,4-8.5,9-13.7,9s-5.5-4.5-5.5-9.7c0-9.2,6.2-41.5,6.2-46s-.7-2.1-1.5-2.1c-8.6,0-28.6,37.2-31.5,55.5l-7.7.9c2.4-20.3,5.7-41.6,7.8-59.4-2.4.6-4.6,1.1-7,1.7v-2.2l17.1-7.6c-2.5,11.9-4.9,29-6.7,43.4h.3c5-15,21.9-42,33.4-42s5,2.1,5,6.9-6.9,41.1-6.9,49.3,1,4.3,2.7,4.3,4.3-2.1,6.3-3.9l1.8,2h-.1ZM1203.8,385.6h6l2.4-18.5,8.5-3.2-2.9,21.7h11.9v4.2h-12.5c-3.9,28.3-5,39.2-5,47.5s1.3,6.6,3.8,6.6,5.5-2.7,10.4-8.1l1.8,1.7c-4.6,6.9-9.2,13.4-16,13.4s-8.4-3.9-8.4-10.1,4.1-39.5,5.5-51h-5.5v-4.2h0ZM1275,433.4c-5.5,7.7-14.6,17.5-24.6,17.5s-14-10.6-14-20.2c0-27.3,19.5-48.8,33.4-48.8s9,4.9,9,11.3c0,14.9-18.4,27.8-32.8,31.1-.3,2.7-.5,5.3-.4,8,0,8.4,2.9,12.9,8.1,12.9s15.1-8.4,19.5-13.6l1.9,1.7h0ZM1264.5,389c-3.2,0-5.6.6-8.5,3.3-5.5,5.3-9,19.1-9.7,28.2,13.4-3.8,24-14.7,24-25.4s-2.4-6.2-5.8-6.2h0ZM1290.2,389.5l17.1-7.6c-1.9,9.8-3.6,19.6-5,29.4h.3c4.3-10.5,12.6-29.4,23.7-29.4s3.2.3,5.3.7l-1.7,8.4h-3.1c-9.7,0-16,9.8-21.7,23.1-3.8,8.7-6.6,26.2-8,34.5l-7.7.9c2.4-20.3,5.7-41.6,7.8-59.4l-7,1.7v-2.2h0ZM1383.2,442.5c-3.1,3.1-8.1,8.4-12.5,8.4s-5.2-4.8-5.2-9.5,1.4-19.1,2.5-28.6l-.3-.3c-4.9,14.6-14.6,38.4-26.7,38.4s-11.1-8.7-11.1-18.2c0-26.2,17.9-50.7,36.4-50.7s6.2.8,8.1,1.4l5.5-2.8c-2.4,16.5-6,46.8-6,59.1s.3,4.9,1.9,4.9,4.5-2.9,5.7-3.8l1.5,1.7h.2ZM1344.1,442.5c9.8,0,26.7-45.3,26.7-52.4s-4.4-1.8-7.2-1.8c-4.6,0-8.8.8-12.2,4.6-7.4,8.4-13,28.9-13,39.8s1.5,9.8,5.7,9.8h0ZM1429.8,428.9c-2.5,7.4-12.6,22-23.1,22s-14.4-12.2-14.4-24.8c0-21.6,14.7-44.1,32.2-44.1s4.4.3,6.2.8l-2.3,7.6c-2.2-.3-4.8-.8-8.5-.7-6.6,0-8.3,1-11.3,5.7-3.8,5.9-7.8,20.2-7.8,29s1.7,18.8,8,18.8,16-9.8,18.7-15.1l2.5.9h-.2ZM1445.4,385.6h6l2.4-18.5,8.6-3.2-2.9,21.7h11.9v4.2h-12.5c-3.9,28.3-5,39.2-5,47.5s1.3,6.6,3.8,6.6,5.4-2.7,10.4-8.1l1.8,1.7c-4.6,6.9-9.2,13.4-16,13.4s-8.4-3.9-8.4-10.1,4.1-39.5,5.5-51h-5.5v-4.2h-.1ZM1500.4,440.3c-3,4.2-8.6,10.6-12.9,10.6s-5.2-2.9-5.2-8.1c0-8.1,5-48.2,6.7-53-2.4.7-4.6,1.3-7,1.9v-2.2l16.3-7.6c-2.7,13-7.6,51.4-7.6,58s.7,3.9,1.9,3.9,2.9-1.5,6.3-5l1.4,1.4h0ZM1496.2,356.4c1.7,0,4.8,1,4.8,6.4s-2.1,6.9-5.5,6.9-5-1.1-5-6.2,2.9-7.1,5.8-7.1h-.1ZM1509.5,389.5l15.6-7.6c0,19.8,1.9,43.7,4.5,58.4,7.7-9.1,20.8-32.2,20.8-42.3s-1.9-5.6-7.6-8.5l5.3-7.6c4.9,1.1,10,5.2,10,10.9,0,13.5-20.5,44.3-28.7,56.6l-6,1.4c-4-18.7-7.3-53.2-7.3-60.8l-6.4,1.7v-2.2h-.2ZM1602.3,433.4c-5.5,7.7-14.6,17.5-24.7,17.5s-14-10.6-14-20.2c0-27.3,19.5-48.8,33.3-48.8s9,4.9,9,11.3c0,14.9-18.3,27.8-32.8,31.1-.3,2.7-.5,5.3-.4,8,0,8.4,2.9,12.9,8.1,12.9s15.1-8.4,19.5-13.6l2,1.7h0ZM1591.8,389c-3.2,0-5.6.6-8.6,3.3-5.5,5.3-9,19.1-9.7,28.2,13.4-3.8,24-14.7,24-25.4s-2.4-6.2-5.7-6.2h0ZM1648.5,385.6c5.6,0,8-1.8,9-11.1,1.8-20.3,12.6-27.2,22.6-27.2h2.9c-.2,2.6-.7,5.2-1.3,7.7-1.9-.3-4.2-.7-6.7-.7-5.7,0-7,2.9-8.4,13.2l-2.3,16.7h13.3v5.6h-14.1l-6.5,48.2c-3.5,26.5-7.1,31.5-20.9,36.3l-.6-2.7c7.7-3.4,11.1-11.8,12.7-27.6,2-18.2,4.9-36.5,7.2-54.2h-7v-4.2h.1ZM1699,440.3c-2.9,4.2-8.5,10.6-12.9,10.6s-5.2-2.9-5.2-8.1c0-8.1,5-48.2,6.7-53-2.4.7-4.6,1.3-7,1.9v-2.2l16.2-7.6c-2.7,13-7.5,51.4-7.5,58s.7,3.9,1.9,3.9,2.9-1.5,6.3-5l1.4,1.4h0ZM1694.8,356.4c1.7,0,4.8,1,4.8,6.4s-2.1,6.9-5.4,6.9-5-1.1-5-6.2,2.9-7.1,5.7-7.1h0ZM1714.1,385.6h6l2.4-18.5,8.5-3.2-2.9,21.7h11.9v4.2h-12.5c-3.9,28.3-5,39.2-5,47.5s1.2,6.6,3.8,6.6,5.5-2.7,10.4-8.1l1.8,1.7c-4.6,6.9-9.2,13.4-16,13.4s-8.4-3.9-8.4-10.1,4-39.5,5.5-51h-5.5v-4.2h0ZM1806.6,441.9c-3.9,4-8.6,9-13.7,9s-5.5-4.5-5.5-9.7c0-9.2,6.2-41.5,6.2-46s-.7-2.1-1.5-2.1c-8.5,0-28.6,37.2-31.5,55.5l-7.7.9c2.4-20.3,5.7-41.6,7.8-59.4l-7,1.7v-2.2l17.1-7.6c-2.5,11.9-4.9,29-6.7,43.4h.3c5-15,21.9-42,33.4-42s5,2.1,5,6.9-6.9,41.1-6.9,49.3,1,4.3,2.7,4.3,4.3-2.1,6.3-3.9l1.9,2h-.2ZM1855.4,433.4c-5.5,7.7-14.6,17.5-24.7,17.5s-14-10.6-14-20.2c0-27.3,19.5-48.8,33.3-48.8s9,4.9,9,11.3c0,14.9-18.4,27.8-32.8,31.1-.3,2.7-.5,5.3-.4,8,0,8.4,2.9,12.9,8.1,12.9s15.1-8.4,19.5-13.6l2,1.7h0ZM1844.9,389c-3.2,0-5.6.6-8.6,3.3-5.5,5.3-9,19.1-9.7,28.2,13.5-3.8,24-14.7,24-25.4s-2.4-6.2-5.8-6.2h0ZM1901.1,391.8c-3.9-1.3-8-2.8-13.6-2.8s-14.3,1.8-14.3,9.1,26.2,18.9,26.2,31.4-12.2,21.5-23.7,21.5-9.5-.8-13.3-3.4l1.4-8c3.4,1.8,7.8,4.3,14.7,4.3s14.6-3.9,14.6-10.2c0-11.1-26.2-19.3-26.2-31.5s12.9-20.2,23-20.2,9.2.8,11.2,2.2v7.6h0ZM1947.7,391.8c-3.9-1.3-8-2.8-13.6-2.8s-14.3,1.8-14.3,9.1,26.2,18.9,26.2,31.4-12.2,21.5-23.7,21.5-9.5-.8-13.3-3.4l1.4-8c3.4,1.8,7.8,4.3,14.7,4.3s14.6-3.9,14.6-10.2c0-11.1-26.2-19.3-26.2-31.5s12.9-20.2,23-20.2,9.2.8,11.2,2.2v7.6h0ZM2029.4,391.8c-3.9-1.3-8-2.8-13.6-2.8s-14.3,1.8-14.3,9.1,26.2,18.9,26.2,31.4-12.2,21.5-23.7,21.5-9.5-.8-13.3-3.4l1.4-8c3.4,1.8,7.8,4.3,14.7,4.3s14.6-3.9,14.6-10.2c0-11.1-26.2-19.3-26.2-31.5s12.9-20.2,23-20.2,9.2.8,11.2,2.2v7.6h0ZM2069.3,382c11.9,0,15.3,12.2,15.3,22.7,0,19.6-11.4,46.3-31.3,46.3s-14.9-11.5-14.9-20.8c0-15.4,10.6-48.2,30.8-48.2h0ZM2057.4,445.3c3.2,0,6-1.1,8.4-3.5,7.3-7.3,10.4-32.7,10.4-38.2,0-11.1-4.6-15.3-10.5-15.3s-7.6,1.9-11.8,10.4c-3.5,7-7,21-7,29.9-.1,9.1,3,16.8,10.5,16.8h0ZM2117.1,440.4c-5.6,6.7-10.5,10.5-13.9,10.5s-5-1.9-5-9.1.2-9,1-15.3l9-72.3c-2.3.9-4.6,1.5-7,2v-2.3c4.8-1.8,11.8-4.9,16.4-7.5l-10,75.1c-.6,4.9-1.5,14.3-1.5,18.1s.8,4.3,1.8,4.3,2.3-.8,7.1-5.2l2.1,1.7h0ZM2185.1,441c-4.5,4.9-8.1,10-13.2,10s-6.4-3.2-6.4-10.6,1.1-15.9,2.4-24.1l-.3-.3c-9.8,24.2-17.7,35-28.2,35s-7.7-3.4-7.7-9.8c0-13.4,6.5-47.1,6.5-51l-7,1.7v-2.2l17.1-7.6c-3.2,13.7-8.1,50.5-8.1,55.8s1.1,4.8,3.1,4.8c11.5,0,25.2-35.6,29.2-56.6l8.1-2.5c-2.7,15.8-6.6,43.9-6.6,56.5s.4,4.8,1.7,4.8c2.1,0,5-3.5,7.1-5.6l2.4,1.9h0v-.2ZM2200.7,385.6h6l2.4-18.5,8.5-3.2-2.9,21.7h11.9v4.2h-12.5c-3.9,28.3-5,39.2-5,47.5s1.3,6.6,3.8,6.6,5.5-2.7,10.4-8.1l1.8,1.7c-4.6,6.9-9.2,13.4-16,13.4s-8.4-3.9-8.4-10.1,4-39.5,5.5-51h-5.5v-4.2h0ZM2255.6,440.3c-2.9,4.2-8.5,10.6-12.9,10.6s-5.2-2.9-5.2-8.1c0-8.1,5.1-48.2,6.7-53-2.4.7-4.6,1.3-7,1.9v-2.2l16.3-7.6c-2.7,13-7.6,51.4-7.6,58s.7,3.9,2,3.9,2.9-1.5,6.3-5l1.4,1.4h0ZM2251.4,356.4c1.7,0,4.8,1,4.8,6.4s-2.1,6.9-5.5,6.9-5-1.1-5-6.2,2.9-7.1,5.8-7.1h-.1ZM2295.1,382c11.9,0,15.3,12.2,15.3,22.7,0,19.6-11.3,46.3-31.2,46.3s-14.9-11.5-14.9-20.8c0-15.4,10.6-48.2,30.8-48.2h0ZM2283.2,445.3c3.2,0,6.2-1.2,8.4-3.5,7.3-7.3,10.4-32.7,10.4-38.2,0-11.1-4.6-15.3-10.5-15.3s-7.5,1.9-11.8,10.4c-3.5,7-7,21-7,29.9-.1,9.1,2.9,16.8,10.5,16.8h0ZM2378.8,441.9c-3.9,4-8.5,9-13.7,9s-5.5-4.5-5.5-9.7c0-9.2,6.2-41.5,6.2-46s-.7-2.1-1.5-2.1c-8.6,0-28.6,37.2-31.5,55.5l-7.7.9c2.4-20.3,5.7-41.6,7.8-59.4-2.4.6-4.6,1.1-7,1.7v-2.2l17.1-7.6c-2.5,11.9-4.9,29-6.7,43.4h.3c5-15,21.9-42,33.4-42s5,2.1,5,6.9-6.9,41.1-6.9,49.3,1,4.3,2.7,4.3,4.4-2.1,6.3-3.9l1.8,2h-.1ZM2426.4,391.8c-3.9-1.3-8-2.8-13.6-2.8s-14.3,1.8-14.3,9.1,26.2,18.9,26.2,31.4-12.2,21.5-23.7,21.5-9.5-.8-13.3-3.4l1.4-8c3.4,1.8,7.8,4.3,14.7,4.3s14.6-3.9,14.6-10.2c0-11.1-26.2-19.3-26.2-31.5s12.9-20.2,23-20.2,9.2.8,11.2,2.2v7.6h0Z"/>
</svg>