<?xml version="1.0" encoding="UTF-8"?>
<svg id="_Слой_1" data-name="Слой_1" xmlns="http://www.w3.org/2000/svg" version="1.1" viewBox="0 0 2471.2 532">
  <!-- Generator: Adobe Illustrator 29.5.1, SVG Export Plug-In . SVG Version: 2.1.0 Build 141)  -->
  <defs>
    <style>
      .st0 {
        fill: #0076c0;
      }
    </style>
  </defs>
  <path class="st0" d="M234.7,220c78.8-64.8,169.9-84.5,196-55.8,47,51.7-65.4,156.4-121.5,193.7-123.5,81.9-251.5,104.9-293,53.7-42.5-52.4-3.6-161.3,145.6-277.2C301.4,26,550.2-41.4,631.2,28.6c81.5,70.5,6.7,261.7-234.6,391.8-148.7,80.2-354.4,112.2-356.7,111.6,10.6-1.2,201.8-45.4,331.6-134.6,118.6-81.3,225.8-218.9,158.4-293.4-48.8-54-200.2-30.6-334.2,62.5-86.7,60.1-150.6,145.3-118,192.9,24,34.9,106.7,38.3,203.9-30.7,45.6-32.4,86-78.4,71.5-102.2-13.1-21.4-59.3-12.4-96.4,5.8-52.5,25.8-98.1,72-98.1,72,0,0,19.2-37.6,76-84.3"/>
  <path d="M1222.6,252.7h75.7l-21.6,102c-7.6,35.5,2.5,46.6,26.1,46.6s38.4-11.1,45.9-46.6l21.7-102h74.2l-23.1,108.7c-6.3,29.3-14.5,41.6-29.4,54.3-23,19.6-57.2,27.8-99.1,27.8s-72.7-8.2-87.3-27.8c-9.4-12.6-12.5-25-6.2-54.3l23.1-108.7ZM1670.5,252.7h78.2l-39.5,185.9h-78.3l39.5-185.9ZM1508.7,298.1h-54.7l9.6-45.4h185.7l-9.6,45.4h-52.7l-29.8,140.6h-78.4l29.9-140.6ZM2471.2,415.4c0,14.4-11.6,25.8-25.6,25.8-14.2-.1-25.6-11.6-25.7-25.8,0-14.4,12-25.7,25.7-25.7,14.1,0,25.6,11.4,25.6,25.5,0,0,0,0,0,.1M2423,415.4c0,12.8,10.3,22.9,22.6,22.9s22.6-10.2,22.6-22.9c0-12.4-10.1-22.5-22.6-22.5-12.4,0-22.5,10.1-22.6,22.5M2436.3,401.4h9.7c2.1,0,9.4,0,9.4,6.9l-5.1,6.7,4.2,5.3,1.7,8.7h-4l-1.3-7.2-5.9-5.3h-4.8v12.5h-3.7v-27.6h0ZM2440,413.2h6l5.4-4.1-5.4-4.4h-6v8.5ZM1792.9,252.5h78.3l-29.8,140.7h69.5l-9.6,45.3h-147.9l39.5-186ZM1957.5,252.5h75.7l-21.7,102.1c-7.5,35.5,2.5,46.6,26.2,46.6s38.4-11.1,46-46.6l21.7-102.1h74.2l-23.1,108.7c-6.3,29.4-14.5,41.8-29.4,54.4-22.9,19.5-57.1,27.8-99.2,27.8s-72.7-8.3-87.3-27.8c-9.5-12.6-12.5-25-6.3-54.4l23.1-108.7ZM2262.7,378.8c-2,10.3-1.5,17.8,2.3,22.6,4.1,4.9,10.6,7.5,20.8,7.5,16.3,0,34.5-3.9,37.8-18.8l-1.6-8.5c-8-11.8-95-20.6-115.4-42.5-8.3-8.7-8.5-21.9-6.2-32.5,8.7-40.6,49.9-59,124.3-59s98.4,21.9,91.2,60.3h-76.7c1.7-10.3-.3-16.7-5.1-20.6-4.6-3.9-12.1-5.1-21.8-5.1-16.5,0-26.6,6.2-28.6,15.8l1.5,8.4c9.7,11.6,94,19.8,114,42,5.9,6.4,11.2,16.5,7.4,34.5-7.8,36.8-45.4,60.5-130.1,60.5s-99.5-30.2-93.7-64.7h79.9ZM733.8,301.2h-.6c0-.1-29.2,137-29.2,137h-68l39.5-186h113.2l31.8,109.3c1.8,5.7,3.6,13.5,4.2,23.3h.5c0,0,28.3-132.6,28.3-132.6h68l-39.5,186h-111l-34.3-118.4c-1.4-5.2-2.8-14.2-2.9-18.6M1032.9,252.2h97.6l55.2,186h-86.3l-7.1-30.9h-96.1l-21,30.9h-76.8l134.3-186ZM1068.9,298.9h-.8l-12.2,20.4-32.1,47.3h59l-11.9-51.5-2-16.1Z"/>
  <path class="st0" d="M526.3,415.6c0,14.2-11.4,25.7-25.6,25.8-14.2,0-25.6-11.6-25.7-25.8,0-14.4,11.9-25.6,25.7-25.6,14.1,0,25.6,11.4,25.6,25.6,0,0,0,0,0,0M478,415.6c0,12.5,10,22.7,22.5,22.8,0,0,0,0,.1,0,12.5-.4,22.4-10.8,22-23.4-.4-12-10-21.6-22-22-12.5,0-22.5,10.1-22.6,22.6M491.3,401.6h9.8c2.1,0,9.4,0,9.4,6.9s0,5.2-5.2,6.7l4.2,5.3,1.6,8.7h-3.9l-1.4-7.2-6-5.3h-4.7v12.5h-3.8v-27.6ZM495.1,413.4h6l5.4-4.2-5.4-4.4h-6v8.5Z"/>
</svg>