<?xml version="1.0" encoding="UTF-8"?>
<svg id="_Слой_1" xmlns="http://www.w3.org/2000/svg" version="1.1" viewBox="0 0 2426.5 305.8">
  <!-- Generator: Adobe Illustrator 29.5.1, SVG Export Plug-In . SVG Version: 2.1.0 Build 141)  -->
  <defs>
    <style>
      .st0 {
        fill: #272727;
        fill-rule: evenodd;
      }
    </style>
  </defs>
  <path class="st0" d="M134.4,0l72.1,158.2,8.8-65L231.1,0h86.1l-48.3,299.7h-86.1l-72.9-167.9-23.7,167.9H0L48.4,0h86.1,0ZM536.9,196c-13.2,72.9-58,109.8-136.2,109.8s-58-8.8-75.6-26.3c-19.3-19.4-25.5-44-21.1-77.3,13.2-73.8,58.9-109.9,136.2-109.9s61.5,8.8,79.1,27.2c17.6,19.3,23.7,45.7,17.6,76.5h0ZM431.5,145c-22.9,0-37.8,17.6-44.8,51-6.1,36.9,2.6,55.4,24.6,55.4s37.8-18.4,45.7-55.4c5.3-35.2-3.5-52.7-25.5-51h0ZM695.1,171.4c-33.4,0-53.6,18.5-61.5,58l-11.4,70.3h-79.1l35.2-202.1h72.9l-7,41.3c17.6-30.8,41.3-46.6,72.1-46.6l8.8.9-13.2,79.1-16.7-.9h0ZM982.5,0l-50.1,299.7h-71.2l4.4-26.4c-22,22-43.9,32.5-69.4,32.5s-51-10.5-64.2-29c-11.4-19.3-14.9-43.9-8.8-73.8,4.4-33.4,17.6-61.5,39.5-81.7,19.3-19.3,41.3-29,65.9-29s43.9,8.8,55.4,26.4L900.7.1h81.8ZM872.7,200.4c4.4-30.8-4.4-46.6-26.4-46.6s-36.9,15.8-43.9,48.4c-4.4,30.8,4.4,44.8,24.6,44.8s38.7-15.8,45.7-46.6h0ZM971.1,299.7l35.1-202.1h80l-36,202.1h-79.1ZM1219.8,145c-23.7,0-37.8,18.5-45.7,57.1-5.3,33.4,3.5,49.2,26.4,49.2s30.8-9.6,36.9-29h81.7c-15.8,55.4-59.8,83.5-128.3,83.5s-60.6-8.8-78.2-26.3c-17.6-19.4-22.9-45.7-18.4-79.1,5.3-33.4,22-59.8,46.6-80.9,24.6-18.5,55.4-27.2,89.6-27.2,68.5,0,101.1,27.2,96.7,81.7h-83.5c.9-8.8,0-15.8-4.4-20.2-3.5-6.1-8.8-8.8-19.4-8.8h0Z"/>
  <path class="st0" d="M1248.8,61.5L1262,0h324.3l-13.2,61.5h-114.3l-35.1,238.2h-92.3l35.2-238.2h-117.8,0Z"/>
  <path class="st0" d="M1626.7,172.2l-14.1-.9c-34.3,0-54.5,18.5-61.5,58l-12.3,70.3h-81.7l36.9-202.1h73l-7,41.3c17.6-30.8,40.4-46.6,71.2-46.6l10.6.9-14.9,79.1h-.2ZM1861.4,175.8l-15.8,94.9c-1.8,10.5,0,19.3,5.3,24.6v4.4h-83.5v-20.2c-24.6,17.6-51,26.3-81.7,26.3-48.3,0-68.5-20.2-59.8-61.5,4.4-35.2,31.6-57.1,83.5-64.2l49.2-7.9c16.7-2.6,25.5-8.8,26.4-15.8,1.8-11.4-7-17.6-22.9-17.6s-29.9,7-34.3,20.2h-77.4c8.8-44.8,50.1-66.8,123.1-66.8s72,7,85.2,22.9c7,10.6,8.8,30.8,2.7,60.7h0ZM1729.5,260.1c26.4,0,41.3-17.6,45.7-51l-43.1,13.2c-14.1,4.4-22,10.6-22.9,20.2-3.5,12.3,4.4,17.6,20.2,17.6h.1ZM2026.6,153.8c-2.6-6.1-8.8-8.8-18.4-8.8-22,0-38.7,18.5-45.7,57.1-4.4,33.4,4.4,49.2,26.3,49.2s30.8-9.6,37.8-29h80.9c-15.8,55.4-58.9,83.5-127.4,83.5s-59.8-8.8-76.5-26.3c-18.4-19.4-26.4-45.7-20.2-79.1,4.4-33.4,20.2-59.8,45.7-80.9,24.6-18.5,55.4-27.2,88.8-27.2,69.4,0,101.1,27.2,96.7,81.7h-81.7c1.5-7.3-.8-15-6.1-20.2h-.2ZM2250.7,0l-22.9,159.1,61.5-61.5h93.1l-87.9,78.2,61.5,123.9h-96.7l-30.8-71.2-15.8,14.1-11.4,57.1h-79.1L2170.5,0h80.2ZM2415,90.5l-6.2-15.8v15.8h-4.4v-19.3h6.2l4.4,13.2,6.2-13.2h5.3v19.3h-4.4v-15.8l-5.3,15.8h-1.8ZM2386,74.7v-3.5h15.8v3.5h-6.2v15.8h-4.4v-15.8h-5.3,0Z"/>
</svg>