<?xml version="1.0" encoding="UTF-8"?>
<svg xmlns="http://www.w3.org/2000/svg" xmlns:xlink="http://www.w3.org/1999/xlink" width="382.41pt" height="59.74pt" viewBox="0 0 382.41 59.74" version="1.1">
<defs>
<clipPath id="clip1">
  <path d="M 13 0 L 45 0 L 45 59.738281 L 13 59.738281 Z M 13 0 "/>
</clipPath>
<clipPath id="clip2">
  <path d="M 52 0 L 112 0 L 112 59.738281 L 52 59.738281 Z M 52 0 "/>
</clipPath>
<clipPath id="clip3">
  <path d="M 210 0 L 262 0 L 262 59.738281 L 210 59.738281 Z M 210 0 "/>
</clipPath>
<clipPath id="clip4">
  <path d="M 255 0 L 314 0 L 314 59.738281 L 255 59.738281 Z M 255 0 "/>
</clipPath>
<clipPath id="clip5">
  <path d="M 107 0 L 167 0 L 167 59.738281 L 107 59.738281 Z M 107 0 "/>
</clipPath>
<clipPath id="clip6">
  <path d="M 309 0 L 369 0 L 369 59.738281 L 309 59.738281 Z M 309 0 "/>
</clipPath>
<clipPath id="clip7">
  <path d="M 30 0 L 66 0 L 66 59.738281 L 30 59.738281 Z M 30 0 "/>
</clipPath>
<clipPath id="clip8">
  <path d="M 0 0 L 27 0 L 27 59.738281 L 0 59.738281 Z M 0 0 "/>
</clipPath>
<clipPath id="clip9">
  <path d="M 164 0 L 217 0 L 217 59.738281 L 164 59.738281 Z M 164 0 "/>
</clipPath>
<clipPath id="clip10">
  <path d="M 371 0 L 382.410156 0 L 382.410156 11 L 371 11 Z M 371 0 "/>
</clipPath>
</defs>
<g id="surface1">
<g clip-path="url(#clip1)" clip-rule="nonzero">
<path style=" stroke:none;fill-rule:nonzero;fill:rgb(0%,67.498779%,80.39856%);fill-opacity:1;" d="M 34.96875 9.015625 C 35.808594 4.65625 39.714844 0.996094 44.074219 0.175781 C 44.671875 0.0625 44.246094 0.00390625 44.0625 0.00390625 C 43.878906 0.00390625 34.300781 0.00390625 34.300781 0.00390625 C 29.246094 0.00390625 24.335938 4.058594 23.378906 9.015625 L 13.558594 59.738281 L 15.976563 59.738281 C 21.023438 59.738281 25.9375 55.710938 26.894531 50.757813 L 34.96875 9.015625 "/>
</g>
<g clip-path="url(#clip2)" clip-rule="nonzero">
<path style=" stroke:none;fill-rule:nonzero;fill:rgb(25.498962%,25.099182%,25.898743%);fill-opacity:1;" d="M 103.601563 0.0078125 L 73.003906 0.0078125 C 67.957031 0.0078125 63.046875 4.058594 62.089844 9.015625 L 52.265625 59.738281 L 58.550781 59.738281 C 63.605469 59.738281 68.511719 55.707031 69.46875 50.757813 L 76.800781 12.867188 L 76.800781 12.859375 C 77.042969 11.617188 78.269531 10.605469 79.527344 10.605469 L 93.945313 10.605469 C 95.207031 10.605469 96.042969 11.617188 95.808594 12.859375 L 93.410156 25.25 C 93.171875 26.488281 91.949219 27.5 90.679688 27.5 L 76.304688 27.5 L 76.015625 29.015625 C 75.054688 33.96875 78.402344 38.027344 83.449219 38.027344 L 96.25 38.027344 C 101.292969 38.027344 106.207031 33.96875 107.164063 29.015625 L 111.039063 9.015625 C 111.996094 4.058594 108.644531 0.0078125 103.601563 0.0078125 "/>
</g>
<g clip-path="url(#clip3)" clip-rule="nonzero">
<path style=" stroke:none;fill-rule:nonzero;fill:rgb(25.498962%,25.099182%,25.898743%);fill-opacity:1;" d="M 249.78125 58.128906 C 250.738281 53.171875 247.394531 49.117188 242.34375 49.117188 L 228.832031 49.117188 C 227.566406 49.117188 226.726563 48.105469 226.972656 46.867188 L 233.542969 12.867188 L 233.546875 12.859375 C 233.785156 11.617188 235.015625 10.605469 236.273438 10.605469 L 249.792969 10.605469 C 254.839844 10.605469 259.753906 6.546875 260.707031 1.589844 L 261.019531 0.0078125 L 229.75 0.0078125 C 224.703125 0.0078125 219.792969 4.058594 218.832031 9.015625 L 210.800781 50.730469 C 209.84375 55.6875 213.1875 59.738281 218.234375 59.738281 L 249.46875 59.738281 L 249.78125 58.128906 "/>
</g>
<g clip-path="url(#clip4)" clip-rule="nonzero">
<path style=" stroke:none;fill-rule:nonzero;fill:rgb(25.498962%,25.099182%,25.898743%);fill-opacity:1;" d="M 305.746094 0.0078125 L 274.183594 0.0078125 C 269.132813 0.0078125 264.226563 4.058594 263.261719 9.015625 L 255.230469 50.730469 C 254.273438 55.6875 257.621094 59.738281 262.667969 59.738281 L 294.195313 59.738281 C 299.238281 59.738281 304.15625 55.6875 305.113281 50.730469 L 313.179688 9.015625 C 314.132813 4.058594 310.789063 0.0078125 305.746094 0.0078125 M 271.402344 46.867188 L 277.980469 12.859375 C 278.214844 11.617188 279.449219 10.605469 280.710938 10.605469 L 295.132813 10.605469 C 296.394531 10.605469 297.230469 11.617188 296.992188 12.859375 L 290.417969 46.867188 C 290.175781 48.105469 288.949219 49.117188 287.6875 49.117188 L 273.257813 49.117188 C 271.996094 49.117188 271.164063 48.105469 271.402344 46.867188 "/>
</g>
<g clip-path="url(#clip5)" clip-rule="nonzero">
<path style=" stroke:none;fill-rule:nonzero;fill:rgb(25.498962%,25.099182%,25.898743%);fill-opacity:1;" d="M 161.980469 29.015625 L 165.851563 9.015625 C 166.8125 4.058594 163.46875 0.00390625 158.417969 0.00390625 L 127.824219 0.00390625 C 122.773438 0.00390625 117.867188 4.058594 116.910156 9.015625 L 107.085938 59.738281 L 122.546875 59.738281 L 131.625 12.859375 C 131.859375 11.617188 133.085938 10.601563 134.351563 10.601563 L 148.765625 10.601563 C 150.03125 10.601563 150.863281 11.617188 150.625 12.859375 L 148.230469 25.25 C 147.992188 26.488281 146.761719 27.5 145.5 27.5 L 131.121094 27.5 L 130.828125 29.015625 C 130.632813 30.054688 130.457031 32.15625 131.316406 33.796875 L 146.039063 59.738281 L 162.550781 59.738281 L 150.226563 38.027344 L 151.0625 38.027344 C 156.109375 38.027344 161.023438 33.96875 161.980469 29.015625 "/>
</g>
<g clip-path="url(#clip6)" clip-rule="nonzero">
<path style=" stroke:none;fill-rule:nonzero;fill:rgb(25.498962%,25.099182%,25.898743%);fill-opacity:1;" d="M 364.125 29.015625 L 368.007813 9.015625 C 368.957031 4.058594 365.613281 0.00390625 360.5625 0.00390625 L 329.96875 0.00390625 C 324.921875 0.00390625 320.007813 4.058594 319.046875 9.015625 L 309.230469 59.738281 L 324.695313 59.738281 L 333.765625 12.859375 C 334.003906 11.617188 335.234375 10.601563 336.492188 10.601563 L 350.917969 10.601563 C 352.179688 10.601563 353.011719 11.617188 352.769531 12.859375 L 350.378906 25.25 C 350.132813 26.488281 348.910156 27.5 347.648438 27.5 L 333.269531 27.5 L 332.976563 29.015625 C 332.773438 30.054688 332.605469 32.15625 333.460938 33.796875 L 348.1875 59.738281 L 364.695313 59.738281 L 352.371094 38.027344 L 353.207031 38.027344 C 358.257813 38.027344 363.167969 33.96875 364.125 29.015625 "/>
</g>
<g clip-path="url(#clip7)" clip-rule="nonzero">
<path style=" stroke:none;fill-rule:nonzero;fill:rgb(0%,39.599609%,58.399963%);fill-opacity:1;" d="M 56.257813 9.015625 C 57.09375 4.675781 60.960938 1.03125 65.296875 0.1875 C 65.914063 0.0664063 65.558594 0.00390625 65.335938 0.00390625 C 65.109375 0.00390625 51.71875 0.00390625 51.71875 0.00390625 C 46.667969 0.00390625 41.761719 4.058594 40.800781 9.015625 L 30.980469 59.738281 L 37.261719 59.738281 C 42.316406 59.738281 47.226563 55.710938 48.183594 50.757813 L 56.257813 9.015625 "/>
</g>
<g clip-path="url(#clip8)" clip-rule="nonzero">
<path style=" stroke:none;fill-rule:nonzero;fill:rgb(55.699158%,84.698486%,97.299194%);fill-opacity:1;" d="M 9.796875 9.015625 L 0 59.628906 C 4.5 58.945313 8.585938 55.226563 9.449219 50.757813 L 17.519531 9.015625 C 18.367188 4.660156 22.261719 1.003906 26.613281 0.179688 C 27.214844 0.0625 26.746094 0.00390625 26.613281 0.00390625 C 26.480469 0.00390625 20.71875 0.00390625 20.71875 0.00390625 C 15.667969 0.00390625 10.753906 4.058594 9.796875 9.015625 "/>
</g>
<g clip-path="url(#clip9)" clip-rule="nonzero">
<path style=" stroke:none;fill-rule:nonzero;fill:rgb(25.498962%,25.099182%,25.898743%);fill-opacity:1;" d="M 183.679688 0.0078125 C 178.632813 0.0078125 173.71875 4.058594 172.761719 9.015625 L 164.730469 50.730469 C 163.769531 55.6875 167.117188 59.738281 172.164063 59.738281 L 204.976563 59.738281 L 205.289063 58.128906 C 206.246094 53.175781 202.90625 49.117188 197.855469 49.117188 L 182.753906 49.117188 C 181.496094 49.117188 180.65625 48.109375 180.898438 46.867188 L 183.1875 35.035156 L 204.257813 35.035156 L 206.285156 24.5625 L 185.207031 24.5625 L 187.476563 12.871094 L 187.476563 12.859375 C 187.714844 11.617188 188.941406 10.605469 190.199219 10.605469 L 205.300781 10.605469 C 210.351563 10.605469 215.265625 6.546875 216.21875 1.59375 L 216.527344 0.0078125 L 183.679688 0.0078125 "/>
</g>
<g clip-path="url(#clip10)" clip-rule="nonzero">
<path style=" stroke:none;fill-rule:nonzero;fill:rgb(25.498962%,25.099182%,25.898743%);fill-opacity:1;" d="M 377.25 5.015625 C 377.726563 5.015625 378.015625 4.898438 378.015625 4.367188 C 378.015625 3.839844 377.726563 3.703125 377.25 3.703125 L 376.132813 3.703125 L 376.132813 5.015625 Z M 376.132813 7.808594 C 376.132813 8.222656 375.992188 8.523438 375.476563 8.523438 C 374.960938 8.523438 374.816406 8.28125 374.816406 7.808594 L 374.816406 3.257813 C 374.816406 2.925781 374.9375 2.644531 375.488281 2.644531 L 377.160156 2.644531 C 378.351563 2.644531 379.34375 2.996094 379.34375 4.367188 C 379.34375 5.417969 378.816406 5.941406 377.882813 5.988281 L 378.921875 7.695313 C 378.980469 7.808594 379.011719 7.917969 379.011719 8.007813 C 379.011719 8.332031 378.804688 8.523438 378.316406 8.523438 C 377.851563 8.523438 377.695313 8.164063 377.511719 7.808594 L 376.585938 6.078125 L 376.132813 6.078125 Z M 376.984375 9.582031 C 379.261719 9.582031 381.09375 7.75 381.09375 5.488281 C 381.09375 3.21875 379.261719 1.390625 376.984375 1.390625 C 374.722656 1.390625 372.898438 3.21875 372.898438 5.488281 C 372.898438 7.75 374.722656 9.582031 376.984375 9.582031 M 376.984375 0.0664063 C 379.988281 0.0664063 382.410156 2.492188 382.410156 5.488281 C 382.410156 8.472656 379.988281 10.90625 376.984375 10.90625 C 374.011719 10.90625 371.570313 8.472656 371.570313 5.488281 C 371.570313 2.492188 374.011719 0.0664063 376.984375 0.0664063 "/>
</g>
</g>
</svg>
