<?xml version="1.0" encoding="UTF-8"?>
<svg id="_Слой_2" data-name="Слой 2" xmlns="http://www.w3.org/2000/svg" viewBox="0 0 951.61 225.47">
  <defs>
    <style>
      .cls-1 {
        fill: #c23c25;
      }

      .cls-2 {
        fill: #be3019;
      }

      .cls-3 {
        fill: #be311a;
      }

      .cls-4 {
        fill: #c34029;
      }

      .cls-5 {
        fill: #bf311a;
      }

      .cls-6 {
        fill: #fefdfc;
      }

      .cls-7 {
        fill: #f9efec;
      }

      .cls-8 {
        fill: #fbf5f2;
      }

      .cls-9 {
        fill: #fefefe;
      }

      .cls-10 {
        fill: #fdfcfc;
      }
    </style>
  </defs>
  <g id="_Слой_4" data-name="Слой 4">
    <g>
      <path class="cls-2" d="M103.17.34l742.03-.34c137.09,9.99,143.81,206,7.93,225.47l-755.12-.11C-35.59,206.37-31.39,13,103.17.34Z"/>
      <path class="cls-9" d="M632.86,184.59l-4.65,18H107.83C3.84,195.74-7.69,49.18,93.34,25.43c251.03-3.4,502.62-.43,753.86-1.49,109.02,11.87,107.31,168.86-2.06,178.59l-100.41-.5c1.67-3.07,2.15-16.47,4.64-17.31l102.51-.39c77.78-14.71,79.12-125.24,1.98-142.12-248.79-2.95-498.03-.45-746.98-1.26-13.74,1.5-26.19,5.45-37.39,13.54-21.1,15.25-44.83,59.19-10.34,72.99,14.21,5.68,68.28,6.08,84.68,4.23,6.78-.77,12.14-7.88,5.79-9.77-5.93-1.77-24.05.23-31.8-.16-5.52-.28-15.48-.94-20.43-2.54-9.33-3.03-9.09-8.3-7.85-16.81.91-6.27,3.29-15.55,8.35-19.59,3.16-2.52,13.17-5.99,16.98-5.99h64.44l-4.04,17.91-59.4.05c-4.11.76-5.96,8.83,1.07,9.91,12.37,1.9,45.8-3.47,54.43,4.51,6.45,5.97,1.46,26.62-4.03,32.7-1.9,2.11-7.17,4.53-9.97,5.29-13.31,3.64-69.5,2.69-85.5,1.49-9.36-.7-17.98-4.27-26.43-8.01,6.89,16.12,20.16,30.8,36.29,38.07,3.57,1.61,14.85,5.81,18.15,5.81h532.98Z"/>
      <path class="cls-9" d="M344.14,148.68l16.93-71.38,2.5-.49c21.31,1.51,44.96-1.86,65.97.07,6.26.57,12.97,2.46,14.82,9.13,2.55,9.19-3.96,34.76-17.3,33.75,1.1,2.25,3.64,2.01,5.56,3.92,5.92,5.91-.07,17.83-.56,25h-21.98c.38-4.5,4.76-14.64-.05-17.41-2.74-1.58-27.98-.52-33.47-.49-1.68.01-4.21-.84-5-.72-2.43.37-4.57,15.67-5.43,18.62h-21.98Z"/>
      <path class="cls-9" d="M551.94,148.68c4.29-24.02,10.7-47.86,16.12-71.69l1.33-.2c21.83,1.68,46.48-2.04,67.96.07,5.23.52,12.96,2.82,14.29,8.68,1.83,8.1-2.34,26.06-9.29,31.2-2.51,1.86-7.21,2.72-7.49,3.01-1.87,1.95,3.91,2.42,5.45,4.03,5,5.21.62,18.99-1.95,24.89h-21.48c1.2-4.04,5.18-14.55.96-17.42s-32.47,1.65-39.47-1.28c-2.48.47-2.98,16.39-5.94,18.7h-20.48Z"/>
      <path class="cls-9" d="M851.65,121.74c-2.43,12.75-6.39,22.83-19.98,26.44-9.72,2.58-53.54,2.8-63.17.22-15.51-4.16-12.57-16.33-10.27-28.66,3.9-20.99,7.62-41.1,32.93-42.93,12.87-.93,36.34-1.19,48.99.05,5.6.55,14.87,3.45,16.28,9.68.67,2.95.34,16.18-2.42,17.12-1.03.35-19.65.87-20.35.14-1.56-1.63,3.66-8.19-6.45-9.02-7.42-.61-23.8-.84-30.92.13-4.03.55-8.35,3-10.43,6.54-3.03,5.19-8.32,25.28-2.07,28.7,5.05,2.76,37.06,2.5,41.87-.93,2.87-2.05,3.58-7.47,4.01-7.47h21.98Z"/>
      <path class="cls-9" d="M645.85,148.68l54.39-70.88c9.13-2.18,19.42-.3,28.92-1l22.59,71.88h-23.48c-2.99-2.67-2.4-9.57-4.38-12.37-1.28-1.82-38.85.02-44.4-.43-2.08,1.29-9.06,12.8-10.15,12.8h-23.48Z"/>
      <path class="cls-9" d="M231.25,148.68l54.38-70.89c9.15-2.14,19.43-.29,28.93-.99l22.59,71.88h-23.98c-1.11-2.48-2.73-12.19-4.62-12.84-12.74.74-27.4-1.41-39.89-.19-7.61.75-11.55,13.03-13.92,13.03h-23.48Z"/>
      <polygon class="cls-9" points="268.22 76.86 265.17 94.76 236.29 94.86 224.26 148.68 202.28 148.68 214.27 94.81 184.3 94.81 188.3 76.86 268.22 76.86"/>
      <path class="cls-9" d="M558.93,76.86l-4.04,17.91c-4.32.78-26.87-1.28-28.47,1l-12.94,52.91h-20.48l11.99-53.87h-30.97l4-17.96h80.92Z"/>
      <path class="cls-10" d="M668.82,195.55l-22.97,8.98,5-21.94c1.13-.15,1.95,0,2.97.52,1.58.8,12.68,8.76,13.95,10.01.84.83,1.4.92,1.05,2.43Z"/>
      <path class="cls-10" d="M732.76,195.55l-22.97,8.98,5-21.94c1.27-1.22,10.59,5.85,12.3,7.17,1.25.97,6.78,4.29,5.67,5.79Z"/>
      <path class="cls-6" d="M699.79,193.58c.11,1.13.51,1.37-.64,1.97-6.57,3.42-15.39,5.97-22.32,8.98l5-21.94c1.92-1.35,14.62,10.43,17.96,10.99Z"/>
      <path class="cls-8" d="M870.34,103.01c17.1-3.95,17.06,21.13,1.91,19.68-11.19-1.07-11.76-17.41-1.91-19.68Z"/>
      <path class="cls-3" d="M375.61,112.77c-.8-.2-1.15-1.12-1.12-2.06.17-4.72,3.7-11.04,4.19-15.95,9.62,1.82,32.12-2.56,40.12.82,6.75,2.85,1.24,17.2-6.23,17.2h-36.96Z"/>
      <path class="cls-5" d="M581.91,112.77l3.93-17.52c1.69-1.21,39.44-.79,41.45.64,4.77,3.37-.72,16.88-6.92,16.88h-38.46Z"/>
      <polygon class="cls-3" points="718.78 120.75 690.8 120.75 711.77 93.81 718.78 120.75"/>
      <polygon class="cls-5" points="304.18 120.75 277.21 120.75 297.18 93.82 304.18 120.75"/>
      <path class="cls-1" d="M870.34,105c11.53-3.44,13.99,13.65,4.55,15.57-10.22,2.08-11.67-13.45-4.55-15.57Z"/>
      <path class="cls-7" d="M877.48,107.92c2.33,3.85-1.89,5.06-1.91,5.38-.06,1.41,2.35,4.22,2.05,4.44-3.47,2.61-3.05-4.6-5.48-3.99-1.53.39,1.22,4.9-2.5,3.99.28-1.77-.41-10.58,0-10.97.45-.44,7.32.27,7.85,1.14Z"/>
      <path class="cls-4" d="M875.62,108.78v1.48c-1.06,1.57-2.15,1.74-3.99,1.51v-2.98s3.99,0,3.99,0Z"/>
    </g>
  </g>
</svg>