<?xml version="1.0" encoding="UTF-8"?>
<svg xmlns="http://www.w3.org/2000/svg" xmlns:xlink="http://www.w3.org/1999/xlink" width="690.38pt" height="186.65pt" viewBox="0 0 690.38 186.65" version="1.1">
<defs>
<clipPath id="clip1">
  <path d="M 0 0 L 690.378906 0 L 690.378906 186.648438 L 0 186.648438 Z M 0 0 "/>
</clipPath>
</defs>
<g id="surface1">
<g clip-path="url(#clip1)" clip-rule="nonzero">
<path style=" stroke:none;fill-rule:nonzero;fill:rgb(13.699341%,12.199402%,12.5%);fill-opacity:1;" d="M 260.566406 186.648438 L 227.996094 153.953125 L 121.269531 153.953125 L 121.269531 163.136719 L 65.058594 163.136719 L 39.398438 137.484375 L 39.40625 98.847656 L 28.113281 98.847656 L 0 70.539063 L 0 0 L 513.808594 0 L 546.445313 32.632813 L 626.574219 32.632813 C 629.027344 27.523438 634.515625 22.289063 643.054688 22.121094 C 647.394531 22.121094 653.421875 24.230469 656.632813 28.253906 L 685.695313 57.363281 C 688.910156 60.960938 690.386719 65.121094 690.386719 70.507813 L 690.386719 70.757813 L 690.339844 71 C 689.664063 76.628906 686.839844 81.4375 682.363281 84.554688 L 682.363281 153.953125 L 564.878906 153.953125 L 547.09375 186.648438 L 260.566406 186.648438 "/>
</g>
<path style=" stroke:none;fill-rule:nonzero;fill:rgb(98.431396%,87.841797%,20.391846%);fill-opacity:1;" d="M 678.8125 150.398438 L 562.765625 150.398438 L 544.96875 183.082031 L 262.054688 183.082031 L 229.480469 150.398438 L 117.710938 150.398438 L 117.710938 159.582031 L 66.535156 159.582031 L 42.960938 136.007813 L 42.964844 95.296875 L 29.601563 95.296875 L 3.566406 69.066406 L 3.566406 3.566406 L 512.339844 3.566406 L 544.96875 36.203125 L 629.027344 36.203125 C 629.027344 36.203125 631.765625 25.914063 643.117188 25.683594 C 646.84375 25.683594 651.695313 27.648438 653.949219 30.609375 L 683.175781 59.886719 C 685.953125 63.003906 686.820313 66.519531 686.820313 70.507813 C 686.164063 75.9375 683.230469 80.15625 678.792969 82.582031 L 678.8125 150.398438 "/>
<path style=" stroke:none;fill-rule:nonzero;fill:rgb(13.725281%,12.156677%,12.548828%);fill-opacity:1;" d="M 19.972656 29.113281 L 19.972656 43.242188 L 68.496094 43.242188 L 68.511719 124.746094 L 82.9375 124.746094 L 82.949219 43.242188 L 432.324219 43.242188 L 432.3125 29.089844 L 19.972656 29.113281 "/>
<path style=" stroke:none;fill-rule:nonzero;fill:rgb(13.725281%,12.156677%,12.548828%);fill-opacity:1;" d="M 94.605469 61.710938 L 94.605469 115.566406 L 149.519531 115.566406 L 149.535156 101.113281 L 108.875 101.121094 L 108.851563 94.824219 L 134 94.824219 L 134 81.941406 L 108.8125 81.953125 L 108.828125 75.9375 L 148.589844 75.9375 L 148.617188 61.730469 L 94.605469 61.710938 "/>
<path style=" stroke:none;fill-rule:nonzero;fill:rgb(13.725281%,12.156677%,12.548828%);fill-opacity:1;" d="M 228.796875 61.730469 L 228.847656 115.566406 L 243.050781 115.566406 L 243.050781 94.835938 L 271.9375 94.835938 L 271.921875 115.566406 L 286.199219 115.566406 L 286.199219 61.730469 L 271.9375 61.710938 L 271.9375 81.886719 L 243.050781 81.886719 L 243.050781 61.707031 L 228.796875 61.730469 "/>
<path style=" stroke:none;fill-rule:nonzero;fill:rgb(13.725281%,12.156677%,12.548828%);fill-opacity:1;" d="M 296.65625 61.734375 L 296.65625 115.566406 L 310.925781 115.566406 L 310.925781 77.4375 L 341.011719 115.566406 L 360.546875 115.585938 L 360.546875 61.710938 L 346.269531 61.730469 L 346.269531 99.847656 L 316.179688 61.730469 L 296.65625 61.734375 "/>
<path style=" stroke:none;fill-rule:evenodd;fill:rgb(13.725281%,12.156677%,12.548828%);fill-opacity:1;" d="M 389.265625 75.9375 L 414.101563 75.9375 C 416.332031 75.9375 418.132813 77.734375 418.132813 79.964844 L 418.121094 97.074219 C 418.121094 99.304688 416.320313 101.097656 414.09375 101.097656 L 389.28125 101.144531 C 387.0625 101.144531 385.253906 99.351563 385.253906 97.125 L 385.238281 79.964844 C 385.238281 77.734375 387.050781 75.9375 389.265625 75.9375 M 387.050781 61.710938 L 416.230469 61.734375 C 425.117188 61.734375 432.324219 68.953125 432.324219 77.847656 L 432.324219 99.449219 C 432.324219 108.335938 425.117188 115.546875 416.230469 115.546875 L 387.050781 115.582031 C 378.152344 115.582031 370.945313 108.371094 370.945313 99.480469 L 370.945313 77.808594 C 370.945313 68.921875 378.152344 61.710938 387.050781 61.710938 "/>
<path style=" stroke:none;fill-rule:nonzero;fill:rgb(13.725281%,12.156677%,12.548828%);fill-opacity:1;" d="M 204.179688 95.160156 L 204.160156 97.074219 C 204.160156 99.300781 202.359375 101.097656 200.136719 101.097656 L 175.359375 101.097656 C 173.132813 101.097656 171.332031 99.300781 171.332031 97.074219 L 171.292969 79.957031 C 171.292969 77.734375 173.097656 75.925781 175.320313 75.925781 L 200.136719 75.941406 C 202.359375 75.941406 204.160156 77.734375 204.160156 79.964844 L 204.179688 81.886719 L 218.445313 81.886719 L 218.425781 77.828125 C 218.425781 68.9375 211.214844 61.726563 202.324219 61.726563 L 173.1875 61.738281 C 164.296875 61.738281 157.023438 68.957031 157.023438 77.847656 L 157.046875 99.460938 C 157.046875 108.355469 164.257813 115.566406 173.148438 115.566406 L 202.351563 115.566406 C 211.246094 115.566406 218.449219 108.355469 218.449219 99.460938 L 218.445313 95.167969 L 204.179688 95.160156 "/>
<path style=" stroke:none;fill-rule:nonzero;fill:rgb(13.725281%,12.156677%,12.548828%);fill-opacity:1;" d="M 506.617188 42.773438 L 506.617188 57.105469 L 461.558594 57.105469 C 459.128906 57.105469 457.164063 59.347656 457.164063 62.113281 L 457.1875 96.128906 C 457.1875 98.902344 459.089844 101.144531 461.507813 101.144531 L 495.121094 101.121094 L 495.121094 90.265625 L 481.148438 90.265625 L 481.148438 75.957031 L 509.445313 75.941406 L 509.445313 115.558594 L 460.398438 115.566406 C 450.722656 115.566406 442.871094 106.59375 442.871094 95.523438 L 442.824219 62.800781 C 442.824219 51.730469 450.675781 42.757813 460.355469 42.757813 L 506.617188 42.773438 "/>
<path style=" stroke:none;fill-rule:nonzero;fill:rgb(13.725281%,12.156677%,12.548828%);fill-opacity:1;" d="M 622.914063 115.566406 L 610.414063 115.566406 L 594.304688 82.695313 L 594.335938 115.566406 L 580.117188 115.566406 L 580.082031 61.730469 L 600.25 61.730469 L 616.65625 95.167969 L 633.070313 61.730469 L 653.222656 61.742188 L 653.203125 115.566406 L 638.992188 115.566406 L 639.011719 82.695313 L 622.914063 115.566406 "/>
<path style=" stroke:none;fill-rule:nonzero;fill:rgb(13.725281%,12.156677%,12.548828%);fill-opacity:1;" d="M 526.015625 148.375 L 271.921875 148.375 L 271.9375 133.921875 L 516.832031 133.929688 L 534.746094 100.953125 L 513.378906 61.742188 L 529.613281 61.742188 L 542.886719 86.21875 L 556.117188 61.742188 L 572.351563 61.742188 L 526.015625 148.375 "/>
<path style=" stroke:none;fill-rule:nonzero;fill:rgb(13.725281%,12.156677%,12.548828%);fill-opacity:1;" d="M 633.351563 40.59375 C 633.367188 45.945313 637.691406 50.289063 643.054688 50.289063 C 648.414063 50.289063 652.738281 45.945313 652.738281 40.59375 C 652.738281 35.242188 648.414063 30.90625 643.054688 30.898438 C 637.691406 30.90625 633.367188 35.242188 633.351563 40.59375 M 631.78125 40.59375 C 631.78125 34.375 636.828125 29.328125 643.054688 29.328125 C 649.269531 29.328125 654.316406 34.375 654.316406 40.59375 C 654.316406 46.816406 649.269531 51.859375 643.054688 51.859375 C 636.828125 51.859375 631.78125 46.816406 631.78125 40.59375 "/>
<path style=" stroke:none;fill-rule:evenodd;fill:rgb(13.725281%,12.156677%,12.548828%);fill-opacity:1;" d="M 640.667969 40.675781 L 640.667969 36.734375 L 643.734375 36.734375 C 645.320313 36.734375 645.609375 37.027344 645.609375 38.65625 C 645.609375 40.355469 645.210938 40.675781 643.585938 40.675781 Z M 644.058594 42.566406 C 645.113281 42.582031 645.515625 43.253906 645.515625 44.214844 L 645.515625 46.371094 L 647.726563 46.371094 L 647.726563 44.214844 C 647.726563 42.589844 647.339844 41.746094 645.78125 41.605469 L 645.78125 41.539063 C 647.726563 41.25 647.820313 40.007813 647.820313 38.304688 C 647.820313 35.691406 646.855469 34.90625 644.335938 34.851563 L 638.449219 34.851563 L 638.449219 46.371094 L 640.667969 46.371094 L 640.667969 42.566406 L 644.058594 42.566406 "/>
<path style=" stroke:none;fill-rule:nonzero;fill:rgb(13.725281%,12.156677%,12.548828%);fill-opacity:1;" d="M 640.667969 40.675781 L 640.667969 36.734375 L 643.734375 36.734375 C 645.320313 36.734375 645.609375 37.027344 645.609375 38.65625 C 645.609375 40.355469 645.210938 40.675781 643.585938 40.675781 Z M 644.058594 42.566406 C 645.113281 42.582031 645.515625 43.253906 645.515625 44.214844 L 645.515625 46.371094 L 647.726563 46.371094 L 647.726563 44.214844 C 647.726563 42.589844 647.339844 41.746094 645.78125 41.605469 L 645.78125 41.539063 C 647.726563 41.25 647.820313 40.007813 647.820313 38.304688 C 647.820313 35.691406 646.855469 34.90625 644.335938 34.851563 L 638.449219 34.851563 L 638.449219 46.371094 L 640.667969 46.371094 L 640.667969 42.566406 L 644.058594 42.566406 "/>
<path style=" stroke:none;fill-rule:nonzero;fill:rgb(13.725281%,12.156677%,12.548828%);fill-opacity:1;" d="M 418.125 97.074219 C 418.125 99.300781 416.320313 101.097656 414.097656 101.097656 L 389.285156 101.144531 C 387.066406 101.144531 385.253906 99.351563 385.253906 97.125 L 385.238281 79.964844 C 385.238281 77.734375 387.046875 75.9375 389.269531 75.9375 L 414.105469 75.9375 C 416.332031 75.9375 418.132813 77.734375 418.132813 79.964844 Z M 416.226563 61.734375 L 387.046875 61.710938 C 378.15625 61.710938 370.945313 68.925781 370.945313 77.808594 L 370.945313 99.480469 C 370.945313 108.371094 378.15625 115.582031 387.046875 115.582031 L 416.226563 115.546875 C 425.121094 115.546875 432.328125 108.339844 432.328125 99.445313 L 432.328125 77.847656 C 432.328125 68.957031 425.121094 61.734375 416.226563 61.734375 "/>
</g>
</svg>
