<svg width="49" height="49" viewBox="0 0 49 49" fill="none" xmlns="http://www.w3.org/2000/svg">
<g clip-path="url(#clip0_441_3806)">
<path d="M44.917 25.5208C44.917 25.5208 49.0004 29.9513 49.0004 32.6667C49.0004 33.7496 48.5702 34.7882 47.8044 35.554C47.0386 36.3198 46 36.75 44.917 36.75C43.8341 36.75 42.7955 36.3198 42.0297 35.554C41.2639 34.7882 40.8337 33.7496 40.8337 32.6667C40.8337 29.9513 44.917 25.5208 44.917 25.5208ZM12.2504 12.25H20.417C20.9585 12.25 21.4778 12.4651 21.8607 12.848C22.2436 13.2309 22.4587 13.7502 22.4587 14.2917C22.4587 14.8332 22.2436 15.3525 21.8607 15.7353C21.4778 16.1182 20.9585 16.3333 20.417 16.3333H18.3754V20.4167H22.4587C23.9695 20.4167 25.2966 21.2333 25.9908 22.4583L39.282 14.7817L45.9379 18.6404C46.9587 19.1917 47.2445 20.4167 46.6933 21.4375C46.1216 22.3971 44.917 22.7442 43.8962 22.1725L39.6087 19.7021L32.1566 32.6054C31.4625 33.8508 30.115 34.7083 28.5837 34.7083H10.2087C9.12574 34.7083 8.08713 34.2781 7.32136 33.5124C6.55558 32.7466 6.12538 31.708 6.12538 30.625V24.5C6.12538 23.417 6.55558 22.3784 7.32136 21.6126C8.08713 20.8469 9.12574 20.4167 10.2087 20.4167H14.292V16.3333H12.2504C11.7089 16.3333 11.1896 16.1182 10.8067 15.7353C10.4238 15.3525 10.2087 14.8332 10.2087 14.2917C10.2087 13.7502 10.4238 13.2309 10.8067 12.848C11.1896 12.4651 11.7089 12.25 12.2504 12.25ZM10.2087 24.5V30.625H28.5837L32.7895 23.3363L25.7254 27.4196L23.8675 24.5H10.2087ZM0.776211 18.8038L4.26746 15.3125C5.10454 14.5163 6.34996 14.5163 7.14621 15.3125C7.94246 16.1088 7.94246 17.3542 7.14621 18.1912L3.65496 21.6825C2.85871 22.4583 1.57246 22.4583 0.776211 21.6825C0.000377625 20.8863 0.000377625 19.6 0.776211 18.8038Z" fill="black"/>
</g>
<defs>
<clipPath id="clip0_441_3806">
<rect width="49" height="49" fill="white"/>
</clipPath>
</defs>
</svg>
