<svg width="49" height="49" viewBox="0 0 49 49" fill="none" xmlns="http://www.w3.org/2000/svg">
<path d="M44.435 14.3631C44.2798 13.7874 43.5672 13.6281 43.1467 14.0487L36.8543 20.3371C36.3948 20.7965 35.7716 21.0546 35.1219 21.0546C34.4721 21.0546 33.849 20.7965 33.3895 20.3371L28.6529 15.6004C28.4251 15.3729 28.2444 15.1027 28.1211 14.8052C27.9978 14.5078 27.9343 14.189 27.9343 13.867C27.9343 13.5451 27.9978 13.2262 28.1211 12.9288C28.2444 12.6314 28.4251 12.3612 28.6529 12.1336L34.9412 5.85552C35.3618 5.4329 35.2046 4.72036 34.6288 4.56519C32.2708 3.92344 29.7851 3.91549 27.4231 4.54213C25.061 5.16877 22.9061 6.4078 21.1763 8.13402C17.0113 12.299 16.068 18.4322 18.2853 23.52L7.55429 34.2347C7.09871 34.6898 6.73729 35.2302 6.4907 35.825C6.24411 36.4199 6.11719 37.0575 6.11719 37.7014C6.11719 38.3454 6.24411 38.983 6.4907 39.5778C6.73729 40.1727 7.09871 40.7131 7.55429 41.1682L7.84013 41.454C8.75896 42.3723 10.0048 42.8881 11.3038 42.8881C12.6028 42.8881 13.8487 42.3723 14.7675 41.454L25.5128 30.7189C30.5965 32.9117 36.7093 31.9562 40.862 27.7994C44.5105 24.1591 45.6845 19.0059 44.435 14.3631Z" stroke="black" stroke-width="4" stroke-miterlimit="10" stroke-linecap="round" stroke-linejoin="round"/>
</svg>
