<svg width="42" height="42" viewBox="0 0 42 42" fill="none" xmlns="http://www.w3.org/2000/svg">
<path d="M13.65 3.5H28.35C33.95 3.5 38.5 8.05 38.5 13.65V28.35C38.5 31.0419 37.4306 33.6236 35.5271 35.5271C33.6236 37.4306 31.0419 38.5 28.35 38.5H13.65C8.05 38.5 3.5 33.95 3.5 28.35V13.65C3.5 10.9581 4.56937 8.37636 6.47287 6.47287C8.37636 4.56937 10.9581 3.5 13.65 3.5ZM13.3 7C11.6291 7 10.0267 7.66375 8.84523 8.84523C7.66375 10.0267 7 11.6291 7 13.3V28.7C7 32.1825 9.8175 35 13.3 35H28.7C30.3709 35 31.9733 34.3363 33.1548 33.1548C34.3363 31.9733 35 30.3709 35 28.7V13.3C35 9.8175 32.1825 7 28.7 7H13.3ZM30.1875 9.625C30.7677 9.625 31.3241 9.85547 31.7343 10.2657C32.1445 10.6759 32.375 11.2323 32.375 11.8125C32.375 12.3927 32.1445 12.9491 31.7343 13.3593C31.3241 13.7695 30.7677 14 30.1875 14C29.6073 14 29.0509 13.7695 28.6407 13.3593C28.2305 12.9491 28 12.3927 28 11.8125C28 11.2323 28.2305 10.6759 28.6407 10.2657C29.0509 9.85547 29.6073 9.625 30.1875 9.625ZM21 12.25C23.3206 12.25 25.5462 13.1719 27.1872 14.8128C28.8281 16.4538 29.75 18.6794 29.75 21C29.75 23.3206 28.8281 25.5462 27.1872 27.1872C25.5462 28.8281 23.3206 29.75 21 29.75C18.6794 29.75 16.4538 28.8281 14.8128 27.1872C13.1719 25.5462 12.25 23.3206 12.25 21C12.25 18.6794 13.1719 16.4538 14.8128 14.8128C16.4538 13.1719 18.6794 12.25 21 12.25ZM21 15.75C19.6076 15.75 18.2723 16.3031 17.2877 17.2877C16.3031 18.2723 15.75 19.6076 15.75 21C15.75 22.3924 16.3031 23.7277 17.2877 24.7123C18.2723 25.6969 19.6076 26.25 21 26.25C22.3924 26.25 23.7277 25.6969 24.7123 24.7123C25.6969 23.7277 26.25 22.3924 26.25 21C26.25 19.6076 25.6969 18.2723 24.7123 17.2877C23.7277 16.3031 22.3924 15.75 21 15.75Z" fill="#FFF3DE"/>
</svg>
