<svg width="42" height="42" viewBox="0 0 42 42" fill="none" xmlns="http://www.w3.org/2000/svg">
<path d="M11.2 8.33015C13.8081 5.77425 17.3194 4.35087 20.971 4.36932C24.6226 4.38776 28.1194 5.84653 30.7015 8.42864C33.2836 11.0107 34.7424 14.5075 34.7608 18.1591C34.7793 21.8107 33.3559 25.3221 30.8 27.9301L23.4745 35.2556C22.8182 35.9118 21.9281 36.2804 21 36.2804C20.0719 36.2804 19.1818 35.9118 18.5255 35.2556L11.2 27.9301C8.60105 25.3309 7.141 21.8058 7.141 18.1301C7.141 14.4545 8.60105 10.9294 11.2 8.33015Z" stroke="#FFF3DE" stroke-width="2.625" stroke-linejoin="round"/>
<path d="M21 23.3804C23.8995 23.3804 26.25 21.0299 26.25 18.1304C26.25 15.2309 23.8995 12.8804 21 12.8804C18.1005 12.8804 15.75 15.2309 15.75 18.1304C15.75 21.0299 18.1005 23.3804 21 23.3804Z" stroke="#FFF3DE" stroke-width="2.625" stroke-linecap="round" stroke-linejoin="round"/>
</svg>
