<svg width="42" height="42" viewBox="0 0 42 42" fill="none" xmlns="http://www.w3.org/2000/svg">
<g clip-path="url(#clip0_273_1581)">
<g filter="url(#filter0_d_273_1581)">
<path d="M14 5.25C14.875 5.25 18.375 13.125 18.375 14C18.375 15.75 15.75 17.5 14.875 19.25C14 21 15.75 22.75 17.5 24.5C18.1825 25.1825 21 28 22.75 27.125C24.5 26.25 26.25 23.625 28 23.625C28.875 23.625 36.75 27.125 36.75 28C36.75 31.5 34.125 34.125 31.5 35C28.875 35.875 27.125 35.875 23.625 35C20.125 34.125 17.5 33.25 13.125 28.875C8.75 24.5 7.875 21.875 7 18.375C6.125 14.875 6.125 13.125 7 10.5C7.875 7.875 10.5 5.25 14 5.25Z" stroke="#FFF3DE" stroke-width="3" stroke-linecap="round" stroke-linejoin="round" shape-rendering="crispEdges"/>
</g>
</g>
<defs>
<filter id="filter0_d_273_1581" x="0.84375" y="3.75" width="41.4062" height="41.4062" filterUnits="userSpaceOnUse" color-interpolation-filters="sRGB">
<feFlood flood-opacity="0" result="BackgroundImageFix"/>
<feColorMatrix in="SourceAlpha" type="matrix" values="0 0 0 0 0 0 0 0 0 0 0 0 0 0 0 0 0 0 127 0" result="hardAlpha"/>
<feOffset dy="4"/>
<feGaussianBlur stdDeviation="2"/>
<feComposite in2="hardAlpha" operator="out"/>
<feColorMatrix type="matrix" values="0 0 0 0 0 0 0 0 0 0 0 0 0 0 0 0 0 0 0.25 0"/>
<feBlend mode="normal" in2="BackgroundImageFix" result="effect1_dropShadow_273_1581"/>
<feBlend mode="normal" in="SourceGraphic" in2="effect1_dropShadow_273_1581" result="shape"/>
</filter>
<clipPath id="clip0_273_1581">
<rect width="42" height="42" fill="white"/>
</clipPath>
</defs>
</svg>
