<svg width="42" height="42" viewBox="0 0 42 42" fill="none" xmlns="http://www.w3.org/2000/svg">
<path d="M21 3.5C11.34 3.5 3.5 11.34 3.5 21C3.5 30.66 11.34 38.5 21 38.5C30.66 38.5 38.5 30.66 38.5 21C38.5 11.34 30.66 3.5 21 3.5ZM29.12 15.4C28.8575 18.165 27.72 24.885 27.1425 27.9825C26.8975 29.295 26.4075 29.7325 25.9525 29.785C24.9375 29.8725 24.1675 29.12 23.1875 28.4725C21.6475 27.4575 20.7725 26.8275 19.285 25.8475C17.5525 24.71 18.6725 24.08 19.67 23.065C19.9325 22.8025 24.4125 18.725 24.5 18.3575C24.5122 18.3018 24.5105 18.2441 24.4953 18.1892C24.48 18.1343 24.4516 18.0839 24.4125 18.0425C24.3075 17.955 24.1675 17.99 24.045 18.0075C23.8875 18.0425 21.4375 19.67 16.66 22.89C15.96 23.3625 15.33 23.6075 14.77 23.59C14.14 23.5725 12.95 23.24 12.0575 22.9425C10.955 22.5925 10.0975 22.4 10.1675 21.7875C10.2025 21.4725 10.64 21.1575 11.4625 20.825C16.5725 18.6025 19.9675 17.1325 21.665 16.4325C26.53 14.4025 27.5275 14.0525 28.1925 14.0525C28.3325 14.0525 28.665 14.0875 28.875 14.2625C29.05 14.4025 29.1025 14.595 29.12 14.735C29.1025 14.84 29.1375 15.155 29.12 15.4Z" fill="#FFF3DE"/>
</svg>
