<svg width="42" height="42" viewBox="0 0 42 42" fill="none" xmlns="http://www.w3.org/2000/svg">
<path d="M13.9387 10.8535C13.6135 10.8059 13.2818 10.8714 12.999 11.039H12.9745C12.3182 11.424 11.7267 11.9088 11.2227 12.4793C10.8027 12.964 10.5752 13.454 10.5157 13.9265C10.4807 14.2065 10.5052 14.49 10.5875 14.7577L10.619 14.7752C11.0915 16.163 11.7075 17.4983 12.46 18.7548C13.4307 20.5193 14.6247 22.1515 16.0125 23.611L16.0545 23.6705L16.121 23.7195L16.1612 23.7668L16.2102 23.8088C17.675 25.2006 19.311 26.4002 21.0787 27.3788C23.1 28.4795 24.3267 28.9993 25.0635 29.2163V29.2268C25.2787 29.2933 25.4747 29.323 25.6725 29.323C26.3003 29.278 26.8946 29.0227 27.3595 28.5985C27.9282 28.0945 28.4095 27.5013 28.784 26.8415V26.8293C29.1357 26.1643 29.0167 25.5378 28.5092 25.1125C27.4907 24.2207 26.3883 23.4296 25.2175 22.75C24.4335 22.3248 23.6372 22.582 23.3152 23.0125L22.6275 23.8805C22.274 24.311 21.6335 24.2515 21.6335 24.2515L21.616 24.262C16.8367 23.0423 15.561 18.2035 15.561 18.2035C15.561 18.2035 15.5015 17.5455 15.9442 17.2095L16.8052 16.5165C17.2182 16.1805 17.5052 15.386 17.0625 14.602C16.3845 13.432 15.5951 12.3302 14.7052 11.312C14.5106 11.0729 14.238 10.91 13.9352 10.8518M22.015 8.75C21.7829 8.75 21.5604 8.84219 21.3963 9.00628C21.2322 9.17038 21.14 9.39294 21.14 9.625C21.14 9.85706 21.2322 10.0796 21.3963 10.2437C21.5604 10.4078 21.7829 10.5 22.015 10.5C24.227 10.5 26.0645 11.2227 27.5187 12.6088C28.266 13.3665 28.8487 14.2643 29.2302 15.2478C29.6135 16.233 29.7885 17.2848 29.743 18.3383C29.7332 18.5703 29.8161 18.7967 29.9733 18.9677C30.1305 19.1387 30.3492 19.2403 30.5812 19.25C30.8133 19.2597 31.0397 19.1769 31.2107 19.0197C31.3817 18.8625 31.4832 18.6438 31.493 18.4118C31.5452 17.116 31.3302 15.8233 30.8612 14.6143C30.3902 13.399 29.6728 12.2944 28.7542 11.3698L28.7367 11.3523C26.9325 9.6285 24.6505 8.75 22.015 8.75Z" fill="#FFF3DE"/>
<path d="M21.9538 11.6272C21.7217 11.6272 21.4991 11.7194 21.335 11.8835C21.1709 12.0476 21.0788 12.2702 21.0788 12.5022C21.0788 12.7343 21.1709 12.9569 21.335 13.121C21.4991 13.2851 21.7217 13.3772 21.9538 13.3772H21.9835C23.5795 13.491 24.7415 14.023 25.5553 14.8962C26.39 15.7957 26.8222 16.914 26.789 18.2965C26.7837 18.5286 26.8707 18.7532 27.0311 18.9211C27.1914 19.089 27.4118 19.1863 27.6439 19.1916C27.8759 19.197 28.1006 19.1099 28.2685 18.9496C28.4364 18.7892 28.5337 18.5688 28.539 18.3367C28.581 16.522 27.9965 14.9557 26.838 13.7062V13.7027C25.6533 12.4322 24.0275 11.7602 22.071 11.629L22.0413 11.6255L21.9538 11.6272Z" fill="#FFF3DE"/>
<path d="M21.9205 14.5581C21.8034 14.5477 21.6854 14.5611 21.5736 14.5974C21.4618 14.6337 21.3584 14.6921 21.2697 14.7692C21.181 14.8463 21.1087 14.9405 21.0571 15.0461C21.0056 15.1518 20.9759 15.2668 20.9698 15.3842C20.9637 15.5016 20.9813 15.619 21.0215 15.7294C21.0618 15.8399 21.1239 15.9411 21.2042 16.027C21.2844 16.1129 21.3811 16.1817 21.4886 16.2294C21.596 16.2771 21.712 16.3027 21.8295 16.3046C22.561 16.3431 23.0283 16.5636 23.3223 16.8593C23.618 17.1568 23.8385 17.6346 23.8788 18.3818C23.8809 18.4992 23.9067 18.615 23.9546 18.7223C24.0025 18.8295 24.0715 18.926 24.1574 19.006C24.2434 19.0861 24.3446 19.1479 24.455 19.188C24.5654 19.2281 24.6827 19.2455 24.8 19.2393C24.9173 19.2331 25.0321 19.2033 25.1376 19.1518C25.2432 19.1002 25.3372 19.028 25.4142 18.9393C25.4913 18.8506 25.5496 18.7474 25.5859 18.6356C25.6221 18.5239 25.6355 18.4061 25.6253 18.2891C25.5693 17.2391 25.2403 16.3116 24.5665 15.6291C23.8893 14.9466 22.967 14.6141 21.9205 14.5581Z" fill="#FFF3DE"/>
<path fill-rule="evenodd" clip-rule="evenodd" d="M12.3673 4.17186C17.9359 2.92709 23.7106 2.92709 29.2793 4.17186L29.8725 4.30311C31.4999 4.66794 32.9945 5.47637 34.1906 6.63874C35.3866 7.80111 36.2374 9.27201 36.6485 10.8884C38.0633 16.4583 38.0633 22.2935 36.6485 27.8634C36.2374 29.4797 35.3866 30.9506 34.1906 32.113C32.9945 33.2753 31.4999 34.0838 29.8725 34.4486L29.2775 34.5799C25.7896 35.3587 22.211 35.6525 18.6427 35.4531L14 39.6076C13.825 39.7643 13.6111 39.8712 13.3807 39.917C13.1502 39.9629 12.9117 39.946 12.69 39.8683C12.4683 39.7905 12.2716 39.6546 12.1203 39.4749C11.969 39.2951 11.8688 39.0781 11.83 38.8464L11.0618 34.2579C9.58897 33.7987 8.25838 32.9699 7.19687 31.8505C6.13537 30.7311 5.37834 29.3584 4.998 27.8634C3.58319 22.2935 3.58319 16.4583 4.998 10.8884C5.40915 9.27201 6.2599 7.80111 7.45594 6.63874C8.65199 5.47637 10.1466 4.66794 11.774 4.30311L12.3673 4.17186ZM28.707 6.73211C23.5152 5.57152 18.1313 5.57152 12.9395 6.73211L12.3445 6.86511C11.1912 7.12443 10.1321 7.69786 9.28459 8.52193C8.43705 9.34599 7.8341 10.3885 7.5425 11.5341C6.23524 16.6802 6.23524 22.0715 7.5425 27.2176C7.83424 28.3634 8.43745 29.4061 9.28532 30.2302C10.1332 31.0543 11.1926 31.6276 12.3463 31.8866L12.5038 31.9216C12.7585 31.9786 12.9905 32.1103 13.1701 32.2998C13.3497 32.4893 13.4686 32.7281 13.5118 32.9856L14.0263 36.0621L17.3023 33.1309C17.4331 33.0135 17.5861 32.9235 17.7524 32.8664C17.9186 32.8093 18.0946 32.7862 18.27 32.7984C21.7684 33.0454 25.284 32.783 28.707 32.0196L29.3002 31.8866C30.4539 31.6276 31.5133 31.0543 32.3612 30.2302C33.209 29.4061 33.8123 28.3634 34.104 27.2176C35.4095 22.0726 35.4095 16.6809 34.104 11.5341C33.8123 10.3883 33.209 9.34561 32.3612 8.52153C31.5133 7.69745 30.4539 7.12414 29.3002 6.86511L28.707 6.73211Z" fill="#FFF3DE"/>
</svg>
