<?xml version="1.0" encoding="UTF-8"?>
<svg id="_Слой_2" data-name="Слой 2" xmlns="http://www.w3.org/2000/svg" viewBox="0 0 641.28 902.12">
  <defs>
    <style>
      .cls-1 {
        fill: #bf7615;
      }

      .cls-2 {
        fill: #ca8114;
      }

      .cls-3 {
        fill: #2b2a36;
      }

      .cls-4 {
        fill: #221a17;
      }

      .cls-5 {
        fill: #292734;
      }

      .cls-6 {
        fill: #2b1e13;
      }

      .cls-7 {
        fill: #191722;
      }

      .cls-8 {
        fill: #0c0506;
      }

      .cls-9 {
        fill: #484653;
      }

      .cls-10 {
        fill: #965305;
      }

      .cls-11 {
        fill: #2b2830;
      }

      .cls-12 {
        fill: #393645;
      }

      .cls-13 {
        fill: #09070c;
      }

      .cls-14 {
        fill: #2e2115;
      }

      .cls-15 {
        fill: #c87d10;
      }

      .cls-16 {
        fill: #b07010;
      }

      .cls-17 {
        fill: #474553;
      }

      .cls-18 {
        fill: #17151f;
      }

      .cls-19 {
        fill: #393740;
      }

      .cls-20 {
        fill: #25170b;
      }

      .cls-21 {
        fill: #f7b62d;
      }

      .cls-22 {
        fill: #0b0508;
      }

      .cls-23 {
        fill: #2d2b37;
      }

      .cls-24 {
        fill: #b56c17;
      }

      .cls-25 {
        fill: #291d13;
      }

      .cls-26 {
        fill: #040309;
      }

      .cls-27 {
        fill: #050209;
      }

      .cls-28 {
        fill: #edebe7;
      }

      .cls-29 {
        fill: #c37c10;
      }

      .cls-30 {
        fill: #3a2915;
      }

      .cls-31 {
        fill: #06050a;
      }

      .cls-32 {
        fill: #050309;
      }

      .cls-33 {
        fill: #231203;
      }

      .cls-34 {
        fill: #3d3a45;
      }

      .cls-35 {
        fill: #f8bb32;
      }

      .cls-36 {
        fill: #383543;
      }

      .cls-37 {
        fill: #06040b;
      }

      .cls-38 {
        fill: #f9b82d;
      }

      .cls-39 {
        fill: #f9ba2d;
      }

      .cls-40 {
        fill: #c7c8cd;
      }

      .cls-41 {
        fill: #06040a;
      }

      .cls-42 {
        fill: #2c2a38;
      }

      .cls-43 {
        fill: #484654;
      }

      .cls-44 {
        fill: #944f06;
      }

      .cls-45 {
        fill: #09060d;
      }

      .cls-46 {
        fill: #2d2014;
      }

      .cls-47 {
        fill: #f8ba31;
      }

      .cls-48 {
        fill: #060309;
      }

      .cls-49 {
        fill: #353341;
      }

      .cls-50 {
        fill: #0e0708;
      }

      .cls-51 {
        fill: #26242f;
      }

      .cls-52 {
        fill: #c4c3c8;
      }

      .cls-53 {
        fill: #23222e;
      }

      .cls-54 {
        fill: #35323e;
      }

      .cls-55 {
        fill: #838188;
      }

      .cls-56 {
        fill: #c3c4c9;
      }

      .cls-57 {
        fill: #c87e10;
      }

      .cls-58 {
        fill: #f8b92c;
      }

      .cls-59 {
        fill: #050409;
      }

      .cls-60 {
        fill: #181620;
      }

      .cls-61 {
        fill: #c4c7cd;
      }

      .cls-62 {
        fill: #252331;
      }

      .cls-63 {
        fill: #464548;
      }

      .cls-64 {
        fill: #626263;
      }

      .cls-65 {
        fill: #cb8215;
      }

      .cls-66 {
        fill: #62606e;
      }

      .cls-67 {
        fill: #1d1b26;
      }

      .cls-68 {
        fill: #a6630c;
      }

      .cls-69 {
        fill: #3e3c46;
      }

      .cls-70 {
        fill: #1a1823;
      }

      .cls-71 {
        fill: #2c2a35;
      }

      .cls-72 {
        fill: #f8b72c;
      }

      .cls-73 {
        fill: #201f2b;
      }

      .cls-74 {
        fill: #040409;
      }

      .cls-75 {
        fill: #a3610b;
      }

      .cls-76 {
        fill: #1f1d28;
      }

      .cls-77 {
        fill: #1a1925;
      }

      .cls-78 {
        fill: #c8c9cf;
      }

      .cls-79 {
        fill: #f9b82f;
      }

      .cls-80 {
        fill: #925104;
      }

      .cls-81 {
        fill: #080409;
      }

      .cls-82 {
        fill: #1d1d29;
      }

      .cls-83 {
        fill: #36343f;
      }

      .cls-84 {
        fill: #09090d;
      }

      .cls-85 {
        fill: #3f3c49;
      }

      .cls-86 {
        fill: #22202b;
      }

      .cls-87 {
        fill: #c97e14;
      }

      .cls-88 {
        fill: #343039;
      }

      .cls-89 {
        fill: #33313f;
      }

      .cls-90 {
        fill: #a58e6d;
      }

      .cls-91 {
        fill: #343240;
      }

      .cls-92 {
        fill: #f4bd41;
      }

      .cls-93 {
        fill: #646270;
      }

      .cls-94 {
        fill: #1c1b21;
      }

      .cls-95 {
        fill: #21140b;
      }

      .cls-96 {
        fill: #ca8013;
      }

      .cls-97 {
        fill: #32303e;
      }

      .cls-98 {
        fill: #06050c;
      }

      .cls-99 {
        fill: #fab935;
      }

      .cls-100 {
        fill: #f8b82e;
      }

      .cls-101 {
        fill: #2d2b36;
      }

      .cls-102 {
        fill: #070309;
      }

      .cls-103 {
        fill: #373542;
      }

      .cls-104 {
        fill: #d8962a;
      }

      .cls-105 {
        fill: #06030a;
      }

      .cls-106 {
        fill: #c7c5ca;
      }

      .cls-107 {
        fill: #f7b82a;
      }

      .cls-108 {
        fill: #363442;
      }

      .cls-109 {
        fill: #363240;
      }

      .cls-110 {
        fill: #383541;
      }

      .cls-111 {
        fill: #3b3744;
      }

      .cls-112 {
        fill: #272432;
      }

      .cls-113 {
        fill: #2f2d38;
      }

      .cls-114 {
        fill: #db9e23;
      }

      .cls-115 {
        fill: #c98114;
      }

      .cls-116 {
        fill: #06050b;
      }

      .cls-117 {
        fill: #ce8317;
      }

      .cls-118 {
        fill: #060409;
      }
    </style>
  </defs>
  <g id="_Слой_19" data-name="Слой 19">
    <g>
      <path class="cls-118" d="M371.42,851.18l-.53,2.13-27.66,5.04c.5,2.71,3.33,11.41,5.87,11.93l31.69-2.98,1.62,1.86c1.93.56,1.92,1.43,0,2,3.22,1.39,3.4,10.88,0,11.99,1.56,4.2-1.73,9.94-6.71,11.07l-7.36.71c.69,2.93.06,4.66-1.9,5.2-2.96.48-4.9.79-7.99,1-3.91.32-7.9.65-11.98,1h-3.99c-.31-1-1.18-.84-2-1l-2.11-1.57c-4.37-.95-12.73-3.26-11.87-8.42-1.03-1.49-2.59-7.84-3-9.99-3.36.22-4.43-16.42-4.04-17.27l2.04-2.71c-3.37-1.49-.45-5.21,1.44-7.2,5.18-5.46,11.74-5,18.53-3.78,1.6-1,3.91-1.19,6.92-.55,7.66-2.16,15.09-2.47,22.28-.92l.75,2.47Z"/>
      <path class="cls-55" d="M5.99,793.24c1.32-1.34,3.14-.67,5.49,2,5.02-.71,9.77,3.36,5.5,6.99-5.61-.81-11.93-2.43-16.97-4.99v-1c3.67-.3,6.93,1.64,5.99-3Z"/>
      <path class="cls-63" d="M358.44,901.12v1h-11.98c3.05-2.02,8.13-.74,11.98-1Z"/>
      <path class="cls-89" d="M324.5,537.52c11.2-12.86,20.47-23.51,37.7-29.56,15.73-5.52,32.49-4.93,48.77-2.53,11.4,1.68,42.66,8.09,51.3,13.58,5.5,3.49,19.58,41.75,21.06,46.66,9.11,30.13,14.94,60.46,16.75,91.91,3.84-.29,6.22.65,7.14,2.81-.38,1.7-2.28,2.4-5.67,2.1-.06,16.56-.88,33.16-2.46,49.82-1.32,20.99,14.58,21.13,30.52,18.46,5.23-2.67,7.42-1.5,6.57,3.54,1.58.53,1.33,3.16,0,4,1.97,3.52,1.64,5.18-1,4.99.61,5.77-2.46,7.59-7.99,8.04-18.63-1.96-29.68,4.67-37.26,21.81-10.65,24.07-19.18,49.02-26.9,74.31-.91,1.83-2.16,3.4-3.73,4.71-1.66,1.99-3.65,1.43-5.96-1.68-5.25-8.03-8.11-8.7-16.85-10.75-1.73-.41-9.42-1.9-10.39-1.65-1.61.41-2.9,7.99-2.8,9.97l-1.94,1.12c-2.26,3.15-6.07,3.5-8.99,1-3.05.42-6.28.38-9.35.05-5.05-.53-15.63-2.48-17.6-7.04l-1.42-1.57c1.72-12.46,2.76-25.03,3.11-37.72,1.82-.98,4.26-1.53,7.3-1.67l2.93-2.11c61.78-7.5,80.47-84.88,79.92-137.63-.59-56.58-23.27-133.13-82.88-149.88l-1.47-2.06c-.1.77-.32,1.91-.88,2-4.01.59-11.68-.79-15.6-2,1.97.76,4.06,1.26,6.27,1.49l-.28,1.5h-2l-2.98,2.04c-41.87,1.61-62.49,44.1-70.95,80.21-8.07,34.48-4.92,61.86-.92,96.19.1.85-.03,1.73-.2,2.62s-.49,1.84-.84,2.74l-5.12-.29c-13.23-5.87-26.82-11.77-40.98-13.65l-1.83-2.04-.48-4.12c7.04-17.45,14.25-34.76,22.99-51.45l3.45-2.37c.89-7.85,5.43-17.86,9.4-25.05l3.58-2.92c-.1-.98-.16-1.96-.08-2.92.52-6.66,14.53-33.62,18.83-41.38.42-.76,1.09-1.38,1.81-2s1.55-1.16,2.4-1.65c1.56-2.85,3.72-7.9,5.99-9.99Z"/>
      <path class="cls-93" d="M461.28,463.61c2.58,1.59,4.91,3.25,6.99,4.99,2.29.5,4.62,1.83,6.99,4,1.33.7,2.6,1.43,3,3,2.31-1.85,3.45-.92,3,2,1.36,1.74,2.69,3.41,3.99,4.99,10.23,10.46,18.17,22.82,23.81,37.09l13.14,29.84c-.17,2.57.5,4.56,2,5.99.89.24.87.58,0,1,.22,2.54.88,4.54,2,5.99.88.25.86.58,0,1,.98,2.08,1.32,4.08,1,5.99,1.16,1.75,2.29,4.81,2,6.99,1.02.73,1.4,3.49,0,4,1.18,1.05,2.18,2.72,3,4.99.89.24.87.58,0,1,1.11,3.96,1.77,7.95,2,11.99,2.66-.42,2.89.06,1,2,.23,2.68.56,5.34,1,7.99,2.86-.22,3.43,1.42,1,3,.19,3.38.52,6.71,1,9.99.66,1.08.66,2.42,0,4,2.55,10.9,4.38,22.9,3,33.96-10.18,3.77-23.47,3.82-33.95,1l-8.98-1.01c-2.74-38.9-9.44-77.78-24.48-113.85-2.15-5.16-10.04-23.49-13.92-26.03-37.69-10.55-83.88-25.97-117.84,2.06-4.16,3.44-7,8.29-10.47,11.5-2.04,1.89-5.53,3.07-7.03,4.46,9.58-22,19.73-34.06,43.93-38.96l4.34-2.84c29.45-5.5,58.43-.98,86.05,7.36,7.05,1.81,8.02-3.22,7.54-8.95-1.75-21.27-36.47-24.43-53.14-22.76l-1.87-1.78c2.13-1.34,5.31-2.11,7.78-2.7,13.63-3.25,28.76-3.99,42.14-3.29Z"/>
      <path class="cls-105" d="M535.17,743.3c1.44-.61,2.41.34,2.89,2.85l15.58-1.32c6.68-.22,11.82.41,9.49,8.46,1.21,12.32-15.55,66.21-20.97,79.91,1.31,3.25.64,4.58-2,4-.07,3.75-1.25,6.36-3.53,7.81l-75.92,9.02-1.42-1.84c8.68-24.84,15.7-51.73,26.78-75.59,6.39-13.76,12.94-25.62,29.64-27.28,7.23-.72,17.07,2.78,19.45-6.01Z"/>
      <path class="cls-32" d="M74.88,136.97h2.2s33.81,73.47,33.81,73.47c1.5,6.15,20.5,17.39,25.02,15.26,3.94-1.85-8.55-29.94-10.95-34.57-12.15.47-13.83-1.97-19.62-11.78-2.98-5.04-16.51-31.5-14.91-35.88,1.49-4.09,6.21-4.94,10.09-5.02l15.53.5c5.61-6.18,14.2-7.79,17.36,1.38,7.73.08,15.51-.13,23.32-.62,5.06.21,9.82,1.61,13.48,5.26,3.35,3.34,20.9,37.48,20.91,41.12,0,2.7-1.11,5.36-3.91,3.8,0,.78-.19,1.97-.68,2-4.5.26-35.83.71-37.57,0l-1.19-2c4.21,1.09,4.3,12.83,1,14.98,0-.78.19-1.97.68-2,5.53-.29,33.7-1.03,36.93,0,.99.31,1.47.68,1.82,2,4.49-2.33,9.62,10.13,4.94,13.08-13.24.34-26.31.5-39.2.48l.66,9.26,56.89,1.14,1.17,2.02c-8.41,11.85-19.55,10.75-32.95,10.99l-5.88,1.96c-7.01-.42-14.02-.46-21.02-.12-2.91,9.44-7.16,18.58-12.74,27.4l-2.3.73c-.44,1.41-1.11,2.41-2,3l.2,1.52c-1.34,3.92-1.41,7.41-.2,10.47,3.61-.15,11.91,1.31,13.94,5.1,1.49,2.78-.16,11.4-2.36,13.31-1.9,1.66-10.43,3.28-10.59-.43-9.01-.54-23.71-4.64-24.05-15.47-.38-11.87,27.48-44.38,23.96-49.36-.46-.66-9.24-2.55-11.16-3.32-26.37-10.55-33.76-47.25-42.91-71.94-2.69-7.26-9.34-18.2-8.78-25.3.11-1.38.94-1.97,1.05-2.42Z"/>
      <path class="cls-66" d="M573.11,654.4c.01.79-.08,1.98-.62,2.1-3.03.65-26.27,4.01-27.63,3.69-.79-.19-1.28-1.05-1.7-1.79-2.06-11.48-3.4-23.14-3.99-34.96-.88-.77-.52-2.02,0-3-1.72-2.48-2.43-5.97-2-8.99-.28-1.07-.68-1.98-1-3-.45-2.7-.78-5.36-1-7.99-.23-.68-.78-1.31-1-2-.24-4.04-.91-8.03-2-11.99-.04-.33.05-.67,0-1-1.62-1.97-1.96-3.64-1-4.99-1.65-.29-1.56-2.59-1-4-1.27-1.93-2.22-4.62-2-6.99-.8-1.74-1.46-3.74-2-5.99-.04-.33.03-.67,0-1-1.17-1.24-1.84-3.24-2-5.99-.04-.33.05-.67,0-1-1.54-1.14-2.2-3.14-2-5.99-9.11-24.52-21.09-47.16-35.94-67.92-1.71-.05-4.39-2.17-4.99-4-1.08-.93-2.26-1.38-3-2-.51-1.37-1.51-2.37-3-3-2.5-1.44-4.49-3.1-5.99-4.99-1.73.37-4.79-1-3.99-3,28.28,2.44,40.24,9.45,56.73,32.65,31.17,43.88,48.85,103.63,51.11,157.14Z"/>
      <path class="cls-89" d="M212.67,230.86l-59.91-.99-1-14,39.23.8c5.91-.85-1.74-11.78-2.79-11.78h-39.44c-.09-5.03.56-10.13-1-14.98h39.44c.36,0,1.89-2.2,2.04-2.91.45-2.13-16.59-35.59-19.07-38.98-8.43-11.51-26.48-3.29-37.72-6.01-1.28-.31-.92-5.91-7.19-6.11-5.37-.18-5.26,4.34-8.98,5.05-5.66,1.08-21.38-3.35-23.97,3.05-1.35,3.32,16.99,41.51,21.21,43.71s9.93.05,12.85,2.13c5.72,12.31,12.21,24.07,12.4,38.03-12.3-.24-24.12-6.46-30.12-17.31l-33.78-73.59c2.14-8.89,5.63-8.41,14.44-9.03,12.58-.89,25.55.48,37.99,1.03,20.05.89,35.53-3.41,48.22,14.68,10.23,14.58,33.54,52.7,39.3,68.56,3.22,8.87,2.98,11.39-2.17,18.65Z"/>
      <path class="cls-65" d="M76.88,665.38c1.17,1.57,2.2,3.46,3.09,5.68,24.72,14.64,53.2,25.79,81.36,33.68l2.42,2.59c2.1-2.47,8.85-1.1,9.49,2l1.12-2h18.44l1.4,2c.35-3.11,7.16-3.84,8.49-1,6.05,1.84,12.94,4.92,18.92,9.61l.05,2.38c4.99,4.06-3.64,4.85-7.37,4.85,30.91,14.37,61.9,28.62,92.97,42.77l.27,2.32c.66,1.37-2.79,13.54-3.61,13.47-.47-.04-.93-.24-1.38-.48l-2.36.71c-11.58-6.8-23.84-12.23-36.77-16.28l-.81-2.41-2.3,1.21c-4.14,11.21-5.71,12.2-17,10.82-19.69-2.4-22.78-6.99-11.07-24.37-1.18-.43-1.55-1.4-1.59-2.65-2.51,2.16-6.38-.81-8.51-2.7-4.64-.21-7.46-1.64-8.46-4.29l-3.19.98c-8.05-2.07-20.53-7.67-25.76-13.97-6.99-.25-16.65-5.48-20.97-10.99-6.23.47-14.32-2.91-17.97-7.99-10.98-1.76-22.57-7.68-30.95-14.98-16.64-7.62-38.78-14.97-53.92-23.97-8.36,1.65-16.62-12.58-8.99-16.98l2.92-.99c6.6,3.28,13.37,6.12,20.31,8.52l1.73,2.46Z"/>
      <path class="cls-72" d="M329.49,117.99c3.32,38.27,11.75,75.02-11.17,109.19-21.25,31.69-85.85,79.15-91.22,113.51-.42,2.7-1.07,11.25.55,13.04.24,3.44-4.97,6.7-6.99,3l-2.39-1.11c-3.9-27.75,12.1-49.21,28.45-69.76,3.51-4.42,7.17-8.77,10.88-13.04l2-3c14.13-15.35,47.58-48.25,53.95-66.39,7.59-21.6,1.21-60.06-1.04-83.45.66-5.56,15.12-7.38,16.97-2Z"/>
      <path class="cls-96" d="M222.65,407.67c-3.12,21.97-2.64,44.27-4,66.42-2.57,41.58-7.03,83.26-9.05,124.86-.15,3.01,1.35,6.55,1.07,8.5.88.4,1.74,1.14,1.54,2.01-1.7,7.56-22.9,7.47-19.51-3.01l-1.96-.8c2.78-65.51,6.74-130.83,11.86-195.94l2.08-1.04c3.65-2.87,13.99-3.39,17.97-1Z"/>
      <path class="cls-32" d="M175.73,326.76c-4.69-1.12-5.76-4.57-6.7-8.83-.8-3.61-1.43-12.36,2.71-13.14-3.66-2.94,3.25-10.07,6.18-12.41,1.31-1.05,2.85-1.76,4.44-2.29-3.14-.72-4.35-2.15-3.63-4.29,22.94-5.73,41.61-9.62,55.73-29.65,19.5-27.67,2.93-39.73-7.98-64.57-5.92-13.48-8.98-28.22-15.34-41.58-1.05-3.91-1.08-7.21,2.62-9.45,11.19-6.79,12.93,9.51,17.06,15.72,1.72,2.59,4.43,4.26,6.24,6.75,9.18,12.65,21.48,57.91,20.54,73.32-1.13,18.35-17.72,41.67-33.88,50-6.17,3.18-26.4,7.75-29.01,9.93-1.06.88-1.62,11.45-2.46,14.52-2.12,7.74-7.77,15.93-16.49,15.96Z"/>
      <path class="cls-115" d="M179.72,241.85l-4.87,2.63-4.12,42.32c-.2,2.9-4.88,3.75-5.99,1-9.38,4.17-19.58,16.94-7.3,23.76l1.31,2.21c3.43,1.62,7.91,7.35,8.99,10.99l-3,35.96-2.1,1.13c-9.2-2.57-20.16-.67-28.58,3.65l-2.28-.78,4.99-59.93c6.94.42,12.65.11,12.04-8.47-.54-7.54-5.8-5.53-10.66-7.43-1.65-.64-1.83-1.72-2.37-2.08-2.95-1.7-.71-7.99,1-9.99-.62-1.83,0-3.41,1-4.99,2.37-9.31,13.08-18.77,13.11-29.84,9.5-1.27,19.08.04,28.82-.13Z"/>
      <path class="cls-27" d="M209.67,352.73c.92-1.23,2.41-.92,4.48.95,3.16.34,5.32,1.35,6.5,3.04,5.37-.23,3.33-1.94,6.99-3,.2.23,2.31-.1,2.86,1.6.58,1.8.26,7.09.14,9.39,4.14,3.65.19,11.08-3.02,14.56l9.47-.47,1.54,1.89c.48,8.82-.05,21.88-9.58,25.87-2.85,1.19-3.95.71-6.39,1.1-5.54.88-12.58,1.24-17.97,1-1.07,3.16-3.94,1.25-5.9-.55-7.56-11.05-16.84-4.65-21.77,5.23-3.92,4.04-14.87,7.51-16.25.32-2.56-.44-7.59-3.08-5.99-5.99-7.1-1.21-6.55-17.37-4.72-23.26,1.05-3.36,4.63-11.13,6.72-5.71l1.57,1.78c-.77,5.91-.82,14.55.54,20.37,1.18,5.04,1.86,7.78,1.36.93-.7-9.57,3.14-21.54,14.23-22.02-3.06-4.01-8.1-5.4-12.61-2.97l-2.08-1.09c-1.66,1.25-2.95.39-2.24-1.56,1.67-4.62,11.84-4.63,15.22-1.44.33-.03.67.03,1,0,2.86-.05,5.35,2.02,7.45,6.22,1.41,2.69,22.17,1.47,22.94.59-2.68-4.05-3.16-6.98-1.44-8.8-.04-1.55,1.73-13.66,2.21-15.27.55-1.84,3.02-3.36,4.78-2.71Z"/>
      <path class="cls-42" d="M573.11,654.4c1.2,28.6-1.18,55.89-6.31,84.09-.88,4.82-1.61,10.38-3.68,14.8-.2-1.99-.44-5.08-2.66-5.83-5.04-1.72-18.49.52-24.29.84l-1-5c.29-1.08.68-3.49,1-4.99.72-.76,1.03-.3.92,1.38,4.04-25.79,5.77-51.73,5.19-77.81l.88-3.48,29.95-4Z"/>
      <path class="cls-79" d="M40.94,108c-.82,29.8-5.23,60.5,1.49,89.91,11.1,48.64,63.9,110.35,52.43,159.81,2.05,1.63,1.68,2.44-1,2-2.64.73-8.25,1.86-8.48-1.72,7.09-23.43-2.45-46.66-13.06-67.39l-33.12-62.94c-19-36.71-18.15-79.97-13.53-119.53l2.3-1.14c.9-4.19,12.81-4.05,12.98,1Z"/>
      <path class="cls-48" d="M318.5,547.51c-8.23,15.03-15.46,32.34-22.96,47.95l-3.99,3.66-20.98,9.04c-2.8,2.77-5.13,3.53-6.98,2.28-1.3,2.78-7.7,4.27-9.98,3-3.2-.43-12.54,5.36-13.83,1.34-1.57-4.92,1.63-30.89,5.19-34.96,7.63-8.72,33.11-12.1,44.26-17.15,10.06-4.56,17.42-15.36,29.28-15.16Z"/>
      <path class="cls-27" d="M93.85,359.72c.08-.08.97-1.89,1-2,5.52,2.3,3.81,9,3,13.98,1.61,3.08,1.17,7-1.32,11.75,15.08-.09,30.21-.33,45.38-.73l1.87,1.96c4.74,2.41,2.19,10.39-.86,13.96-2.77,3.24-15.75,6.44-19.11,4.02l-2.12,2.59c-5.47,1.48-11.12,1.87-16.97,1.16-2.33,3.84-5.83,8.87-10.52,9.83-2.85.58-7.4,1.29-7.32-2.59-.88,2.93-7.45,3.18-7.99,0-.83,3-7.67,2.15-7.99-1-6.35-1.33-11.39-5.97-13.3-12.17-2.03-6.6-2.42-24.59,3.79-28.86,1.49-1.02,2.36-.6,3.52-.93,4.55.31,7.39,11.05,7.85,15.39s-.29,13.6-3.85,15.58l-1.94-.99c.96-1.68-1.52-19.98-3.81-17.58-3.03,3.17-1.65,20.76,4.75,20.57,2.35-.32,4.21-6.59,4.66-11.33-1.05-5.56.41-8.18,4.38-7.86-.89-5.21-1.87-9.89-6.01-13.49l.97-2.29c-.68-2.82.27-8.13,1.99-10.54.58-.82,1.72-1.09,2.01-1.44,1.82-.94,4.02-.63,6.59.94,3.79,2.22,7.59,2.9,11.38,2.06Z"/>
      <path class="cls-64" d="M592.08,858.17c6.99-.03,11.36,2.79,9.98,9.99-43.86,1.68-84.3,9.79-127.44,15.84-36.32,5.1-72.05,10.31-108.19,16.12.23-1.36-.34-6.67,0-7,.4-.39,8.4-.15,10.96-1.52,1.24-.66,4.8-7.27,5.02-8.46,13.22-.93,26.74-2.92,40.58-5.97,53.13-6.14,106.55-12.44,159.72-19.37,3.12-.41,6.28-.06,9.38.37Z"/>
      <path class="cls-103" d="M145.77,711.33c1.21.96,2.19,2.06,2.93,3.32l13.84,53.31c2.77.27,4.17,1.37,4.2,3.3-1.48,2.38-4.22,3.03-8.23,1.96-13.18-3.9-26.17-8.52-38.96-13.83-3.54-.09-6.11-1.12-7.73-3.11,1.94-7.26.68-15.04.96-22.51.05-1.31,1.04-2.59,1.04-2.96v-23.97c0-2.21,2.05-7.22,1-10.49,10.45,4.79,20.6,10.08,30.95,14.98Z"/>
      <path class="cls-89" d="M368.43,498.57c9.17-14.47,25.69-26.58,42.93-28.97,15.23-2.11,43.41.67,53.33,14.07,3.69,4.98,6.49,18.21-.43,21.38-4.38,2-22.62-4.91-28.75-6.17-21.7-4.43-45.39-4.7-67.08-.31Z"/>
      <path class="cls-87" d="M22.96,91.02c2.32,4.32,2.42,9.23,1.71,13.98,1.76-.1,2.81-.03,3.28,2-.92,3.98-1.84,9.41-2.04,13.44-1.03,21.09-1.73,53.86,3.11,73.89,6.95,28.77,24.14,54.5,37.39,80.46s30.41,54.79,20.45,84.92h6.99c-3.45,3.39-14.16-.34-17.97-2.99,12.61-15.83-4.42-51.1-12.12-67.28-13.82-29.05-33.51-58.24-39.5-90.33-5.24-28.06-2.61-57.22-3.33-85.65l2.04-22.43Z"/>
      <path class="cls-27" d="M42.93,3.12c.17,1.8-.69,2.56-2.43,2.47,3.61.64,5.42,1.41,4.43,5.52-5.98,23.75-3.27,70.26-3.99,96.89-4.92-2.82-8.29-1.51-12.98-1-1.61.18-3.37-.11-5,0-.02-5.32.05-10.67,0-15.99-.16-20.76-.46-41.71-.04-62.47.1-5,2.07-8.8.58-14.48-.4-1.53-2.01-3.01-2.35-4.71-2.14-10.65,15.16-11.44,21.78-6.25Z"/>
      <path class="cls-48" d="M324.5,24.09c0,2.89-1.69,4.34-1.94,6.55-2.45,21.35,4.9,63.83,6.93,87.34-5.9-2.04-11.72-1.14-16.97,2-.59-6.11-2.46-12.31-2.98-18.49-1.9-22.38.36-47.02-5.05-68.87-.74-2.98-2.91-4.23-2.95-7.54,2.11-2.59,17.93-3.67,21.44-2.93l1.53,1.93Z"/>
      <path class="cls-27" d="M42.93,618.44l2.49-1.52c1.31,2.9,2.8,5.4,4.5,7.51,1.91-.57,4.28-.63,7.1-.2,1.93-1.81,3.89-3.08,5.88-3.8,2.86-4.34,7.55,1.22,6.89,5.44-1.97,6.99-.26,11.08,3.61,17.1,1.33,3.11,2.69,8.47-1.52,8.42l-2.27,1.55c-7.83-3.59-12.97-2.94-15.44,1.95l-2.26.49c-2.8,9.8,1.17,12.33,8.99,16.98-22.53,11.06-39.18-7.34-32.27-29.78,1.94-6.29,5.97-6.17,7.56-9.42,1.68-3.44,1.01-10.39,2.65-13.09.93-1.53,3.32-1.1,4.08-1.65Z"/>
      <path class="cls-38" d="M78.88,413.66l1.88.97c-9.56,69.6-19.13,139.22-28.69,208.85l-2.15.95c-1.07-.45-2.91-.3-3.76-1.21-1.56-1.69-.06-5.64-3.23-4.78,4.97-3.61,3.37-14.38,4.01-19.47,7.77-62.11,16.85-124.11,23.95-186.31,1.76.37,5.78.74,7.99,1Z"/>
      <path class="cls-27" d="M9.98,763.27c5.51-1.28,9.06,2.29,10.63,10.72,9.54-1.26,19.13-1.95,28.78-2.06l1.53,2.33c3.34,1.74,3.44,11.41,1,13.98,5.41,5.28-7.08,8.81-12.06,7.92.4,2.72-.24,4.41-1.92,5.06-8.42.88-12.11,2.27-20.97,1-.85-7.32-1.88-3.9-6.29-5.19-.39-.12-4.48-3.49-4.7-3.8-3.6-5.26-4.73-23.88-.05-28.54,1.74-1.73,2.7-.95,4.04-1.43Z"/>
      <path class="cls-112" d="M164.74,360.72c1.95,1.32,5.17,9.94,7.99,11.99-4.75.4-10.9-1.73-13.96,2.5l.98.49c2.05,2.18-.72,4.6-3,3-.05.05-.39-1.08-1.4-.07-6,6-5.72,22.54-.6,29.04.14,2.92-2.7,3.51-3.99,1-5.74,5.57-15.98,9.68-23.96,8.99-.66,2.38-1.34,2.48-3.42,2.06-5.47-1.1-5.05-15.43.42-17.04,3.17-.66,6.7-1.55,10.23-2.25,9.42-1.88,11.17-6.21,9.74-15.73l-2.13-.54c-2.4-5.55-4.21-8.48-10.64-7.54-2.63-.38-4.34-1.68-2.2-3.9-.38-2.56,1.11-6.33,3-7.99,5.77-5.1,26.49-8.35,32.95-4Z"/>
      <path class="cls-118" d="M192.7,606.45c3.76,3.2-.21,5.3,6.48,5.99,4.43.46,10.7.61,11.5-4.99,5.77.68,3.25,6.21,4.43,10.05,1,3.24,6.35,5.39,5.55,9.93,2.14,1.15,1.05,2.29-.38,3.67-5.57,1.91-10.44,4.68-14.6,8.32l1.59,1.59c-1.26,8.95,7.79,9.86,14.35,6.96l2.04,1.43c4.25,2.57.85,10.8-3.99,8.99-.67.42-1.29.7-1.72.52-11.04-4.5-24.74-10.66-35.45-15.93-.42-.2-.63-.83-.77-1.58-6.31-3.48-2.22-14.1,1.92-18.39-.15-3.47,1.55-22.41,7.58-18.88.85.5,1.27,1.38,1.48,2.31Z"/>
      <path class="cls-105" d="M599.07,823.21c3.93.14,6.88,2.42,8.85,6.84l5.1,9.08,26.4-1.84,1.58,1.89c.74,10.56.77,16.68-9.98,19.98-2.45,1.46-3.86,3.98-4.22,7.57l-3.76,1.42c-7.16.69-13.85-.27-20.97,0-1.99-1.34-2.43-5.83-3.23-6.75-1.1-1.28-5.57-.97-6.75-3.24l1.09-2.24c6.81-1.01,12.4-3.23,10.54-11.24l1.35-3.5-2.29-.9c-1.45-7.34-8.21-10.69-15.13-8.37l-1.55-1.72c1.42-8.66,7.43-5.99,12.98-6.99Z"/>
      <path class="cls-100" d="M605.06,841.19c-.18,2.56-.58,4.92-3.31,5.88l-62.17,6.95-2.51-.9c-.14-5.2.89-10.51,3.09-15.93.53-1.09,1.71-3.28,2-4-.4,3.37,1,1.51,2.8,1.31,13.79-1.49,27.28-3.57,41.13-4.31,1.3-.07,2.83-1.15,5.43-1.03,8.38.4,11.74,4.32,13.54,12.02Z"/>
      <path class="cls-100" d="M166.74,771.27c1.27-3.13,7.86-4.83,9.98-2,.79-3.45,9.22-3.48,9.98,0,8.37-1.15,19.64,2.36,27.87,5.49l2.09,2.5c3.2,1.19,6.81,11.85,3.99,13.98l-1.14,1.78c-30.63-7.47-61.21-15.09-91.74-22.87l-.97-4.88c-2.75,1.4-10.42,4.29-11.98,1-2.38-.31-6.98-7.11-4.99-8.99.96-.05,1.89-1,2-1,18.99.55,36.55,17.53,54.91,14.98Z"/>
      <path class="cls-58" d="M103.84,758.28c3.7-1.71,9.17,3.89,6.99,6.99l.36,2.89c-16.7,2.45-34.82,4.24-52.12,5.92-2.73.27-5.47-.25-8.14-.81-2.86-1.49-8.04-10.07-5.99-12.99,17.04-.98,34.04-1.87,51.46-1.95,3.18-.02,4.01-1.59,7.45-.05Z"/>
      <path class="cls-108" d="M641,839.19l-29.28,2.04c-3.72-6.28-6.22-13.89-12.65-18.02,17.62-3.19,40.15-9.58,41.93,15.98Z"/>
      <path class="cls-57" d="M257.6,272.82c-12.78,23.19-31.72,35.2-36.65,63.72-1.09,6.32-2.39,13.99-.29,20.18-2.74.12-4.74-.22-7.29-1.21-2.13-.82-3.48-2.71-3.69-2.79,1.34-6.39,1.18-12.24,2.67-18.8,5.89-25.93,27.17-42.6,44.26-61.11h1Z"/>
      <path class="cls-109" d="M128.8,372.71c.11.04.46,1.55,1.65,1.8,2.73.58,5.36-.53,7.91,1.13,1.87,1.21,5.07,6.75,5.42,9.06l-49.92.99c1.08-4.71,3.21-9.18,3.99-13.98,7.82,5.62,18.28,4.47,27.42,2.96,1.42-.23,3.22-2.07,3.53-1.96Z"/>
      <path class="cls-12" d="M44.93,760.28c1.93,4.25,5.25,8.24,5.99,12.99.89.24.87.58,0,1-10.07-2.35-21,2.14-31.34,2.06-1.17-.33-3.3-14.74-9.59-13.05,10.57-3.74,23.82-2.36,34.95-3Z"/>
      <path class="cls-36" d="M202.68,370.71c.06,2.49,5.18,9.31,3.03,10.52-1.45.82-21.99,1.86-23.99.95s-5.81-7.67-8-9.48c.16-.01,1.09-.94,2.41-1.04,8.71-.71,17.8-.79,26.54-.95Z"/>
      <path class="cls-111" d="M178.72,285.8c2.56,2.75,7.44,2.04,8.99,5.98-7.53-1.65-14.11,6.52-15.98,13-4.44,3.36-15.87-3.46-11.98-9.99-1.51-2.67.16-5,4.99-6.99,2.37-.55,3.84-.63,5.99-1,2.73-.47,4.61-.16,7.99-1Z"/>
      <path class="cls-53" d="M171.73,304.78c-2.14,7.44-1.69,16.29,3.99,21.98-3.08.01-5.28-.7-7.99-2-3.42-1.64-7.93-7.43-8.99-10.99-4.77-3.04-6.19-18.51,1-18.98-.14,6.66,6.93,8.42,11.98,9.99Z"/>
      <path class="cls-92" d="M263.59,610.44c3.11.69.54,5.96-1.67,7.09l-54.35,23.24-1.89-1.36c2.36-6.66,7.29-6.45,12.37-9.13,1.42-.75,2.43-2.77,2.61-2.86,11.06-5.24,22.64-6.98,32.95-13.98,5.19-3.52,5.81-1.64,9.98-3Z"/>
      <path class="cls-54" d="M71.89,368.71c.32,1.35,3.41,3.66,4.51,5.98.82,1.72,3.35,11.16,2.49,12-7.53-1.05-4.2,1.69-5.24,7.26-.34,1.82-2.99,10.11-4.23,10.41-.54.13-1.3-.71-1.52-.68-1.7-1.17-1.12-2.09,1-2,5.18-8.64.99-22.79-3.99-30.97,2.93-.83,4.84-.06,6.99-2Z"/>
      <path class="cls-34" d="M238.63,380.7l-13.97.99c.04-3.39,3.28-5.08,4.49-7.98s1.33-5.94,1.49-8.99c6.99,1.97,7.66,9.92,7.99,15.98Z"/>
      <path class="cls-19" d="M324.5,24.09l-22.96,1c-.04-3.32.78-2.49,2-4,5.42-2.98,12.01-3.42,17.97-2,2.37,1.57,2.99,1.87,3,4.99Z"/>
      <path class="cls-83" d="M42.93,3.12c4.39,3.45,3.15,3.43,2,7.99.13-2.68-1.39-2.58-3.32-3.18-5.75-1.77-12.67-.38-18.65-.83,4.5-7.33,13.56-1.88,19.97-3.99Z"/>
      <path class="cls-33" d="M109.83,757.28c1.59,2.65,4.12,6.08,4.99,8.99,5.39,1.91,3.53,16.28-3,15.98-1.89,2.2-1.96-6.02-.92-8.17-.87-3.46-.89-6.4-.07-8.81-1.62-3.24-3.6-5.47-6.99-6.99,1.79-2.55,4.26-.9,5.99-1Z"/>
      <path class="cls-64" d="M631.02,859.17l-1.49,2c1.16.12,8.44,2.75,7.48,3.98-4.61,1.52-9.12,2.54-13.98,3.01,3.76-1.29,2.22-6.36,3.16-7.82.58-.91,3.74-.83,4.83-1.17Z"/>
      <path class="cls-94" d="M321.5,19.1l-17.97,2c4.08-5.05,12.58-5.58,17.97-2Z"/>
      <path class="cls-73" d="M465.28,464.61c1.08,1.33,2.61,2.06,3.99,3,1.32,1.3.76,1.62-1,1-2.53-1.22-6.22-2.2-8.98-3.01l1.99-1.99c1.2.06,2.69.89,3.99,1Z"/>
      <path class="cls-104" d="M257.6,272.82h-1c1.05-1.13,2.15-2.07,3-3,.43,1.86-1.72,2.5-2,3Z"/>
      <path class="cls-64" d="M117.82,783.25c2.09-1.93,7.41-2.7,9.98-1l3.02-1.94c21.08,3.28,41.91,8.38,62.5,15.3l28.73,4.37.61,2.24c3.75.12,7.54.34,11.19,1.29,48.75,12.65,97.59,25.09,146.46,37.04l5.1,2.63c3.3.82,7.19,2.81,10.77,3.71,5.39,1.36,10.76,2.21,16.19,3.28.62.6,1.08,1.8.57,2.08-3.16,1.72-26.33,3.86-31.84,4.19l-3.67-1.27c-1.99,2.18-7.11-1.31-5.99-4-9.43-4.31-16.9.85-25.5.5-1.83-.08-3.46-1.42-4.45-1.49l-10.22-.61-92.59-24.23c.32,3.75-1.03,7.31-4.61,8.87,29.22,9.53,58.37,18.52,87.45,26.97-.4,4.04,1.17,15.57,2,19.98-3.73-.54-24.94-3.95-24.94-7.49,1.53-2.32,7.15-3.5,3.28-5.3l-108.34-32.54c-15.9.8-31.04.88-46.73-2.1-27.87-5.3-54.99-17.74-82.86-23.5-.53-.73,1.17-3.74,2.03-4.45,1.78-1.48,4.54-.69,4.95-2.52-4.37.58-8.09-2.78-11.91-3.57-6.74-1.38-14.19.84-21.03,1.56-.95-10.29.86-5.72,8.02-7.46,2.96-.72,6.49-2.37,5.96-5.53.28-.87.62-.86,1,0,4.08-.03,7.97-1.26,11.87-1.24.47-1.42,3.01-1.22,4.29-.4.71-2.87,2.07-2.84,3.81-.36,1.32.29,2.65.29,3.99,0,1.25-.99,3.62-1.69,5.02-1.13.85-1.44,3.3-1,4.99-.61,7.5-1.25,15.13-1.18,22.93-1.26-1.21-1.43-.67-1.93,1-1h1l5.99,1Z"/>
      <path class="cls-64" d="M340.47,901.12c-3.91-.74-17.61-2.7-19.94-4.53-4.49-3.53,5.57-2.85,5.96-5.46.4.57,6.06,4.78,7.08,5.4,2.45,1.46,6.85.81,6.89,4.59Z"/>
      <path class="cls-65" d="M459.29,852.18l77.22-9.14c1.38-.43,2.9-4.29,3.65-5.84.79,5.45-1.02,9.83-1.99,14.98l63.37-7.01,3.52-3.97c3.03,12.97-1.65,14.89-12.98,16.98-52.52,9.71-109.73,12.87-163.1,20.12-13.7,1.86-28.81,5.55-42.12,6.83-1.67.16-5.16,1.1-4.45-1.98.48-2.61.21-9.04,0-11.99.54-1.95,2.7-2.26,6.5-.95l63.79-8.8c-8.4-12.04-15.28-14.95-29.73-10.45l-1.62-1.78c-.37-2.97,1.1-12.78,4.48-13.02,2.24-.16,18.13,2.78,20.18,3.83,5.08,2.61,8.9,11.74,13.28,12.19Z"/>
      <path class="cls-100" d="M421.34,849.18c5.96-.78,14.15-3.37,20.02-1.55,2.35.72,15.69,13.7,13.93,15.53l-66.45,9.03-6.44-1.04c-.05-.66.07-1.35,0-2-2.02-.72-3.3-3.05-3.85-6.99-1.64-2.79-2.03-5.12-1.14-7,10.97-2.53,22.28-2.59,33.37-4.06.84-.11,1.39-.91,1.57-.93,2.98-.38,6.03-.61,8.99-1Z"/>
      <path class="cls-108" d="M377.41,855.17c2.02,2.15,4.64,10.81,4.99,13.98l-33.46,3.09c-3.7-.04-6.83-9.83-7.75-13.33-.28-1.05-1.27-1.15.24-2.28l29.99-5.46c.52.24,5.74,3.73,5.99,4Z"/>
      <path class="cls-69" d="M332.19,859.33c11.97-3.6,13.19,30.53,4.76,31.86-11.1,1.75-12.31-29.59-4.76-31.86Z"/>
      <path class="cls-39" d="M380.41,513.55c17.46,1.84,31.6,11.61,43.42,24.05,49.58,52.17,57.66,169.52,16.64,228.3-8.28,11.86-18.23,22.31-32.1,27.35-.56,3.53-10.42,5.36-11.98,2-4.01,1.2-7,.98-8.99-.67v-39.11s2-1.17,2-1.17c1.62-2.4,7.92-5.6,11.12-6.94,1.01-.43,3.65-.92,4.86-1.06,3.46-3.72,7.12-7.39,10.98-10.99,1.51-2.51,3.17-4.84,4.99-6.99.75-3.09,1.92-6.49,3.99-8.99.78-2.17,1.78-4.16,3-5.99,1.01-5.92,2.31-12.17,3.99-17.98,5.39-29.32,3.53-58.68-5.97-86.94-19.7-58.61-73.4-71.61-96.87-7.95-.58,4.79-1.95,10.61-3.99,14.98,1.92,1.75,1.57,2.42-1,2-2.11,16.57-2.68,33.26-2,49.94l2.31,2.35c2.42,16.3,6.5,32.63,14.11,47.34l-.45,3.25c1.02,2.57-.08,3.01-2.54,1.84-8.05-9.02-18.55-15.15-28.93-21.07l-1.48-2.74c-1.47,1.24-2.02.63-1-1-8.23-42.41-8.02-88.41,8.5-128.84,12.1-29.61,32.82-55.18,67.38-54.95Z"/>
      <path class="cls-62" d="M230.64,750.29l1.18,2.33-5.72,11.69c-7.65,11.41,15,13.55,22.06,13.72,5.3.13,7.24-.59,9.61-5.7,1-3.62,2.61-5.97,4.82-7.06,10.64,3.78,31.56,11.2,39.94,17.98,1.53-1.29,2.87-1.96,3.99-2l1.92,1.15c-.43,8.55,1.55,25.72,13.92,20.62l2.12,1.21c-.21,4.84,6.81,4.44,11.45,3.68,10.41-1.7,15.36-8.81,17.29-18.63l2.54-.87c11.29,7.35,23.37,11.3,36.25,11.83l2.35,1.99c-.64,1.83-4.5.56-4.97,1.02-1.73,1.68-.56,34.85-4.01,39.93-54.08-13.38-109.82-24.62-162.75-40.95-2.1-1.44-4.6-9.47-2-10.99-.98-4.11-3.5-10.67-3.99-13.98l-2.17-1.34c-1.09-5.12,2.85-16.92,7.16-19.63-1.3-.85-1.72-2.73-1.26-5.64-4.49.31-7.4-.81-8.73-3.35-2.56-1.42-.77-4.64,2-4,7.44,2.61,9.47,3.04,16.97,6.99Z"/>
      <path class="cls-102" d="M394.39,802.23c-9.72.15-16.68-1.07-25.64-4.81-2.38-.99-13.54-7.91-14.29-7.18-.93,16.71-18.45,23.86-32.95,17.97-.22-.29,2.41-3.04,2.99-3.98,1.42-1.37,2.75-2.7,3.99-4,3.68-12.23,4-25.42-5.01-35.56l.02-2.4c-1.88-2.4,2.51-6.6,4.99-4.99,1.16-.37,1.83.63,2,3,1.99-1.03,6.2,1.71,5.99,4,2.23-.59,4.73-.56,7.5.08,4.52-11.4,10.49,1.15,12.47,7.78.67,5.14,1.66,10.17,2.99,15.11,2.27-.54,4.81.19,7.62,2.16,4.6.75,7.72,2.36,9.35,4.83,1.77-1.61,4.47-1.67,8.08-.19,3.92,1.38,7.88,1.78,11.89,1.19,4.87-.14,7.45-.91,11.98-2,49.45-19.71,60.83-79.79,62.31-127.46,1.79-57.64-24.28-139.39-88.27-152.23-1.62-1.89-5.36-.18-5.99-3h16.47c15.98,0,38.89,19.5,48.4,31.49,40.72,51.38,48.05,137.56,25.01,197.77-11.89,31.07-35.89,61.87-71.91,62.41Z"/>
      <path class="cls-42" d="M541.16,659.39c3.29,23.54.09,48.03-3.29,71.58l-1.7,3.33-1.02-3.53c-8.51,4.72-30.87,5.19-35.44-4.45-5.29-11.17-1.04-25.7-.45-37.43.39-7.6-1.3-19.25-.04-26.01.7-3.75,4.94-2.39,7.99-2.5,11.3-.4,22.66-.32,33.95-1Z"/>
      <path class="cls-82" d="M304.53,697.35c.55.28.81.9,1,1l2.49,3.12c3.55,18.58,11.83,35.85,20.74,52.33l-.26,3.48-4.99,4.99c-3.48,1.39-11.37,3.86-12.98-1l-1.99,1.63c-11.86-4.28-23.28-9.64-34.26-16.08l-.69-2.54-.19-1.7,16.28-31.75c1.02-2.2,4.37-9.55,2.48-10.97-3.8-2.87-33.9-9.04-34.44,2.89l-8.6,18.82c-1.95,5.97-4.78,8.54-8.49,7.73-2.66,1.92-6.48-1.08-4.99-4-.2-.84-.37-1.69-.39-2.54-.12-4.21,14.41-32.04,17.84-38.24.78-1.41,2.2-2.33,3.52-3.17,7.04-.11,14.71,2.74,21.5,4.96,9.09,2.97,17.97,6.75,26.42,11.02Z"/>
      <path class="cls-68" d="M382.41,513.55c56.3,2.49,86.66,82.75,89.85,130.37,3.19,47.57-7.94,135.92-63.89,149.32,54.78-31.92,62.58-112.23,52.6-169-8.05-45.8-31.74-97.92-80.56-110.69.66,0,1.33-.03,2,0Z"/>
      <path class="cls-75" d="M295.54,595.46c-4.54,9.43-8.06,18.56-12.98,27.97-5.29,1.1-10.72,3.61-15.65,5.82-13.57,6.08-29.53,15.63-43.26,20.15-5.42,1.79-12.1,4.16-16.43-1.04-2.42-2.9-2.78-5.46-1.54-8.95l56.31-24.08,1.6-4.89c1.28-.42,4.45-3.36,6.31-4.17,8.49-3.72,16.93-7.63,25.64-10.81Z"/>
      <path class="cls-18" d="M543.16,658.39c1.47,27.55-.39,55.3-6,82.4l-.99-2.48c.24-1.16-.21-2.78,0-4,4.19-24.51,5.89-49.92,4.99-74.92-.4-11.29-1.55-22.76-3-33.96,0-1.09.34-1.76,1-2,2.02,11.99,3.34,22.77,3.99,34.96Z"/>
      <path class="cls-31" d="M435.07,820.47c2.35,2.48,1.46,10.26-2.13,9.67-4.59-.76-3.36-15.45,2.13-9.67Z"/>
      <path class="cls-26" d="M453.28,525.54c1.68,1.12,1.37,11.8-2.45,10.97-5.02-1.1-2.15-14.03,2.45-10.97Z"/>
      <path class="cls-74" d="M453.39,803.34c4.92-3.06,7.34,7.04,3.38,9.88-4.8,1.38-5.35-8.65-3.38-9.88Z"/>
      <path class="cls-116" d="M402.31,831.26c1.43,1.17,1.32,10.73-2.4,9.92-4.89-1.07-2.47-13.93,2.4-9.92Z"/>
      <path class="cls-13" d="M271.57,666.38c-.1,2.68,1.36,11.51-3.48,9.98-2.73-.86-2.89-12.63,3.48-9.98Z"/>
      <path class="cls-7" d="M522.19,549.51c-13.43-19.88-18.37-45.06-36.94-66.93-1.32-1.4-.77-1.92,1-1,16.52,15.86,29.73,45.89,35.94,67.92Z"/>
      <path class="cls-86" d="M534.17,598.46c-1.8-5.69-1.41-7.5-2-11.99,1.08,3.21,3.65,9.14,2,11.99Z"/>
      <path class="cls-60" d="M539.16,620.43c-.09.67-.23,1.09-1,1-.35-2.51-3.37-7.73-1-9.99.79,3.06,1.41,5.88,2,8.99Z"/>
      <path class="cls-70" d="M536.27,608.5c-.27-.09-.45-.45-.59-.74-.75-1.79-1.99-4.51-1.35-6.49.35-1.16,1.03-.83,1.4.13.67,1.89,2.21,5.74.63,7.11h-.08Z"/>
      <path class="cls-51" d="M486.24,481.59l-1,1c-1.12-1.32-3.91-2.67-4.97-4.5l.98-.49c1.52,1.3,2.82,1.92,4.99,4Z"/>
      <path class="cls-113" d="M530.18,576.48c-.28.87-.62.86-1,0-.6-2.33-1.43-4.2-2-6.99.28-.87.62-.86,1,0,.66,2.34,1.45,4.6,2,6.99Z"/>
      <path class="cls-3" d="M475.26,472.6c-2.42-1.25-4.95-3.01-6.99-4l1-1c2.59,1.74,3.96,3.39,5.99,4.99Z"/>
      <path class="cls-101" d="M526.18,562.5c-3.78.96-1.85-4.86-2-5.99,1.72,1.57,1.78,3.87,2,5.99Z"/>
      <path class="cls-71" d="M524.18,555.5c-4.1.86-1.79-5.68-2-5.99.54,1.91,1.62,3.51,2,5.99Z"/>
      <path class="cls-67" d="M528.18,569.49h-1c-.49-2.43-.68-3.68-1-5.99,1.5,1.54,1.44,4,2,5.99Z"/>
      <path class="cls-60" d="M531.17,580.48c.29,1.68.76,3.24,1,4.99-1.72-.67-2.54-3.24-3-4.99.38-2.71,1.03-2.46,2,0Z"/>
      <path class="cls-76" d="M531.17,580.48h-2c-.28-1.09.28-2.9,0-4h1c.31,1.33.77,2.66,1,4Z"/>
      <path class="cls-18" d="M539.16,623.43l-1,2c-.16-1.27.18-2.73,0-4l1-1c.17.91-.16,2.07,0,3Z"/>
      <path class="cls-9" d="M478.26,475.59c-1.26-1.05-2.3-2.45-3-3,1.37.71,3.24.13,3,3Z"/>
      <path class="cls-52" d="M165.74,149.95l16.97,36.96h-34.95c-2.24-13.02-8.29-24.79-12.98-36.96h30.95Z"/>
      <path class="cls-106" d="M118.32,148.96c.57.18,1.08,1.09,1.28,1.71l6.21,35.25c-2.51-.19-5.71.6-8-.49-3.54-1.7-14.66-30.98-16.97-36.47,4.41.87,13.84-1.18,17.47,0Z"/>
      <path class="cls-78" d="M144.65,199.77c-6.02,3.77-15.25-11.14-12.74-14.74.25-.36,7.33-2.17,8.42-2.17,6.2.03,6.36,15.63,4.31,16.91Z"/>
      <path class="cls-61" d="M141.78,177.92c-4.33-.64-7.96.88-11.97,2-5.82-22.72,11.11-24.03,11.97-2Z"/>
      <path class="cls-28" d="M136.79,276.81c-.49,2.95-.31,6.85-1,9.99-.93-.61-3.76-1.39-3.86-2.48,1.89-2.9,2.54-6.4,3.86-9.51.72-.56,1.05.11,1,2Z"/>
      <path class="cls-90" d="M136.79,276.81l-1-2c.48-1.15,1-2.19,2-3-.27,1.06-.83,4-1,4.99Z"/>
      <path class="cls-97" d="M150.77,624.43c4.08-7.9,12.35.89,11.79,8.03,3.51-.05,6.83,3.01,3.19,4.95.87.28.86.62,0,1l-3.31,1.22c-6.16-3.92-66.92-5.31-67.55.23-.26,2.28,15.13,16.83,18.57,18.28l.38,2.25c16.26,11.7,36,20.51,56.22,23.79l1.69,2.18c2.77,4.01-2.1,16.75-5.14,20.35l-2.85.62c-20.31-4.29-48.3-16.08-67.25-25.11-3.91-1.86-18.36-8.24-19.4-11.57-.42-1.34-.41-3.83-.21-5.27-.47-.18-.91-.4-1.21-.74-.76-.83,2.34-8.67,3.21-10.25l-1.58-2.07c.91-6.25,9.59-20.92,16.53-21.92,7.53.27,14.69-.98,21.48-3.72l1.51,1.74c5.75-4.1,14.29-5.31,20.97-3,1.46-3.32,10.67-3.49,12.98-1Z"/>
      <path class="cls-27" d="M237.63,695.35c-.1,2.24.49,4.92-.5,7-2.68,5.62-28.28,5.64-34.45,5.99-2.63.15-7,1-8.49,1h-20.97c-1.53,0-7.34-1.55-9.49-2,4.51-6.1,6.35-13.67,7.99-20.98l2.91-1.8c12.02.65,24.13.22,36.11-1.02l8.9.83c3.21-1.3,6.79-2.45,10.74-3.45,2.62-2.07,5.22-3.73,7.8-5,.23,6.49.25,12.99-.57,19.44Z"/>
      <path class="cls-99" d="M235.63,725.32c.58.3,2.51,2.74,4.99,4,2.64-1.4,5.54-.24,4.99,3,9.23,1.07,19.29,5.5,25.96,11.99,1.25-1.72,1.92-1.72,2,0,10.42,4.8,26.72,15.27,36.94,16.98,6.01,2.36.74,7.25-3,8.99l-96.21-44.09c-4.44-3.34,5.13-2.96,7.42-3.34,1.66-.27,3.5-.15,2.93-2.52,4.29,2.61,10.33,3.11,13.98,4.99Z"/>
      <path class="cls-77" d="M184.71,730.31c2.87,1.49,9.29,16.6,8.9,18.6l-1.91,1.37c.07,2.65.43,5.29,1.55,7.97l-1.55,2.02c6.1,4.43,2.71,10.44-4.99,8.99-3.78-.54-6.22-.48-9.98,0-.76-.58-1.49-1.19-2.12-1.89s-1.18-1.36-1.46-2.13c-3.13-8.69-12.73-37.34-11.85-45.18.07-.59,1.51-.76,2.44-.74,7.52,3.63,13.94,7.12,20.97,10.99Z"/>
      <path class="cls-5" d="M163.75,719.32c-1.66,2.28.41,6.89,1.07,9.41,3.61,13.6,6.93,27.35,11.9,40.53-3.19.41-6.43,1.5-9.98,2l-5.84-1.66-15.13-58.28c5.88,2.79,12,5.11,17.97,7.99Z"/>
      <path class="cls-88" d="M323.5,762.28c2.38,1.19,4.68,5.17,5.87,7.61,4.98,10.24,5.03,20.44-.88,30.34-1.34,1.32-1.79.75-1-1l-1.53-1.82c1.77-7.96.98-16.49-1.84-24.14-3.57,6.87-9.79,3.62-11.51-2.65-2.12-.05-4.06,7.09-3.95,9.13l-2.14,1.49-.8.67-.2,4.33c-1.57-.13-2.17-2.34-2.99-3,3.09-2.99,3.08-8.56,4.99-12.99,1.5-3.46,5.55-5.49,3-8.99,1.48.25,2.63.81,4.36.9,2.96.16,4.27-2.07,8.62.1Z"/>
      <path class="cls-35" d="M71.89,651.4c1.82-3.67,7.49-.76,6.99,3-.02.17,1.01,1.59.8,3.22-.32,2.45-2.49,5.62-2.79,7.77-8.67-1.73-16.67-6.87-24.96-9.99,3.1-10.87,12.24-5.42,19.97-4Z"/>
      <path class="cls-50" d="M230.64,750.29c.91.48,4.05.57,4.02,1.53-.66,4.92-11.62,15.57-6.42,19.35,2.17,1.58,20.14,5.52,22.81,5.1,4.14-.64,7.34-9.38,8.56-13,.61-.45,2.36,1.78,2.98,2-5.69,15.29-6.37,16.19-22.17,13.69-26.14-4.13-17.97-9.06-9.78-28.68Z"/>
      <path class="cls-56" d="M240.6,178.88l-11,2.63c-9.18-22.16,7.68-23.77,11-2.63Z"/>
      <path class="cls-40" d="M232.64,186.93c7.32-2.69,11.82-7.35,13.73,3.72,3.13,18.1-12.31,5.8-13.73-3.72Z"/>
      <path class="cls-22" d="M164.74,287.8c-2.01,2.37-3.45,4.25-4.99,6.99-1.41,2.5-2.99,4.06-3,7.48,0,.96,1.68,10.4,2.01,11.5-8.86-.73-10.51-10.6-7.03-17.52,2.69-5.36,7.61-7.19,13.02-8.45Z"/>
      <path class="cls-21" d="M154.76,407.67c1.69,2.14,5.82,3.08,5.99,5.99.25,4.25-1.66,10.97-1.99,15.49-2.85,39.19-6.77,80.87-8.04,119.82-.82,25.09.69,50.36.04,75.46-4.94.82-8.39.48-12.98,1l-1.4-6.93c-1.86-61.36,2.92-123.73,10.77-183.52.11-9.21,1.32-17.98,3.61-26.31,1.26-.48,2.7-.59,3.99-1Z"/>
      <path class="cls-23" d="M159.75,375.7c6.92-4.46,14.43-1.51,17.96,5.51.33,2.47-2.81.18-5.22.66-9.78,1.95-13.37,19.22-7.74,26.78-4.11.65-6.67-2.14-7.56-5.91-.82-3.46-1.36-13.44-1.51-17.55-.08-2.25.46-4.38,1.08-6.49.93-.8,2.82-2.88,3-3Z"/>
      <path class="cls-15" d="M86.86,413.66l-24.95,199.28c-1.22,2.28.99,6.59.98,7.49-.02,2.08-3.58,5.39-5.73,5.82-3.72.74-4.57-.69-7.25-1.82l28.95-210.77c2.48.3,5.4-.13,7.99,0Z"/>
      <path class="cls-110" d="M67.89,403.67c-1.19.18-2,2.21-4.58.09-3.92-3.21-6.19-25.3,1.33-22.42,4.06,1.56,4.62,16.42,4.25,20.32-.38.64-.65,1.34-1,2Z"/>
      <path class="cls-84" d="M120.67,716.47c1.73,1.07,1.85,8.94-2.24,8.78-4.69-1.69-2.65-11.81,2.24-8.78Z"/>
      <path class="cls-98" d="M151.61,753.44c4.41,2.66-4.07,17.65-3.83-.16,1.16.16,2.94-.38,3.83.16Z"/>
      <path class="cls-59" d="M444.91,487.67c6.3-2.07,5.59,8.93.89,8.95-3.58.01-3.38-8.13-.89-8.95Z"/>
      <path class="cls-80" d="M110.83,782.25c-.15.29-2.62,1.23-3,1.3-11.5,1.83-50.97,5.21-54.91,4.7h-1c-.89-5.33-.47-8.99-1-13.98-.03-.33.05-.68,0-1,18.31-2.88,36.93-4.63,55.47-5.93,1.86-.13,3.73.23,4.43-2.06,2.62,5.26,2.89,11.61,0,16.98Z"/>
      <path class="cls-2" d="M137.79,625.43c-6.96.79-14.12,1.81-20.97,3-.84-51.32,1.39-102.21,5-153.32,1.35-19.14,3.44-38.33,4.98-57.45,8.11-2.67,15.99-5.97,23.96-8.99-.08,23.93-4.77,47.65-6.98,71.43-4.49,48.33-6.63,96.76-6,145.33Z"/>
      <path class="cls-17" d="M181.72,641.41c11.51,4.28,27.08,11.25,37.94,16.98,2.98,1.57,17.59,10.01,18.46,11.99,1.37,7.99,1.3,16.99-.49,24.97.29-6.29-.2-12.68,0-18.98-4.37,6.65-10.7,6.8-17.96,7.99-3.3.21-5.3-.46-5.99-2l1.6-1.86c16.15-.9,25.74-4.77,6.89-15.7-16.77-9.72-36.66-17.12-54.94-23.9l-1.47-2.5v-1c.68.47,13.16,2.95,15.98,4Z"/>
      <path class="cls-65" d="M126.8,765.27c.99.96.69,2.76,2.23,3.32l91.62,22.65c.86,3.59,2.71,7.05,2,10.99-6.37-1.97-21.33-2.73-29.78-4.67-20.48-4.69-44.76-15.39-65.07-15.31-1.75-.3-2.42-.97-2-2-3.25-1.19-2.16-13.63,1-14.98Z"/>
      <path class="cls-44" d="M221.66,756.28c-1.84,8.19-6.45,11.23-4.99,20.98-9.69-1.91-20.34-6.61-29.95-7.99,7.51-1.95,6.27-2.2,4.99-8.99,0-.78.07-1.95.62-2.1,5.19-1.37,22.33-3.71,27.63-3.69l1.7,1.79Z"/>
      <path class="cls-10" d="M126.8,765.27l-1.06,15.92c-2.69,1.49-12.12,1.82-12.92,1.06,3.18-5.36,3.79-9.96,2-15.98,3.42.22,9.5-3.4,11.98-1Z"/>
      <path class="cls-37" d="M332.54,862.22c3.79-2.59,7.5,7.69,7.84,10.52.47,3.93-1,20.15-7.41,14.4-3.74-3.35-4.13-22.4-.43-24.92Z"/>
      <path class="cls-91" d="M432.33,693.35c-.91,6.97-2.58,13.62-4.99,19.98.49,1.29-.8,3.88-2,4.99-1.41,3.54-3.08,6.87-4.99,9.99-.76,2.33-2.09,4.66-3.99,6.99-3.62,4.35-7.61,7.68-11.98,9.99-1.56,3.1-6.08,3.71-6.03-1.22.46-21.56.49-43.01-2.76-64.29,0-27.72-.47-55.39-2.53-82.93-.62-8.31-4.81-26.49-14.64-27.37-.1,1.66-1.1,1.66-3,0-.22.85-.74,1.9-1.48,1.86-8.63-.52-11.16-.57-13.86,9.74-.88,3.35-1.31,6.78-1.56,10.24-.18,21.32-.74,42.72-1.66,64.21l10.67-2.96,1.9,1.81c10.03,3.32,6.5,9.75-2.83,9.25.17,5.85-.35,11.66-3.17,16.72-.37,2.07-2.28,3.2-5.73,3.38l.63,6.7c-.58,4.89-11.72,33.91-14.38,34.06-.49.03-.98-.06-1.48-.19-1.74,4.13-6.89-1.48-3.99-4-8.4-14.14-14.05-36.63-15.98-52.94-.69-16.6-.11-33.44,2-49.94.19-.91.91-1.63,1-2,1.48-4.52,3.15-9.18,4.99-13.98,6.2-25.52,29.05-52.02,57.36-40.67,42.63,17.08,53.6,92.6,44.48,132.57Z"/>
      <path class="cls-45" d="M378.41,569.49c.12,0,.69-1.19,2.19-.85,9.92,2.25,13.55,21.16,14.64,29.46,3.43,26.15.95,51.8,2.1,77.81.46,10.51,2.65,21.32,3.08,31.88.52,12.78-.48,25.71-.04,38.49.24.26,3.36-.65,3.99-.99,1.44-1,1.95-.58,1,1-4.48,3.46-10.26,7.26-15.98,7.99-1.18,3.28-8.76,3.22-9.98,0-1.15,3.08-6.24,1.06-4.99-2,.33-1.64,1.52-2.23,3.56-1.75-2.04-12.25-5.34-24.33-9.89-36.21l.34-5.99c-2.58-1.7-.8-5.11,2-4.99,2.3.82,4.56-.17,6.59-1.14l2.39,1.14c11.5-7.28,12.49-22.89,12.48-35.41-1.68-24.82-2.91-49.67-3.68-74.57-1.22-8.01-3.03-17.18-9.84-22.28l.04-1.59Z"/>
      <path class="cls-1" d="M338.47,720.32c1.05,1.76,2.14,4.61,3.99,4,1.55,2.87.98,7.05-.21,10.51l-7.85,16.79c-.66,3.84-1.96,6.72-3.92,8.66-.73-.93-1.39-1.99-2-3-4.66-7.68-9.24-17.34-12.84-25.61-4.63-10.63-8.62-21.73-10.13-33.32,11.66,6.13,20.42,10.87,29.95,20.48.46.46,2.58,3.49,3,1.5Z"/>
      <path class="cls-95" d="M432.33,695.35v-2c3.73-31.04,2.35-63.21-10.13-92.26-22.89-53.29-71.41-57.24-91.71.36-.87,1.21-1.2.88-1-1,21.22-64.52,74.95-53.36,96.62,3.73,10.54,27.77,13.84,62.39,6.22,91.16Z"/>
      <path class="cls-24" d="M389.39,754.28v40.96c2.32-.05,4.67.06,6.99,0-6.62,2.73-13.59.55-19.97-1l-1.29-3c1.52-11.4,2.2-22.89,2.06-34.46l2.22-2.5c2.57.26,7.47.32,9.98,0Z"/>
      <path class="cls-20" d="M322.5,667.38c-2.04-17.26-1.6-32.98,2-49.94l-2,49.94Z"/>
      <path class="cls-14" d="M432.33,695.35c-.82,6.84-1.7,11.41-3.99,17.98-.28.85-.62.84-1,0,1.92-6.48,2.6-13.62,4.99-19.98-.08.65.08,1.35,0,2Z"/>
      <path class="cls-6" d="M330.49,601.45c-1.4,3.98-2.23,8.1-3.31,12.18-.17.65-.7,4.32-1.69,1.8,1.37-5.92,2.07-9.13,3.99-14.98l1,1Z"/>
      <path class="cls-25" d="M416.35,735.31c-3.21,4.02-6.9,7.84-10.98,10.99l-1-1c.69-.38,11.5-9.36,11.98-9.99Z"/>
      <path class="cls-46" d="M425.34,719.32c-1.12,3.16-2.36,6.07-3.99,8.99-.3.5-.64.49-1,0,1.59-2.77,2.17-7.54,4.99-9.99v1Z"/>
      <path class="cls-30" d="M421.34,728.31c-1.39,2.49-3.21,4.77-4.99,6.99.25-.33,3.28-5.75,3.99-6.99h1Z"/>
      <path class="cls-30" d="M428.33,713.33c-.72,2.08-1.32,4.42-3,5.99.1-.3-.1-.7,0-1,.58-1.69,1.76-4.19,2-4.99h1Z"/>
      <path class="cls-105" d="M327.49,799.23c.54,1.53-1.35,4.15-3,4.99-15.33,7.84-18.88-11.56-17.97-22.97.41-5.18,1.46-12.95,7.98-12.99,1.2,9.84,8.63,9.04,8.49-.99,5.83,7.1,7.34,23.69,4.5,31.96Z"/>
      <path class="cls-107" d="M211.67,747.29c1.75-.09,7.03,1.94,9.84,1.14,1.97,3.19.78,5.01.14,7.85l-29.95,4c-.42-2.22-2-5.85-1.95-7.59.06-1.87,1.9-2.25,1.95-2.4,4.46.04,8.91-.65,13.33-1.14,2.11-.24,5.72-1.81,6.63-1.86Z"/>
      <path class="cls-39" d="M372.42,680.37c.87.28.86.62,0,1l1.52,1.59-30.66,77.75c-1.58,2.47-3.73,4.47-6.8,3.57-3.48-1.41-3.42-.72-5.99-4-.19-10.28,9.33-20.31,10.8-29.74.74-4.71-1.53-2.5,1.18-6.22,3.29-4.51,14.09-30.51,14.02-35.42-.02-1.34-1.69-5.88-1.04-6.53.29-.29,7.28-1.91,7.99-2,.19-3.29,8.55-3.1,8.99,0Z"/>
      <path class="cls-58" d="M360.44,744.3c3.88,3,7.88,5.67,11.98,7.99.38-2.62,1.1-2.46,2,0,1.04.87,3.79,1.88,4.99,2-1.38,13.17.63,27.28-3,39.96-5.59-1.35-12.56-3.06-16.97-6.99-2.76-12.71-5.4-25.48-7.9-38.31-.34-3.28-.34-9.01,3.91-7.64,2.78-1.92,5.21-.28,4.99,3Z"/>
      <path class="cls-29" d="M376.41,682.36c1.8,6-2.98,15.19-5.99,20.98-.5,1.38-1.34,3.23-2,4.99-.91,11.14-6.39,23.94-12.98,32.96-.57,1.66-2.35.98-1.99,6.47.78,12.28,7.77,26.29,5.99,39.48-4.92-4.39-3.13-8.4-4.67-13.81-1.22-4.27-4.39-7.78-5.33-12.16-2.98-.81-1.55,1.99-2.89,3.55-2.95,3.45-7.08.65-10.08-.56l4.74-3.75,31.21-79.15c1.06-.75,3.89-.55,3.99,1Z"/>
      <path class="cls-11" d="M328.49,800.23c-.56.93-1.73,3.29-2.31,3.7-.62.44-1.4.15-1.68.3.5-.82,2.9-4.72,3-4.99l1,1Z"/>
      <path class="cls-8" d="M273.57,744.3c-.46-.21-1.54.21-2,0l-1.53-1.45,18.44-39.87c-.37-1.17-21.94-4.87-24.18-3.23-6.23,10.21-11.63,20.94-16.21,32.2l-2.48.37c-1.88-.92-3.5-2.24-4.99-3,11.51-5.79,12.13-34.99,25.61-35.6,4.26-.19,26.09,2.17,27.83,5.63,1.43,2.85-.9,8.01-2.04,10.98-4.34,11.28-13.14,22.94-18.45,33.98Z"/>
      <path class="cls-41" d="M165.74,638.41c11.93,3.24,30.07,11.43,41.61,16.81,5.15,2.4,25.37,11.75,26.85,16.1,3.32,9.74-14.08,11.93-20.54,11.05l-2.91.98c-30.89-15.88-59.7-28.05-94.6-20.96l-2.33-2c-3.95-.56-21.01-17.08-20.94-20.5.09-4.38,14.79-5.23,18.46-5.46,16.41-1.03,38.57-.31,54.41,3.99Z"/>
      <path class="cls-43" d="M213.67,682.36c2.29.9,4.28.79,5.99,2-13.96,2.28-33.84,3.13-47.93,2s-36.69-10.08-48.84-17.56c-3.19-1.96-8.29-4.54-9.07-8.41,3.41.48,6.3-.99,9.45-1.04,9.62-.14,24.78-1.12,33.75.28,16.5,2.57,40.53,16.38,56.65,22.74Z"/>
      <path class="cls-117" d="M245.62,732.31c3.28-5.46,13.66-32.5,17.99-34.45,6.08-2.74,21.01,3.05,27.94,3.49l-19.97,42.94c-8.61-4-17.44-7.81-25.96-11.99Z"/>
      <path class="cls-47" d="M375.42,569.49c8.33,3.1,10.49,12.77,11.98,20.89,1.19,24.14,2.65,48.2,4.36,72.17.18,13.75.36,32.52-12.34,40.79-3.05,1.22-5.11,2.84-8.98,1.99.07-.61-.17-1.68,0-1.99,3.88-8.71,9.01-20.49,10.91-29.85,1.55-7.65,1.09-15.99-8.23-17.04l-3.68-2.05c-5.55.36-9.74,2.8-14.97,3.99,1.72-10.75.68-21.65.95-32.5.06-2.36,1-4.55,1.08-6.91.42-12.43-2.97-39.35,6.91-48.03,5.04-4.43,7.29-1.71,12.02-1.46Z"/>
      <path class="cls-16" d="M378.41,569.49c1.09.87,2.69,1.36,3.64,2.34,12.02,12.34,8.56,44.77,9.35,61.08.84,17.35,8.46,57.36-7.96,69-2.1,1.49-2.72.91-4.04,1.43,11.81-13.12,10.71-32.76,10.03-49.49-.2-4.91-1.82-11.07-2.03-15.95-.72-16.91,1.63-46.82-6.45-61.48-1.58-2.86-3.83-4.33-5.54-6.94.99.05,2-.06,3,0Z"/>
      <path class="cls-81" d="M370.42,703.34c2.17-5.96,3.9-14.49,5.99-20.98.43-.81-.9-1.48-3.99-2-2.71-.07-6.44-.34-8.99,0-2.14-2.92.53-5.64.92-8.57,1.1-8.18-3.13-11.59,9.06-10.41.22-2.88-1.81-5.36-3.99-6.99,13.57-.87,16.59,8.98,13.51,21.01-1.05,4.11-7.72,20.8-9.74,25.24-.81,1.77-2.63,2.45-2.77,2.7Z"/>
      <path class="cls-49" d="M368.43,708.34c3.52,13.16,10.36,29.13,11.94,42.51.29,2.41-4.19,1.58-5.95,1.44-.66-.05-1.4.11-2,0-3.94-2.48-7.93-5.14-11.98-7.99-1.68-.95-3.13-2.34-4.99-3,3.93-11.38,8.91-22.04,12.98-32.96Z"/>
      <path class="cls-114" d="M372.42,680.37c1.66.04,3.34-.04,4.99,0,.32.21-.8,1.38-1,1.99l-3.99-1v-1Z"/>
      <path class="cls-4" d="M360.44,744.3c3.07,1.75,6.25,3.43,9.34,5.19,1.34.77,3.19.32,2.64,2.8-3.95-.71-9.77-4.48-11.98-7.99Z"/>
      <path class="cls-85" d="M366.68,583.74c4.03-3.77,9.94-.77,11.78,4.18,4.85,13.05.28,34.64,2.96,49.02-.84,9.08-10.69,8.5-14.21,1.19s-1.63-28.08-1.74-37.21c-.06-4.61-3.07-13.18,1.21-17.18Z"/>
    </g>
  </g>
</svg>