<?xml version="1.0" encoding="UTF-8"?>
<svg id="_Слой_2" data-name="Слой 2" xmlns="http://www.w3.org/2000/svg" viewBox="0 0 809.85 793.12">
  <defs>
    <style>
      .cls-1 {
        fill: #2c2b34;
      }

      .cls-2 {
        fill: #121729;
      }

      .cls-3 {
        fill: #3d361f;
      }

      .cls-4 {
        fill: #ddc055;
      }

      .cls-5 {
        fill: #131929;
      }

      .cls-6 {
        fill: #ceba75;
      }

      .cls-7 {
        fill: #47401a;
      }

      .cls-8 {
        fill: #433c17;
      }

      .cls-9 {
        fill: #394b5a;
      }

      .cls-10 {
        fill: #2d3546;
      }

      .cls-11 {
        fill: #2f3141;
      }

      .cls-12 {
        fill: #1c2131;
      }

      .cls-13 {
        fill: #272217;
      }

      .cls-14 {
        fill: #f6c942;
      }

      .cls-15 {
        fill: #5b420f;
      }

      .cls-16 {
        fill: #15192a;
      }

      .cls-17 {
        fill: #12182a;
      }

      .cls-18 {
        fill: #272a3a;
      }

      .cls-19 {
        fill: #2c363d;
      }

      .cls-20 {
        fill: #484d43;
      }

      .cls-21 {
        fill: #18192b;
      }

      .cls-22 {
        fill: #3d3311;
      }

      .cls-23 {
        fill: #cfb874;
      }

      .cls-24 {
        fill: #4e717b;
      }

      .cls-25 {
        fill: #444c5b;
      }

      .cls-26 {
        fill: #ddc163;
      }

      .cls-27 {
        fill: #4f4728;
      }

      .cls-28 {
        fill: #40453b;
      }

      .cls-29 {
        fill: #4a401d;
      }

      .cls-30 {
        fill: #293141;
      }

      .cls-31 {
        fill: #161d2e;
      }

      .cls-32 {
        fill: #564b26;
      }

      .cls-33 {
        fill: #44616e;
      }

      .cls-34 {
        fill: #242735;
      }

      .cls-35 {
        fill: #252c3c;
      }

      .cls-36 {
        fill: #e2c356;
      }

      .cls-37 {
        fill: #baa867;
      }

      .cls-38 {
        fill: #f6c93f;
      }

      .cls-39 {
        fill: #4c4322;
      }

      .cls-40 {
        fill: #212636;
      }

      .cls-41 {
        fill: #4d5765;
      }

      .cls-42 {
        fill: #45596a;
      }

      .cls-43 {
        fill: #2f3b49;
      }

      .cls-44 {
        fill: #19192b;
      }

      .cls-45 {
        fill: #131928;
      }

      .cls-46 {
        fill: #10182a;
      }

      .cls-47 {
        fill: #222435;
      }

      .cls-48 {
        fill: #464c42;
      }

      .cls-49 {
        fill: #495457;
      }

      .cls-50 {
        fill: #333a48;
      }

      .cls-51 {
        fill: #494f45;
      }

      .cls-52 {
        fill: #131729;
      }

      .cls-53 {
        fill: #141729;
      }

      .cls-54 {
        fill: #1a1b2c;
      }

      .cls-55 {
        fill: #635e37;
      }

      .cls-56 {
        fill: #1f2233;
      }

      .cls-57 {
        fill: #2b3343;
      }

      .cls-58 {
        fill: #3e3519;
      }

      .cls-59 {
        fill: #c2b366;
      }

      .cls-60 {
        fill: #46606f;
      }

      .cls-61 {
        fill: #3d4454;
      }

      .cls-62 {
        fill: #4c5e6b;
      }

      .cls-63 {
        fill: #2d4755;
      }

      .cls-64 {
        fill: #7d8f92;
      }

      .cls-65 {
        fill: #3f4454;
      }

      .cls-66 {
        fill: #1b1b2d;
      }

      .cls-67 {
        fill: #4b3e19;
      }

      .cls-68 {
        fill: #121728;
      }

      .cls-69 {
        fill: #1e272e;
      }

      .cls-70 {
        fill: #344252;
      }

      .cls-71 {
        fill: #323b4b;
      }

      .cls-72 {
        fill: #6b6334;
      }

      .cls-73 {
        fill: #393715;
      }

      .cls-74 {
        fill: #1b1e2f;
      }

      .cls-75 {
        fill: #232a3b;
      }

      .cls-76 {
        fill: #998d62;
      }

      .cls-77 {
        fill: #15182a;
      }

      .cls-78 {
        fill: #2f3848;
      }

      .cls-79 {
        fill: #49646f;
      }

      .cls-80 {
        fill: #2f342a;
      }

      .cls-81 {
        fill: #292c3c;
      }

      .cls-82 {
        fill: #454a40;
      }

      .cls-83 {
        fill: #3d4c5c;
      }

      .cls-84 {
        fill: #446270;
      }

      .cls-85 {
        fill: #12172a;
      }

      .cls-86 {
        fill: #131829;
      }

      .cls-87 {
        fill: #433a1e;
      }

      .cls-88 {
        fill: #293040;
      }

      .cls-89 {
        fill: #5e532e;
      }

      .cls-90 {
        fill: #443a1c;
      }

      .cls-91 {
        fill: #242839;
      }

      .cls-92 {
        fill: #554b26;
      }

      .cls-93 {
        fill: #567e86;
      }

      .cls-94 {
        fill: #1e2133;
      }

      .cls-95 {
        fill: #182536;
      }

      .cls-96 {
        fill: #364453;
      }

      .cls-97 {
        fill: #303949;
      }

      .cls-98 {
        fill: #423713;
      }

      .cls-99 {
        fill: #3f5564;
      }

      .cls-100 {
        fill: #313017;
      }

      .cls-101 {
        fill: #8e7d4c;
      }

      .cls-102 {
        fill: #475f6d;
      }

      .cls-103 {
        fill: #98895e;
      }

      .cls-104 {
        fill: #333316;
      }

      .cls-105 {
        fill: #607079;
      }

      .cls-106 {
        fill: #5b6258;
      }

      .cls-107 {
        fill: #6b5717;
      }

      .cls-108 {
        fill: #363a32;
      }

      .cls-109 {
        fill: #393d24;
      }

      .cls-110 {
        fill: #716136;
      }

      .cls-111 {
        fill: #524825;
      }

      .cls-112 {
        fill: #163241;
      }

      .cls-113 {
        fill: #2e3646;
      }

      .cls-114 {
        fill: #f2c93f;
      }

      .cls-115 {
        fill: #b4c5bb;
      }

      .cls-116 {
        fill: #c5b97a;
      }

      .cls-117 {
        fill: #131728;
      }

      .cls-118 {
        fill: #433612;
      }

      .cls-119 {
        fill: #141829;
      }

      .cls-120 {
        fill: #dec161;
      }

      .cls-121 {
        fill: #473f18;
      }

      .cls-122 {
        fill: #4e431d;
      }

      .cls-123 {
        fill: #45606e;
      }

      .cls-124 {
        fill: #2b3344;
      }

      .cls-125 {
        fill: #222436;
      }

      .cls-126 {
        fill: #141a2b;
      }

      .cls-127 {
        fill: #3c3d4f;
      }

      .cls-128 {
        fill: #626263;
      }

      .cls-129 {
        fill: #161b2b;
      }

      .cls-130 {
        fill: #2d3127;
      }

      .cls-131 {
        fill: #445d6a;
      }

      .cls-132 {
        fill: #334050;
      }

      .cls-133 {
        fill: #13192a;
      }

      .cls-134 {
        fill: #556a77;
      }

      .cls-135 {
        fill: #383839;
      }

      .cls-136 {
        fill: #516f7a;
      }

      .cls-137 {
        fill: #393614;
      }

      .cls-138 {
        fill: #3c4554;
      }

      .cls-139 {
        fill: #141828;
      }

      .cls-140 {
        fill: #4c5e5a;
      }

      .cls-141 {
        fill: #47555c;
      }

      .cls-142 {
        fill: #1b2532;
      }

      .cls-143 {
        fill: #44515d;
      }

      .cls-144 {
        fill: #111928;
      }

      .cls-145 {
        fill: #111728;
      }

      .cls-146 {
        fill: #393d46;
      }

      .cls-147 {
        fill: #1f2030;
      }

      .cls-148 {
        fill: #ccbd76;
      }

      .cls-149 {
        fill: #2f3747;
      }

      .cls-150 {
        fill: #413817;
      }

      .cls-151 {
        fill: #251e18;
      }

      .cls-152 {
        fill: #423b1d;
      }

      .cls-153 {
        fill: #191a2c;
      }

      .cls-154 {
        fill: #54502c;
      }

      .cls-155 {
        fill: #4c6876;
      }

      .cls-156 {
        fill: #2c3445;
      }

      .cls-157 {
        fill: #5b4008;
      }

      .cls-158 {
        fill: #41473c;
      }

      .cls-159 {
        fill: #d2bd60;
      }

      .cls-160 {
        fill: #435766;
      }

      .cls-161 {
        fill: #4a4d51;
      }

      .cls-162 {
        fill: #191a2b;
      }

      .cls-163 {
        fill: #4a4326;
      }

      .cls-164 {
        fill: #e5e9d1;
      }

      .cls-165 {
        fill: #927f49;
      }

      .cls-166 {
        fill: #2b1d07;
      }

      .cls-167 {
        fill: #372f11;
      }

      .cls-168 {
        fill: #323223;
      }

      .cls-169 {
        fill: #2e2c31;
      }

      .cls-170 {
        fill: #313d4d;
      }

      .cls-171 {
        fill: #2a3343;
      }

      .cls-172 {
        fill: #121828;
      }

      .cls-173 {
        fill: #272b20;
      }

      .cls-174 {
        fill: #161c2e;
      }

      .cls-175 {
        fill: #d1d0cc;
      }

      .cls-176 {
        fill: #b9901b;
      }

      .cls-177 {
        fill: #cdb96f;
      }

      .cls-178 {
        fill: #39391d;
      }

      .cls-179 {
        fill: #272f40;
      }

      .cls-180 {
        fill: #3f3918;
      }

      .cls-181 {
        fill: #4d4528;
      }

      .cls-182 {
        fill: #4a5a5b;
      }

      .cls-183 {
        fill: #5d727f;
      }

      .cls-184 {
        fill: #514826;
      }

      .cls-185 {
        fill: #11182b;
      }

      .cls-186 {
        fill: #ccbe75;
      }

      .cls-187 {
        fill: #445e6d;
      }

      .cls-188 {
        fill: #2c3141;
      }

      .cls-189 {
        fill: #284048;
      }

      .cls-190 {
        fill: #232738;
      }

      .cls-191 {
        fill: #564f1f;
      }

      .cls-192 {
        fill: #414959;
      }

      .cls-193 {
        fill: #e2c766;
      }

      .cls-194 {
        fill: #4e6061;
      }

      .cls-195 {
        fill: #ad9f68;
      }

      .cls-196 {
        fill: #463813;
      }

      .cls-197 {
        fill: #44493f;
      }

      .cls-198 {
        fill: #262d3d;
      }

      .cls-199 {
        fill: #272b3b;
      }

      .cls-200 {
        fill: #2e3343;
      }

      .cls-201 {
        fill: #383a35;
      }

      .cls-202 {
        fill: #e3ba51;
      }

      .cls-203 {
        fill: #403618;
      }

      .cls-204 {
        fill: #ddc162;
      }

      .cls-205 {
        fill: #3e3d19;
      }

      .cls-206 {
        fill: #222838;
      }

      .cls-207 {
        fill: #141929;
      }

      .cls-208 {
        fill: #2d3646;
      }

      .cls-209 {
        fill: #574c29;
      }

      .cls-210 {
        fill: #2d3040;
      }

      .cls-211 {
        fill: #5d5028;
      }

      .cls-212 {
        fill: #2a3242;
      }

      .cls-213 {
        fill: #3f3e1e;
      }

      .cls-214 {
        fill: #f6c940;
      }

      .cls-215 {
        fill: #b6a76e;
      }

      .cls-216 {
        fill: #2d200c;
      }

      .cls-217 {
        fill: #af8714;
      }

      .cls-218 {
        fill: #384247;
      }

      .cls-219 {
        fill: #3f3614;
      }

      .cls-220 {
        fill: #151829;
      }

      .cls-221 {
        fill: #13182b;
      }

      .cls-222 {
        fill: #4d3e13;
      }

      .cls-223 {
        fill: #b28a18;
      }

      .cls-224 {
        fill: #61450c;
      }

      .cls-225 {
        fill: #564d2f;
      }

      .cls-226 {
        fill: #ddc161;
      }

      .cls-227 {
        fill: #f0c840;
      }

      .cls-228 {
        fill: #b2cbbe;
      }

      .cls-229 {
        fill: #a07a0e;
      }

      .cls-230 {
        fill: #4a422a;
      }

      .cls-231 {
        fill: #484124;
      }

      .cls-232 {
        fill: #514722;
      }

      .cls-233 {
        fill: #3b4151;
      }

      .cls-234 {
        fill: #13192b;
      }
    </style>
  </defs>
  <g id="_Слой_19" data-name="Слой 19">
    <g>
      <path class="cls-128" d="M561.68,326.9c4.73-3.68,11.12-3.34,19.18,1.01,4.23-.97,8.4-1.47,12.5-1.48l152.54,46.16c2.17.98,2.65,3.07,1.46,6.28.38,2.44,19.17,6.97,22.2,6.34,3.84-.81,14.62-5.85,11.43-10.95l2.46-.41c7.01,1.57,21.06,3.66,13.91,13.41l-13.9,8.55c3.34,1.93,11.76,3.94,14.27,5.95,3.78,3.02.55,28.02,1.75,34.47.57,3.07,5.94,10.94,7.41,15.57,18.63,58.71-54.13,101.88-104.34,101.86l10.24,3.23c8.49,5.43,2.05,14.3-6.6,13.68l-85.06-18.9c-30.16,2.02-60.26,6.23-90.39,8.99l14.45,6.01c5.78,5.34-3.28,19.69-7.53,23.38-1.92,1.67-5.74,2.81-8.25,4.73-4.77,3.65-12.98,12.42-18.88,11.62l-46.64-15.33c-1.32-.12-5.63,3.01-6.06,4.05-.75,1.81,2.32,2.09,3.46,2.49,11.1,3.86,51.72,13.21,54.29,25.7,1.66,8.07-15.7,21-21.89,25.65-30.41,22.82-45.83,18.94-81.04,9.29-12.94-3.55-32.82-12.79-44.49-14.48-1.81-.26-3.52-.54-5.28.23l-146.74,93c-3.32,2.71,2.37,3.15,4.87,5.01,6.39,4.74-.41,6.71-5.01,9.83-2.54,1.72-17.11,11.14-18.63,11.42-4.54.82-8.31-4.86-12.92-3.11l-51.89,32.96c-8.09-1.86-15.89-5-23.6-7.97-5.47-2.11-17.53-6.12-21.67-9.29-3.09-2.37-14.68-21.52-12.92-24.3l32.39-19.08c1.33-1.8-8.04-11.04-10.52-11.52l-88.65-34.21c-7.19-5.37-.12-5.74,1.73-9.22l1.44-1.75c6.87,3.18,13.82,6.03,20.85,8.56,3.98-1.95,7.74-3.03,11.29-3.25l121.83,47.12c2,1.17,2.43,3.47,1.28,6.89.22,2.55,19.06,10.22,21.92,10.39,2.34.14,15.58-7.08,15.89-8.86-2.43-4.55.25-8.29,8.03-11.24.58-.88,1.93-20.72-1.99-19.53l-.78-2.35c-1.94,2.27-3.46.7-3-2-2.32.48-5.72-1.15-6.99-3-8.69-.62-17.57-4.06-23.97-9.99l-.45-2.07,126-76.68c-6.9-11.74.5-19.42,8.95-27.14l16.51-12.63c-6.51-15.61,11.23-24.91,24.78-19.51,9.5,3.92,18.93,6.01,28.28,6.24l-27.27-7.48c-3.91-1.81-4.73-4.28-3.26-8.22,1.95-5.21,27.8-21.62,33.91-24.61,12.29-6.01,18.42-4.93,31.52-1.98,7.7,2.98,15.34,4.98,22.93,6.01l128.52-63.81c12.63-33.54,45.77-53.22,78.64-63.01,4.71-9.16,9.13-18.37,13.26-27.63l-101.17-31.81-.56-2.27c-.89-2.83,3.51-7.08,5.99-4.99Z"/>
      <path class="cls-170" d="M679.55,34.23c1.17-1.08,1.92-.71,3.02-.07,29.44,17.31,43.69,51.31,47.07,84.28,3.76,36.59-3.81,70.55-12.13,105.58-5.42,15.66-12.47,25.1-18.98,38.96-5.83,9.31-12.99,18.84-20.5,27.79-3.88,6.19-19.78,23.39-26.08,24.17-.78.1-1.57.05-2.37-.03-.61,3.06-.61,6.06,0,8.99,1.03.34,1.37-1.33,1-4.99-1.6-.24-3.9-1.61-1-3,2.31-3.23,4.27-2.26,5.08,1.51l1.94,9.15c9.12,3.21,18.48,5.76,28.09,7.63-3.48-13.22-6.51-26.53-9.09-39.93.42-1.43,16.29-22.33,17.72-22.45.4-.03.82.21,1.26.53,4.32,19.12,9.21,37.93,14.68,56.45-4.03,3.46-8.34,6.58-12.93,9.36l27.76,7.84,6.41,3.89,2.52-.57c11.04,4.49,22.59,8.15,34.66,10.96l.78,2.6c2.93,1.17,2.63,17.06,1.62,18.32-6.85,8.55-7.3-10.67-6.55-14.92-43.25-14.08-86.98-27.83-131.19-41.24-57.94,10.2-77.39-52.97-80.61-99.21-.37-5.3-.93-49.5,3.08-53.25,3.48-3.26,20.96,2.2,25.69,4.15l1.16,2.36,1.14,1.38c-5.18,34.82-4.06,82.43,26.83,105.5.94-.27,1.28.06,1,1,25.95,18.33,55.97-1.45,73.02-22.8,29.1-36.44,41.24-91.38,35.31-137.19-5.18-40.01-32.81-75.11-75.37-53.77-28.27,19.45-48.1,51.45-56.94,83.91l-.41.9-15.57-2.9c-2.07,2.1-3.13,1.82-4-1-1.63-.9-3.27-1.84-4.94-2.81,5.76-26.25,18.82-53.79,34.39-76.5,1.16-1.69,2.47-3.02,4.52-3.59,17.79-19.43,44.14-45.96,75.46-36.66l3.45-.3Z"/>
      <path class="cls-44" d="M239.03,343.89l2.11.52c-.2,1.84,1.2.81,4.18-3.1,38.07,17.35,77.65,29.55,118.17,35.54,7.8,3.54,9.18,18.27,5.59,25.21,23.72.25,50.66-3.14,71-15.02,1.33-2.38,2.91-3.78,4.73-4.2.28-.87.62-.86,1,0,3.51,5.59,13.97,8.33,19.98,6.99.95.14,1.69-.11,2.17-.86,3.76-5.83,7.48-11.69,11.13-17.59l1.68-.52c-1.48-.96.33-3.56,2-4,2.62-7.98,6.23-7.94,12.07-2.57,6.95-3.32,13.63-7.27,20.04-11.85,3.31-.38,4.63,1.22,1.85,3.43.47.72.85,1.73.33,2.3-5.27,5.76-11.86,10.32-18.97,13.74-.5,20.94-4.08,40.81-9.18,60.91-3.61,14.22-14.47,20.45-26.82,27.5-16.25,9.27-33.6,17.41-50.82,23.85-16.27-1.77-32.06-6.1-47.37-13-4.81,2.36-7.14,1.89-7-1.42-.77-.25-.44-.92,1-2l-.72-1.45c-5.31,3.54-10.73,6.35-16.26,8.44-5.36,4.07-5.66-6.28-1-8.99-2.73-1.33-2.61-2.56,0-4l-1.99-1.79c-.07-6.23-.25-12.96-4-18.18-.55-.3-.53-.63,0-1-.74-3.71,5.07-4.14,7.99-4l1.34-2.33c14.44-8.6,28.95-17.19,43.54-25.79-12.4,4.17-24,10.7-34.8,19.59-5.13,3.34-9.66,5.98-15.84,6.12-.75.02-1.12-.68-1.23-1.57-1.2,1.53-2.6.95-2-1l-2.98.39c-10.69-4.02-21.39-8.11-32.11-12.27-5.15,1.58-10.05,3.78-14.94,6.15l-1.91-1.26c-2.63,1.12-3.28.65-2-2,1.95-4.34.07-8.31,5.99-10.99,4.99-8.03,12.07-7.41,19.97-4.45l25.26,8.77c1.77,1.22,12.85,2.71,10.78-.93-.99-1.74-34.78-11.77-38.17-12.25-3.64,1.01-6.59.96-8.86-.14-.27-2.24,1.28-3.14-1.47-4.04-8.93-2.94-18.95-2.24-18.63-14.82-8.71-2.93-37.25-11.99-38.78-21.66-.76-4.8-.86-15.66,3.94-18.42Z"/>
      <path class="cls-21" d="M497.75,77.18l-.26,5.17c-5.86,13.83-11.48,27.86-16.64,41.97-.58,1.59,3.26.97,3.91.81.8-1.67,1.46-1.34,2,1,3.62,2.51,7.75,3.31,11.99,4,2.79-4.5,20.38,2.14,15.98,7.99,3.83,5.47-1.68,5.22-5.97,3.77-2.7,3.93-1.09,6.3,4.83,7.12,25.5,6.73,50.94,13.09,76.3,19.06,1.73-1.5,3.77-3.65,3.75-5.98-1.9-1.93-1.68-2.38,1-2,1.44-2.21,3.7-1.79,6.77,1.26-.48-5.92,17.61-46.91,22.85-47.52,4.15-.48,5.12,2.67,3.18,5.95-23.72,37.38-34.53,85.8-14.98,127.89.83,3.55,1.27,8.12-3.39,8.43.5,9.43-6.3,4.71-9.58-.64-12.03-19.62-10.1-49.67-8.62-71.61l-1.23.21-1.02.21c.02-4.61-2.57-4.71-6.54-3.79l-.43-1.41c-6.82-1.65-16.05-5.24-22.77-5.79-1.1-.09-2.02-.42-2.75.75-.52.83-2.35,17.03-2.49,19.49-2.05,36.87,2.27,90.13,31.48,116.44,14.15,12.75,31.93,18.51,50.48,11.97l-1.01,1.98,130.28,39.85c1.75,1.18-.7,14.9,1.59,17.09,1.46,1.4,1.81-.08,1.98-1.48.65-5.09-.47-11.26,0-16.5-.27-2.22.4-2.55,2-1,3.35-3.46,7.44-6.33,12.29-8.6,1.73-3.24,3.63-4.37,5.69-3.39,1.36,1.62,1.53,16.89.81,19.29-.76,2.51-4.25,2.75-5.8,4.69-1.99,2.49.82,3.89-.44,5.98-.94,1.55-12.55,7.85-14.75,7.78-2.51-.08-19.44-4.6-21.17-5.86-2.62-1.91-1.74-4.33-.59-6.89l-153.82-46.55c-4.1-1.01-6.96,1.88-11.48,1.64-7.55-.41-11.98-7.49-19.51-3.04-2.56,1.59-2.76-.24-1.44-2.85.51-1,9.52-4.52,11.43-5.14-.86-.28-.84-.61,0-1-2.46-2.59-5.66-4.98-9.59-7.16.9.41,1.04,1.16.6,2.17,1.32,1.3.77,1.52-1,1l-1.81,1.48c-8.54-1.32-24.78-4.94-30.33-11.49-4.7-5.54-17.71-44.6-15.03-49.91.22-.43.68-.74,1.22-1.02-2.12-.74-1.7-2.01-.92-3.76,8.85-13.7,12.49-28.1,10.91-43.18v-1c-1.95-.86-2.62-1.86-2-3l-2.13-.87c1.78-11.46,3.91-22.88,6.38-34.27-.95-.26-4.9,14.77-4.89,16.62l-2.35,1.54c-.48,1.81-1.14,2.48-2,2l-.99-.45c1.21-9.49-.12-18-4.01-25.52-1.35,1.2-3.26,1.33-5.73.41-8.62,1.56-13,.72-17.73-6.79-2.95-1.12-4.79-2.65-5.51-4.6-3.65-1.59-5.55.05-6,3.86-1.4,1.79-3.23,1.04-4.99.13-7.41,2.88-15.37-15.41-6.99-17.98.28-.87.62-.86,1,0,8.8,3.22,17.91,6.42,27.22,8.04,6.02-2.62,2.69-4.99-9.98-7.1l-3.26-2.94c-1.18-.76-.51-1.42,2-2-3.27-.88-5.27-2.54-5.99-4.99-1.92-1.05-2.26-2.05-1-3-.58-5.49,6.01-23.18,8.5-28.95,3.48-8.05,7.17-11.88,11.47-18.99,1.31-1.32,1.71-.76,1,1Z"/>
      <path class="cls-228" d="M260.01,438.78c2.6.04,3.68,2.73,3.22,8.08,5.07,4.61,11.63,7.71,19.67,9.31l1.08,2.58c-3.89,3.44-8,6.6-12.5,9.2-61.8,34.85-125.41,70.98-184.06,108.1-1,.63-1.97.97-3.21.57l-2.97.94-25.96-8.66c-5.83-1.54-9.5-4.29-11.02-8.27,1.73-1.81-.24-.93,4-3,1.14-1.34,2.47-2.01,4-2,.42-.4.63-1.73,1-2,1.74-.72,3.41-1.05,4.99-1,1.08-1.94,3.83-3.46,5.99-4,1.92-1.83,4.36-3.82,6.99-4,34.86-21.27,70.79-40.84,106.88-59.93,1.82-2.19,4.18-3.55,6.99-4,1.71-2.32,5.19-4.13,7.99-4.99,2.59-2.25,5.72-3.95,8.99-4.99,1.89-1.87,4.42-3.33,6.99-4,1.89-1.88,4.42-3.33,6.99-4,2.59-2.26,5.73-3.94,8.99-4.99,1.91-1.9,4.43-3.33,6.99-4,1.91-1.83,4.36-3.81,6.99-4,5.52-4.15,12.34-8.03,18.69-11.08.61-.29,1.42-.16,2.28.09Z"/>
      <path class="cls-44" d="M9.28,641.55c1.64-.69,1.93-.6,1,1,.18,2.09-1.33,3.76-4.54,5.03,22.54,9.27,45.12,18.42,67.73,27.44l2.74,2.5c33.02,11.54,65.84,24.35,98.22,37.74,4.05,1.68,7.89,3.87,11.66,6.21.61.08,1.08.17,1.09.3.41,5.02.3,13.5-1.09,17.68.85-.69,1.22-1.92,1.09-3.71l-.02-13.77c-1.61-1.63-.45-3.38,1.93-3.5l.38-2.18c6.41-3.05,13.08-6.54,17.55-12.18l2.04-.62c1.37.74,4.13.37,4.83,2.66.48,1.41.48,18.24,0,19.65-.85,2.5-8.39,4.5-9.4,6.63-.62,1.31,1.71,2.78,1.43,4.37-.5,2.82-14.72,10.99-18.24,10.63-1.73-.18-20.95-7.89-22.13-8.92-2.39-2.09-1.63-5.53-.44-8.02l-123.61-47.81c-2.94-.66-4.85,2.64-7.21,3.38-6.48,2.05-18.03-7.54-25.01-8.55.7-1.32.49-4.26,2.99-5.98-3.94-1.83-11.46-2.41-12.04-7.45-.31-2.69-.39-14.77.25-16.85.95-3.12,6.6-4.38,8.8-5.68Z"/>
      <path class="cls-44" d="M38.25,563.64c1.69,1.52,3.74,2.76,6.13,3.73,13.53,3.1,25.99,7.91,37.38,14.42,3.12,12.91,5.89,25.96,8.33,39.14.61,1.4,2.03,4.3,3.1,2.64-.33-2.7-.12-2.79,2-1,.71-2.73,5.67-5.39,7.99-3,2.59-.68,5.31.41,8.15,3.26,6.72-3.53,11.88,4.09,11.82,9.73.78.38,1.45.99,1.26,1.7l-12.97,47.48c1.46,1.48-1.22,6.85-2.7,7.3-1.61.49-27.56-10.63-31.32-12.25-.22-.09-.25-.62-.22-1.28l-1.3-2.67,5.08-15.82c-2.45-1.5-5.13-2.54-8.05-3.14l-.72-2.36c-.87-.95-.21-1.28,2-1,2.25.76,5.01,1.72,7.26,2.28.97.24,1.26,1.26,2.23-.27l6.37-24.86c-2.1-3.28-39.24-11.81-43.29-17.15-1.37-1.81-6.82-19.59-7.8-23.16-1.61-5.84-4.76-15.49-3.71-21.26.38-2.12,1.21-1.7,1.98-2.48h1Z"/>
      <path class="cls-162" d="M626.61,15.25c8.68.12,17.34.12,25.97,0,3.26,1.12,7.09,3.16,9.99,4.99.59.88.63,1.74.04,2.57-7.9-1.43-15.9-1.95-24.01-1.57l-1.67,2.36c-15.35,4.02-30.8,12.88-41.7,24.4-4.14,4.37-6.89,8.14-5.57,14.2,2.09,2.41-3.89,11.79-6.99,10.99-1.43,1.42-2.27.99-2-1l-2.6-2.22c-3.74-.02-5.2-.95-4.39-2.78-1.68.35-.84-.65-.89-.58-17.27,23.67-28.21,49.29-37.16,77.06l-1.9,1.44c-2.97,2.97-16.73.44-15.98-4.99,3.07-28.88,16.05-56.2,32.56-80l3.41-.91c.17-1.49.77-3.14,1.78-4.27,2.92-3.25,31.96-24.27,34.58-24.71,2.16-.36,2.85.29,3.16,2.35l1.44-3.36c-2.12-.2-3.12-1.19-3-2.98-4.49,1.18-8.3-.2-10.99-4-.96-.71-.63-1.04,1-1l1.56-1.62c6.15,3.25,11.85,4,17.1,2.26,7.21-4.77,14.77-8.04,23.72-8.47l2.57,1.84Z"/>
      <path class="cls-70" d="M269,348.88l4.99,2,7.99,3c1.78-2.25,2.96-1.87,3,1,4.42,1.47,8.75,3.13,12.99,4.99.55-1.92,1.45-1.94,2,0,10.06,3.01,20.05,6,29.97,8.99l2.68-.13c30.77,6.1,65.24,11.07,94.22-3.86,3.88-2.13,7.54-4.47,10.99-6.99.56-1.31,1.77-2.32,3-3,.74-1.3,1.57-1.56,2.5-.56l1.59,11.43c3.55,4.12,2.05,12.22-.09,17.1-1.96,7.52-9.75,9.57-16.47,12-18.27,6.63-44.52,10.88-63.83,8.85-1.03-.11-4.69-.4-4.61-1.87,8.12.81,9.31-1.93,9-9.46-.21-4.99-1.39-11.37-6.3-13.74-7.19-3.46-24.72-4.34-33.68-6.27-28.43-6.13-57.02-17.49-83.41-29.47-3.92,6.24-3.02,14.07-4.98,20.96-4.32-4.41-.94-10.47-.61-15.61.11-1.72-.93-3.31-.89-4.36.18-4.6.91-5.35,3-8.99l1.71-.22c7.24,6.11,15.66,10.84,25.27,14.21Z"/>
      <path class="cls-123" d="M27.26,632.56c3.63,1.68,7.63,3.68,11.99,5.99,11.34,3.23,22.47,7.62,32.96,12.99,2.26.91,10.24,2.63,10.91,4.64-.95,6.59-4.13,12.73-5.92,19.34,2.55,1.55,1.85,2.97-1,2-24.62-9.67-50.11-18.17-73.9-29.47,2.16-2.57,5.21-3.81,7.97-5.49,3.83-3.04,8.16-5.7,12.99-7.99.96-.35,1.48-1.91,4-2Z"/>
      <path class="cls-21" d="M698.53,262.98c-1.56,3.31-3.62,7.63-2.76,11.21l12.74,49.97c.52.99,3.73,2.22,5,2.74-.08,1.59.94,2.91,3.07,3.95l14.11,16.52-.2,2.5-38.96-11,16.05-10.63-14.07-55.28c-2.87,4.15-15.59,17.7-15.96,21.56-.64,6.73,11.46,39.67,8.97,42.36-6.52-2.43-26.67-5.41-31.31-8.9-1.5-1.13-1.84-8.2-2.65-10.57-.66-1.92-.88-3.19-3-1.5-.65-.29-.64-.63,0-1,18.93-12.28,33.98-31.43,46.34-50.06.32-.48,1.96-4.07,2.61-1.89Z"/>
      <path class="cls-84" d="M565.67,17.25c.25-.87.58-.85,1,0l6.99,2c1.48-2.47,3.11-1.87,3,1,1.68.45,3.01,1.12,4,2,3.72,1.26,7.34,2.57,10.99,4l.64,2.01c-12.56,8.41-24.79,17.28-36.68,26.59l-1.92-.63-.71.65c-8.43-2.92-16.86-5.46-25.27-7.64-3.03,1.16-4.69.82-4.99-1-2,1.92-2.08,1.82-2-1-.2-.59-.34-1.17-.25-1.72.43-2.67,19.05-19.42,23.23-20.26,1.47-1.62,3.13-3.29,4.99-4.99.66-.3,1.37-.82,2-1,.26-1.65,1.28-2.64,2.92-2.7l12.06,2.7Z"/>
      <path class="cls-129" d="M336.92,100.16c2.04,1.87,4.58,2.61,7.61,2.2,16.8,4.67,33.6,9.38,50.41,14.12,5.77,1.26,9.42,1.71,12.69-3.85l2.2.51c-.65-2.16.02-2.83,2-2,4.08,1.73,8.86,3.28,11.99,6.99l-1.92,1.71c-12.62-2.13-8.8,5.79,1.1,6.61l26.72,6.21,1.08,2.46c1.58.09,1.43,4.43,1,5.99-9.39-1.01-20.67-8.3-29.78-8.77-4.21-.22-8.77,1.95-13.23.33-8.43-3.57-70.9-17.99-72.95-21.19-1.74-2.71-1-9.24.09-12.33,1.5-1.43,2.03-.89,1,1Z"/>
      <path class="cls-9" d="M730.49,331.9c17.89,5.07,35.9,10.6,53.48,16.74,1.81,1.23.59,2.67-.68,4.17-4.93,2.48-9.21,5.5-12.84,9.06-.44.17-.7,1-2,1-11.19-5.85-28.53-5.01-37.96-12.99-5-4.23-10.81-12.43-15.33-17.63-1.42-1.63-6.56-2.79-1.65-5.34,5.01,2.05,12.22,3.61,16.98,4.99Z"/>
      <path class="cls-54" d="M671.56,27.24c73.18,30.42,67.61,134.24,45.95,196.78-1.65-1.54-.72-3.07-.36-4.8,6.47-31.31,14.35-58.79,12.34-91.58-1.96-31.83-17.75-80.46-49.94-93.41l-2.65.49c-10.09-3.15-20.45-2.53-30.46.65l-2.84-1.13c-1.31.32-1.61.29-1-1,.96-2.58,3.61-4.34,7.96-5.28-2.97-1.06-4.3-2.63-3.96-4.71-.11-.76-.14-1.38.12-1.52,5.15-3.05,19.93,2.56,24.86,5.52Z"/>
      <path class="cls-138" d="M293.97,402.82c2.53-.96,6.57-2.11,9.22-1.81l41.64,13.33,9.07-4.52c-1.88,5.66-8.26,4.86-10.97,6.51-.93.56-1.16,2.42-2.02,2.97-2.77,1.8-14.07-2.12-17.74-3.23-6.54-1.98-25.7-10.79-30.93-8.52-2.14.93-3.87,2.72-7.26,4.26.54-4.78,4.96-7.46,8.99-8.99Z"/>
      <path class="cls-143" d="M44.25,560.64c11.39,8.57,26.99,10.43,39.96,15.98,2.38-.83,2.79-.45,2,2,.87.32.87.66,0,1l-.31,1.27c.23,3.63.33,8.53.31,14.71.49.88.94,1.76,1.22,2.7,2.33,7.81,3.33,14.51,4.29,22.51,0,.07-.33-1.32.49-1.24,2.38-.89,1.78,2.7,1,4-.12.11.59,2.96-1.49,1.99-5.41-2.52-6.69-36.57-11.46-42.48-5.2-6.45-38.84-12.56-41.51-16.47-.59-.87-.54-1.97-.48-2.97,1.4-.77,2.07-1.44,2-2,3.54-1.94,3.83-.83,4-1Z"/>
      <path class="cls-136" d="M427.82,291.94c1.14-.35,3.41.66,3,2,.5,2.27-.92,6.47-2.03,8.88-5.75,8.91-10.62,18.22-14.61,27.94l-2.34,1.14c-.64.98-2.3.98-4.99,0-1.36,2.6-3.84,1.93-4-1-1.42-6.26,3.18-13.82,6.87-18.87-.47-3.05,1.46-4.74,4.12-6.1,1.04-2.32,1.88-4.58,3-6.99,1.68-2.05,3.34-4.38,4.99-6.99.9-2.03,2.9-2.03,5.99,0Z"/>
      <path class="cls-141" d="M522.72,46.22l-.6,2.62c-18.52,21.87-28.74,49.47-37.36,76.29-1.05,4.09-6.39,2.37-5.83-1.26,6.36-15.54,11.33-31.63,18.81-46.68,1.23-2.95,2.56-5.95,4-8.99,2.1-3.27,3.81-6.74,5.99-9.99,3.2-3.22,6.89-7.51,11.08-12.86l1.91-.12c.67.24,1.36.84,2,1Z"/>
      <path class="cls-160" d="M423.12,117.42c4.79,1.17,9.81,1.57,14.46,3.1,2.73.86,5.22,2.41,8.39,3.2,2.82.86,6.8,1.53,8.28,3.97,1.14,2-.28,5.19-2.35,6.42-1.74,1.12-4,.78-6.06.28-8.25-2.1-21.84-4.73-29.11-7.43-1.48-.57-2.97-1.25-3.9-2.49-1.27-1.65-1.07-4.19.74-5.8,2.48-2.15,6.2-1.89,9.36-1.27l.2.04Z"/>
      <path class="cls-130" d="M177.1,483.73c1.65-.67,1.93-.61,1,1-35.54,20.15-71.1,40.21-106.88,59.93-1.66.67-1.92.61-1-1,35.06-21.05,71.33-39.83,106.88-59.93Z"/>
      <path class="cls-196" d="M353.91,315.92c.87.28.86.62,0,1l-2.38,1.46c-13.74-3.58-24.29-6.17-37.86-.89-10.58,6.26-21.6,10.7-33.06,13.33l-2.11-1.92c-.21.78-.53,1.93-1.14,2-2.36.25-21.19.4-22.41,0l-1.43-2c.52,2.75-5.62,5.21-7.49,3-1.28.69-1.75.23-1-1,8.23-6.62,21.45-3.12,31.45-4.01,21.9-1.95,34.07-19.84,58.69-16.71,6.03.77,12.92,3.85,18.74,5.74Z"/>
      <path class="cls-13" d="M476.77,158.09c.87.28.86.62,0,1-2.01,7.04-3.34,14.7-4,22.97.74,2.88.84,6.13,0,8.99.71,2.07.71,4.4,0,6.99,2.97.68,2.61,3.67,0,4.99-.27,2.3-.83,2.53-3,2-1.73,1.91-1.79.07-1-2-1.25-.02-1.9-.71-2-2-.3.53-.64.51-1,0,4.75-10.77-.99-28.79,3-41.95-.02-2.87.65-3.87,2-3,1.81-1.86,5.1.12,5.99,2Z"/>
      <path class="cls-26" d="M469.02,201.56c.33,2.28-.12,6.8-1.16,9.6-1.5,4.19-5.41,7.18-7.48,11.62-9.52,18.99-18.39,38.61-28.27,57.34-.95,1.57-2.83,4.72-4.34,4.28-.58-.3-.7-1.64-.25-3.52.91-3.64,2.98-7.33,4.51-10.68,1.26-2.65,2.38-5.29,3.53-7.99,4.26-9.87,9.24-18.83,13.82-28.39,1.1-2.3,17.63-41.02,19.63-32.38l.02.13Z"/>
      <path class="cls-69" d="M413.84,305.93c-3.72,8.29-8,16.37-10.99,24.97-1.77,2.58-9.76,1.3-9.99-2-.27-1.83.61-3.72,2.63-5.65l5.34-10.34c4.58-4.06,2.05-3.96-7.57.31l-2.4-1.3c-.5-.3-.49-.64,0-1,2.76-1.97,6.35-4.19,9.73-4.75,5.02-.83,8.67,1.6,13.25-.24Z"/>
      <path class="cls-96" d="M788.43,349.88c-2.7-.47-1.76,2.12-3.59,3.89-2.32,2.26-11.13,6.8-14.39,8.09-.15-7.86,11.67-6.36,12.98-12.98l-52.94-16.99c7.13,2.07,14.57,3.54,21.74,5.73,12.17,3.72,24.35,7.62,36.19,12.25Z"/>
      <path class="cls-12" d="M347.91,94.16c17.4,2.29,47.9,10.17,63.93,16.98-.67.66-1.37,1.3-2,2-20.79-4.3-43.42-9.73-63.93-17.98-1.02-1.54.55-1.34,2-1Z"/>
      <path class="cls-178" d="M581.66,1.27c4.45-1.26,7.11-.92,7.99,1l-3.28,2.3c-9.48,1.16-19.1,3.76-27.27,8.39,3.91.52,6.1,1.95,6.58,4.29-5.85-.75-8.86-1.75-14.98,0-1-4.57,5.46-8.69,8.93-10.55,6.65-3.54,14.59-5.19,22.03-5.44Z"/>
      <path class="cls-80" d="M280.99,424.79l-1.32,3.08c-2.66,2.19-15.85,11.48-17.77,11.34-.64-.05-1.26-.22-1.89-.43-6.79,3.91-14.2,7.12-20.98,10.99-1.65.68-1.93.6-1-1,9-5.27,18.19-10.35,26.97-15.98l-.29-1.37c1.91-1.27,4-2.48,6.29-3.62,2.59-3.03,7.22-3.27,7.99-4.99l2,2Z"/>
      <path class="cls-112" d="M542.7,22.25c1.53-.83,1.95-.57,1,1-10.1,7.59-14.72,12.74-22.97,21.98-3.39,3.79-6.99,7.27-10.18,11.29-.39.49-2.17,3.83-2.8,1.69,10.35-15.36,19.3-25.95,34.96-35.96Z"/>
      <path class="cls-146" d="M662.57,20.25c3.08,1.95,6.15,4.67,8.99,6.99-.73-.3-3.2.19-5-.47-6.46-2.38-11.92-7.52-19.98-3.53-2.22,2.08-6.35.17-7.99-2,7.35-1.23,11.24-1.06,18.78-.28,1.6.17,4.15,1.15,5.19-.72Z"/>
      <path class="cls-29" d="M433.82,266.97c-2.55,5.52-4.52,11.44-6.99,16.98-1.09,2.85-.76,5.18,1,6.99.87.28.86.62,0,1-1.67-.36-4.16.25-5.99,0-.7-.32-.7-1.32,0-3,3.62-7.7,7.25-15.34,10.99-22.97,1.32-1.33,1.4-.79,1,1Z"/>
      <path class="cls-18" d="M74.21,650.54l-2,1c-10.96-4.39-21.93-8.78-32.96-12.99-1.33-1.35-.81-1.3,1-1,11.31,4.16,22.61,9.18,33.96,12.99Z"/>
      <path class="cls-213" d="M614.62,3.27c10.24,1.98,20.2,4.23,29.97,7.99,1.32,1.3.76,1.65-1,1-8.25.33-19.68-2.68-28.02-5.35l-2.94-2.64c-.65-.76.02-1.1,2-1Z"/>
      <path class="cls-67" d="M246.02,331.9c5.46,6.3,13.23,11.06,23.33,14.27l.65,2.71h-1c-9.52-3.73-19.37-6.58-26.97-13.98,1.3-2.28.43-1.93,3-4,.6-.19,1.06.58,1,1Z"/>
      <path class="cls-39" d="M459.79,124.13c.87.28.86.62,0,1,1.14.43,2.93,1.24,3,3,.87.28.86.62,0,1-1.89,1.95-4.89,2.61-8.99,2-.26.77-.6.75-1,0,.02-1.46.43-3.46-.98-4.51-2.33-1.75-8.94.04-8.01-3.48,6.5,1.45,9.47,1.77,15.98,1Z"/>
      <path class="cls-92" d="M443.81,245.99c-3.17,7.11-6.75,13.96-9.99,20.98l-1-1c3.41-6.95,6.38-14.12,9.99-20.98,1.4-1.32,1.92-.77,1,1Z"/>
      <path class="cls-225" d="M476.77,124.13c.04.36,1.52,1.83,1,3l-1.98,1.53c-4.52-.2-12.35-1.67-16-3.53v-1c.43-.05,1.5-1.06,3.42-1.11,4.58-.12,9.52,3.13,13.56,1.11Z"/>
      <path class="cls-168" d="M648.58,14.25c.25-.46.59-.43,1,0,1.94-.03,2.02.66,3,1-1.26.64,1.35,2.23-1.48,2-8.18-.67-16.23-2.36-24.49-2l.88-2.38c6.93-.69,13.96-.22,21.09,1.38Z"/>
      <path class="cls-27" d="M453.8,131.12l1.48,1.79c-1.53,5.21-.65,11.3,3.68,14.89l-.16,2.31c.51.3.5.64,0,1-5.73-3.73-5.72-2.68-6.99-9.99-.2-1.16-.99-5.45-1-5.99-.03-1.86.8-2.78,2-4,.16-.17.76.15,1,0Z"/>
      <path class="cls-72" d="M600.63,1.27c.55.47.22.8-1,1-1.66,2.85-8.31,2.82-9.99,0-1.6-1.7-5.56-1.08-7.99-1,4.33-1.55,11.01-1.36,15.6-1.07,1.79.11,3.05,1.04,3.38,1.07Z"/>
      <path class="cls-19" d="M390.86,311.92c.65,2.37-.61,4.99-3.78,7.86-.96,2.57-2.36,3.95-4.21,4.12-1.45,1.2-2.05.62-1-1-.03-4.84,5.32-9.36,8.99-11.99v1Z"/>
      <path class="cls-111" d="M470.78,156.1c-.02,1.16-1.85,2.5-2,3,.54-3.04-.13-2.4-1.93-3.53-2.54-1.59-5.25-2.63-8.06-4.46v-1c2.5-2.09,11.78,2.93,11.99,5.99Z"/>
      <path class="cls-50" d="M347.91,94.16l-2,1c-2.45,1.68-4.99,3.48-7.63,5.41l-1.37-.42c-.09-.44-.57-.84-1-1,1.61-4.59,4.71-6.29,9.53-6.07,1.33.06,2.17,1.04,2.45,1.08Z"/>
      <path class="cls-81" d="M40.25,637.56l-1,1c-3.02-1.15-6.06-2.25-9.07-3.46-1.54-.62-3.5.1-2.91-2.53,4.27-.16,9.33,3.65,12.99,4.99Z"/>
      <path class="cls-210" d="M23.27,634.56c-3.53,3.46-8.73,5.4-12.99,7.99l-1-1c5.41-3.2,7.85-4.76,13.98-6.99Z"/>
      <path class="cls-218" d="M421.83,291.94c-.64,2.36-2.98,5.99-4.5,7.97l-.5-.98c1.59-3.43,3.42-6.65,4.99-9.99-.15.92.22,2.21,0,3Z"/>
      <path class="cls-211" d="M381.87,322.91c.22.04.62.81,1,1,1.9.52,1.91,1.41,0,2-4.14.89-7.87-.12-10.99-3-.82-.29-.81-.62,0-1,3.05.47,6.78.35,9.99,1Z"/>
      <path class="cls-197" d="M202.07,469.74c.64.29.63.63,0,1-2.98,1.69-6.03,3.32-8.99,4.99-.65-.29-.64-.63,0-1,2.92-1.65,6.11-3.36,8.99-4.99Z"/>
      <path class="cls-28" d="M225.05,456.76c.64.29.63.63,0,1-2.98,1.69-6.03,3.31-8.99,4.99-.64-.29-.63-.63,0-1,2.96-1.69,6.07-3.31,8.99-4.99Z"/>
      <path class="cls-158" d="M193.08,474.74v1c-2.53,1.43-5.16,3.39-7.99,4.99-1.65.68-1.93.6-1-1,2.98-1.68,6.03-3.32,8.99-4.99Z"/>
      <path class="cls-28" d="M184.09,479.73l1,1c-2.33,1.32-4.66,2.67-6.99,4l-1-1c2.28-1.29,4.72-2.71,6.99-4Z"/>
      <path class="cls-11" d="M497.75,77.18l-1-1c1.66-2.74,3.27-5.3,4.99-7.99l.98.49c-1.25,2.85-3.67,5.89-4.97,8.5Z"/>
      <path class="cls-51" d="M216.06,461.75v1c-2.28,1.29-4.73,2.71-6.99,4-.64-.29-.63-.63,0-1,2.27-1.29,4.75-2.71,6.99-4Z"/>
      <path class="cls-48" d="M71.22,544.66c-2.3,1.27-4.63,2.72-6.99,4-.62-.3-.61-.63,0-1,1.83-1.12,3.78-2.67,5.99-4l1,1Z"/>
      <path class="cls-82" d="M232.04,452.76c.64.29.63.63,0,1-2.28,1.3-4.73,2.71-6.99,4v-1c2.27-1.31,4.77-2.71,6.99-4Z"/>
      <path class="cls-154" d="M614.62,3.27l-2,1c-1.75,2.63-7.69,1.07-7.99-2-.6-.5-.26-.83,1-1,3.13.37,6,1.42,8.99,2Z"/>
      <path class="cls-20" d="M209.06,465.75v1c-2.28,1.29-4.73,2.71-6.99,4v-1c2.27-1.29,4.74-2.71,6.99-4Z"/>
      <path class="cls-158" d="M239.03,449.77c-2.28,1.3-4.73,2.71-6.99,4v-1c1.85-1.08,3.81-2.72,5.99-4l1,1Z"/>
      <path class="cls-209" d="M466.78,201.05l-4.99,8.99c-.5-.19-.5-.86,0-2,1.22-2.66,3.12-5,4-6.99h1Z"/>
      <path class="cls-28" d="M64.22,547.66v1c-1.85,1-4,3.08-5.99,4-1.2.29-1.53.2-1-1,2.65-1.76,4.81-2.65,6.99-4Z"/>
      <path class="cls-22" d="M461.79,210.04c-.41.88-3.16,4.89-3.92,5.09,1.12-2.5,2.87-5.44,4.16-7.59-.07.65.03,1.93-.24,2.5Z"/>
      <path class="cls-63" d="M543.7,23.24l-1-1c2.09-1.33,3.39-2.83,5.99-4,.02,2.82-3.06,3.54-4.99,4.99Z"/>
      <path class="cls-110" d="M359.9,317.91c.87.28.86.62,0,1-1.57,2.78-5.71.91-5.99-2v-1c2.01.65,3.99,1.34,5.99,2Z"/>
      <path class="cls-55" d="M649.58,14.25c-.33,0-.67-.01-1,0-1.95.73-5.53.39-4.99-2l1-1c1.74.67,3.74,1.57,4.99,3Z"/>
      <path class="cls-98" d="M443.57,246.53c-1.3,1.32-.01-2.24,4.94-12.51,2.66-5.51,7.72-17.11,11.22-21.72-2.72,5.93-13.42,28.31-16.16,34.23Z"/>
      <path class="cls-173" d="M57.23,551.65l1,1c-1.68.78-3.09,1.24-4.99,1,1.86-1.35,3.15-1.43,4-2Z"/>
      <path class="cls-165" d="M371.89,321.91v1c-2.31,2.15-4.89,1.1-4.99-2h1c1.62-.77,3.29.89,4,1Z"/>
      <path class="cls-106" d="M52.24,555.65c-1.88,1.8-2.44,1.24-4,2,.96-1.74,2.08-3.7,4-2Z"/>
      <path class="cls-101" d="M363.89,318.91c.87.28.85.62,0,1-2.06,2.1-3.13,1.81-4-1v-1c1.29.43,2.69.59,4,1Z"/>
      <path class="cls-104" d="M605.63,1.27l-1,1c-.63,2.76-4.45,2.9-4.99,0l1-1c1.64.15,3.37-.19,4.99,0Z"/>
      <path class="cls-89" d="M445.69,242c-.58,1.33-2.26,4.81-2.57,5.5l-.32-2.5c.67-1.27,1.45-2.06,2-3h.89Z"/>
      <path class="cls-108" d="M38.25,563.64h-1c1.05-1.07,1.78-1.33,3-2l.98.49c-.76,1.06-1.64,1.6-2.98,1.5Z"/>
      <path class="cls-103" d="M367.89,320.91h-1c-1.57,2.32-2.72,1.77-3-1v-1c1.41.44,2.92.92,4,2Z"/>
      <path class="cls-170" d="M515.73,252.99c.06,9.6,9.91,43.29,15.97,50.46,5.51,6.52,21.85,7.39,29.98,10.47,3.45.97,6.78,2.64,9.99,4.99.27,3.03-5.65,4.31-8.04,5.44-.47.22-4.14,1.83-1.95,2.55-1.41.83-4.15,3.85-5.99,4.99-12.92,8.01-26.59,15.1-38.96,23.97.3-3.19-.58-1.74-2.32-.83-5.55,2.91-13.3,9.95-18.87,11.14-5.88,1.26-4.06-9.89-12.77.67-1.43,1.7-2.1,1.7-2,0-1.34-1.45-.79-3.42,1.66-5.93l-9.16-3.8-.49-2.25c1.5-3.84,1.62.1.96-.26-1.99-1.08-5.22-17.55-3.32-20.48-1.79-2.37-3-5.11-3.64-8.23-.76-5.7,3.55-14.37,7.99-17.98l1.03.42c-.03,3.9.96,7.09,2.96,9.57.33-.86.66-.86,1,0l1.08.02c9.85-21.47,20.32-43.19,31.38-64.09,1.27-2.47,1.9-3.62,3.51-.86Z"/>
      <path class="cls-153" d="M136.14,599.6c6.79-4.05,13.64-7.44,20.55-10.16-.76,3.22-.62,4.94.43,5.17-7.77,25.87-13.72,52.26-20.85,78.31.7,2.98,33.74,13.55,38.83,15.59,7.95,3.17,16.13,6.56,23.97,9.99,1.33,1.3.78,1.46-1,1l-1.46,1.81c-7.62,1.91-15.08,5.33-22.41,10.24l-3.11-1.06c-.08,3.15-1.97,2.62-4.41,1.77l-56.19-22.12c-2.55-1.33-.62-3.74,1.53-4.94l-.84-1.03c6.75-25.99,13.77-51.91,21.06-77.74l-1.1-.82c-1.56,3.09-3.7,5.13-6.42,6.12,2.18.44,3.65,1.39,4.42,2.87,1.79,1.15.13,4.99-2,4.99-2.69.35-1.89,5.67-1,6.99,1.51,1.36-.58,6.47-3,5.99-5.04-4.06-3.5-11.6-12.07-7.43l-7.91-5.56c.48-3.85,8.31-9.5,11.99-7.99,1.6.39,2.93-.28,4-2,2.81-5.2,11.1-10.48,16.98-9.99Z"/>
      <path class="cls-131" d="M198.08,699.49c2.5.86,5.17,1.52,7.99,2,1.34.65,2.11,1.52,3,2,.84,4.48-17.21,14.65-19.98,14.98-.33.84-.8,1.76-1.62,1.95-.88.21-15.22-6.2-16.48-7.34l.12-2.6c9.33-1.92,17.23-12.89,26.97-10.99Z"/>
      <path class="cls-199" d="M206.07,701.49c-1.9,2.76-6.2-1.65-7.99-2l1-1c2.2.96,4.97,2.02,6.99,3Z"/>
      <path class="cls-4" d="M610.62,286.95c-.35-.31-.65-.68-1-1-24.38-17.48-29.19-50.72-29.16-78.85,0-5.07.21-24.16,2.05-27,.15-.23,5.1,0,5.48.7,1.33,2.37.42,8.58-.35,11.25l.46,1.61c-1.12,24.55-1.05,49.8,12.53,71.31,2.81-.95,3.84.83,2,3,1.6,1.42,3.18,3.04,4,4.99,25,25.29,56.26,8.5,73.92-15.98,1.38-4.92,4.05-9.68,8-14.28,26.12-38.26,40.78-132.26-2.73-161.75-3.76-1.39-6.52-3.31-8.27-5.76-20.52-1.15-38.49,7.79-51.94,22.97,1.28,1.45.71,1.98-1,1-15.28,17.17-23.15,39.07-30.49,60.47-5.12,1.11-6.92-.39-6.06-5.8,4.37-27.53,31.62-65.51,55.53-79.65,26.24-16.21,52.61-5.05,65.88,21.45,26.95,53.82,3.03,157.84-49.7,190.02-15.58,9.51-33.48,12.61-49.14,1.29Z"/>
      <path class="cls-162" d="M630.6,41.22l-1.62,3.45c-10.27,7.98-19.72,16.82-28.35,26.52-14.39,19.33-25.1,40.04-32.23,63.16-.85,2.77-4.87,15.58-4.75,17.17.1,1.31,5.82,1.08,3.02,2.58-9.2.77-20.38-1.71-27.97-6.99l-.58-1.25c10.27-27.92,15.4-41.87,15.4-41.87,1.2-2.52,3.25-2.13,6.16,1.17.39-2.66,2.03-2.63,4-1l1.22,2.2c-4.19,7.26-.5,9.27,6.35,7.01,7.92-17.26,17.36-33.77,28.33-49.53l3.05-.63.56-3.77c6.51-7.53,14.26-13.83,22.62-19.17l3.79-.03c1.62-.72,1.93-.59,1,1Z"/>
      <path class="cls-83" d="M516.73,140.11c.32-.86.65-.86,1,0,7.18,5.33,8.86,3,15.98,4.99,4.06-.59,5.73.08,4.99,2,9.27,2.52,18.72,4.49,27.97,6.99,1.35.37,2.69.65,4,1l15.41,2.85.57,1.14c-.26-1.78,5.55.69,6.76,1.48.28.19.3.79.23,1.52,1.03.38,2.21.07,2.98,1.5-3.5,2.57-4.08,7.88-9.34,6.42-9.27-3.77-78.74-18.37-81.08-21.85-1.3-1.94-.21-5.84.68-7.9,2.89-1.82,9.11,3.82,7.86-2.14,1.06-.83,1.72-.16,2,2Z"/>
      <path class="cls-152" d="M610.62,286.95c31.45,17.81,60.48-6.35,78.14-31.24,26.53-37.4,39.44-104.38,24.79-148.09-10.66-31.8-37.43-51.16-69.96-33.43-.65-.29-.64-.63,0-1,39.3-21.26,66.29,7.02,74.61,44.76,10.91,49.51-6.47,124.34-45.17,158.98-16.96,15.18-42.86,27.19-62.4,10.02Z"/>
      <path class="cls-180" d="M643.59,73.19v1c-23.64,12.88-48.61,54.02-54.49,79.88-1.07,4.69-.29,4.56,4.54,5.03,5.24-21.6,15.8-43.63,30.97-59.94l-.61,3.87c-11.05,16.87-19.78,35.14-26.19,54.82l-3.17,2.25c-.3.68-.69,1.32-1,2-2.25-.82-5.56-2.55-6.99-3-1.61-.75-1.81-1.26,0-2,1.52-26.13,34.02-71.51,56.94-83.91Z"/>
      <path class="cls-134" d="M679.55,34.23c-2.85,3.83-7.02.43-10.59.11-26.27-2.39-48.26,18.28-65.32,35.35-.46.46-2.58,3.49-3,1.5,8.76-11.76,17.31-22.05,29.97-29.97,2.6-3.09,8.73-6.52,12.99-6.99,11.01-4.12,25.07-4.38,35.96,0Z"/>
      <path class="cls-8" d="M581.66,179.07c1.61.39,4.75-.32,6.39.89.18.13,1.6,3.88,1.6,4.1,2.62.5,1.76,7.69-1,7.99-.28.87-.62.86-1,0,.23-3.63-.16-7.36,0-10.99h-5c-2.99,37.71-2.91,77.79,26.98,104.89-2.15-.11-3.44-1.21-5.02-2.48-26.54-21.32-27.61-73.59-22.95-104.4Z"/>
      <path class="cls-40" d="M586.65,157.09c-.04.66.03,1.33,0,2-4.56-1.42-10.98-2.65-15.98-4l15.98,2Z"/>
      <path class="cls-94" d="M649.58,315.92c0,1.11.7,2.02,1,3,.25,2.39-.08,4.06-1,4.99-.8-2.04-1.53-3.31-1-5.99l-6.99,1.99c1.6-2.81,5.47-3.35,7.99-4.98v1Z"/>
      <path class="cls-74" d="M650.58,318.91c.4,1.3,2.51,7.45,1.99,7.99-2.7.42-2.38-1.43-2.99-2.99.06-1.6-.62-4.15,1-4.99Z"/>
      <path class="cls-62" d="M333.93,441.78c2.76-.34,2.52-.29,3.5,1.96,2.4,5.53,2.55,12.09,2.49,18.02-.28,2.13-.79,2.74-2.86,2.22l-6.07,1.28c-2.5,4.28-9.54,8.68-14.61,8.89-1.33,2.82-4.32,5.14-7.32,3.81l-.05,1.63c-8.84,4.74-17.72,10.11-26.23,16.01-4.05,1.91-8.28,3.36-12.68,4.35-6.32,7.35-15.71,12.5-24.08,16.74-5.97,4.29-12.85,8.41-20.21,10.29-6.58,5.33-13.77,8.9-21.58,10.72l-.83,3.09c-23.61,13.66-47.27,27.55-70.95,41.68-1.46.82-11.94,6.36-12.7,6.61-4.14,1.38-6.79-.69-4.59-4.47,3.24-5.08,2.58-5.08-2,0,1.25,2.09-.08,3.09-4,3-.48.41-.51.75,0,1,2.12-4.03,7.73-1.09,6.77,2.13-.51,1.71-21.98,13.24-25.19,14.52l-.56-.67c-.63.06-1.13.06-1.18-.09-1.03-2.74-2.03-7.24-1.81-9.9-1.39-2.07-2.48-9.69,1.44-9.33,64.66-38.63,129.78-76.48,195.35-113.53,11.94-8.65,25.02-15.85,37.96-22.97l6.99-4,4.99-3Z"/>
      <path class="cls-194" d="M339.92,465.75c-.13,2.46-1.75,5.5-1.05,8.41.28,1.18,1.43.39,2.05.58,1.81-.7,2.12-.69,1,1,0,2.33-1.78,3.12-3,1-81.63,47.17-162.62,95.27-242.98,144.29l-.75,1.55c-.59.33-1.92.92-2,1l-1-4c-1.1-1.87-1.99-6.56,0-7.99l.33-2.52c81.88-48.47,164.02-96.24,246.4-143.32.28-.87.62-.86,1,0Z"/>
      <path class="cls-183" d="M332.93,431.79c-.82,1.24-1.71,2.37-2.86,3.08-13.83,8.49-28.93,16.92-43.11,24.17-.99.51-2.01.32-2.97-.28-5.01-2.24-18.34-5.19-21.68-9.27-2.34-2.86-.3-7.62-2.29-10.71,7.13-4.1,13.86-10.08,20.98-13.98,2.7-1.48,15-7.09,17.25-6.8,9.94,4.53,20.53,7.39,30.7,11.31,1.8.69,3.03,2.07,4,2.48Z"/>
      <path class="cls-44" d="M432.82,293.94l1.33,2.16c-.9,2.61-1.45,5.34-1.39,8.1,8.94,2.29,17.81,4.3,26.58,6.03l1.45,1.68c.29-.66.63-.65,1,0l.08,4.44-10.56,24.24c-4.81,8.11-7.06,12.74-3.93,21.21l14.84-30.85c1.22-1.95,2.75-3.63,4.57-5.05,3.18-.81,3.22,5.27,4.01,5.99,2.92.8,2.21-3.42,4.97-3.99-.09,3.39-3.48,5.19-3.96,8.57-.52,3.64,1.76,13.12,3.09,16.79,1.26,3.48.08,1.22-2.12,1.61-2.26.98-5.19,1-8.78.06-5.27.87-14.81,21.65-15.97,27.29l-2.22.62h-1c2.16-8.31-2.25-19.28-2-27.97-.66-.03-1.33,0-1.99,0-.31.61-.64.61-1,0l-1.56-1.6c1.23-5.68-4.25-9.39-8.58-11.74l-.86-2.64c-.66-.29-.65-.63,0-1l2.02-1.3c4.31,1.7,8.34,3.91,11.56,7.28.87-.48,9.3-16.38,8.68-17.22-.73-.99-22.52-6.89-23.75-6.42-3.31,4.22-6.15,8.78-8.5,13.67.77,1.24.35,1.31-1,1-1.23,2.73-5.27,2.02-5.99-1-1.48-.96-1.95-1.47,0-2,2.43-11.32,14.71-26.69,18.98-37.96-.78-2.1,3.36-2.15,2,0Z"/>
      <path class="cls-164" d="M334.93,432.79c.87.28.86.62,0,1-1.57,1.85-3.22,3.74-5.33,4.99-11.04,6.48-22.33,12.94-33.54,19.11-1.03.57-2.18.91-3.37,1.22s-2.45.5-3.71.65l-8.11,6.35c-57.99,35.69-116.45,70.91-175.85,104.26-2.97,1.67-6.1,3.05-9.24,4.43s-6.35,2.62-9.58,3.82c-.1-.22-1.93-.96-2-2,5.25-4.79,11.28-8.45,17.31-12.16,58.92-36.26,122.28-71.75,182.47-105.71,5.35-3.02,12.09-5.69,17.65-8.82,10.51-5.92,20.81-12.21,31.29-18.15.61.26,1.51.96,2,1Z"/>
      <path class="cls-132" d="M436.81,438.78c1.14-2.18,8.04-14.45,9.43-14.68,6.56-1.08,20.8,15.41,26.89,18.59l.63,2.06-55.93,29.99c-.84.43-1.48.32-1.87-.47l8.86-14.51c-1.03-2,1.8-6,4-5.99l3-4.99c1.01-3.27,2.67-6.6,4.99-9.99Z"/>
      <path class="cls-24" d="M472.78,354.87c2.02.6,11.61,3.93,11.97,5.56.2.92-3.14,5.08-3.98,6.43.74,1.41-.3,3.45-2,3-2.52,6.99-7.11,15.53-12.99,19.98-.91,1.28-1.35,2.85-3.3,2.81-.69-.02-12.13-3.26-13.24-3.75-3.02-1.34-3.89-2.61-3.44-6.05.12-.93,2.02-6.62,2.52-7.97,1.55-4.21,9.1-18.1,12.4-20.56,3.99-2.98,7.85-.68,12.06.56Z"/>
      <path class="cls-216" d="M357.9,467.75l-1,2c-65.37,40.66-131.62,79.92-198.07,118.81-1.62,1.58-1.15,4.21-1.71,6.05-4.88,2.95.9-4.61-2.5-4.01-4.53.81-10.54,6.07-14.8,8.23-1.39.7-3.14.49-3.68.77l-.44-2.07c66.7-40.39,135.77-81.85,203.21-120.79.71-.36,1.92-.46,3-1,1.32-1.69,13.83-9.02,14.67-8.77.47.14.9.44,1.32.78Z"/>
      <path class="cls-194" d="M339.92,465.75h-1c-30.71,16.94-61.26,34.51-91.66,52.7l-1.24-.76c-.63-.3-.62-.63,0-1,4.53-2.66,13.5-8.68,17.46-12.01,2.28-1.92,3.75-5.23,5.57-6.42,3.14-2.06,8.17-1.21,12.17-2.81,5.96-2.39,12.43-10.52,18.69-13.27,2.45-1.07,6.72-1.27,6.98-1.52.39-.39-.42-3.38,1.03-4.51,1.13-.88,3.15.88,4.41.51,2.31-.67,1.33-4.63,1.62-4.94.37-.39,3.97,1.15,6,.61.8-.21,7.12-4.38,7.96-5.15,1-.92.62-2.77,1.72-3.46,2.36-1.47,7.65-.21,10.28-1.97-.01,1.33.07,2.67,0,4Z"/>
      <path class="cls-105" d="M334.93,433.78c5.24-.36,7.57.64,6.99,3-2.78,1.65-5.69,2.62-7.99,4-1.07,1.86-2.73,3.2-4.99,4l-7.99,4c-9.05,5.95-18.38,11.27-27.97,15.98-2.93-.66-7.93-2.16-4-4.99,15.14-8.96,30.2-18.08,45.95-25.97Z"/>
      <path class="cls-41" d="M334.93,432.79c14.04,1.22,39.29-29.21,55.93-25.97.57,2.55-.68,1.75-1.87,2.58-14.53,10.23-31.75,18.27-47.07,27.38-1.25-2.31-6.73-.19-7.99-1.01l1-1.99v-1Z"/>
      <path class="cls-127" d="M422.83,399.83l-43.09,67.28-3.85,1.63,37.73-58.65c1.23-.95,7.58-11.84,9.21-10.26Z"/>
      <path class="cls-61" d="M431.82,448.77l-3,4.99c-1.38,2.06-2.49,3.93-4,5.99-2.8,5.57-6.13,10.56-9.99,14.98-.8,1.17-.39,2.41-2.23,3.33-.89.44-4.77,1.66-3.75-.82l27.96-38.47c-2,3.83-1.64,5.54-4.99,9.99Z"/>
      <path class="cls-175" d="M298.97,390.84c.56-.61,15.97,3.49,15.96,4.49-1.93,3.82-14.27,1.45-15.5-.46-.52-.82-.74-3.72-.46-4.03Z"/>
      <path class="cls-190" d="M480.77,370.86c-4.38,6.29-8.11,13.93-12.53,19.93-1.67,2.26-1.4-.05-2.45-.95,4.51-6.36,8.75-13.4,12.99-19.98,1.7-2.13,2.46-1.67,2,1Z"/>
      <path class="cls-182" d="M340.92,474.74c5.7-2.99,13.26-9.3,18.93-11.54.88-.35,4.22-1.39,4.04.54-2.7-.12-4.6,3.21-5.99,4.01-4.37,2.52-11.2,5.61-15.98,7.99-.17-.44-.55-.86-1-1Z"/>
      <path class="cls-125" d="M417.84,474.74c-.79,1.35-1.91.8-3,0,3.43-5.03,6.36-10,9.99-14.98-1.13,4.09-4.04,7.59-6.21,11.27-.53.91-2.95,3.1-.78,3.72Z"/>
      <path class="cls-25" d="M482.76,366.86c-.8.97-1.22,2.88-2,4l-2-1c.65-1.01,1.39-2.01,2-3h2Z"/>
      <path class="cls-200" d="M333.93,441.78c-.8,2.48-3.29,2.24-4.99,3,1.11-.66,3.07-2.84,4.99-4v1Z"/>
      <path class="cls-71" d="M680.55,256.98c-16.8,23.64-49.46,41.92-72.92,15.98-1.73-1.52-3.4-3.18-4.99-4.99-.77-1.05-1.31-1.92-2-3-13.53-21.73-14.27-48.26-11.99-72.92-.02-3,1.01-6.3,1-7.99-.53-2.69,1.4-2.79,2.5-1.01,2.12,3.42-1.18,13.21-1.49,17.5-1.04,14.75,2.86,43.16,11.53,55.36.65.92,4.75,5.93,5.43,2.54.28-1.4-7.32-16.65-8.49-20.46-4.45-14.48-5.71-33.34-4.49-48.43.12-1.47.32-7.45,2.98-6.5-.54,20.02-2.45,45.18,6.82,63.6.44.88,4.78,8.95,6.16,7.31,1.56-6.54-2.53-9.7-4.27-15.2-9.5-29.92-7.07-65.35,5.42-94.04,1.9-4.37,14.83-26.53,14.82-28.12,0-.71-1.11-1.86-2.42-.44-3.43,3.72-10.36,17.15-12.72,22.25-2.66,5.76-5.41,12.77-7.1,18.87-2.29,8.3-1.63,18.32-8.21,24.75-.16-7.02,11.35-19.26-1.49-21.97,9.3-20.65,14.6-43.2,29.97-60.93.33-.38.66-.65,1-1,13.2-14.96,31.37-24.17,51.94-22.97,11.78,2.83,20.53,13.17,26.14,23.3,24.28,43.84,8.77,121.62-23.15,158.49Z"/>
      <path class="cls-38" d="M527.71,48.22c5.33.8,17.88,2.72,22.58,5.56.31.19.38.75.39,1.43l-.04,4.05c-15.9,23.83-29.61,50.22-32.53,79.11l-1.39,1.74c-.69-.64-1.33-1.33-2-2-.2-.2-.21-1.7-.94-2.51-3.31-3.7-10.19-5.17-15.04-5.48-4.22-.24-8.47-1.61-11.99-4l-1-1.35c1.07-13.93,27.81-73.99,37.95-77.21,1.08-.34,3.09-.07,4.01.64Z"/>
      <path class="cls-227" d="M525.72,206.04c1.06,8.5,1.21,17.52-2.29,25.45-6.29,13.01-12.87,25.95-19.75,38.81l-22.71,47.42-1.2.18c-.12-.16-.74.15-1,0-2.05-.88-4.13-13.37-3.8-14.06.15-.31.65-.44,1.27-.53,9.05-21.72,19.96-42.75,31.5-63.32,4.56-10.74,9.34-21.83,14.92-32.15.62-1.15,1.77-2.02,3.06-2.81.01.33,0,.67,0,1Z"/>
      <path class="cls-192" d="M554.68,172.08c-4.01,30.11-5.01,61.25,2.5,90.9,4,15.79,13.83,37.8,26.47,48.45,3.47,2.93,10.04,5.65,12.52,8.45.91,1.03,2.2,2.75-.05,3.02-1.7.21-11.59-6.85-13.48-8.48-27.29-23.55-36.76-76.5-34.99-110.93.37-7.14,1.92-22.4,4.09-28.88.54-1.63.76-2.9,2.94-2.54Z"/>
      <path class="cls-193" d="M520.72,185.06c1.46-7.04,2.59-14.75,6.49-20.96.59,1.03,2.27.51,2.56,1.65,1.76,6.84-7.73,27.61-6.05,36.29l.79,1.23c-5.07,11.91-10.79,24.41-17.77,35.73-6.31,14.61-13.52,29.19-21.14,43.25-.59,1.09-1.65,1.93-2.83,2.7l-1.56-1.42,13.97-32.3c-4.67,2.78-13.22,2.65-14.4-3.24l.7-1.11c13.06,3.66,16.38-1.6,21.85-12.21,3.95-9.24,8.09-18.12,12.41-26.63.61-5.09,1.94-10.09,4-14.98-.6-2.6-.57-5.73,1-7.99Z"/>
      <path class="cls-233" d="M562.68,312.92c-19.42-14.3-37.91-65.12-34.96-88.42.18-1.39.53-2.87,1.99-1.48,1.21,1.15,1.63,15.3,2.13,18.36,4.56,27.75,15.03,62.72,42.32,75.54l-2.48.99c-2.79-.25-7.21-2.68-8.99-4.99Z"/>
      <path class="cls-159" d="M462.79,129.13c1.5-.5,3.68.1,4.99,1,2.84.1,2.51,2.1-1,5.99-.85,3.74-2.51,3.38-1.06,8.51s3.67,7.2,8.05,9.47c2.18.5,4.18.83,5.99,1,2.66-.1,2.83,1.16,1,3-.67,2.79-3.12,2.84-4,0-1.82-.58-4.34-1.32-5.99-2-2.14-.87-10.03-4.81-11.99-5.99-6.11-3.7-7.58-12.6-4.99-18.98.48-.3.36-1.59,2.48-1.98,1.69-.31,4.67-.16,6.51-.01Z"/>
      <path class="cls-167" d="M515.73,252.99c-2.35-.11-2.6,1.4-3.53,2.96-10.43,17.46-20.74,41.28-29.87,60.05-.65,1.33-.44,3.77-.57,3.92-1.98,2.28-1.89-1.86-1.99-2l44.16-90.19c2.33-6.92,1.93-14.46,1.79-21.69,2.15,8.9,1.54,19.12-1.82,27.65-2.75,6.98-8.22,11.33-8.17,19.3Z"/>
      <path class="cls-42" d="M475.77,132.12c2.68.34,4.68,1,5.99,2,6.32,1.63,12.59,3.61,18.98,5.01-.1,2.64-2.88,6.65-5.55,7-3.39.45-20.18-5.51-25.12-6.85-2.44-.66-2.72.2-2.3-3.16.12-5.64,3.51-5.95,7.99-4Z"/>
      <path class="cls-36" d="M484.76,150.1c10.25,2.4,8.76,8.15,12.92,9.55,5.5,1.84,8.71-2.24,16.04,1.44,1.8.75,2.1,2.34,0,3,.75,3.65-.74,3.89-3.93,4.36-4.37.65-23.01-5.48-27.04-7.57l-1.99-2.79c-.48-.89-.99-1.98-1-3-2.67-2.62,1.04-7.29,4.99-4.99Z"/>
      <path class="cls-73" d="M527.71,47.22c.87.28.86.62,0,1-2.82-.22-4.6,1.11-6.53,2.96-9.94,9.56-32.39,57.19-34.17,70.74-.17,1.27-.56,3.03-.26,4.21-.78-.25-1.24-1-2-1,7.41-28.94,18.77-55.8,37.96-78.91,1.58.4,3.36.63,4.99,1Z"/>
      <path class="cls-161" d="M518.72,187.06c1.29.89,1.05,3.88,0,4.99.28,4.34-1.38,10.63-4,13.98-3.14-1.46-1.05-9.71,2-10.49-.78-.21-1.92-.53-2-1.15-.3-2.29-.42-18.73,0-20.38l2-1.44c-3.24.08-5.11-6.37-3-8.49-.21-.8.14-2.07,0-3,.93.47,1.87-.07,2.91,1.56,2.69,4.19,2.36,19.03,2.09,24.41Z"/>
      <path class="cls-177" d="M477.77,127.13c1.96.6,6.45,2.57,5.99,4.99-1.65,1.24-3.38,1.31-4.99,0-3.28-.86-6.63-.79-9.98-.69l-1.01-2.31c-1.34.74-3.73.02-4.99-1-1.6-.52-3.59-.94-3-3,5.31.06,12.93.47,17.98,2Z"/>
      <path class="cls-224" d="M525.72,205.04c-6.32,11.42-12.23,23.25-17.98,34.96-1.3,1.32-1.48.78-1-1,4.13-8.34,8.38-16.78,12.16-25.3.9-2.03,4.07-11.73,4.82-11.66l.87.88c.27-1.28-.35-2.18,1.12-1.87.06,1.32-.04,2.66.01,3.99Z"/>
      <path class="cls-137" d="M498.75,130.12c-.72-.05-2.47,1.44-5.26.83-1.43-.31-6.39-3.5-6.73-4.82,3.97,1.26,8.83.88,11.99,4Z"/>
      <path class="cls-184" d="M478.77,132.12c-.58.87-1.58.87-3,0-3.9.32-5.89-.27-7.99,4h-1c.44-1.96,1.75-4.89,1-5.99-.87-.28-.86-.62,0-1,3.6.98,7.68,1.4,10.99,3Z"/>
      <path class="cls-32" d="M484.76,150.1c-4.15-.86-5.04,1.04-4.99,4.99-3.45,1.8-3.86.1-5.99-1,5.42,1.78,3.79-3.89,6.67-4.87,2.58-.88,3.26.63,4.32.88Z"/>
      <path class="cls-56" d="M571.67,317.91c.1.16-.03.64,0,1-3.57-.43-7.33-3.99-9.99-4.99l1-1c1.71,1.26,8.49,4.23,8.99,4.99Z"/>
      <path class="cls-163" d="M478.77,132.12c1.66,0,3.33,0,4.99,0-.12.66-1.47,1.45-2,2-1.96-.51-4.44-.06-5.99-2,.98-.08,2.01,0,3,0Z"/>
      <path class="cls-122" d="M519.72,193.05c-.56.79-.89.46-1-1,.16-1.62-.08-3.35,0-4.99l2-2c-.47,2.29-.44,5.38-1,7.99Z"/>
      <path class="cls-140" d="M79.96,564.8c6.14-1.06,10.57,5.8,2.53,7.62-8.62,1.95-8.03-6.67-2.53-7.62Z"/>
      <path class="cls-49" d="M55.01,556.83c6.01-.75,10.23,5.54,3.69,6.78-8.82,1.67-11.98-5.75-3.69-6.78Z"/>
      <path class="cls-65" d="M131.15,605.59c.21-.02,1.01-1.36,1.99-1,2.31,3.34-19.68,69.01-20.98,78.4,4.64.85,11.17-3.33,15.33-5.64,1.15-.64,5.37-5.52,5.65-1.35-1.44,2.91-16.93,8.83-20.68,11.26-.97.63-1.79-.11-1.28,2.22l55.17,21.34c1.71.79,3.15-.02,4.76-.35,2.9,3.23,14.13,8.45,17.98,7.99-2.22,6.15-.2,13.28-1,19.5-.23,1.82.34,1.61-2,1.48v-17.98c-36.47-14.98-73.18-29.54-109.88-43.95.97-.37.79-1.23,1-2l30.95,11.99c2.56-1.97,13-47.94,15-54.94.44-1.53,2.44-4.11,3-5.99-1.49-1.81-1.27-6.18,1-6.99.44-1.46,1.49-3.28,2-4.99-2.09-2.11-.28-7.53,2-8.99Z"/>
      <path class="cls-116" d="M338.92,476.74l-202.78,122.86c-5.87,3.04-11.26,6.78-16.98,9.99-1.06,1.51-2.26,3.03-4,2-4.12,2.34-8.18,5.83-11.99,7.99-1.89,1.07-6.05,1.93-7.99,3-2.29-.76.17-2.78.97-3.53,2.55-2.39,5.75-4.41,8.72-6.27,74.03-46.49,151.93-87.37,226.39-133.21,1.84-1.97,6.11-2.05,7.66-2.83Z"/>
      <path class="cls-114" d="M589.65,2.27c3.08-.21,6.89-.16,9.99,0,1.64.08,3.39-.17,4.99,0,1.77.19,5.72,1.55,7.99,2,9.94,1.94,21.25,5.06,30.97,7.99,1.24.37,3.03,2.25,4.99,2-.16,0-1.12,1.1-2.41,1.04-6.45-.27-13.56-2.32-19.57-.04-5.15.22-10.65,1.15-15.52,2.96-4.35,1.62-10.22,6.55-14.04,7.01s-11.11-2.76-15.39-3.97c-1.58.41-3.25.08-4.99-1-.83-.23-1.69-.68-3-1l-6.99-2c-.32-.05-.67.04-1,0l-11.98-3.98c11.24-6.23,23.01-10.11,35.95-11Z"/>
      <path class="cls-93" d="M638.59,21.25c3.13-.66,5.26,1.01,7.99,2l9.98,5.98c-4.74.26-9.58,2.24-13.98,4.01-3.76,2.59-8.69,5.63-12.99,6.99-10.54,6.52-19.11,13.29-26.97,22.97-2.85,1.92-10.24.93-12.99-1-7.17-4.49,3.47-15.2,7.52-18.95,10.25-9.5,27.65-19.7,41.43-22Z"/>
      <path class="cls-79" d="M602.63,63.2c-5.59,6.89-11.75,16.54-16.15,24.3-2.56,4.52-12,26.09-14.23,27.71-3.55,2.58-8.57-.56-12.56-.08,1.28-3.41,2.48-7.78,3.99-10.98-2.02-2.75.64-7.26,4-6.99,4.11-8.44,8.99-16.86,14.98-23.97,1.04-1.65,6.48-10.59,6.99-10.99,2.1-1.61,10.25.04,12.99,1Z"/>
      <path class="cls-230" d="M553.69,56.21c.58.7.58,1.7,0,3-16.57,18.72-30.31,52.84-34,77.43-.28,1.86,1.25,4.05-1.96,3.48-.22-.16-.82.17-1,0,.74-31.57,18.72-58.58,33.96-84.91.88-1.69,2.84-.69,3,1Z"/>
      <path class="cls-166" d="M580.66,72.19c-.81,1.62-2.47,1.67-4.99.17-4.66,8.34-9.62,16.56-14.88,24.65-.88,2.66-1.25,5.38-1.1,8.14-1.34-.05-4.63-1.2-4.93-.98-1.36.97-11.34,27.65-12.37,31.13-1.33,4.49.49,8.33-3.68,11.81-2.36-.64-4.08-1.74-4.99-2,1.41-1.18,2.52-2.49,3.35-3.95,8.3-25.51,17.59-53.68,36.61-73.96,1.44,1.58,7.29.92,6.99,4.99Z"/>
      <path class="cls-43" d="M591.64,26.24c1.32.51,5.97,1.41,5.97,2.5-6.72,9.12-10.01,19.46-18.47,27.46-1.96.46-1.86-1.03-1.33-2.34,1.13-2.79,7.12-6.09,8.26-9.72l6.08-12.9c-12.58,7.96-28.56,16.78-38.46,27.96-1.95-.42-.03-2.39,0-3-1.66-.94-1.92-1.38,0-2l37.96-27.97Z"/>
      <path class="cls-6" d="M573.66,67.19c-12.45,16.72-21.71,35.89-28.99,55.42-1.89,5.08-4.11,16.9-6.53,20.44-1.21,1.77-2.29,2.31-4.44,2.05,9.68-28.04,19.07-57.61,39.46-79.91,1.05-.07.23,1.7.49,1.99Z"/>
      <path class="cls-87" d="M582.65,73.19c-4.97,7.87-10.17,16.12-14.98,23.97-.45-.34-.87-.7-1.17-1.14-1.34-1.92,9.75-19.95,11.96-23.16l2.2-.67c.69.26,1.32.71,2,1Z"/>
      <path class="cls-191" d="M581.66,21.25l-1,1c-1.4-.48-2.92-.89-4-2,1.37.37,2.89.4,4.99,1Z"/>
      <path class="cls-14" d="M353.91,316.92c1.53.39,3.76,1.4,5.99,2,1.34.36,2.7.65,4,1,.82.22,1.81.68,3,1,1.38.37,3.29,1.54,4.99,2,3.67.99,7.33,1.98,10.99,3,3.74-1.9,7.82-.63,9.99,3,3.01.87,6.98,1.13,9.99,2,1.48.42,2.81.66,4,1,2.51.03,4.18.69,4.99,2,1.76.52,4.29.46,5.99,1,3.66.01,7.95,1.88,10.99,4,6.04,2.75,14.07,8.4,10.99,15.98,0,.98-.98,1.81-2,2-2.9,3.62-6.97,5.87-10.99,7.99-29.16,14.6-64.48,10.79-94.9,3-10.84-1.46-21.49-4.12-31.96-7.99-.59-.14-1.41.14-2,0-4.24-1.85-8.57-3.51-12.99-4.99-.95-.28-2-.68-3-1l-6.99-3-4.99-2c-5.26-3.57-21.89-8.45-24.51-14.04-.73-1.56.41-2.13.54-2.95,1.65-.69,6.14-3,7.49-3h24.97c16.39,0,31.37-16.22,48.12-16.6,8.06-.18,19.33,2.58,27.3,4.61Z"/>
      <path class="cls-118" d="M426.83,364.86c-25.02,17.78-68.31,10.49-96.89,4-.61-.75.06-1.08,2-1,30.54,6.17,65.7,9.16,94.9-3Z"/>
      <path class="cls-90" d="M331.93,367.86l-2,1c-10.07-2.29-20.53-4.83-29.97-8.99,10.56,2.55,21.39,5.85,31.96,7.99Z"/>
      <path class="cls-169" d="M437.81,357.87c-5.17,5.21-4.66,4.36-10.99,6.99,3.66-2.6,7.27-5.47,10.99-7.99.47.31.46.64,0,1Z"/>
      <path class="cls-3" d="M297.97,359.87c-4.19-1.01-9.64-2.47-12.99-4.99,4.07,1.22,10.29,1.55,12.99,4.99Z"/>
      <path class="cls-58" d="M281.98,353.87c-3.19-1.01-5.4-2.08-7.99-3h1l6.99,3Z"/>
      <path class="cls-203" d="M274.99,350.88h-1c-2.08-.73-3.31-1.34-4.99-2h1l4.99,2Z"/>
      <path class="cls-1" d="M440.81,354.87c-.42,1.66-2.12,2.12-3,3v-1c.44-.29.61-1.51,2-2,.22-.08.66,0,1,0Z"/>
      <path class="cls-189" d="M41.25,646.55l-4.99-1.99c23.39-.73-1.37,15.35-5.5,6.99-2.96-6,1.19-2.98,1.5-3,2.86,1.22,9.01,2.46,8.99-2Z"/>
      <path class="cls-64" d="M41.25,646.55c1.03.25,2.24,1.25,2,2.48-.53,2.3-11.19,4.9-10.99-.48,2.65-.16,4.54-3.05,8.99-2Z"/>
      <path class="cls-205" d="M553.69,54.21c.12.21.02,1.46,0,2-.89-.63-2.02-.65-3-1-4.91-1.74-18.61-6.66-22.97-6.99v-1c4.01.91,24.65,4.68,25.97,6.99Z"/>
      <path class="cls-109" d="M573.66,19.25l-6.99-2c3.78.6,4.86,1.48,6.99,2Z"/>
      <path class="cls-99" d="M345.91,95.16c20.29,5.07,40.52,10.43,60.76,15.7,1.74.45,3.76-.61,3.17,2.28-4.06,4.55-4.23,6.82-11.4,5.91-15.45-1.96-36.18-10.98-52.47-14.46-5.84-1.25-7.71,1.9-9.05-4.44,3-3.83,3.71-5.38,8.99-4.99Z"/>
      <path class="cls-206" d="M643.59,34.23c-3.33,1.25-9.78,4.99-12.99,6.99l-1-1c4.92-3.04,7.36-4.73,12.99-6.99l1,1Z"/>
      <path class="cls-115" d="M288.98,459.76c-.78,3.29,4.43,1.13,4,4.99-2.38,2.68-6.49,5.26-9.99,5.99-65.01,38.44-130.06,76.85-195.14,115.23-1.93,1.13-3.86-5.54-1.65-6.35-.12-.29.12-.73,0-1,68.51-38.05,135.37-78.97,202.78-118.87Z"/>
      <path class="cls-66" d="M282.98,470.74c1.64-.68,1.93-.6,1,1-64.8,38.32-129.86,76.23-194.75,114.41-2.63,1.56-2.35,5.66-2.03,8.46-.01.87-.04,1.26-1,1-.67-3.96-1.82-8.59-2.03-12.49-.1-1.87-.84-4.08,2.03-3.49.48,1.21.05,3.98,1.49,4.98,64.66-38.72,129.85-76.51,195.3-113.86Z"/>
      <path class="cls-147" d="M90.19,604.59c2.17-.01,2.49.42,1,2,3.13-.07,3.46,3.3,1,4.99.3,2.22.08,5.61,0,7.99-.03.71.31,3.09-.99,1.48-1.62-8.49-3.57-16.94-5-25.46l1-1c.28,2.45,2.43,7.23,3,9.99Z"/>
      <path class="cls-231" d="M471.78,287.95v-1l-1.31.2c-1.28-5.1-17.44-10.62-21.69-10.02-4.76.67-11.4,11.95-13.49,16.17l-2.46.64-.6-.75c-.6-.16-1.32.77-1.4.75-1.33-.38-2.73-1.94-3-2v-1c4.69-1.62,8.36-5.61,10.99-11.99-1.26-3.2,5.32-8.41,7.99-5.99,6.61-.89,25.86,3.39,27.41,10.38.4,1.79-.35,5.98-2.44,4.6Z"/>
      <path class="cls-222" d="M411.84,331.9c-.13.59.08,1.36,0,2-1.7-.5-3.58-1.59-4.99-2h4.99Z"/>
      <path class="cls-44" d="M480.77,158.09c5.32,1.73,10.57,4.01,15.98,5.49,4.43,1.21,14.92,5.56,16.98.5.48,1.8,3,7.12,3,8.49v22.97c0,2.29-2.14,7.61-2,10.49.87.33.87.67,0,1-.24,3.19-2.07,8.97-4.99,9.99l-2.12,1.27c-5.66-.95-30.75-6.67-34.02-9.3-2.39-1.92-3.68-3.88-.82-5.95-.23-1.51.11-3.38,0-4.99.22-2.43.55-4.76,1-6.99-.74-1.92-.78-4.09,0-5.99-.65-9.2.35-17.86,3-25.97v-1c1,.32,3.01-.32,4,0Z"/>
      <path class="cls-33" d="M472.78,203.04c.15.99-.11,1.9.48,2.97,2.56,4.6,30.47,7.91,36.48,11.01.57.53.99,1,.89,1.29-2.54,7-10,24.64-15.97,28.39s-21.34-1.62-26.87-4.7c-.94-5.6-1.75-31.69.89-36.68.12-.22.57-.28,1.11-.28.37-1.48,1.54-1.99,3-2Z"/>
      <path class="cls-150" d="M467.78,242c.43.71.44,1.11.12,1.2-.39-.08-.76-.14-1.12-.2-2.19-2.5-.79-17.76,0-25.96v-.05c.09-1.22.06-2.48.04-3.76-.08-3.55-.17-7.19,1.96-10.19.08.85,0,1.73,1,2-1.24,4.87-1.79,15.95-2.04,21.44-.24,5.14.25,10.37.04,15.52Z"/>
      <path class="cls-150" d="M466.78,243c-.51.13-.99.19-1.39.04-1.91-.73-.08-23.02,1.39-26-.79,8.2-2.19,23.46,0,25.96Z"/>
      <path class="cls-150" d="M467.9,243.2c-.23.08-.61.01-1.12-.2.36.06.73.12,1.12.2Z"/>
      <path class="cls-195" d="M476.77,159.09l-3,25.97c-.4-.79-.73-1.79-1-3,.28-7.16-.14-12.8,1.5-20.03.38-1.68-.01-3.51,2.5-2.95Z"/>
      <path class="cls-76" d="M472.78,198.05c-.22-3.26,0-4.31,0-6.99.28-.87.62-.86,1,0-.06,2.38.4,4.82-1,6.99Z"/>
      <path class="cls-215" d="M473.77,185.06c.07,1.98.05,4.01,0,5.99h-1c0-2.98-.12-6.02,0-8.99,1.3.48.96,1.9,1,3Z"/>
      <path class="cls-214" d="M427.82,283.95c2.68-7.64,10.01-18.55,13.84-26.61,3.06-6.43,17.55-41.73,21.74-43.19,2.73-.95,2.62.47,2.37,2.87-1.13,8.68-1.22,17.42-.29,26.21,4.48,2.61,9.57,4.2,15.27,4.76,2.37.8,4.29,2.91,7.5,3.06,4.34.21,6.55-2.79,10.48-3.05l-15.98,36.95c.39.37.73.76.88,1.22.26.78-6.07,13.82-7.88,13.77.18,2.58-5.61,1.27-5.95-.09l4.36-14.85c-.17-9.08-19.9-12.52-27.38-12.03-2.32.91-6.17,4.17-7.99,5.99-1.47,3.5-10.04,17.41-13.38,9.82-.27-.6,1.49-4.29,2.39-4.82Z"/>
      <path class="cls-120" d="M480.76,247.99c-3.25-.33-14.47-1.18-16.07-3.65-2.81-4.36.52-24.1,1.12-29.87l1.01-1.24c.02,1.28.05,2.54-.04,3.76v.05c-.79,8.2-2.19,23.46,0,25.96.36.06.73.12,1.12.2,3.96.72,8.98,1.98,12.66,3.47.21.08.24.63.2,1.32Z"/>
      <path class="cls-226" d="M438.81,278.96c-.99,1.76-5.5,12.51-6.09,12.92-.68.48-3.79-.6-4.9-.93-7.1-2.14-3.13-2.23-1-6.99h1c-2.46,7.02.62,7.01,5.04,2.54,2.27-2.3,3.39-4.96,5.95-7.53Z"/>
      <path class="cls-60" d="M390.86,311.92c5.72-1.65,12.63-7.04,17.97-1.49.07,3.3-2.29-.87-5.01,1.92-4.11,4.22-5.31,13.29-10.96,16.54-3.31-.95-6.67-2.08-9.99-3,.09-.64-.14-1.44,0-2,1.09-4.48,5.22-8.5,7.99-11.99Z"/>
      <path class="cls-232" d="M467.78,129.13v1c-1.7.14-3.47-.88-4.99-1v-1c1.34.43,3.37.56,4.99,1Z"/>
      <path class="cls-155" d="M468.78,302.93c1.53-.12,3.22.18,5.07.91,2.96-.7,2.61,2.54.93,4.08-2.13,6.27-5.24,12.01-7.99,17.98-5.91,12.84-12.45,25.36-18.12,38.32l-2.85,1.63c0-5.16-2.84-10.07-1.79-15.25,6.91-12.24,11.57-26.27,17.76-38.69.75-2.9,4.05-12.17,6.99-8.99Z"/>
      <path class="cls-59" d="M492.25,315.94c2.84,3.48,7.97,8.51,7.49,13.37-.2,1.97-5.63,12.29-7.13,13.93-5.38,5.89-11.57-1.68-10.82-7.75.29-2.3,9.18-19.55,10.46-19.55Z"/>
      <path class="cls-157" d="M507.74,240c-10.27,20.9-20.42,41.9-30.48,62.91-1.59,5.1.3,10.12,1.51,15-.74-.43-2.29.23-2.85-1.63-.64-2.11-.29-5.14-1.15-8.36-.18-.7.41-2.05-.16-2.8-.19-.25-5.41-2.17-5.84-2.2-.87-.28-.86-.62,0-1,.33-1.46,1.93-1.66,4.8-.6l2.19-1.4c1.54-4.21,4.89-10.73,6.99-14.98,7.61-15.43,16.35-30.53,23.97-45.95l1,1Z"/>
      <path class="cls-37" d="M499.75,324.9c-1.62-1.77,7.39-10.03,4.48-15.97-2.93-5.99-7.91,2.72-9.99,4.98-1.07-2.69,4.07-12.89,6.97-12.96,3.49-.08,7.58,6.36,7.58,9.47,0,2.22-6.83,16.89-9.04,14.48Z"/>
      <path class="cls-44" d="M131.15,605.59c.68,3.43-1.14,6.06-2,8.99-2.18.53-7.23-1.04-6.97-3.5.11-1.07,3.48-1.6,4.51-2.45,1.13-.94,1.48-2.85,2.45-3.53.8-.55,1.77.52,2.01.49Z"/>
      <path class="cls-44" d="M127.15,619.58c-.48,1.59-.27,4.53-1,6.99-3.65,1.32-2.26-8.46.49-7.98l.51.99Z"/>
      <path class="cls-44" d="M119.16,609.59c-1.07,2.22-.47,3.67-3.48,2.98l-.52-.98c1.54-.87,2.87-1.37,4-2Z"/>
      <path class="cls-151" d="M677.55,75.19c-10.51,2.29-19.72,3.13-29.65,7.81-5.74,2.7-18.17,10.93-22.29,15.17,11.92-16.38,30.88-28.03,51.94-22.97Z"/>
      <path class="cls-121" d="M606.63,272.96h1c26.36,24.57,53.83,6.08,72.92-15.98-17.03,25.93-48.81,43.19-73.92,15.98Z"/>
      <path class="cls-7" d="M600.63,264.97c-15.83-24.62-14.72-44.92-12.99-72.92h1c.19,25.7-1.1,49.67,11.99,72.92Z"/>
      <path class="cls-7" d="M607.63,272.96h-1c-2.12-2.3-2.31-2.71-4-4.99,2.38.9,3.48,3.58,4.99,4.99Z"/>
      <path class="cls-202" d="M580.66,72.19c-.32,4.5-12.5,18.69-12.99,24.97-1.45,2.36-2.8,4.46-4,6.99-1.22.76-2.57,1.05-4,1-1.07-1.35-2.06-2.62-2.08-4.47-.05-6.1,14.26-22.59,16.57-29.5,1.25-1.7,4.47.26,6.48,1.01Z"/>
      <path class="cls-194" d="M246.02,516.69v1c-2.35,2.18-4.78,4.24-7.47,5.84-45.71,27.29-91.69,54.39-138.48,79.68l-8.88,3.37c-.07-.33-.81-1.09-1-2,5.99.45,9.63-6.75,13.71-8.77,1.89-.93,11.93-2.08,9.82-6.22-1.35-2.64-2.79-1.6-4.55-.99-.87-.28-.86-.62,0-1,.23-.1,2.43-2.15,4-3,1.12-1.24,1.76-1.93,2,0,2.45,7.45,6.32.78,8.26-.31,2.55-1.43,6.68-1.59,9.79-3.12,10.12-4.99,23.5-15.51,34.23-21.71,4.93-2.85,32.91-16.83,34.07-18.87.72-1.28.33-3.49,1.55-4.45,1.02-.8,6.46-1.38,8.7-2.29,5.61-2.27,10.75-7.49,13.26-8.7,1.97-.94,4.71-.22,7.08-.93,1.55-.47,11.67-6.22,13.93-7.54Z"/>
      <path class="cls-142" d="M109.17,588.61c-6.62,2.27-12.62,10.23-19.99,8.48l4-6.47-3.99-.5c1.58-2.2,9.15-6.1,11.37-5.45,2.05.6-.23,6.83,8.6,2.95v1Z"/>
      <path class="cls-47" d="M321.94,448.77c-12.51,7.43-25.25,15.46-37.96,22.97l-1-1c3.15-1.8,6.62-4.08,9.99-5.99,9.36-5.3,18.4-10.97,27.97-15.98h1Z"/>
      <path class="cls-95" d="M113.17,584.62c.68-1.14,2.8-5.19,2-5.99-.34-.34-4.52,1.1-2.99-2.49.92-2.16,5.04-1.47,6.99-1.51.32,4.63.48,7.71-4,9.99-.43.22-1.59-.22-2,0Z"/>
      <path class="cls-188" d="M328.93,444.77c-2.17,1.29-4.78,2.68-6.99,4h-1c2.92-1.53,4.88-2.61,7.99-4Z"/>
      <path class="cls-186" d="M338.92,465.75l-246.73,145.84c-.17-1.25-.7-3.55-1-4.99,52.16-28.65,103.28-59.19,154.83-88.9l91.03-52.48,1.87.54Z"/>
      <path class="cls-187" d="M471.78,286.95c-2.21,9.08-5.78,17.46-10.99,24.97-5.41,1.81-12.86-2.37-18.55-3.92-3.7-1.01-7.55-1.7-11.36-2.12-.47-4.03.46-8.22,1.94-11.94,2.02-5.08,9.92-18.01,15.7-18.78,3.24-.43,19.08,4.64,21.29,7.26.64.75,1.8,3.54,1.96,4.52Z"/>
      <path class="cls-102" d="M418.83,333.9c-.02-.22-.93-.62-.57-1.93.82-3.03,5.62-12.84,8.51-13.62,5.22-1.41,20.71,6.7,27.02,6.58,1.7,1.96-10.12,19.39-11,22.96-4.2-6.09-7.7-7.21-13.97-9.99-3.44-.78-7.14-1.94-9.99-4Z"/>
      <path class="cls-34" d="M471.78,287.95l1.33.7-3.16,10.45c1.85,1.04.79,2.33-1.17,2.83v1c-2.48-.14-5.8,6.59-6.99,8.99h-1l10.99-24.97c.05.31,0,.67,0,1Z"/>
      <path class="cls-135" d="M428.82,337.89v1c-3.4-1.55-7.43-2.87-10.99-4,.58.2,1.03-.61,1-1,3.42,1.17,6.68,2.54,9.99,4Z"/>
      <path class="cls-91" d="M428.82,453.76c-.23-2.82,1.98-3.65,3-4.99.32,2.76-2.17,3.76-3,4.99Z"/>
      <path class="cls-52" d="M625.61,134.12c.39-.56,4.57-7.58,5-3.49s-9,19.35-8,20.46c1.6,1.77,2.13-1.26,2.46-1.98,1.78-3.87,2.04-10.16,7.52-10.99,1.01,1.16-3.19,10.15-3.99,11.98-10.2,23.46-13.3,48.05-5.99,72.92.69,2.02,1.11,7.94-1.5,7.97-1.12.01-3.02-6.56-3.5-7.97-2.54-4.18-4.52-10.85-4-15.98-2.31-14.99.19-32.97,5.99-46.95-.09-1.28-.42-1.61-1-1-4.18,16.24-6.7,33.03-5.99,49.94,1.92,4.91,3.25,9.91,4,14.98.7,2.47,4.9,14.9.5,14.96-2.15.03-5.64-12.39-6.2-14.76-3.51-15.11-3.15-35.88-.3-51.15,1.36-13.26,7.36-28.26,14.98-38.96Z"/>
      <path class="cls-86" d="M624.61,133.12c-5.8,12.24-11,24.99-14.98,37.96-3.77,17.43-4.22,35.32-.32,52.76.76,3.38,6.07,18.15,5.88,19.16-.21,1.13-1.76,2.5-1.58,4-1.76,1.34-7.85-18.24-8.3-20.15-6.75-28.36-1.27-58.85,10.46-85.09,1.97-4.42,6.47-14.27,9.4-17.58,1.43-1.61,3.07.57,3.15,1.44.04.42-3.04,6.2-3.7,7.51Z"/>
      <path class="cls-45" d="M696.53,110.15c-.29-.92-2.33-7.74-2-7.98,4.46-3.17,9.03,11.21,10.02,14.44,5.03,16.43,6.61,43.8,4.84,60.84-.69,6.6-4.08,11.31-4.88,17.6-3.58.36-3.38-4.47-2.99-6.99,1.17-8.52,2.12-17.14,2.86-25.84l1.14-1.13c-.8-3.61-.85-7.38,0-10.99l-1.01-.41c.45-2.91.45-5.77,0-8.58-1.88-10.47-4.54-20.79-7.99-30.97Z"/>
      <path class="cls-119" d="M654.57,266.98c1.4,9.42-13.16,13.17-20.48,13.05s-22.41-3.96-21.55-13.56c.49-5.52,10.85,1.94,13.28,2.79,10.18,3.58,18.94.61,28.76-2.29Z"/>
      <path class="cls-2" d="M663.57,258.98c3.69-4.86,8.02-9.19,12.99-12.99,8.06-9.87,16.87-25.37,21.03-37.41.94-2.73.51-5.94,1.89-8.09,1.02-1.59,2.78-1.46,3.05.07.5,2.8-6.18,20.37-7.82,24.13-4.69,10.77-14.65,26.71-23.13,34.81-.99.94-8.91,7.43-9.51,7.45-3.9.11.17-6.47,1.5-7.97Z"/>
      <path class="cls-220" d="M695.53,110.15c5.63,11.68,9.2,24.86,7.99,37.96.49,3.74.95,9.1.89,13.24-.12,8.87-1.51,18.25-3.89,26.72-.27,1.37.54,3.28-.95,4.54-1.82,1.32-2.21.19-3.04-.55-1.06-4.2-.23-10.71,2-13.98.53-11.64.86-23.29,1-34.96-2.18-7.6-4.17-15.26-5.99-22.97-.48-1.56-2.61-9.35-2-9.98h4Z"/>
      <path class="cls-139" d="M619.1,254.25c1.4-.11,5.61,3.49,7.5,4.24,5.05,2.01,10.97,3.12,16.41,2.4,3.47-.46,12.31-6.12,11.61.55-.42,4.01-12.07,7.06-15.63,7.42-6.2.62-23.65-2.97-22.4-11.31.17-1.17,1.39-3.21,2.52-3.3Z"/>
      <path class="cls-2" d="M675.55,245c-2.62,5.13-8.13,9.88-12.99,12.99-1.26-.18-2.7.13-3.99,0-.74-.74,2.16-5,2.99-5.99,13.89-13.13,23.4-29.81,30.97-47.95.8-2.17,1.34-4.75,2.01-6.99,5.52,2.03.12,12.66-1.53,16.96-3.73,9.73-11,22.81-17.46,30.98Z"/>
      <path class="cls-86" d="M695.53,190.06c-1.58-.37-4.11,1.28-4-1.49.18-4.76,2.58-10.91,2.99-16.01.79-9.89.61-25.9-1.43-35.49-1.47-6.91-5.74-12.53-4.54-19.92,2.09-.63,3.3,2.59,3.99,3.99,3.99,6.73,5.75,16.04,5.99,23.97,1.37,10.42,1.35,21.69-1,31.96-.39,4.28-1.06,8.61-2,12.99Z"/>
      <path class="cls-68" d="M629.6,151.1c1.34-2.31,2.67-5.97,5.99-5.99-.37,2.41-1.38,4.61-1.99,6.99,2.43,1.58,1.86,3.21-1,3-8.71,19.19-11.82,40.2-6.13,60.64l-.86,1.29c.3,2.65,2.77,5.61-2,5.99-8.7-22.66-6.13-51.09,5.99-71.92Z"/>
      <path class="cls-17" d="M660.57,250.99c-.63-.19-1.79.59-2.06-.57-1.57-6.83,6.31-9.73,9.59-13.38,6.33-7.05,13.88-20.54,17.62-29.33.52-1.22,3.49-14.35,5.81-11.66-.2,1.9.3,4.19,0,5.99-3.97,17.81-15.58,38.29-30.97,48.95Z"/>
      <path class="cls-207" d="M633.6,152.1c9.95-1.35-.67,13.02-2.26,18.22s-2.14,10.34-2.74,15.74c.15,6.85.81,13.51,2,19.98,1.24,5.61,2.66,7.62-3,9.99-.67-.33-1.21-.69-1.34-1.17-5.53-20.2-2.14-40.92,6.34-59.76.3-1.01.72-1.94,1-3Z"/>
      <path class="cls-139" d="M689.54,171.08c1.16-9.5.83-21.66-1.45-31.01-1.09-4.48-4.5-8.24-3.55-13.42.27-1.49,1.77-3.48,3-2.52.49.39,3.12,10.27,3.52,11.97,3.6,15.45,3.32,34.91-.65,50.32-1.72,6.68-4.27,3.37-3.85-1.36.19-4.3.88-10.38,3-13.98Z"/>
      <path class="cls-117" d="M653.57,249c1.78,16.25-34.11,9.84-32.98-.46.74-6.75,7.76.33,11.32,1.64,8.06,2.97,13.91,2,21.66-1.18Z"/>
      <path class="cls-234" d="M680.55,204.04c.9-2.16,2.6-9.66,3.01-9.99.75-.61,3.53.15,3.91,1.63,1.78,6.91-21.11,45.03-28.38,46.34-4.05.73,1.67-7.98,2.49-9.01,7.23-9.07,13.85-18.66,18.98-28.97Z"/>
      <path class="cls-16" d="M677.55,148.1v26.46c-.98,3.92-1.02,9.49-4.98,11.5l-.51-5-1.49,3c-.29-4.69.43-9.72-.12-14.37-.39-3.32-5.38-13.89-1.36-15.57,1.75-.73,2.82.67,3.47,1.98q1.13,7.71,0,0c.06-2.52-.93-9.16,1.61-9.8,1.39-.35,2.83,2.46,2.38-1.19,2.79-1.17,3.59,1.5,1,3Z"/>
      <path class="cls-144" d="M629.6,190.06c.39-6.93,1.6-15,3.96-21.51.43-1.18,4.89-11.75,7.03-9.45-.37,7.19-5.05,13.58-5.88,20.58-1,8.46,1.77,17.11.79,24.78-.63,4.89-1.95,4.88-3.89.59-2.49-3.71-3.44-10.8-2-14.98Z"/>
      <path class="cls-86" d="M688.54,169.08c-.03,5.26-1.18,11.14-3,15.98-.55,1.78-2.16,4.76-3.99,2.99-.29-.28.78-6.76.99-7.99-.28-3.81.72-8.38,2-11.99.31-5.27.49-13.24-.11-18.37-.68-5.83-4.46-11.08-3.89-17.09,0-.87,2.03-.66,2.47-.47,4.47,1.85,6.08,31.44,5.52,36.93Z"/>
      <path class="cls-17" d="M666.56,96.17c1,8.69-7.08,6.4-13.66,8.81-7.32,2.68-12.18,9.1-19.3,11.16-3.47-3.51,9.2-12.3,11.68-13.78,6.29-3.75,13.83-6.93,21.28-6.19Z"/>
      <path class="cls-86" d="M652.57,240.01c3.48,16.41-34.36,8.2-27.51-2.05,1.78-2.66,10.38,3.43,14.11,3.95,5.04.7,8.82-.06,13.39-1.9Z"/>
      <path class="cls-85" d="M667.43,88.31c.48.79.51,4.26-.45,4.97-2.02,1.49-8.25.55-11.43,1.35-3.65.92-19.87,12.63-20.94,11.51-3-3.14,8.94-11.79,11.32-13.15,3.37-1.92,19.55-7.95,21.51-4.69Z"/>
      <path class="cls-77" d="M636.61,124.13c-3.05-6.17,2.07-8.66,6.67-11.79,3.36-2.29,17.81-10.47,20.86-6.26,2.33,7.37-7.11,6.18-11.96,8.16-2.45,1-14.84,10.45-15.57,9.89Z"/>
      <path class="cls-31" d="M676.55,198.05c-.9,5.1-3.9,10.48-6.99,14.98,2.53,1.82.08,7.1-3,5.99l-9.98,6.99c-1.39-3.75.34-5.92,1.99-8.98,3.94-4.18,7.27-8.85,9.99-13.98-2.16-2.16.28-9.9,3-10.99,2.39,3.64,1.28,1.64,2.55.09,3.54-4.32,3.22,3.38,2.44,5.9Z"/>
      <path class="cls-174" d="M671.56,192.06c-.13,3.6-1.68,7.67-3,10.99-2.7,5.15-6.03,9.81-9.99,13.98-6.36,1.96-2.92-2.07-3-4.99.05-.82-.33-1.47-1-2,.08-4.75,5.31-6.87,7.82-10.66,1.55-2.34,3.94-10.08,5.13-10.86,2.77-1.8,3.36,2.52,4.03,3.53Z"/>
      <path class="cls-207" d="M683.54,166.08c.64,4.07-.27,9.52-2,12.99-.28,1.63-1.54,11.24-4.99,7.99-.71-.68,2.88-16.22,3.03-19.43.34-7.17-1.16-12.64-2.04-19.52-.2-1.58-.99-2.84-1-3-.22-2.74.21-4.31,2.5-5.97,3.41.02,4.68,23.53,4.5,26.95Z"/>
      <path class="cls-2" d="M679.55,203.04c-2.87,11.42-10.91,21.52-18.98,29.97l-3.99.99c.02-6.8,6.56-9.98,9.98-14.98,1.47-2.15,1.95-3.9,3-5.99,3.02-4.88,5.68-9.87,7.99-14.98.41-.95,4.29-9.61,5-4.48.07.49-2.49,8.15-3,9.47Z"/>
      <path class="cls-52" d="M644.59,129.13c-1.28.87-4.46,1.67-5.98,2.99-.24-1.8-1.38-3.32-.87-5.26,1.14-4.34,22.51-15.09,24.83-12.71,1.49,8.14-6.33,7.21-11.66,9.81-3.08,1.5-4.45,3.9-6.31,5.17Z"/>
      <path class="cls-53" d="M652.57,232.02c2.65,13.73-25.05,6.72-25,.5,0-1.23,2.78-4.31,3.52-4.31.28,0,3.34,2.48,4.81,3.01,5.84,2.13,10.62,2.33,16.67.8Z"/>
      <path class="cls-126" d="M651.58,224.02c1,11.99-21.76,7.85-20.01-2.47.88-5.17,7.09,1.23,10.96,2.03,3.03.63,6,.49,9.05.45Z"/>
      <path class="cls-86" d="M644.59,129.13l14.51-5.87c3.88,5.44-.8,6.74-4.53,8.87-1.62,2.19-6.35,4.71-8.99,4.99-1.26.59-5.44,2.66-5.99.48-.64-2.52,3.15-7.11,4.99-8.47Z"/>
      <path class="cls-208" d="M629.6,151.1c-11.13,19.2-12.77,51.07-5.99,71.92h-1c-9.3-27.17-5.28-47.21,5.99-72.92l1,1Z"/>
      <path class="cls-100" d="M652.58,172.08l.84,2.02c-12.33,28.95,14.04,22,4.72-1.38l-5.57-.64c1.51-1.51,1.15-5.94,7.33-3.84,7.29,2.47,4.52,35.99-9.88,27.86-6.76-3.82-4.19-18.09,0-23.11.67-.8,2.32-.68,2.55-.91Z"/>
      <path class="cls-172" d="M655.57,133.12c.79.12,2.75-.26,2.97,0,.19.22.24,5.29-.11,5.85-.21.34-4.85,1.46-6.24,2.28-1.46.86-2.23,2.62-2.61,2.85-10.77,6.47-10.89-.09-3-5.99,1.75-2.36,6.08-4.6,8.99-4.99Z"/>
      <path class="cls-221" d="M668.57,106.15c2.65-2.7,20.36,7.9,11.48,13.97-2.02-3.28-8.71-4.81-10.56-7.4-.95-1.33-1.47-6.01-.92-6.56Z"/>
      <path class="cls-185" d="M675.19,89.25c4.27-1.37,17.85,8.82,11.85,13.88-1.62-2.59-12.41-6.94-13.02-7.94-1-1.64-.93-5.27,1.16-5.94Z"/>
      <path class="cls-145" d="M651.58,215.03c.07,3.94.8,5.5-3.45,6.04-6.53.83-18.19-2.19-11.06-9.91,4.65,2.97,8.83,4.67,14.51,3.87Z"/>
      <path class="cls-78" d="M627.61,216.03c-.68.29-1.32.7-2,1-1.16-10.15-3.71-17.8-2.98-28.46s4.05-24.39,9.98-33.48c-6.11,20.46-12.04,39.4-4.99,60.93Z"/>
      <path class="cls-149" d="M692.53,204.04c-5.43,14.68-12.01,29.09-22.58,40.85-2.01,2.23-6.42,4.75-8.39,7.1-.17-.44-.55-.87-1-1,10.78-9.09,20.04-22.73,25.83-35.6,1.38-3.07,4.67-10.46,5.14-13.34l1,2Z"/>
      <path class="cls-52" d="M671.67,104.04c-1.96-10.36,10.04-4.39,12.73.75,1.14,2.17,2.09,6.78-1.25,6.28-1.91-.29-8.14-7.01-11.48-7.02Z"/>
      <path class="cls-133" d="M665.2,124.21c6.43-2.07,16.15,13.54,5.33,10.46-1-.29-6.1-2.91-6.48-3.53-1.03-1.69-1.04-6.22,1.14-6.93Z"/>
      <path class="cls-46" d="M678.54,127.12c-1.21,1.28-14.69-5.63-12.54-9.97,2.65-5.33,15.79,3.96,12.54,9.97Z"/>
      <path class="cls-5" d="M649.58,144.11c1-.58,6.54-1.44,6.99-.99,3.46,5.25-12.35,11.68-12.98,10.98-1.64-1.85,4.59-9.17,5.99-9.98Z"/>
      <path class="cls-221" d="M663.27,133.25c5.77-1.43,11.33,10.64,5.79,10.73-.5,0-8.23-5.03-8.4-5.53-.65-1.99.6-4.71,2.6-5.2Z"/>
      <path class="cls-88" d="M705.52,150.1c-.86,3.59-.8,7.39,0,10.99-.37,10.84-2.48,17.27-4,26.97h-1c2.88-14.65,2.81-25.18,3-39.96-.13-2.62.21-4.95,1-6.99,1.81,1.97.98,6.17,1,8.99Z"/>
      <path class="cls-221" d="M659.69,142.23c4.51-2.8,11.59,5.33,4.9,9.44-4.22.82-7.39-7.89-4.9-9.44Z"/>
      <path class="cls-208" d="M680.55,204.04c-6.37,15.3-9.51,17.09-18.98,28.97h-1c7.75-8.72,14.73-19.04,18.98-29.97l1,1Z"/>
      <path class="cls-113" d="M704.52,141.11c0,2.77-.98,5.86-1,6.99-.46-13.02-3.05-25.93-7.99-37.96h1c3.7,11.55,8,17.56,7.99,30.97Z"/>
      <path class="cls-179" d="M625.61,134.12c-6.67,9.56-12.85,27.51-14.98,38.96l-1-2c3.12-14.43,8.46-25.08,14.98-37.96l1,1Z"/>
      <path class="cls-57" d="M699.53,143.11c-.14.95-.48,1.62-1,2-1.99-7.95-2.31-16.5-5.99-23.97l1-1c2.71,8.74,4.87,13.24,5.99,22.97Z"/>
      <path class="cls-30" d="M629.6,190.06c.59,5.54-.6,9.26,2,14.98l-1,1c-2.18-9.88-3.22-8.98-2-19.98-.8,1.56.94,3.41,1,4Z"/>
      <path class="cls-124" d="M617.62,223.02l-1,1c-1.6-5.62-3.17-8.41-4-14.98-.05-1.26.28-1.93,1-2,.44,4.44,2.51,11.61,4,15.98Z"/>
      <path class="cls-10" d="M676.55,245.99c-4.07,4.99-9.06,8.56-12.99,12.99-.11-.48-.53-.93-1-1,4.54-3.98,9.24-8.25,12.99-12.99l1,1Z"/>
      <path class="cls-124" d="M677.55,198.05c-2.16,4.99-3.77,11.14-7.99,14.98,1.8-3.59,5.97-11.67,6.99-14.98h1Z"/>
      <path class="cls-30" d="M684.54,168.08c-.25,4.27-1.27,7.88-2,11.99l-1-1c.65-3.74,1.82-9.73,2-12.99l1,2Z"/>
      <path class="cls-35" d="M689.54,171.08c-.56,4.54-2.65,10.02-3,13.98h-1c1.61-5.19,1.2-10.94,3-15.98l1,2Z"/>
      <path class="cls-171" d="M655.57,133.12c-3.04,1.81-6.06,2.8-8.99,4.99l-1-1c2.52-1.18,6.39-3.51,8.99-4.99.1.48.53.93,1,1Z"/>
      <path class="cls-212" d="M654.58,210.04c2.25,1.05,3.23-4.84,4.99-2.99,1.08,1.13-2.82,4.52-3.99,4.99-.01-.52-1.01-1.54-1-2Z"/>
      <path class="cls-75" d="M698.53,178.07c-.82,4.63-2.56,9.13-2,13.98-.86-.76-.88-.81-1-2-.29-2.79.78-8.14,1.09-11.38.08-.83.89-1.42.91-1.6.62-.86.95-.52,1,1Z"/>
      <path class="cls-219" d="M515.73,208.04c-2.72,8.88-11.7,31.26-17.98,37.46-5.33,5.28-10.62,3.15-16.98,2.49-2.96-1-12.58-3.4-13.98-4.99-.17-.59.58-1.03,1-1,7.01.56,19.74,7.68,26.36,3.88,5.21-2.98,12.9-22.76,15.59-28.86,1.48-3.35,3.67-6.64,4.99-9.99.83-1.17,1.16-.83,1,1Z"/>
      <path class="cls-181" d="M519.72,193.05c-1.11,5.18-2.45,9.93-4,14.98l-1-1c.11-.29-.11-.71,0-1,1.6-4.27,3.53-9.1,4-13.98l1,1Z"/>
      <path class="cls-107" d="M457.81,140.11c2.55,2.44,2.28-7.74,4.49-7.98,2.72,19.86-14.45,7.5-3.51-2-.33,2.54-3.23,7.83-.97,9.98Z"/>
      <path class="cls-217" d="M393.86,364.86c1.35-.08,2.02.25,2,1-27.48,3.98-58.49-2.75-84.9-10.49-7.23-2.12-55.12-18.3-56.93-21.99-.4-2.06.82-1.7,2.29-1.29,3.41.95,6.55,3.88,9.7,5.29,34.22,15.32,90.52,30.92,127.85,27.48Z"/>
      <path class="cls-229" d="M411.84,359.87c2.38-.95,4.31-1.57,6.66-2.83,5.6-2.98,10.29-7.88,16.31-10.15-5.35,8.04-13.49,10.79-21.98,13.97-1.16.22-1.49.16-1-1Z"/>
      <path class="cls-223" d="M412.84,360.87c-4.14,1.55-5.78,1.96-9.99,3-.87-.28-.86-.62,0-1,3.1-.73,6.04-1.82,8.99-3l1,1Z"/>
      <path class="cls-176" d="M402.85,362.86v1c-2.33.57-3.95,1.56-6.99,2l-2-1c2.05-.19,6.62-1.44,8.99-2Z"/>
      <path class="cls-204" d="M475.77,299.93c-.24.64.29,2.75,0,3-.72.63-5.59-.58-6.99-1-.19-5.03,3.12-8.88,3-13.98,1.08-1.03,2.02-3.14,1.94-4.55-.31-5.43-22.06-9.75-26.91-10.43,5.35-2.1,11.55-.3,16.94,1.54,15.22,5.2,12.02,12.04,7.07,24.84l4.96.59Z"/>
      <path class="cls-201" d="M494.51,325.16c4.33,4.52-1.45,12.78-4.24,16.72-.38-.17-4.85-4.61-5.04-5.03-1.14-2.52,4.8-16.36,9.28-11.7Z"/>
      <path class="cls-97" d="M619.61,160.09c-3.68,13.53-7.36,33.08-5.99,46.95l-1,2c-1.88-15.02.05-35.92,5.99-49.94,1.3-1.32,1.56-.77,1,1Z"/>
      <path class="cls-198" d="M619.61,160.09l-1-1c.48-1.14,2.48-6.08,2.99-4.99.72,2.42-1.59,4.52-1.99,5.99Z"/>
      <path class="cls-71" d="M705.52,161.09c-1.7-2.54-1.66-8.65,0-10.99.03,3.64.13,7.35,0,10.99Z"/>
      <path class="cls-149" d="M698.53,178.07l-1-1c.95-10.63.4-21.36,1-31.96.05-.85.04-1.73,1-2,1.5,12.99,1.26,22.18-1,34.96Z"/>
      <path class="cls-149" d="M672.56,156.1c3.24,6.6,1.74,16.9.99,23.97-1.74.23-.94-2.27-.99-3.48-.27-6.63-.15-13.84,0-20.49Z"/>
      <path class="cls-156" d="M658.57,217.03c2.55-4.74,6.43-9.92,9.99-13.98-1.78,4.49-5.1,12.48-9.99,13.98Z"/>
      <path class="cls-148" d="M652.58,172.08c10.5-9.65,13.11,16.89,4.57,22.04-11.72,7.07-10.45-16.63-4.57-22.04Z"/>
      <path class="cls-15" d="M651.67,190.97c-3.02-2.03-.41-20.49,6.97-15.45,3.98,2.72-1.1,19.4-6.97,15.45Z"/>
      <path class="cls-23" d="M652.58,188.05c-.75-2.38,1.04-11.72,4.47-10.98s.72,12.79-4.47,10.98Z"/>
    </g>
  </g>
</svg>