<?xml version="1.0" encoding="UTF-8"?>
<svg id="_Слой_2" data-name="Слой 2" xmlns="http://www.w3.org/2000/svg" viewBox="0 0 684.68 861.56">
  <defs>
    <style>
      .cls-1 {
        fill: #353c44;
      }

      .cls-2 {
        fill: #424951;
      }

      .cls-3 {
        fill: #252c35;
      }

      .cls-4 {
        fill: #ca9004;
      }

      .cls-5 {
        fill: #404950;
      }

      .cls-6 {
        fill: #e5c050;
      }

      .cls-7 {
        fill: #252c34;
      }

      .cls-8 {
        fill: #404851;
      }

      .cls-9 {
        fill: #b8b9b9;
      }

      .cls-10 {
        fill: #392c09;
      }

      .cls-11 {
        fill: #262e35;
      }

      .cls-12 {
        fill: #272e35;
      }

      .cls-13 {
        fill: #c28b03;
      }

      .cls-14 {
        fill: #252d35;
      }

      .cls-15 {
        fill: #e2bc4a;
      }

      .cls-16 {
        fill: #343c43;
      }

      .cls-17 {
        fill: #c99202;
      }

      .cls-18 {
        fill: #343d46;
      }

      .cls-19 {
        fill: #333c44;
      }

      .cls-20 {
        fill: #434850;
      }

      .cls-21 {
        fill: #c68d03;
      }

      .cls-22 {
        fill: #f7bb10;
      }

      .cls-23 {
        fill: #bbb;
      }

      .cls-24 {
        fill: #242c34;
      }

      .cls-25 {
        fill: #272f36;
      }

      .cls-26 {
        fill: #f6ba11;
      }

      .cls-27 {
        fill: #b7b6b4;
      }

      .cls-28 {
        fill: #626263;
      }

      .cls-29 {
        fill: #343b43;
      }

      .cls-30 {
        fill: #f6ba12;
      }

      .cls-31 {
        fill: #404850;
      }

      .cls-32 {
        fill: #242c33;
      }

      .cls-33 {
        fill: #424b52;
      }

      .cls-34 {
        fill: #b7b9bc;
      }

      .cls-35 {
        fill: #f6b911;
      }

      .cls-36 {
        fill: #2e363e;
      }

      .cls-37 {
        fill: #262e36;
      }

      .cls-38 {
        fill: #b8b5b2;
      }

      .cls-39 {
        fill: #434a52;
      }

      .cls-40 {
        fill: #b7b5b4;
      }

      .cls-41 {
        fill: #b6b6b6;
      }

      .cls-42 {
        fill: #262e37;
      }

      .cls-43 {
        fill: #ca9006;
      }

      .cls-44 {
        fill: #c99005;
      }

      .cls-45 {
        fill: #b7b6b3;
      }

      .cls-46 {
        fill: #b5b4b1;
      }

      .cls-47 {
        fill: #c89001;
      }

      .cls-48 {
        fill: #b1b3b7;
      }

      .cls-49 {
        fill: #f5ba11;
      }

      .cls-50 {
        fill: #c68e00;
      }

      .cls-51 {
        fill: #414851;
      }

      .cls-52 {
        fill: #ebc656;
      }
    </style>
  </defs>
  <g id="_Слой_19" data-name="Слой 19">
    <g>
      <path class="cls-28" d="M418.39,820.09c1.34-2.51,3.27-1.9,4.73.2l119.9,1.78,1.18,2.02c6.35.34,2.63,6.98,5.02,12.56,10.13,4.97,41.22,2.11,50.42.57.28-4.2.61-8.42.99-12.67l2.48-.46c.19,1.96-.14,4.03,0,6,358.49,29.24-579.56,45.09-601.72,16.19l-1.4-3.22v-2c26.04-11.04,55.46-7.37,82.88-11.99,1.6,1.42,2.53,3.93,2.8,7.53,16.45,3.85,34.58,3.12,51.18.29.05-4.03-1.27-14.24,4.94-13.82,40.58-.93,81.23-1.87,121.94-2.82,1.49.05,1.88,1.29,1.88,2.82l1.93,1.04c-.3,4.69-.16,9.34.41,13.94,49.54.5,98.98.22,148.32-.82l.3-15.26,1.82-1.91Z"/>
      <path class="cls-26" d="M308.55,104.92h15.45c11.51-3.29,24.7-2.62,36.48,0l2.06-1.35c33.02-1.95,66.83-3.78,99.91.02,3.09.2,5.9.76,7.87,3.32l2.26-1.56c6.16.72,19.68,5.33,22.71,10.55,38.83,20.01,46.01,53.38,53.61,92.71,6.79,35.14,11.35,70.78,17.29,106.06,4.65,8.39,7.58,20.55,5.99,29.97,4.36,25.58,9.15,51.84,13.67,77.72,3.28,18.8,6.28,29.36,1.31,48.13-1.74,5.86-16.21,9.04-18.97,3-2.65,2.67-8.06-3.98-7.99-6.99-1.28-3.71-2.51-7.43-3.61-11.19s-2.18-7.51-2.95-11.32c-14.35-71.13-27.44-141.89-37.43-212.72-2.42-17.48-5.93-34.25-10.54-50.3-2.89-6.02-5.68-12.06-8.38-18.12l-2.18-.99c-4.06-8.77-11.49-14.66-22.3-17.67l-.49-2.32c-3.26,1.2-10.98-.39-12.98-4l-4.6,1.38c-20.72-1.1-41.41-1.45-62.09-1.06l-2.22-1.32c-3.3,1.96-6.69,1.96-9.99,0-6.96,1.97-14.01,1.97-20.97,0-11.32,2.46-22.63,2.49-33.95,0-6.96.77-14.01.78-20.97,0-3.3,1.96-6.69,1.97-9.99,0l-1.75,1.32c-20.8-.73-41.65-.67-62.54.18l-3.61-1.49c-.68,1.95-2.51,3.12-5.47,3.51-3.06,1.86-5.89,2.36-8.51,1.49l-.95,2.54c-7.49,3.04-16.65,6.83-19.91,14.62l-2.1.82-1.59,5.49c-4.68,6.63-9.27,13.57-10.77,21.71l-47.38,278.56-2.18.88-9.54,8.02c-.86.69-1.66-.15-2.45-1.03-2.59,5.95-14.86,2.31-16.98-3-.71-2.05-2.89-3.84-3.55-6.94-2.54-11.96,4.48-36.02,6.55-49l1.17-2.29c25.75-11.85,32.92-52.35,37.36-78.02,4.59-26.52,11.34-66.12-8.32-87.32l-.26-2.17c7.76-45.06,9.43-107.29,57.92-129.85l.73-2.18c.82-1.65,20.05-7.08,23.31-7.47l1.93,1.65c.64-.64,1.3-1.24,2.04-1.72s1.43-.91,2.18-1.03c15.89-2.61,32.04-2.5,48.1-2.36,11.95.1,24.03.5,35.96,1.05.77.04,1.52.36,2.3.71s1.55.85,2.28,1.37Z"/>
      <path class="cls-29" d="M472.31,141.87c9.21,3.43,23.75,9.77,24.96,20.98l1.43,14.09c.49,100.98.68,200.92.55,299.8l-.98,1.75.17,2.11-8.16,4.88c-4.93-1.43-11.82-1.71-14.21,4.27-3.98,9.95,6.81,15.55,14.05,9.08l2.17.64c1.56-1,2.55-.33,3,2v257.7h39.44c2.73,0,16.08,5.17,19.16,6.81,16.42,8.72,31.42,27.16,33.27,46.13l-1.03,1.97c-11.33-.02-22.88.18-34.13,1.71l-1.78-1.68-2.59-1.06c-3.42-7.65-10.26-12.57-18.15-14.89l-166.06-.9c-2.32.07-3.93-.59-2.92-3.12l-2.04-3.49c-.59-5.73-2.42-39.61-.43-41.35.64-.56,1.61-.4,2.47-.11,2.11,1.11,2.77,3.8,1.99,8.06,31.21,1.47,62.14,1.15,92.79-.96l3.08,1.89c-.26-2.41,8.61-1.46,10.12-1.06.15.27.69.58.69.53.33-204.09.47-417.2-.64-615.81,1.27-.49,2.54-.47,3.81.06Z"/>
      <path class="cls-2" d="M468.32,64.96c2.55-.07,3.32.86,3.86,3.25,1.77,7.91.58,27.07-.05,35.94l-1.81,2.76c-32.37-6.31-76.1-2.23-109.84-2l-2.1-1.88c-2.25-24.28-30.23-22.31-31.99,1.17-5.82.84-11.77,1.08-17.84.71-29.88-.38-63.63-3.52-92.86,2-1.79-1.12-2.79-2.59-2.99-4.41,1.46-11.76,1.64-23.61.56-35.55h-21.1s-1.43-1.99-1.43-1.99c.01-.33-.01-.67,0-1l.87-2.01,24.01-.38c4.21-13.55,12.41-26.16,27.32-29.44l194.75-.16c10.86.76,19.21,6,24.99,15.05,2.83,4.43,7.69,13.37,5.66,17.95Z"/>
      <path class="cls-30" d="M494.28,63.96l-2.34,2.05c-7.02-.34-14.02-.17-20.99.49l-2.63-1.54c-5.64-15.91-10.54-27.95-29.42-31l-195.67.13c-14.08,3.27-22.92,15.78-25.48,29.45l-27.03.43c.24-6.9-1.16-9.49.67-17.8C198.45,14.27,222.91.51,254.12,1.05c49.15.84,98.73-1.52,147.76-.96,31.24.35,61.62-3.91,82.83,24.01,11.29,14.86,8.35,23.11,9.57,39.87Z"/>
      <path class="cls-24" d="M100.85,215.79l1.84,1.05s-12.86,69.62-38.59,208.86l-2.19.85c-9.14-3.14-13.02-7.33-13.04-17.48l13.05-75.4-52.49-10.93c-4.49-2.42-8.02-6.82-8.42-12.05-.79-10.06,5.19-15.95,14.59-17.94l51.2,9.84,14.58-74.81c3.87-8.07,10.42-12.33,19.48-11.98Z"/>
      <path class="cls-7" d="M584.15,215.79c8.41-.32,15.59,3.63,19.19,11.27l14.77,76.63,52.29-10.67c15.4,3.31,19.87,21.69,5.2,29.72l-51.4,11c2.82,25.24,9.45,50.09,12.97,75.32.42,5.34-4.56,14.61-9.36,16.73-1.93.85-3.44.39-4.71.76l-2.09-.32c-12.86-69.61-25.73-139.23-38.59-208.86l1.74-1.58Z"/>
      <path class="cls-5" d="M584.15,215.79l38.94,210.76c-2.59.75-4.13,2.08-7.49,2.07-18.19-.09-20.42-21.03-23.15-34.84-3.16-16.01-4.64-32.37-7.49-48.44l-4.8-1.69c1.22-3.89-1.04-23.99-2.98-27.73l-2.01-2.23c.98-1.39,3.14-.07,2.82-2.26-2.49-17.25-7.92-35.02-10.52-52.47-2.35-15.83-6.99-42.25,16.69-43.16Z"/>
      <path class="cls-31" d="M106.84,312.68c.61,1.48,1.24,3.06,1.09,4.68-.7,7.98-2.08,18.85-6.09,25.28-3.29,17.89-6.82,36.18-10.3,54.12s-6.22,37.84-29.64,29.78l38.94-210.76c21.41.82,19.69,21.85,17.83,37.31-2.31,19.28-7.7,40.48-11.84,59.57Z"/>
      <path class="cls-50" d="M101.85,414.56c3.67-23,6.22-47.25,10.98-69.92l-1.51-2.37c3.64-8.93,5.31-17.84,5.03-26.74l1.47-1.86c.05-.07,1.34.23,1.67-.27,1.47-2.18,7.49-45.06,8.63-51.86.93-5.61,2.73-11.28,3.68-16.8,7.35,4.06,11.57,15.23,13.32,23.13,6.37,28.78-5.62,98.29-19.79,124.72-4.91,9.15-12.65,20.04-23.49,21.95Z"/>
      <path class="cls-3" d="M560.18,466.5c2.87,1.16,5.05,5.72,7.99,6.99,3.47,2.25,6.75,11.15,2,12.98-24.59,6.37-50.16,9.2-74.89,14.98l-1.92-.07c.08-.85-.95-1.56-1.08-1.93-3.79-.16-4.38-11.68-2-13.98-1.37-2.62,5.62-5.98,7.99-6.99l.65-2.42c2.92-2.68,56.72-13.8,60.15-11.71l1.11,2.14Z"/>
      <path class="cls-24" d="M603.12,824.08c-2.63,3.23.79,12.88-2.66,15.06-4.27,2.7-19.8-.47-25.75,1.97-6.42.12-21.97.9-26.8-2.99-2.55-2.05-1.47-8.02-1.96-11.33-.15-1-1.6-2.06-1.74-2.71-6.32-2.08,1.41-14.91,5.99-9.99,6.88-1.63,29.47-2.25,36.95-2,2.11.07,12.59,2.2,13.97,3.5,2.1,1.98,1.75,5.9,2,8.48Z"/>
      <path class="cls-16" d="M494.28,63.96c.09,1.21,1.79,4.51,2.03,7.46,1.17,14.34-2.45,29.9-1.03,44.48-6.96-3.59-17.32-7.5-24.96-8.99-1.07-11.81,1.43-26.01.04-37.51-.31-2.58-1.55-3.05-2.04-4.44,8.49-1.85,17.32-.69,25.96-1Z"/>
      <path class="cls-18" d="M190.72,64.96h24.97c-.22,10.14.26,20.35.04,30.51-.06,2.79-1.97,6.17-.56,8.5.79,1.3,4.97.46.52,2.95-7.29,1.38-19.34,4.91-25.96,7.99.33-15.49-.42-31.07-.07-46.56.04-1.84,1.07-3.2,1.07-3.38Z"/>
      <path class="cls-3" d="M117.83,313.68c-.1.15.98,2.17,1,3.46.19,11.1-3.88,17.47-5.99,27.5l-10.98-2c1.78-9.68,2.82-19.92,4.99-29.97l10.98,1Z"/>
      <path class="cls-24" d="M575.16,313.68c1.33,0,2.66-.07,3.98,0-.6,4.76,5.46,26.32,3.81,28.79-.08.13-2.35,1.01-2.8,1.16-2.2.74-5.6.96-7.99,1-1.71-10.01-4.3-19.93-5.99-29.97,3.1-.63,5.78-1.02,8.99-1Z"/>
      <path class="cls-46" d="M570.17,486.48c1.7-3.88-1.56-8.81-2-12.98,6.34,2.74,13.45.26,18.97-3-.45,1.71.16,4.26-.66,6.83-2.12,6.65-10.38,7.61-16.31,9.15Z"/>
      <path class="cls-19" d="M212.69,141.87l3.66-.36c1.37,77.02,1.13,154.54-.71,232.55.66,128,1.08,255.61,1.25,382.83,2.24.36,5.07.11,8.47-.73l1.32,2,3.68-1.65c10.87,1.03,21.76,1.59,32.69,1.64l3.57,2.01c11.31-.06,22.3-.39,32.95-1,5.3-1.96,10.68-1.96,15.98,0,3.42.37,6.74.7,9.99,1l1.92,3.01c-.21,9.79-.43,19.56-1.58,29.3l-2.34,2.65-.7,2h-158.42c-10.17,1.13-20.28,5.3-25.89,14.26l-2.72.72c-1.04,2.23-8.07,4.02-8.99,1-9.34.12-18.66.45-27.96,1-.18.89-.52.86-1,0-1.55.82-3.44.8-4.99,0-.1.91-.45.86-1,0,.96-2.04,5-.36,5.9-1.09.75-.62,4.11-14.88,5.91-18.56,6.67-13.68,29.82-35.28,45.61-35.28h40.44v-258.7c1.66-2.36,2.8-1.8,3,1,1.65-1.75,4.74-1.87,9.28-.36,15.43.74,6.27-22.8-6.29-15.62-1.86-2.33-4.4-3.93-7.62-4.8l.63-2.2c-.71-.18-1.99-.5-1.99-.96-.35-98.9-.69-200.93.94-300.33-.7-6.2-.02-11.98,2.05-17.34.17-.24-.08-2.08.94-3.51,5.86-8.22,13.42-10.95,22.03-14.47Z"/>
      <path class="cls-11" d="M127.81,466.5c.49-.48,1-.93,1.58-1.26,3.79-2.2,48.63,8.69,56.62,10.83l2.71,2.42,1.99,2,1-2.99c-1.01,5.16,5.67,1.79,4,7.98,2.34,2.96,1.08,14.96-3,15.98-1.14-.19-2.21-.87-3-1-25.7-4.21-50.71-8.18-75.89-14.98-3.1-1.62-1.12-10.62,2-11.99,3.95-1.48,7.07-6.24,10-7.45,1.14-.47,1.63.44,1.98.46Z"/>
      <path class="cls-37" d="M135.8,812.1c4.71-3.31,11.05,8.45,5.99,10.99-.22,1.14-2.58,3.44-2.94,5.56-.43,2.57.68,7.81-.5,9.48-2,2.83-30.21,3.22-35.05,2.98-3.47-.17-17.15-1.31-18.94-3.03-2.05-1.97-1.38-6.33-1.49-9-.15-3.63-.62-9.33,1.12-12.37,2.07-3.63,4.55-2.37,7.87-2.62.33-.02.67.02,1,0,1.58.75,3.41.81,4.99,0,.33,0,.67,0,1,0,9.3-.55,18.62-.88,27.96-1,3.3-.34,6.46-1.75,8.99-1Z"/>
      <path class="cls-38" d="M115.83,473.49l-2,11.99c-3.93-1.06-7.35-.11-11.03-3.45s-2.47-7.24-3.95-11.53c5.94,2.77,10.22,5.53,16.98,3Z"/>
      <path class="cls-12" d="M418.39,820.09c.79,5.77-.58,13.02,0,18.98l-11.45,1.04-138.84-.04c-.79-.06-1.58-.24-2.06-.94-.75-1.09-.69-13.68-.44-16.04.41-3.79,1.49-2.95,2-4l1.82-2.17c10.67,1.49,22.21,1.96,33.74,1.79l87.88-1.71c9.72-.79,18.83.24,27.34,3.08Z"/>
      <path class="cls-25" d="M294.57,136.88l1.99.71c-.33,42.08-.65,84.17-.98,126.28l-2.01,1.86-.77,2.72c-12.52,7.92-16.21,23.51-18.05,37.43-3.69,81.77-10.89,168.12-18.2,252.02,1.42,20.39,14.89,34.18,35.39,35.25l2.64,2.2,2.04,1.48-1.19,13.47c.69,3.36.41,6.04-.85,8.03l-1.67,1.98-20.04-.36c-19.4.9-37.18,3.55-35.42,27.9l-1.78,2.45.7-2h211.25l1.24,2c-1.13-26.35-12.46-29.14-36.58-30.29l-19.34.31-1.5-1.98c-.78-.21-1.9-.53-2-1.16-.45-2.82-.47-18.65,0-21.35l2-1.46,1.3-2.09c39.03,2.15,36.6-39.38,33.7-67.85-6.65-63.56-11.5-127.24-14.56-191.04-1.02-15.09-2.27-30.26-5.01-45.03-1.87-10.11-8.03-15.14-15.66-21.25l.23-2.36-1.9-1.21c-.45-41.79-.82-83.6-1.08-125.41l1.99-1.24c22.74-.02,46.47-2.46,68.9,1l2,.96c-.33,203.5-.67,414.52-.99,618.07l-2,1.25c-9.28.2-20.16,1.88-29.42,2.04-22.85.4-45.6-1.72-68.45-1.03v-9.99c-.5-.47-.17-.8,1-1l1.68-1.91,21.39,1.24c19.95,2.83,22.82-13.71,1.08-12.08-8.26.8-16.52,1.12-24.78.97l-1.37-2.2c-3.89-1.22-2.77-8.21,2-6.99l1.54-1.92,21.24,1.09c17.92,3.04,24.94-12.62,2.32-11.64l-23.73.77c-1.61.18-2.63-.85-3.37-2.28-3.45-1.73-2.4-9.16.88-6.49,9.72-.29,19.41-.12,29.07.49l1.29-1.95c13.27,1.61,13.8-13.22-.16-11.62-10.06.95-20.1,1.23-30.11.84l-.97-2.26c-2.44-5.03-2.67-10.72-1.21-16.05-5.56,2.12-24.88,3.8-30.1,1.52l-1.44-1.56c1.57,5.39.85,10.89-1.19,16.09-10.31,2.1-20.77,2.69-31.37,1.77-9.5-1.49-14.48,8.23-4.07,10.67,11.31.5,22.58.88,33.82,1.14l1.62,1.4c3.05,1,2.06,5.5-1,5.99-5.98,2.18-12.5,2.86-19.56,2.04-7.18-1.7-13.43-1.18-18.77,1.55-13.17,13.04,30.72,9.52,35.19,8.51l2.14,1.88c4.64-1.75,5.87,5.45,2,6.99l-2.93,1.31c-9.86.85-19.62.87-29.3.05-10.57-.86-13.61,12.11-1.36,11.54l1.64,2.09c10.53-.68,21.44-.94,31.95,0,2.83.75,2.88,9.06,0,9.99-2.89.9-6.82.81-9.99,0-5.31,0-10.66,0-15.98,0-11.31.06-22.3.39-32.95,1-14.62,0-25.69-.58-39.94-2l-2-.96V138.13l2-1.25c20.43-3.36,46.71-.09,67.9,0Z"/>
      <path class="cls-51" d="M472.31,141.87c-3.01-.56-1.93,1.52-2,3.45-.58,17.37-.33,35.7,1.05,52.94-.5,186.62.76,373.64-.63,560.01-4.1,2.43-9-.18-12.4-.11l1-620.28c5.42.84,8.13,2.19,12.98,4Z"/>
      <path class="cls-8" d="M226.67,136.88v621.28c-4.27-.43-11.79,3.96-12.03-2.45,1-127.3-1.1-254.43-1-381.65.06-75.82,3.59-152.86,1.05-228.73-.06-1.93,1.02-4.01-2-3.45,5.04-2.06,8.01-4.01,13.98-4.99Z"/>
      <path class="cls-14" d="M380.45,136.88l2,.7v122.93l-2,1.23c-.1.48-.24.94-.52,1.29-.6.76-18.17,1.56-19.24.99-.78-.42-1.06-1.38-1.21-2.27-.92-28.38-.86-58.54,0-86.9-1.1-.68-1.71-2.86-2-4.34-.95-4.93-.62-26.75,0-32.44l2-1.17c6.98.01,13.99,0,20.97,0Z"/>
      <path class="cls-40" d="M390.43,136.88l1,127.85c-1.67,2.62-10.64.04-10.98-3v-124.86c3.32,0,6.66,0,9.99,0Z"/>
      <path class="cls-9" d="M304.56,136.88c.87.28.86.62,0,1,1.96,40.94,1.96,81.92,0,122.86,2.65.32,2.54,1.24,0,2-.96,2.94-8.54,4.68-10.98,3l1-128.85c3.32.01,6.66-.01,9.99,0Z"/>
      <path class="cls-47" d="M359.48,136.88v37.96c-.28.87-.62.86-1,0l-2.85-.49c-6.5-8.16-16.71-11.81-26.94-11.59l-2.17-1.91c-.4.62-.73.29-1-1-.28-7.46-.73-14.89-1.33-22.31l1.33-.66c11.3.02,22.65-.02,33.95,0Z"/>
      <path class="cls-17" d="M360.48,104.92c-17.35.12-34.89.22-51.92,0l15.84-.13c1.87-28.24,35.39-28.24,36.08.13Z"/>
      <path class="cls-10" d="M325.53,136.88v22.97c1.81,23.31,1.81,46.61,0,69.92.77,10.07,1.36,21.57,0,31.96.43,1.88-.65,2.68-3.22,2.41-3.06.86-15.42.79-17.75-1.41v-2l1.15-2h16.75c-1.44-39.61-1.32-79.23.34-118.87h-16.81s-1.43-1.99-1.43-1.99v-1c6.98.03,13.99,0,20.97,0Z"/>
      <path class="cls-33" d="M325.53,692.24c.03-5.65-.03-11.33,0-16.98,11.08,2.09,22.8.93,33.95,0,.04,5.65-.06,11.34,0,16.98,2.41,3.95,2.64,8.56,1.15,12.87,8.3-1.28,17.09-1.26,25.55-.95,2.22.08,3.81.53,3.26,3.06h-29.96c-.05,1.98.08,4,0,5.99,2.78,1.65,2.5,12.89,1.31,13.18-.13.03-.59-1.74.68.81-3.05,1.28-1.9,4.17-2,6.99,2.5,1.58,2.74,12.56,1.32,13.19-.11.05-.6-1.76.68.79-.29.37-.71.64-1,1-1.19,1.46-.93,1.67-1.06,3.4-1.03,13.75,1.06,28.07,1.06,41.55,0,.13-1.02,1.15-1.03,2.43-.02,4.85.07,9.71.03,14.55-10.82,3.29-25.1,4.19-35.95,1,.49-5.38-.68-11.77,0-16.98,1.66-12.77,1.66-21.83,2-34.96-.89-.19-.85-.52,0-1,.06-2.56-.54-8.18,0-9.99,1.39-4.68,1.39-9.67,0-14.98-.09-2.82,1.06-5.71-2-6.99.41-4.06.12-8.2-.88-12.43l1.88-1.56c0-1.14.97-3.55,1-5.99-2.71-4.92-2.75-10.08,0-14.98Z"/>
      <path class="cls-27" d="M492.28,499.46c-5.94,6.68-17.98,5.28-18.92-4.62-1.2-12.61,15.15-15.52,16.93-9.36,1.01,3.51.8,10.36,2,13.98Z"/>
      <path class="cls-23" d="M192.72,501.46c1.79-4.8,1.62-11.35,3-15.98,1.19-4,3.27-3.57,7.26-2.76,7.23,1.47,10.06,8.1,8.5,15.03-1.93,8.57-13.16,4.63-18.75,3.71Z"/>
      <path class="cls-36" d="M299.56,759.16c-1.04,1.66-3.79,1-5.48,1.02-9.15.11-18.34-.02-27.47-.02,1.04-1.66,3.79-1,5.48-1.02,9.15-.11,18.33.02,27.47.02Z"/>
      <path class="cls-25" d="M126.82,813.1c-9.32.96-18.37.85-27.96,1,8.82-2.29,18.85-.38,27.96-1Z"/>
      <path class="cls-36" d="M325.53,759.16c0,.33,0,.67,0,1-3.14-.43-7.62,1.13-9.99-1h9.99Z"/>
      <path class="cls-25" d="M97.86,814.1c-.66,1.57-4.34,1.57-4.99,0,1.65-.08,3.33.03,4.99,0Z"/>
      <path class="cls-22" d="M323.53,812.1c12.01.02,23.92-.92,35.95-1,14.16-.1,32.68-1.36,46.31.12,5.74.62,11.71,2.32,12.61,8.86-44.86-3.42-93.98,2.41-139.34.04-3.74-.2-7.47-1.72-11.44-1.04,1.08-2.25,1.11-4.47,3.6-5.89,7.91-4.53,41.18-1.12,52.32-1.1Z"/>
      <path class="cls-49" d="M358.48,174.84c.3,28.77.64,57.73,1,86.9,3.67,1.21,15.78-.61,20.97,0,1.3.15,10.26,2.57,10.98,3,.84.5,10.52,9.01,11.41,10.07,3.47,4.13,5.54,10.24,6.46,15.51,4.24,24.39,5.13,56.49,7.09,81.81,2.46,31.91,3.58,63.96,6.01,95.87,1.82,23.89,6.15,47.93,7.03,71.88.72,19.61,1.15,43.07-20.03,51.97-7.37,3.1-10.68,1.94-17.96,2.51-2.22,3.22-8.37,3.9-10.98,1-5.73,3.29-15.07,3.05-20.97,0-11.08,3.05-22.86,3-33.95,0-6.28,3-14.75,3.16-20.97,0-2.11,2.95-7.99,3.11-9.99,0-24.02-1.35-37.45-13.17-40.02-37.46,5.62-68.19,11.65-136.51,16.1-204.72,1.65-25.28-3.44-73.96,22.93-87.44,3.68-1.88,6.98-2.39,10.98-3,5.44-.83,18.11-.07,20.97-1,.59-10.6.92-21.26,1-31.96.09-22.96.09-45.94,0-68.92,12.43-.82,24.75,3.52,31.95,13.98Z"/>
      <path class="cls-35" d="M294.57,618.32c3.11-2.49,5.92-2.49,8.99,0,5.1-3.14,15.84-2.15,20.97,1,1-.51,2.01-.98,3.06-1.33,4.22-1.39,26.1-2.31,30.77-1.5,2.4,1.92,5.44,2.53,9.11,1.83,4.39-2.5,8.58-2.47,12.98,0,3.74-2.51,7.24-2.49,10.98,0,13.97-.05,42.1-2.73,51.93,7.77,3.41,3.65,11.17,24.19,5.49,24.19h-213.19c-4.16-37.55,33.23-32.21,58.91-31.96Z"/>
      <path class="cls-4" d="M325.53,692.24c-.03,4.98.05,10,0,14.98-9.33-.49-19.25.65-28.5.04-6.32-.42-15.05-.1-14.53-8.54s14.09-6.38,19.53-6.44c7.83-.09,15.68-.03,23.51-.04Z"/>
      <path class="cls-43" d="M324.53,713.21c-.02,2.37,2.25,12.32,1,13.99-.66.05-1.33-.04-2,0-9.5.46-23.37,1.97-32.34.88-7.05-.85-11.55-4.89-7.06-11.82,3.98-6.13,15.2-3.09,20.88-3,6.5.09,13.02-.15,19.51-.04Z"/>
      <path class="cls-21" d="M361.47,748.17c-.66-.03-1.33.05-2,0,.1-4.64-.15-9.35,0-13.99,11.02,1.81,28.84-3.17,38.69.75,6.86,2.73,5.86,12.49-2.48,13.99-8.35,1.51-24.96-.31-34.21-.76Z"/>
      <path class="cls-13" d="M325.53,734.19c.73,2.3,1.73,14.15.28,14.33-11.06-.24-21.8-.03-32.23.65-6.61-.3-13.64-.83-10.78-10.28,2.4-7.93,16.63-4.72,22.22-4.66,6.83.07,13.69-.14,20.51-.04Z"/>
      <path class="cls-44" d="M361.47,727.2c-.66-.03-1.33.05-2,0,.11-4.64-.17-9.35,0-13.99,11.29,1.38,25.47-1.67,36.39.06,8.64,1.36,10.07,12.91-1.21,14.66-7.76,1.21-24.53-.31-33.19-.74Z"/>
      <path class="cls-44" d="M389.43,707.22c-.18,0-1.58-1.04-3.38-1.07-8.85-.18-17.75.28-26.59.08-.03-4.65.05-9.34,0-13.99,10.21,2.67,30.65-3.03,39.68.76,5.63,2.36,4.23,11.97-1.68,13.78-2.45.75-5.48.54-8.05.45Z"/>
      <path class="cls-45" d="M391.43,594.35v23.97c-3.65.01-7.33-.03-10.98,0-.78-.21-1.92-.53-2-1.15-.3-2.29-.42-18.73,0-20.38l2-1.44c3.73-.13,7.28-.71,10.98-1Z"/>
      <path class="cls-41" d="M304.56,595.35c2.88,2.89,2.39,10.75,2.07,15.15.46,4.05-.56,6.66-3.07,7.82-2.99-.02-6,.03-8.99,0-2.83-7.49.42-15.37,0-22.97,3.3.19,6.68-.08,9.99,0Z"/>
      <path class="cls-34" d="M391.43,676.25c1.65,14.82-12.37,14.93-10.99,0h10.99Z"/>
      <path class="cls-48" d="M304.31,676.5c4.27,4.25-4.65,13.48-8.49,9.49-1.78-1.85-1.24-7.14-1.18-9.69,2.92-.07,7.3-2.17,9.67.19Z"/>
      <path class="cls-1" d="M325.53,749.17c-10.61-.36-21.36.49-31.95,0,1.04-1.66,3.79-1,5.48-1.02,8.82-.11,17.67.11,26.48.02-.12-4.64.15-9.35,0-13.99l.88.59c-.14,4.19,2.08,8.65.91,12.74-.33,1.17-1.76,1.54-1.79,1.66Z"/>
      <path class="cls-52" d="M359.48,261.74c-1.47-.49-.91-1.34-1.04-2.44l.04-84.46h1v86.9Z"/>
      <path class="cls-42" d="M304.56,137.88h19.98c-.35,40.89-2.41,81.96,0,122.86h-19.98c0-40.94,0-81.93,0-122.86Z"/>
      <path class="cls-6" d="M326.52,160.85c3.29,6.79.27,57.4,0,68.92-.28.87-.62.86-1,0v-69.92c.32.3.81.61,1,1Z"/>
      <path class="cls-15" d="M325.53,261.74v-31.96h1c-.22,9.35,1.15,21.73.03,30.52-.13,1.01-.01,1.12-1.03,1.45Z"/>
      <path class="cls-39" d="M316.34,275.02c15.11-1.19,36.51-1.25,51.67-.34,13.06.78,23.5,3.25,27.98,16.96,6.23,67.32,9.31,134.91,14.43,202.32,1.63,21.51,7.11,46.64,4.97,67.92-.93,9.28-6.03,15.18-14.69,18.26l-115.55.16c-7.73-2.27-12.91-7.13-15.05-14.9s.08-11.3.5-18.51c4.81-81.32,10.89-162.57,16.94-243.75,1.55-20.76,8.31-26.52,28.8-28.13Z"/>
      <path class="cls-20" d="M359.48,595.35l2,1.15v19.73c3.2-.5,5.2.2,5.99,2.09-13.94.09-28.62,1.08-42.94,1l-1.5-2.24c.69-6.59.83-13.22.41-19.9l2.09-1.84c11.29.1,22.67.16,33.95,0Z"/>
      <path class="cls-32" d="M325.53,595.35c-.55,7.83,1.2,16.43-1,23.97-6.96-.04-14.34-.94-20.97-1,2-7.41.59-15.36,1-22.97,6.97.16,14-.06,20.97,0Z"/>
      <path class="cls-12" d="M380.45,595.35v22.97c-4.32.03-8.67-.03-12.98,0h-7.99s0-22.97,0-22.97c6.96-.1,14.01.24,20.97,0Z"/>
    </g>
  </g>
</svg>