<?xml version="1.0" encoding="UTF-8"?>
<svg id="_Слой_2" data-name="Слой 2" xmlns="http://www.w3.org/2000/svg" viewBox="0 0 692.17 762.25">
  <defs>
    <style>
      .cls-1 {
        fill: #151026;
      }

      .cls-2 {
        fill: #302d42;
      }

      .cls-3 {
        fill: #2e2c42;
      }

      .cls-4 {
        fill: #ba7902;
      }

      .cls-5 {
        fill: #302c42;
      }

      .cls-6 {
        fill: #efae0a;
      }

      .cls-7 {
        fill: #f0b006;
      }

      .cls-8 {
        fill: #b97a03;
      }

      .cls-9 {
        fill: #f1b208;
      }

      .cls-10 {
        fill: #2f2c41;
      }

      .cls-11 {
        fill: #e2b945;
      }

      .cls-12 {
        fill: #ecb313;
      }

      .cls-13 {
        fill: #0d0a1e;
      }

      .cls-14 {
        fill: #b77701;
      }

      .cls-15 {
        fill: #312e43;
      }

      .cls-16 {
        fill: #373247;
      }

      .cls-17 {
        fill: #f3b407;
      }

      .cls-18 {
        fill: #0d0a1f;
      }

      .cls-19 {
        fill: #0e091e;
      }

      .cls-20 {
        fill: #f1b209;
      }

      .cls-21 {
        fill: #575175;
      }

      .cls-22 {
        fill: #0c091a;
      }

      .cls-23 {
        fill: #0f0a1f;
      }

      .cls-24 {
        fill: #efbc3e;
      }

      .cls-25 {
        fill: #110c22;
      }

      .cls-26 {
        fill: #0d0a1c;
      }

      .cls-27 {
        fill: #494364;
      }

      .cls-28 {
        fill: #f1b104;
      }

      .cls-29 {
        fill: #eaaf0e;
      }

      .cls-30 {
        fill: #b47701;
      }

      .cls-31 {
        fill: #565074;
      }

      .cls-32 {
        fill: #626263;
      }

      .cls-33 {
        fill: #0e0b1d;
      }

      .cls-34 {
        fill: #171227;
      }

      .cls-35 {
        fill: #efaf05;
      }

      .cls-36 {
        fill: #100b1f;
      }

      .cls-37 {
        fill: #110c21;
      }

      .cls-38 {
        fill: #333046;
      }

      .cls-39 {
        fill: #322f45;
      }

      .cls-40 {
        fill: #4a4665;
      }

      .cls-41 {
        fill: #343047;
      }

      .cls-42 {
        fill: #f5b50b;
      }

      .cls-43 {
        fill: #0d0a1d;
      }

      .cls-44 {
        fill: #0d0b1c;
      }

      .cls-45 {
        fill: #f4b40b;
      }

      .cls-46 {
        fill: #b97902;
      }

      .cls-47 {
        fill: #bc7d03;
      }

      .cls-48 {
        fill: #0c091d;
      }

      .cls-49 {
        fill: #0c091b;
      }

      .cls-50 {
        fill: #f1b007;
      }

      .cls-51 {
        fill: #ba7a02;
      }

      .cls-52 {
        fill: #2c1703;
      }

      .cls-53 {
        fill: #efb61d;
      }

      .cls-54 {
        fill: #efae0c;
      }

      .cls-55 {
        fill: #48445b;
      }

      .cls-56 {
        fill: #2f2c42;
      }
    </style>
  </defs>
  <g id="_Слой_19" data-name="Слой 19">
    <g>
      <path class="cls-32" d="M79.08,749.98c3.85,3.03,6.58,5.66,12.45,6.2,2.45.29,4.96.39,7.44.27,1.97-.1,3.94-.33,5.83-.84,4.16-1.12,6.34-3.58,9.28-4.87,2.32-1.06,4.77-1.32,7.33-1.46,84.08-4.83,169.29-2.27,253.33-.43,2.63.01,5.22.31,7.56,1.5,3.13,1.5,5.6,4.4,9.42,5.59,6.07,1.88,12.85,1.97,18.87-.16,4.43-1.53,7.56-4.92,11.46-6.46,2.21-.93,4.53-1.28,6.95-1.42,47.05-2.08,96.29-.86,143.65.48,6.28,1.06,10.47,7.14,17.18,7.92,5.94,1.07,12.35.23,17.59-2.74,3.04-1.7,5.68-4.34,8.49-5.23,2.89-1.02,6.07-.28,9.03.47,20.15,4.35,41.37,1.44,61.87,4.13.97.15,1.9.34,2.69.58,2.08.61,3.08,1.55,2.5,2.55-.53,1.4-4.94,2.84-7.74,3.29-7.37,1.39-15.02.85-22.46,1.12-211.8,1.09-433.97,4.21-642.41-1.79-5.34-.34-10.85-.52-16.03-1.9-1.87-.53-3.2-1.18-3.37-1.79-.12-1.4,3.39-1.73,4.84-2.03,18.9-2.53,39.24-.57,57.83-2.4,5.5-.29,11.16-4.32,16.27-.67l.14.1Z"/>
      <path class="cls-39" d="M110.93,453.49c6.78-.57,13.4.88,19.84,4.37l48.23,15.26c25.71,8.85,52.25,20.27,70.81,40.81,6.3,6.97,14.97,17.23,14.9,26.44l2.34.66c.31,8.65,3.87,12.1,10.67,10.34l16.61-2.92,1.33,1.9c3.35-.81,5.24,9.48,4.86,12.08-.54,3.77-3.25,7.61-6.36,3.9-.09.78-.34,1.94-.89,2-2.47.25-18.93.27-19.91-.67-.34-.32-.52-.8-.66-1.33,1.09,2.24,1.82,4.59,2.16,7.06l2.98,49.13c1.41-.67,2.26,1.03,1.85,2.73-2.17,1.91-2.6,4.75-1.3,8.52l3.09,15.46-1.79,1.99,1.49,2.05c.88,16.49,1.43,33.07,1.65,49.75-.9,7.86,3.07,10.86,11.89,9l.95,2.12c2.38-2.47,7.93-.51,7.99,3,8.56,8.7,10.33,19.3,3.02,28.95h13.52s1.43,2,1.43,2c.87.28.86.62,0,1-68.55-.26-137.15.08-205.7,0l-1.96,2.01c-3.87.47-30.06,1.87-31.28.88-.67-.54-1.25-1.16-1.71-1.9-1.63-.14-5.16-1.44-6.99-2-15.32-4.69-20.53-16.4-22.96-31.46,3.51-38.63,8.77-77.19,11.97-115.85,2.79-33.67,1.19-79.47,9.71-111.13,4.37-16.26,19.63-37.15,38.23-36.17Z"/>
      <path class="cls-19" d="M605.22,332.65c-1.58,2.84-10.92,3.43-11.98,0-1.14,3.19-10.28-.43-10.99-3l-1.88-2.67c1.33-18.84-.21-52.66-18.95-62.29-25.68-13.2-52.95-25.51-79.83-37.31-43.77-19.21-88.11-38.31-131.93-55.37-15.59-4.2-31.84-4.65-47.9-4.28-25.27,2.6-49.85,2.03-73.74-1.72l-1.25-2.14-2.9,1.81-22.18.17-2.88-1.98c-5.18,2.97-12.7,2.86-17.98,0-3.2.1-6.93-.37-9.98,0-3.53-.28-7.55.4-10.99,0l-1.63,1.72c-14.04-4.33-15.51.5-2.82,6.2,60.29,27.03,122.46,54.29,183.67,80.89,1.11.48,3.91,1.16,4.96.88,1.69-3.85,4.2-5.12,7.55-3.8,5.63-1.44,12.12,5.98,15.68,10.33,13.78,16.85,19.53,49.24,14.71,70.24-.54,2.35-1.79,6.11-4.43,6.31-1.23,4.05-11.56,3.88-12.98,0-2.77,3.41-10.97-.04-9.99-4.99l-1.77-2.93.95-22.94c-.88-29.26-17.38-39.35-42.8-51.2-28.6-12.53-57.18-24.95-85.76-37.27l-2.43-2.51c-9.14-.61-19.37-5.63-25.96-11.98-5.67.91-14.83-2.2-17.97-6.99-8.8-3.87-35.13-13.84-40.49-19.93-3.96-4.49-2.28-9.14-4.37-12.61-1.08-1.77-6.09-4.2-7.96-6.02-21.31-20.67-9.57-58.01-12.1-83.77-.45-4.65-2.61-9.1-3.02-13.96-.98-11.58.65-23.5,1.07-34.95.33-8.92-4.26-23.98,8.46-24.57,5.51-.26,7.33,1.92,9.48,6.06,1.33,13.64,1.66,27.48.98,41.52,1.43,2.21,2.03,9.59-.42,10.84l-.56,5.56,1.78,1.41c-1.84,18.38-1.84,37.38-.05,55.88,1,10.32,3.1,18.67,11.09,25.71,11.45-4.53,26.47-4.72,38.72-3.17l2.38,2.06c7.14,1.64,14.86.04,21.75-2.41,1.75.13,2.89,1.32,2.27,2.41,0,.01-.01.02-.01.03s-.01,0-.02.02c-.01.02-.02.05-.04.07t-.01.02c-.16.22-.36.42-.67.62.86,3.81,1.1,7.55.69,11.23.7-.58,1.23-.67,1.57-.32.23.25.37.69.43,1.32,11.74,1.78,17.72,1.76,15.58-12.5l1.4-.49c3.85-2.74,9.44,0,12.48,0h19.97c.41,0,3.47-2.57,4.94-3.04,13.31-4.3,18.98,4.25,32.99,3.03,24.76-2.17,16.16-22.43,9.97-37.91-6.19-15.46-14.79-30.07-21.61-45.29-4.58-10.21-16.4-34.07-18.36-43.56-1.81-8.8,3.56-15.01,12.57-12.57,6.06,1.65,11.1,14.45,13.81,20.14,7.38,15.47,10.31,26.24,14.37,42.55,6,24.04,33.24,50.02,18.72,76.65h14.48c4.1,0,14.06,3.61,18.48,5,2.82.56,1.97,7.03.45,7.71,71.36,30.83,141.21,61.41,209.56,91.74,3.44,1.27,4.44-.11,6.24-2.92l2.43.34c31.95,23.89,31.36,48.53,26.96,84.89Z"/>
      <path class="cls-19" d="M337.61,670.21h5.71c22.21,6.89,44.41,13.73,66.61,20.51,2.37.85,6.69,2.82,6.56,5.45l2.31,1.65c-1.91,14.14,3.08,20.47,14.97,19,24.24.62,48.65.95,73.21,1l3.38,1.32c11.69-3,24.25-2.9,35.95,0,15.62-.14,24.01,1.38,38.97-3.47,7.29-2.36,23.45-2.37,30.66.24,12.8,4.64,15.07,26.25,2.26,32.19-8.08.24-7.13,9.06-17.44,10.03-9.59.9-22.62,2.26-26.51-8.52l-150.33-.55c-4.91.11-5.52,6.53-9.69,8.28-4.67,1.97-19.74,2.6-24.54,1.09-4.44-1.4-3.53-3.87-5.16-5.33l1.87-1.63c12.62,2.25,19.5-11.52,16.71-22.4-3.17-12.34-13.73-13.28-23.77-7.93-.29-.8-.6-1.42-.95-1.45-14.26-1.27-29.57-1.98-43.78-.55-2.23,1.64-4.85,2.37-7.88,2.2,3.85,8.11,5.53,24.32-5.1,26.77h-19.97c9.4-9.91,10.19-16.01,2.79-27.26-.57-.87-2.97-3.08-.79-3.7,1.67-2.87,6.65-1.49,5.99,2,1.51-1.19,3.14-.15,4.89,3.13,10.99-3.5,17.16-41.73,18.66-52.64.55-.9,2.02-.71,4.41.58Z"/>
      <path class="cls-25" d="M418.49,585.32l2.55-.95c37.49,14.85,78.13,24.64,118.03,32.22,22.58,4.29,46.86,7.39,69.28,1.24,1.39.14,2.26.7,2.33,1.92l.52,9.52c.18,2.78.47,8.93-.21,11.28-2.47,8.52-27.61,6.29-34.74,6.7v20.47c0,.46-5.08,6.56-6.01,6.97-2.28,1.01-5.46.51-7.97.52-.29,3.6-9.49,1.92-11.46.45-2.89-2.14-3.84-4.26-5.09-7.49-20.98-12.08-42.26-24.18-63.85-36.3-17.84-5.94-35.84-11.23-54-15.87-8.24-1.95-12.04-7.85-11.39-17.69-3.45-1.56-3.39-16.17,2-12.98Z"/>
      <path class="cls-21" d="M334.61,478.46c2.7,2.75,2.26,8.83-1,10.99l-2.74.54c-10.91-7.14-23.03-13.66-36.28-14.52l-1.92-2c-3.34-.4-6.01-1.4-7.99-3-1.96,2.8-11.35-1.83-11.48-4.99l-.93,2h-72.89l-4.57-2c7.19,3.52,14.66,5.84,22.46,7.67l.51,2.32c20.73,3.91,44.01,17.16,57.95,33.19,6.37,7.33,14.9,18.24,14.95,27.73-.12,2.73-2.33,4.21-6.63,4.44l-17.47,1.13-1.86-1.57c-23.38-52.8-85.31-64.3-134.58-80.62-6.16-2.04-12.78-5.93-19.2-6.26,3.46-1.04,8.84-1.86,12.44-2.04,10.88-.53,22.51.11,33.49.04,5.91-2.76,12.05-2.7,17.97,0,8.39-2.96,17.56-2.88,25.96,0l3.79-2.04c47.77-4.12,83.05,7.29,126.76,25.51.66.27,1.2.84,1.77,1.44s1.05,1.32,1.5,2.05Z"/>
      <path class="cls-7" d="M196.81,202.82l1.85,1.73c-7.24,81.96-14.48,163.92-21.72,245.88l-2.1,1.06c-5.98.06-12-.04-17.97,0l21.97-255.66c5.77,2.54,12.16,4.42,17.97,6.99Z"/>
      <path class="cls-23" d="M260.72,112.94l-4.42,1.83c-21.41,1.06-42.81,1.46-64.2,1.2-3.43-.21-7.58-.66-8.26-4.03-.35.55-.68.97-.93.93-8.09-1.44-23.47-32.58-26.03-40.88l-2.75-.77c-4.26-5.9-14.69-22.06-15.42-28.66-.19-1.72.36-2.99,1.19-4.53.59-.55.85-1.98,1.97-2.48,4.17-1.87,10.04.48,14.46.53,16.97.2,34.86-2.27,52.02-1.09,7.36.51,12.72,1.49,17.26,7.7,12.93,17.65,22.06,43.62,34.85,62.01,1.98,3.32,1.11,5.11.27,8.23Z"/>
      <path class="cls-15" d="M548.3,597.3c2.46-1.52,11.52.86,11.98,3.99,4.39-1.34,7.9-.4,10.98,3,7.25,1.95,14.77,3.27,21.97,5.5,12.17,3.76,20.73,3.55,17.98,19.47,0-.13-.9-1.15-1.04-2.42-.27-2.45.24-5.09.03-7.57-21.78,7.09-46.77,3.41-69.08-.32-34.95-5.85-79.78-17.95-113.43-29.36-3.24-1.1-6.16-2.79-9.2-4.28-3.54.99-2.51-2.15-1.06-4.47,4.27-6.83,40.58-6.18,49.21-5.22,27.27,3.04,55.77,8.64,81.12,19.13l.54,2.54Z"/>
      <path class="cls-4" d="M605.22,332.65c-10.95,90.59-22.98,181.06-33.95,271.64-3.67-.99-7.33-1.96-10.98-3l-1.87-1.19c10.89-88.81,21.79-177.63,32.69-266.47l2.13-.99c3.7.48,8.17-.34,11.98,0Z"/>
      <path class="cls-47" d="M416.49,598.3c4.21,2.07,2.14,8.13,3.48,11,2.63,5.6,40.62,13.11,48.44,15.47,24.04,7.27,40.29,19.97,61.24,32.63,4.42,2.67,13.78,6.29,16.94,8.76,1.92,1.5,1.85,5.59,4.76,7.49s7.47,1.57,10.93,1.55c-1.03,15.99-8.62,30.14-15.98,43.94-11.96.11-23.98-.02-35.95,0l1.19-3.16c17.3-10.65,24.56-28.38,25.74-47.58-15.35-6.06-31.14-11.47-47.35-16.21l-1.55-1.95c-1.98-1.84-4.15-3.5-6.51-4.97l-70.66-19.24-2.04-2.49c1.53-4.43,1.09-10.43.33-15.25-2.86-2.93-2.79-7.03,0-9.99-.08-3.99,6.9-3.8,6.99,0Z"/>
      <path class="cls-2" d="M578.26,247.76c-1.58,1.29-2.68,4.25-4.72,4.83-5.81,1.67-25.11-10.1-31.55-13-60.75-27.33-123.24-50.9-183.24-79.88l.83-8.83c23.56,7.38,49.63,19.86,72.57,29.78,47.41,20.49,93.95,43,141.49,63.22,2.4.28,3.5,3.04,4.62,3.87Z"/>
      <path class="cls-5" d="M129.91,6.08c.87,1.69,1.69,1.43,2.03,4.46,1.28,11.68-1.02,25.56-.02,37.49,3.56-3.27,4.33-6.6,7.98-9.99,1.35,12.26,10.99,23.26,16.98,33.96,2.59,8.55,18.1,39.51,26,40.86.26.04.6-.37.96-.92,2.58.96,5.67,1.8,8.45,2.04,22.5,1.94,45.92-2.24,68.44-1.04-.82,3.06-4.63,10.88-7.69,11.78-4.25,1.25-17.74.15-23.26.21-8.43,2.71-18,3.41-26.38.6-5.88.23-11.74.03-17.56-.6-1.19,3.04-8.83,2.47-11.91,1.86-3.95-.79-6.22-2.78-8.91-5.62-12-18.43-22.79-37.68-32.37-57.75l-2.73.6V6.08Z"/>
      <path class="cls-8" d="M229.76,124.92c-1.12,6.61-2.07,13.34-3,19.97-3.66-.35-7.57-.97-11.73-1.85-4.72.86-8.8.81-12.23-.15l-1.88-1.1c.81-4.77,1.18-9.4,1.1-13.87h-14.79s-1.4-2-1.4-2c-.87-.28-.86-.62,0-1,14.57.36,29.35.14,43.94,0Z"/>
      <path class="cls-52" d="M226.77,144.89c-.05.33.05.67,0,1-.45,3.05-.19,11.3-2.4,13.08-1.89,1.52-11.98,1.53-14.58-.1l1.3-1.91c10.46,1.8,14.03-1.25,10.73-9.14l.46-1.93c-1.28,3.24-12.91,3.1-14.48,0,3.2,1.52,5.07,12.45,0,11.98-.76-2.51-.45-12.58-2.52-12.99-.74-.15-3.8,1.82-5.94,2.03-3.24.32-9.86.37-13.05,0-1.12-.13-1.97.49-2.46-1.04,1.86-1.96,4.91-2.73,9.15-2.34,4.34-1.93,7.61-2.15,9.82-.66,8.24-2.43,16.61-3.15,23.97,2Z"/>
      <path class="cls-30" d="M334.61,719.14c1.22-.3,2.44-.54,3.67-.57,12.85-.32,28.14-.69,40.72,1.06.51.07.51,2.05.37,3.08-3.94,7.37-4.19,16.46-.07,23.81l-.75,2.58c-18.96-.05-37.96.07-56.92,0v-1c9.07-8.68,6.61-18.65,2-28.96,3.65-.04,7.33.04,10.98,0Z"/>
      <path class="cls-10" d="M384.54,753.1c-1.6-1.43-4.22-2.61-5.99-3.99-5.81-8.58-5.5-20.24,0-28.95-14.63-1.05-29.25-1.19-43.94-1.01,1.04-1.66,3.79-1,5.48-1.02,8.64-.11,17.39-.19,26.02-.03,4.37.08,8.31,1.64,12.96,1.07,7.55-.93,9.39-7.41,19.37-.45,14.33,9.99,6.29,39.68-13.91,34.39Z"/>
      <path class="cls-49" d="M115.93,749.1c-.51,4.96-2.17,8.39-7.47,9.01-3.93.46-17.23.56-20.77-.23-3.33-.75-5.89-4.6-6.7-7.78,9.21.8,24.6-1.01,34.95-1Z"/>
      <path class="cls-20" d="M172.84,491.44c11.18-.35,21.45,3.56,30.98,9.07,68.66,39.73,70.02,167.17,4.44,210.31-8.5,5.59-19.34,11.06-29.43,10.31-76.28,16.94-122.11-65.91-113.71-132.2,6.76-53.32,48.59-107.59,107.72-97.5Z"/>
      <path class="cls-23" d="M292.67,473.46c13.39-.45,30.11,8.38,40.94,15.98-2.16,39.56-7.08,79.02-14.98,117.85l-1.82,4.6c-15.46.69-19.26,2.53-11.38,5.5l10.41,2.4-.21,5.47,1.91,1.27c.25,3.32-.32,18.02-2.55,19.68-3.3,2.45-21.86-5.12-19.11-12.59-4.06-3.1-9.2-5.08-15.4-5.93l-.79-2.43c-1.18-.54-2.38-1.3-3.51-1.97-1.35-18.86-3.26-37.98-3.48-56.95h21.47c8.26,0,2.51-11.92,1.5-15.98-3.13-1.07-7-11.33-4.99-13.98-15.37-34.88-38.65-47.26-72.89-60.92.51-.58,1.05-1.13,1.67-1.57,3.29-2.34,27.77-1.93,33.58-1.43l3.69,2c10.8-.11,21.45-.79,31.93-2.05l4.02,1.05Z"/>
      <path class="cls-50" d="M354.58,331.65c-.6,2.73,7.6,4.57,9.99,4.99,2.65,1.1,2.3,5.13,2.04,7.74-11.59,77.35-20.28,156.94-28.66,235.89-4.02,33.52-8.93,66.93-14.09,100.12-1.15,7.43-7.04,34.27-12.2,37.76-.61.42-1.3.72-2.01.99-1.87-1.66-4.3-1.35-5.99-2-2.06-.79-6.08-2.75-7.99-3l.05-3.24c7.07-4.58,17.58-45.12,13.35-47.77l-28-9.34-1.37-2.57c-.62-7.32-4.09-17.04-4.03-24.46.02-2.85,2.6-1.1,4.03-1.51,4,1.85,16.05,3.11,17.76,6.71.88,1.86.65,5.95,1.44,7.05.45.63,13.49,6.24,14.27,6.18,2.52-.2,2.14-17.26,2.48-19.93l.28-2.66c-3.21-4.15.24-10.97,2.72-15.31,4.94-39.27,9.81-78.6,14.98-117.85.5-3.82.53-7.4,1-10.99l-.7-4.87c6.29-45.77,12.61-91.55,18.96-137.35l1.71-4.59Z"/>
      <path class="cls-36" d="M172.84,491.44c9.52-2.65,22.81,1.94,31.63,5.82,88.02,38.73,74.88,215.22-24.26,225.76-2.64.28-2.99.56-1.37-1.88,101.83-22.61,101.69-211.33-5.99-229.7Z"/>
      <path class="cls-1" d="M295.67,714.15c-12.04-1.57-13.58,4.09-14.96-12.5s.37-34.16-1.01-50.42l30.29,10.15c2.47,1.15,1.8,4.83,1.65,7.31-.93,15.39-5.84,33.63-15.96,45.45Z"/>
      <path class="cls-40" d="M295.67,550.36c-6.76.31-19.07,4.66-25.27,2.8-4.21-1.26-4.3-9.66-5.68-12.79,8.48-2.56,17.99.94,25.96-3.99,2.62,5.95,3.3,7.18,4.99,13.98Z"/>
      <path class="cls-43" d="M85.63,493.66c4.73-.41,7.04,7.16,2.66,8.63-6.92,2.33-8.94-8.09-2.66-8.63Z"/>
      <path class="cls-13" d="M91.62,731.36c6.2-.51,5.95,9.99-1.13,8.81-4.3-.71-3.42-8.43,1.13-8.81Z"/>
      <path class="cls-26" d="M244.25,731.54c5.99.25,3.75,10.66-2.84,8.43-4.15-1.4-2.58-8.66,2.84-8.43Z"/>
      <path class="cls-33" d="M93.63,471.6c7.46-2.49,8.9,9.03.89,7.88-4.73-.68-4.07-6.82-.89-7.88Z"/>
      <path class="cls-48" d="M68.66,732.26c5.63-1.9,8.71,5.18,4.33,7.36-6.51,3.25-8.89-5.82-4.33-7.36Z"/>
      <path class="cls-22" d="M262.39,732.26c5.63-1.9,8.71,5.18,4.33,7.36-6.51,3.25-8.89-5.82-4.33-7.36Z"/>
      <path class="cls-44" d="M297.33,732.27c7.38-2.45,7.76,9.98.05,7.66-3.83-1.15-2.94-6.7-.05-7.66Z"/>
      <path class="cls-14" d="M222.77,214.8l-21.97,236.69c-8.64.03-17.32-.09-25.96,0l21.97-248.67c8.68,3.84,17.27,8.18,25.96,11.98Z"/>
      <path class="cls-46" d="M377.55,336.64c-8.77,48.89-13.46,103.09-19.97,152.8,2.47,4.96.68,13.8-3,17.98-1.14,34.05-4.78,68.56-11.98,101.87,2.5,5.86.72,15.77-3,20.97,2.41,5.96,1.04,16.32-2,21.97l1.81,1.22c-1.51,5.91-2.11,11.49-1.81,16.76-3.95-.24-2.55-.3-2.96,2.49-1.97,13.44-6.07,39.27-16.02,48.94-6.26,6.09-6.12.05-8.99-2.5,7.24-13.72,10.27-27.39,12.85-42.58,14.62-86.17,21.02-176.38,32.23-263.38,2.87-22.3,7.75-45.96,9.83-68.06.26-2.8-.13-5.67.02-8.48,4.34.76,8.71,1.18,12.98,0Z"/>
      <path class="cls-28" d="M593.24,332.65l-32.95,268.65c-4.73-1.35-7.58-1.54-11.98-3.99l6.13-55.29c6.43-69.7,24.73-142.73,27.82-212.36,3.64-.05,7.65,2.56,10.98,3Z"/>
      <path class="cls-56" d="M351.59,249.76c-8.1,1.79-1.96,8.4-13.26,4.76-57.86-27.54-118.17-50.33-176.15-77.49-3.76-1.77-17-6.92-17.35-10.71-.73-8.01,11.54-2.86,15.03-2.45,1.15,1.18,2.52,2.27,4,3,5.29,2.6,12,3.78,16.97,5.99,4.96-.75,12.16,2.79,16.21,6.88.69.69,1.29,1.4,1.77,2.11,9.09,1.86,17.44,5.55,24.96,10.98,42.53,18.57,86.55,36.06,127.82,56.93Z"/>
      <path class="cls-51" d="M226.77,163.87l-3,28.96c-8.33-3.64-16.65-7.32-24.96-10.99l-1.83-1.91c1.57-5.42,2.21-10.64,1.83-16.07,8.93.02,19.26-.71,27.96,0Z"/>
      <path class="cls-17" d="M289.82,59.86c-2.19-1.38-13.36-35.49-16.14-40.39-.65-3.86,7.41-6.2,9.99-4.94,3.39,1.65,13.54,34.57,17,40.07,1.16,3.85-8.99,6.43-10.85,5.25Z"/>
      <path class="cls-42" d="M121.92,11.07c1.33.16,5.65.06,6.03,1.66-1.59,8.06,2.39,37.91-1.04,43.28-2.85,1.81-7.45,1.78-9.59-1.08-1.24-1.66-1.78-38.07-.52-41.3.7-2.56,2.78-2.59,5.12-2.57Z"/>
      <path class="cls-6" d="M198.81,181.85c-6.18-2.73-11.95-6.32-17.98-8.99.93-3,1.79-6.14,0-8.99,5.96-.2,12.02-.02,17.98,0,5,3.83.07,12.76,0,17.98Z"/>
      <path class="cls-29" d="M266.7,158.88c-.29-4.32.89-8.95-.99-12.98,6.34-.81,18.99-2.73,17.97,7.39-.85,8.4-11.17,4.96-16.98,5.59Z"/>
      <path class="cls-12" d="M207.79,157.88c2.79-3.34-.64-8.1,0-11.98h14.48c2.29,0,3.63,9.37,1.26,11.75-1.7,1.7-10.97,1.5-13.74,1.24-1-.1-1.6.3-2-1Z"/>
      <path class="cls-24" d="M121.92,11.07c-1.23.64-3.28,1.32-4.07,2.42-2.67,3.74-.2,24.18.12,29.99.48,9.01-4.55,13.73,8.94,12.54-2.6,4.08-10.07,2.28-10.96-2.52-.83-4.49-.85-35.45,0-39.89.99-5.14,3.82-2.79,5.96-2.52Z"/>
      <path class="cls-45" d="M422.48,696.17c-1.85-.24-4.29.35-5.99,0-2.02-.42-5.26-2.89-7.73-3.76-23.15-8.11-48.75-13.55-71.16-22.21-.82-.32-1.62-1.41-3-1.03l3-16.95c.72-.37,1.44-.7,2.21-.91,13.64-3.61,68.27,32.48,81.9,41.8l.77,3.05Z"/>
      <path class="cls-54" d="M284.68,470.47c3.02,1.49,3.55,2.53,1.61,3.11-9.88-.06-19.73.24-29.57.89-12.93.09-26.21-.86-38.94,1-7.15-2.85-18.3-2.91-22.97-9.99h78.39c.63,0,9.55,4.33,11.48,4.99Z"/>
      <path class="cls-11" d="M292.67,473.46c-11.93.4-23.89.91-35.95,1,9.33-2.29,19.83-.38,29.45-.99l-1.49-3c2.4.82,6.16.37,7.99,3Z"/>
      <path class="cls-53" d="M235.51,90.71c-2.48,2.41-6.33.24-9.2.21-7.66-.08-38.79,1.39-43.24-.68-2.93-1.37-13.32-19.56-15.38-23.56-1.83-3.56-6.05-8.88-1.1-11.44,3.87-2,34.52-1.7,40.75-1.26,11.06.79,11.72,2.94,17.24,11.72,1.67,2.66,11.95,21.35,11.93,22.63,0,.66-.52,1.92-1,2.39Z"/>
      <path class="cls-55" d="M183.83,111.94c2.57,3.17-1.67,2.16-2.98,1.48-6.23-3.24-20.23-29.61-23.88-37.04-.61-1.25-2.08-3.51-.11-4.38,4.55,8.12,16.68,34.19,23.03,38.41,1.56,1.04,2.49,1,3.93,1.54Z"/>
      <path class="cls-37" d="M373.55,532.39c4.01.77,8.68,12.83,5.99,15.98l2.37,1.3,1.58,11.8,14.24-1.64c4.8-1.03,7.73.14,8.77,3.51,1.95,11.41,2.69,23.42,3,34.95.09,3.32-.04,6.67,0,9.99.24,5.23.67,10.37,1.31,15.44l-1.07,1c-21.72-5.58-43.72-10-66-13.26l-1.14-2.19c4.09-33.93,7.6-67.98,11.98-101.87.17-.87.7-1.96,1.39-1.85,3.59.56,17.11,19.9,18.45,24.01l-.86,2.81Z"/>
      <path class="cls-38" d="M409.5,608.29c2.7,3.49-.91,13.64,2.68,16.05l69.76,18.86c3.78,1.05,5.79,3.15,6.45,7.04.1.61-.05,1.34,0,2-1.22.52-2.16.08-3.1-.67-25.97,6.22-53.61,1.84-79.54-4.24-22.66-6.23-44.71-11.91-66.15-17.06.82-6.97,2.19-14.29,3-20.97l29.14,4.31,37.25,9.69c.86.03.54-13.22.51-14.99Z"/>
      <path class="cls-35" d="M185.83,125.92h18.97s-1.99,16.98-1.99,16.98c-8.42,2.49-8.67,3.19-18.97,3-.36-1.12.93-3.87.99-5.5.17-4.71-.94-10.4,1.01-14.47Z"/>
      <path class="cls-18" d="M388.2,731.23c5.1-1.68,8.44,7.14,3.67,8.74-6.61,2.22-7.64-7.43-3.67-8.74Z"/>
      <path class="cls-41" d="M152.67,519.7c49.59-5.09,80.69,47.87,78.08,92.08-2.83,48.02-43.18,100.2-95.52,76.58-67.93-30.65-56.86-161.03,17.44-168.66Z"/>
      <path class="cls-16" d="M315.64,625.27c-.33-2.23,1.35-3.24-1.5-3.99-3.61-.95-7.63-.92-11.19-2.8-9-4.73-1.53-6.85,4.45-7.94,4.15-.76,10.17,1.36,11.23-3.25-.76,6.03-2.28,12.34-3,17.98Z"/>
      <path class="cls-31" d="M390.53,522.4c1.69,3.23,1.91,5.77.65,7.62-.8.82-16.7,4.99-17.63,2.36-3.47-7.55-9.64-16.1-15.16-22.29-1.15-1.28-1.55-2.77-3.81-2.68.77-5.96,2.22-12.08,3-17.98,9.39,5.74,20.07,13.85,26.94,22.49,2.72,3.43,3.91,7.12,6.02,10.46Z"/>
      <path class="cls-27" d="M401.51,544.37c-.36,2.5-2.39,3.84-6.09,4.02-4.11,1-12.83,2.27-15.88-.03-1.19-4.62-3.95-11.53-5.99-15.98,2.33-1.09,16.33-3.32,16.84-4.13.67-1.06-.15-4.33.13-5.86,5.69,9.04,7.47,11.43,10.98,21.97Z"/>
      <path class="cls-3" d="M401.51,544.37c2.26,6.8,3.76,11.76,4.99,18.98-3.16-4.52-23.19,1.82-24.97,0,0-4.67-.84-10.5-1.99-14.99,7.56-1.69,14.65-.52,21.97-3.99Z"/>
      <path class="cls-25" d="M339.6,630.26l2.99-1.61c42.14,9.69,82.36,26.32,126.36,23.62,5.79-.35,11.5-2.06,17.17-2.86,2.19-.31.87,1.83,2.26,2.82.31,4.2.55,12.48-.06,16.42-1.67,10.74-26.03,6.71-33.89,7.55v19.47c0,.4-3.81,6-4.47,6.52-3.3,2.59-20.74,3.19-22.57.3-2.64-4.18.04-2.59-4.92-6.32-13.13-9.85-36.21-23.63-50.91-31.48-10.91-5.83-21.77-10.07-33.97-12.46-.05-7.37,1.14-14.69,2-21.97Z"/>
      <path class="cls-34" d="M215.78,60.01c1.42,7.27,12.16,17.39,13.79,23.69.36,1.37-.4,3.28-1.31,3.28h-41.94c-6.37-8.32-12.66-17.12-16.48-26.96h45.93Z"/>
      <path class="cls-9" d="M154.61,579.56c32.68-5.56,35.5,49.94,8.67,53.6-32.88,4.49-34.03-49.29-8.67-53.6Z"/>
    </g>
  </g>
</svg>