<?xml version="1.0" encoding="UTF-8"?>
<svg id="_Слой_2" data-name="Слой 2" xmlns="http://www.w3.org/2000/svg" viewBox="0 0 767.84 804.09">
  <defs>
    <style>
      .cls-1 {
        fill: #57596e;
      }

      .cls-2 {
        fill: #090914;
      }

      .cls-3 {
        fill: #2e2d3f;
      }

      .cls-4 {
        fill: #4e4f65;
      }

      .cls-5 {
        fill: #2d2a3c;
      }

      .cls-6 {
        fill: #0b0b18;
      }

      .cls-7 {
        fill: #bbc5d2;
      }

      .cls-8 {
        fill: #4c4d5b;
      }

      .cls-9 {
        fill: #3a3a4d;
      }

      .cls-10 {
        fill: #ccd5e0;
      }

      .cls-11 {
        fill: #5a5c71;
      }

      .cls-12 {
        fill: #2e2b3e;
      }

      .cls-13 {
        fill: #bca140;
      }

      .cls-14 {
        fill: #4d4d63;
      }

      .cls-15 {
        fill: #b6b5c3;
      }

      .cls-16 {
        fill: #bbbac8;
      }

      .cls-17 {
        fill: #363447;
      }

      .cls-18 {
        fill: #f63e3d;
      }

      .cls-19 {
        fill: #211f30;
      }

      .cls-20 {
        fill: #181725;
      }

      .cls-21 {
        fill: #201d2c;
      }

      .cls-22 {
        fill: #5d5e76;
      }

      .cls-23 {
        fill: #515569;
      }

      .cls-24 {
        fill: #7b7d93;
      }

      .cls-25 {
        fill: #1e1d2d;
      }

      .cls-26 {
        fill: #b1630e;
      }

      .cls-27 {
        fill: #24232e;
      }

      .cls-28 {
        fill: #bd6b0d;
      }

      .cls-29 {
        fill: #252335;
      }

      .cls-30 {
        fill: #4c4d5c;
      }

      .cls-31 {
        fill: #e99415;
      }

      .cls-32 {
        fill: #5e5f77;
      }

      .cls-33 {
        fill: #f9c41b;
      }

      .cls-34 {
        fill: #b9b9c7;
      }

      .cls-35 {
        fill: #090915;
      }

      .cls-36 {
        fill: #5e5f72;
      }

      .cls-37 {
        fill: #e4c359;
      }

      .cls-38 {
        fill: #626263;
      }

      .cls-39 {
        fill: #56586d;
      }

      .cls-40 {
        fill: #fac31c;
      }

      .cls-41 {
        fill: #232132;
      }

      .cls-42 {
        fill: #484a5f;
      }

      .cls-43 {
        fill: #585a6f;
      }

      .cls-44 {
        fill: #201f2f;
      }

      .cls-45 {
        fill: #5f6076;
      }

      .cls-46 {
        fill: #292639;
      }

      .cls-47 {
        fill: #75778d;
      }

      .cls-48 {
        fill: #2c2b3d;
      }

      .cls-49 {
        fill: #c2c0cd;
      }

      .cls-50 {
        fill: #302e41;
      }

      .cls-51 {
        fill: #595a71;
      }

      .cls-52 {
        fill: #fac61d;
      }

      .cls-53 {
        fill: #c1bfcd;
      }

      .cls-54 {
        fill: #5b5d71;
      }

      .cls-55 {
        fill: #090913;
      }

      .cls-56 {
        fill: #5d5d75;
      }

      .cls-57 {
        fill: #4a4a5f;
      }

      .cls-58 {
        fill: #48495e;
      }

      .cls-59 {
        fill: #fac21c;
      }

      .cls-60 {
        fill: #313042;
      }

      .cls-61 {
        fill: #ea9413;
      }

      .cls-62 {
        fill: #5b5e73;
      }

      .cls-63 {
        fill: #323041;
      }

      .cls-64 {
        fill: #191826;
      }

      .cls-65 {
        fill: #46485c;
      }

      .cls-66 {
        fill: #525269;
      }

      .cls-67 {
        fill: #f0ca36;
      }

      .cls-68 {
        fill: #f5c523;
      }

      .cls-69 {
        fill: #f7af15;
      }
    </style>
  </defs>
  <g id="_Слой_19" data-name="Слой 19">
    <g>
      <path class="cls-59" d="M310.68.72c15.48,1.9,20.23,22.04,26.14,35.28,4.76,10.67,8.56,21.77,12.81,32.64,2.84.89,5.35,3.19,3,5.99,6.02,4.25,8.1,14.94,9.28,22.28.71,3.36-.05,5.59-2.29,6.68l-2.82,3.46c-38.48,6.92-81.52,8-120.98,8.95-13.54.33-20.69-2.21-27.65-13.84-12.82-21.39-28.27-62.18-33-85.34-.19-.95-.11-1.95,0-2.98s.39-2.09.69-3.13c1.88-1.64,4.35-2.52,5.51-3.14,8.02-4.29,107.7-9.5,129.32-6.85Z"/>
      <path class="cls-35" d="M497.44,165.51l2.18-1.39c6.03,1.79,12.19,2.86,18.49,3.21l1.3,2.18c4.25-1.06,8.55-1.16,12.82-.19l82.74,14.84c3.83-1.84,8.03-1.85,12.3-1.67,3.8,1.03,5.25-.87,9,3.48,8.07,9.37,8.5,42.45-6.93,46.02-19.48,4.51-68.82-9.55-90.77-13.24-6.56-1.1-13.14-2.1-19.72-2.98l-.93.59-112.36,307.69c1,2.22-.19,2.59-2.31,2.62-2.59.04-14.26-5.38-13.67-8.62-2.1-1.39-2.28-3.71-.54-6.96,32.32-84.89,64.95-173.26,96.03-257.53,1.68-4.54,3.32-9.34,4.39-14.03,4-17.61-15.82-22.07-29.23-16.43l-1.74-1.68c-4,.48-2.93-4.59-2.14-7.63l2.55-7.21c-13.1-4.96-24.61-12.7-34.51-23.24-6.28-4.61-10.1-4.7-18.09-4.06-48.81,3.71-97.98,7.74-147.52,12.11-8.24,1.2-16.24.89-23.99-.93-1.87-.8-4.82-1.44-5.44.95-6.07.49-16.47.38-20.53-3.95-6.44,2.69-27.96-5.26-29.39-11.8-.88-4.02,3.83-9.91,7.42-7.17-.02-.71.28-1.25.67-1.81,2.71-3.92,33.09-5.01,39.28-5.18,6.61-1.22,12.97-2.54,19.09-3.98l2.88,1.98c2.2-.08,4.1-.7,5.71-1.86,43.16,3.16,87.39-1.21,130.12-8.78,6.18.45,12.5.34,18.97-.35,33.4-6.19,65.76-2.12,93.88,16.98Z"/>
      <path class="cls-38" d="M22.05,651.91c1.57.92,2.99,2.9,4.24,5.93,15.86,6.75,32.1,12.7,48.71,17.85,1.69-1.12,2.91-1.52,4.97-.81l1.33-1.65,192.72,68.37c8.24,1.67,28.14,3.79,24.9-9.75,0-2.19,1.19-2.75,3.05-3.33,3.89-1.21,58.59,16.62,61.98,20.35,1.15,1.27,1.77,2.78,2.14,4.44,1.63,21.27,5.07,29.51,28.08,30.42,7.08.28,17.79-1.13,16.63-10.35l1.73-1.62c2.96-2.37,10.77.29,13.98,2,21.06,4.53,47.04-.72,67.42-7.78,2.73-4.31,6.23-6.37,10.48-6.2l.3-2.09,141.16-26.86,26.23,6.48c10.1,1.44,26.83,2.91,23.27-11.81.15-4.95,10.53-4.01,12.77-.67l.94-1.26c.34,1.88,1.52,1.43,3.04.8,3.59-1.48,11.09-3.41,13.99-.54,8.58,4.76,22.48,5.13,30.67,9.78,4.09,2.32,2.11,3.79-1.48,4.93-98.44,19.13-196.22,41.8-294.65,60.89-16.99,3.3-25.39,7.15-42.9,2.57-23.63-6.19-50.13-16.38-73.66-24.21C229.01,739.46,115.43,696.6.15,658.82c-.19-.3-.19-2.59-.02-2.86.65-1.04,19.03-3.28,21.93-4.05Z"/>
      <path class="cls-60" d="M190.83,242.42c-25.52,89.14-52.65,178.57-81.38,268.31-7.83,25.63-15.21,51.43-21.64,76.7-7.06,27.74-11.86,56.15-9.08,84.52,1.43.45,1.61,1.36,1.24,2.94-2.22,1.44-4.31,3.61-7.23,2.82-9.62-4.64-20.05-7.24-29.97-11.06-3.86-1.49-15.19-5.3-17.72-7.24s-2.44-4.69-3-7.48c-4.54-22.51,5.05-33.35,13.98-51.94l.86-6.66c6.09-14.9,11.1-30.16,15.05-45.79l3.07-3.48c-2.63-2.53.7-9.49,3.99-10.99.05-.15,1.55-.82,2.05-2.4,31.52-98.12,58.38-197.78,88.83-296.23l2.28-1.41c12.14,3.31,24.64,5.55,37.11,7.2l1.56,2.19Z"/>
      <path class="cls-54" d="M355.62,503.09c11.77,1.93,24.86,7.26,33.96,14.98,3.89,1.82,9.27,5.38,12.99,6.54,1.47.46,2.86-.63,2.99-.54.11.08.12,1.58.96,2.48,6.69,7.09,13.36,14.3,17.01,23.49-8.98,2.55-18.25,4.81-27.46,6.76l-1.51-.77c-2.16,1.56-5.06,2.65-8.71,3.29-3.9,4.2-12.45,2.72-18.14,1.56-13.29-4.4-23.82-5.68-37.65-3.84-11.15,1.49-22.59,3.02-33.93,4.89-36.91,7.58-74.05,13.58-111.4,17.99.19,1.13-.04,2.07-.89,3.08,1.15.79,1.04,1.93-.34,3.42-15.4,3.62-30.91,6.98-46.52,10.08-5.4-10.06-11.16-19.87-17.28-29.44-5.21-3.11-7.46-6.78-6.76-11.02,1.03-14,5.08-28.73,11.98-40.95.35.15.69.26,1,.21,46.37-7.53,93.52-14.86,140.46-20.73,20.58-2.57,45.81-4,66.11-.46,5,.87,19.53,3.7,22.05,7.05.44.58.77,1.25,1.07,1.94Z"/>
      <path class="cls-1" d="M706.17,629.94l-2.64,2.32c-11.99,2.98-24.06,5.43-36.19,7.34l-266.67-77.85c-4.03-.02-7.06-.92-9.09-2.72-.91-1.86,2.32-2.64,3-1,8.86-3.25,19.36-6.01,28.96-6.99,87.96,23.97,176.22,47.09,263.87,72.19,6.16,1.76,13.63,3.1,18.76,6.71Z"/>
      <path class="cls-61" d="M194.83,214.45l1.83,3.56c.44,4.08,1.41,23.03.46,25.19-.65,1.48-6.67,2.24-6.29-.78-11.01-1.22-30.5-4.75-40.95-7.99-44.9-13.92-46.63-73.19-36.95-110.86,1.89.19,2.7,1,2.73,2.79-3.41,48.98,28.22,81.08,76.85,85.64l2.31,2.45Z"/>
      <path class="cls-33" d="M133.91,92.6l.03,2.74c-15.15,17.21-4,43.74,7.3,60.22,13.94,20.33,29.23,25.75,51.85,32.04,4.06.46,6.97,1.75,8.73,3.87.87.28.86.62,0,1l.55,2.47c-3.78,5.21-4.88,11.74-5.43,18.04l-2.11,1.46c-21.24-3.84-46.3-9.29-61.43-25.96-9.34-10.29-17.95-29.77-19.34-43.58-.7-6.98,1.1-14.75-1.12-21.35,4-15.58,6.78-24.1,19.97-33.96,2.95-.76,2.82,1,1,3Z"/>
      <path class="cls-68" d="M391.57,559.03c3.88-.15,7.5-.03,11.19,1.29l265.21,77.43c12.72-1.21,25.55-6.63,38.19-7.81,8-.74,37.67,7.3,44.94,11.99-.03,1.06-.1,2.27-.84,3.07-7.32,7.94-40.1,13.41-50.09,6.92l-1.04,1.18c-3.25-.98-6.56-2.04-9.94-3.17l-3.54.67c-32.85-11.05-66.7-21.22-101.56-30.49-64.43-16.96-128.47-35.25-192.11-54.87-12.54-2.31-6.52-8.79-.4-6.19Z"/>
      <path class="cls-19" d="M700.17,651.91c9.27,2.78,16.85,12.01,20.81,18.93,9.27.18,32.22-.88,37.47-9.08.6-3.93,2.14-5.88,4.64-5.85,5.62,10.82,5.29,24.38,3.87,36.33-.83,6.97-2.8,20.05-8.91,24.05-5.52,3.62-24.63,6.48-31.91,7.54-7.33,1.07-10.69,1.59-17.98,1,3.23-3.14,5.05-5.31,6.38-9.99,6.53-23.02-.97-51.01-23.73-61.94l-1.62-2.97c3.78.08,7.28,1.44,10.99,2Z"/>
      <path class="cls-36" d="M181.85,70.63c1.04.45,2.09,1.02,2.7,2.01,4.02,6.45,1.33,7.93-4.7,7.98l-1.96,2.25c-11.36,1.79-21.99,7.37-30.08,15.52l-2.92.21c-22.72,35.96,15.21,54.45,46.5,54.11l1.43,1.82c2.23.94,3.69,6.17,2,7.99l-.23,1.36c-3.42.39-6.01,1.94-7.76,4.63-18.91,9.56,15.46,17.69,21.97,18.98,1.17,3.48-4.21,5.35-6.99,4-3.95.64-34.61-10.12-39.62-12.82-24.01-12.93-52.77-64.16-28.29-86.06-.28-1.64.58-2.9,2.56-3.77l16.41-9.21c9.45-3.39,19.27-6.32,28.96-8.99Z"/>
      <path class="cls-26" d="M359.62,103.59c2.77,1.63.85,6.51-2,6.99-3.69,3.51-8.85,5.29-15.46,5.34-38.74,2.41-77.45,4.47-116.13,6.19l-4.23-1.55c-2.77,2.11-10.6-2.12-13.25-4.32-6.25-5.19-14.6-25.61-17.14-33.81l1.43-1.82-2.78-1.56c-6.74-14.68-15.45-33.92-19.44-49.31-1.13-4.35-2.5-9.87-.75-14.05,1.53-1.73,4.13-3.5,5.99-4.99,4.11,19.88,10.92,38.95,18.8,57.6,3.8,8.99,13.79,33.06,19.63,39.29,7.3,7.8,20.95,6.49,31.02,6.02,29.26-1.38,59.7-2.62,88.83-5.05,8.36-.7,18.24-1.02,25.48-4.98Z"/>
      <path class="cls-45" d="M527.4,165.51c-1.04,2.45-3.7,3.78-7.99,4-9.62-1.25-12.11-.71-21.97-4-19.05-11.44-36.08-25.24-51.1-41.42-1.13,10.14-6.25,17.32-15.82,19.45-2.79-2.31-4.46-4.98-4.99-7.99l.8-2.14c17.88-4.84,9.13-18.5-1.08-27.21-18.68-15.93-45.48-25.27-69.5-29.23l-3.13-2.35c-.69-1.8-2.22-4-3-5.99,33.38,2.61,66.74,18.88,92.36,39.97,14.24,11.72,25.63,26.46,40.75,37.15,13.84,9.79,28.4,15.24,44.66,19.75Z"/>
      <path class="cls-11" d="M763.09,655.91c-1.96,2.29-1.78,5.37-3.54,7.95-4.96,7.28-31.63,10.02-40.2,8.82-3.76-9.15-12.05-14.5-19.18-20.76,16.26,2.47,37.56.32,50.93-9.99,4.47,2.88,9.53,9.26,11.98,13.98Z"/>
      <path class="cls-20" d="M55.01,544.04c-5.64,19.6-9.82,36.87-18.98,55.93-2.52-11.44-3.32-25.74-1.98-37.44.85-7.45,2.73-14.84,7.97-20.49,3.39-2,11.66-1.8,12.98,2Z"/>
      <path class="cls-5" d="M527.4,165.51c33.32,5.47,67.21,8.15,99.87,16.98l-12.31,3.63c-31.91-4.96-63.52-12.43-95.55-16.61,2.02-2.32,5.01-3.5,7.99-4Z"/>
      <path class="cls-21" d="M192.83,80.62c-2.8,2.87-10.07,2.66-12.98,0l4.99-1c-1.15-3-2.06-5.9-2.99-8.98-3.79-12.6-13.93-31.26-15.74-42.68-.93-5.88.02-8.01,3.75-12.25,1.48,4.75,1.54,9.68,2.95,14.53,4.08,14.08,14.2,35.74,20.02,50.39Z"/>
      <path class="cls-23" d="M59.01,533.06c-1.1,3.41-3.37,8.8-3.99,10.99l-12.98-2c4.37-4.71,10.77-7.67,16.98-8.99Z"/>
      <path class="cls-27" d="M423.53,550.04v1c-9.09,2.74-19.53,6.34-28.96,6.99-2.72-.4-2.45-.98,0-2,9.52-2.21,19.04-5.76,28.96-5.99Z"/>
      <path class="cls-37" d="M152.88,79.62c-5.03,5.27-13.7,8.26-18.98,12.98l-1-3c7.95-5.94,10.78-6.69,19.97-9.99Z"/>
      <path class="cls-44" d="M344.63,70.63c1.22,3.88-1.55,5.62-8.31,5.21-42.74.44-84.92,1.52-126.13,6.65l-1.38-1.87c-9.01-20.52-17.03-41.5-25.04-62.44-.38-5.55,3.77-7.68,8.64-8.39,17.89-2.62,96.16-6.28,115.77-4.08,9.23,1.04,12.42,6.11,16.36,13.61,8.19,15.62,13.69,34.78,20.09,51.32Z"/>
      <path class="cls-2" d="M438.46,124.98c-.9,6.52-7.01,9.86-12.93,10.57-.69,1.02-1.57,1.87-2.75,2.28-3.43,1.17-27.47.7-32.98.44l-3.22-1.72c-.54,3.01-2.93,4.36-4,1-.44.16-.88.28-1.31.25-1.39-.08-18.5-17.2-20.05-19.13-1.37-1.05-2.14-2.04-2.31-2.98h0c-.14-.74.1-1.44.7-2.11-2.72,1-4.13-.87-1.99-3-.16-1.47,1.68-4.89,1.99-6.99,1.71-11.31-3.08-18.72-6.99-28.96,15.09,1.39,31.7,6.62,45.62,12.81,12.02,5.34,42.38,21.99,40.22,37.54Z"/>
      <path class="cls-12" d="M208.81,80.62l52.39-5.04c25.66-1.85,52.43.21,77.93-1.97,1.54-.13,6.28-.27,5.5-2.98,1.95,5.05,9.65,15.65,6.5,20.99-1.41,2.39-19.99,3.64-23.99,3.97-25.91,2.17-52.85,3.02-78.88,4.02-8.86.34-26.09,4.15-32.48-3.49-3.41-4.07-4.88-10.71-6.98-15.49Z"/>
      <path class="cls-64" d="M389.58,518.08c-11.21-5.25-22.74-9.8-33.96-14.98l102.87-281.65,14.48-2.98c7.22-.14,17.87,6.37,19.27,13.72,1.28,6.72-7.98,29.02-10.76,36.73-28.81,79.77-59.17,159.22-88.92,238.67-1.25,3.33-3,6.9-2.98,10.51Z"/>
      <path class="cls-41" d="M380.69,140.55c.3.46.92.83,1.89.99l-1.89-.99ZM399.18,148.42h-.07c-4.21-.21-8.4-.79-12.56-1.74-1.04-5.89-2.37-7.6-3.97-5.14-4.02,2.94-8.67,2.32-12.98,3-3.33.53-5.74.62-8.99,1-1.68.19-3.57.78-5.99,1-1.64.15-3.35-.12-4.99,0-1.94.14-4.31.84-6.99,1-1.32.07-2.67-.02-4,0-.66,0-1.33-.03-2,0-1.14.4-2.47.73-3.99.99-6.4.08-12.59.87-18.98,1l-5.99,1c-1.33.02-2.66,0-3.99,0-2.32,0-4.69.14-7,0-.56,1.38-2.79,1.17-3.99,1-13.25-.01-21.18,2.6-33.96-2,1.91.23,2.24-.1,1-1,8.58,2.83,19.86,2.36,28.97,2,.27-.01.68-.08,1.18-.19.15-.03.31-.06.47-.1h.01c1.23-.27,2.84-.63,4.33-.71,1.95-.09,4.03-.08,5.99,0,4.62-1.06,10.72-1.66,15.49-1.98,6.78-.47,13.67-.5,20.46-1.01,1.98-.15,4.02.16,6,0,1.93-.17,4.52-.77,6.99-1,1.63-.16,3.36.17,4.99,0,.99-.1,3.13-.76,4.99-1,2.63-.34,5.4-.54,7.99-1,1.88-.33,5.26-.38,7.29-1.65-1.93.32-4.29.65-7.01.99-.28.04-.57.07-.87.11-2.11.25-4.42.51-6.89.76h-.01c-.35.04-.7.07-1.06.1-1.34.14-2.73.28-4.16.4-.29.03-.58.06-.87.09-1.34.12-2.72.24-4.12.36-.26.02-.52.04-.78.06-1.94.16-3.93.32-5.97.47-.41.03-.83.06-1.25.09-1.6.12-3.23.23-4.88.34-.59.04-1.19.08-1.8.12-10.62.68-22.07,1.2-33.12,1.43-17.13.36-33.3.01-44.01-1.55-2.27-.34-4.31-.73-6.04-1.18-2.57-.66-4.5-1.46-5.65-2.4l-1.64.46c-1.85-.45-3.3.88-3.22,2.24.02.64.39,1.29,1.22,1.76l-.43,2.26c3.3,3.42,5.44,7,6.43,10.72,51.4,4.37,103.89-3.48,154.8-10.99-1.47.01-2.92-.02-4.38-.11Z"/>
      <path class="cls-17" d="M234.78,190.48c-1.27.03-5.04-.82-4.99.99,18.67,3.56,37.44,7.11,55.94,11.48,8.76,2.07,26.05,5.07,32.94,9.5l-1.18,2.36c-8.35,2.08-12.11,9.35-13.19,17.35-.28,3.7-3.44,30.31-6.26,30.27-.32,0-.6-.6-.48-.99.29-.97.53.6.13,1.95-2.93-.43-6.37-.62-8.99-2,3.94-3.11,5.81-7.76,5.61-13.93.2-11.05,1.06-21.21,5.1-31.46l-96.84-21.31-.76-2.21v-1c.85-.14,5.82-3.11,6.99-4,6.96,1.37,13.51,2.29,20.44,1.95,1.65-.08,4.5-.55,5.53,1.04Z"/>
      <path class="cls-65" d="M497.43,165.51c-14.59-4.86-26.26-12.86-41.76-15.66-17.15-3.1-34.79-2.52-52.11-1.32-.7-.14-2.34-.15-4.38-.11h-.07c-5.57.12-14.06.62-14.53.12-.19-.19.21-3.84-.2-5.34-.32-1.16-1.76-1.54-1.8-1.66-.97-.16-1.59-.53-1.89-.99-.67-.98.1-2.38,1.89-3,1.44.39,3.05-.9,4-1,1.62,1.38,2.45,3.85,2.49,7.39,1.94,3.97,34.26.31,39.62-1.6l1.83,1.2c.8-.74.82-2.3,1.27-2.68.96-.8,3.11-.69,4.69-1.85,6.48-4.75,6.41-8.94,8.04-15.94.21-.9-.41-2.22,1.46-1.49,4.64,1.81,16.65,16.19,21.48,20.48,9.53,8.44,20.9,14.73,29.97,23.45Z"/>
      <path class="cls-8" d="M242.77,146.54c1.3.27,7.15,10.39,9.98,11.49l-3.99,1.49c-7.64-.12-14.46,1.18-21.97,2-.87-.28-.86-.62,0-1l.87-2.11c8.67.16,17.38-2.91,6.54-8.7l-.42-2.17c-1.27-3.98,8.72-4.78,8.99-1Z"/>
      <path class="cls-30" d="M226.79,160.52v1c-10.28,1.12-31.52,2.73-39.95,6.99-1.11-5.52,3.77-5.54,7.99-5.99.49-.56,1-1.08,1.59-1.5,2.13-1.5,22.2-2.21,26.7-2.13l3.67,1.63Z"/>
      <path class="cls-2" d="M201.82,192.48l99.87,21.98c.76.86-3.47,11.18-3.91,13.56-1.55,8.33-.5,18.01-2.54,26.42-1.14,4.72-1.2,6.89-6.54,6.95l-82.81-14.91c-27.21,89.45-53.97,179.08-80.97,268.6-4.1,13.6-7.81,27.38-11.98,40.95l.57,4.57c-4.92,11.94-8.78,24.13-11.58,36.57,1.79,2.26,1.8,3.86.02,4.8l1.02,2.09c-6.43,21.04-.26,35.02,22.01,39.64l2.94,3.21,7.85,1.81c79.65,29.92,158.49,61.83,236.53,95.74,2.53,11.51,7.99,15.73,19.24,18.75l20.56,6.35.45,2.2c4.79,21.13-38.28,14.91-44.15,3.7-3.19-6.1-2.75-22.29-5.8-25.16-1.9-1.79-20.41-8.08-24.44-9.52-5.15-1.84-34.55-12.2-37.47-9.96,4.89,15.95-17.09,15.01-27.2,12.71l-193.52-68.65-3.04-1.64c-.53-6.65-1.1-13.16-1-19.88.52-36.36,9.72-66.06,19.31-100.54,22.21-79.86,49.08-158.35,72.89-237.72,6.95-23.18,12.76-46.86,20.01-69.92.52-1.65.23-3.25,2.69-2.75,1.61.18,3.37-.11,5,0-.62-9.28-1.63-18.64-1-27.97.5-7.5,1.84-16.27,6.99-21.97Z"/>
      <path class="cls-31" d="M127.92,646.92c-6.92-2.6-10.86-30.41-5.86-33.72.99-.66,1.92-1.07,3.1-.78l243.91,89.09c1.24-.99,2.75-2.2,4.53-3.65-2.71-1.33-1.08-7.33,2-6.99,13.72,6.44,28.16,11.52,43.3,15.25l1.64,2.73c3.67,1.73,6.12,9.07,6.92,13.17,2.44,12.54,1.54,36.21.77,49.66l-1.69,2.1c-3.48,1.26-10.06-.89-13.98-2-7.62-2.16-28.68-8.18-34.29-12.15-4.82-3.42-5.79-8.37-7.19-13.78-79.58-35.86-162.4-65.33-243.15-98.91Z"/>
      <path class="cls-6" d="M394.57,556.03v2c-1.08.08-2.53-.33-3,1-1.59.06-5.62-.11-5.99,1.99,79.55,26.43,161.36,45.53,241.68,69.43,18.6,5.54,44.79,11.94,61.92,19.47,24.05,10.57,32.45,34.66,28.51,59.98-.67,4.3-3.53,16.48-9.54,14.93-3.67-.3-7.33-.3-10.98-.99,1.45,10.23.36,14.54-10.6,15.86-14.49,1.75-27.12-3.67-40.78-6.91l-141.37,26.99c-6.33,2.61-7.42-1.43-3.26-12.14-.24-6.45,1.26-11.63,4.48-15.52l193.43-37.19c4.78-3.36,7.48-8.38,8.09-15.06-2.82-.68-3.96-4.91-2-6.99l-2.38-.45c-1.93-5.21-5.59-8.63-10.47-11.13l-.13-2.4c-5.8-.94-11.5-2.86-17.09-5.75-94.81-27.94-190.27-55.73-286.35-83.38-15.17-4.05-30.66-7.29-46.4-7.63l-154.99,23.64-1.51-1.79c-1.6,2.18-2.22,1.66-2-1-1.49-1.62-1.07-2.85-1-4.99,46.68-3.49,92.2-16.07,138.46-21.84,7.54-.94,17.4-2.58,24.81-2.12,9.93.61,21.62,6.09,30.97,6.06,4.53-.02,12.43-2.91,17.48-4.08Z"/>
      <path class="cls-46" d="M707.16,679.88c.11.64,1.13,1.32,1.08,3.39-.13,4.53-4.01,11.98-8.59,13.56l-193.54,37.17c-2.17,1.15-2.37,10.55-2.98,14s-2.34,7.21-2.66,10.34c-.28,2.69,2.49,1.07,3.95,1.44-5.89,1.7-6.44,6.44-10.72,8.75-8.15,4.39-44.69,9.3-54.69,9.32-3.05,0-11.72-.77-12.48-4.09-1.14-4.98-.02-19.28-.04-25.51-.03-10.34,1.29-18.31-1.81-29.07-.96-3.32-4-7.72-4.14-10.34-3.11-1.94-1.47-6.61,2-6.99.07-2.45,3.92-2.75,4.99-1l2.72,1.18c3.92,8.75,9.29,15.82,19.16,17.42,15.01,2.44,33.58-2.38,47.91-6.69l2.12,1.07c1.95-.22,3.93,1.24,5.95,4.38,67.97-12.38,135.24-25.16,201.79-38.34Z"/>
      <path class="cls-69" d="M147.63,286.53c8.15-1.66,14.43,7.1,14.91,14.47l-83.5,278.55c-6.15,12.44-19.78,6.44-21.84-5.31,26.86-94.9,56.12-189.54,85.25-283.84,1.06-1.54,3.35-3.49,5.19-3.87Z"/>
      <path class="cls-3" d="M378.59,558.02c-5.79-.87-11.02-3.51-16.77-4.69-24.45-5.03-44.85,1.87-68.78,5.53-36.87,5.64-73.74,11.3-110.72,16.23-4.63-.5-6.14-8.49-8.64-12.39-4.31-6.72-17.32-16.97-5.36-21.69,25.27-9.97,63.17-8.91,90.05-14.82,34.35-.65,70.3-16.97,100.57,6.04,3.46,2.63,23.18,22.19,19.64,25.79Z"/>
      <path class="cls-25" d="M183.84,583c.35.38,1.48.59,2,1,2.58,1.45.74,4.65-2,4-.29,1.58-2.62.69-3.99,0-2.71,2.55-6.55,4.06-11.51,4.53-7.17,2.93-14.31,4.41-21.44,4.46-.58,1.98-2.91,2.65-6.99,2,.64,4.62.5,8.88-.41,12.78l-1.59.2-1.74,1.46c-11.1-4.56-22.87-9.06-34.21-11.45-.08-1.72-1.79-2.93-1.99-4.57-.7-5.57,10.62-33.69,12.98-41.38.26,4.19,5.69,6.76,8.5,9.97,7.78,8.9,10.25,19.23,16.12,28.87,13.48-4.05,29.82-4.47,42.97-8.7,1.91-.61,3.45-.46,3.32-3.18Z"/>
      <path class="cls-40" d="M269.73,517.06l-69.36,11.04c-8.29-.03-16.05.53-24.06-1.99-3.46-1.09-8.96-2.83-7.44-7.03l77.44-11.03c3.26-.02,19.13,3.64,21.73,5.22,1.89,1.15,1.93,1.59,1.69,3.79Z"/>
      <path class="cls-55" d="M244.76,142.54l-2,4c-2.02-.42-7.53-.46-8.98,1-.1.47-.22.91-.47,1.27-.59.84-18.38,2.16-19.51-.28-.91.17-1.82.34-2.74.51-.03,0-.05,0-.08.02-3.59.65-7.22,1.24-10.87,1.69-14.5,1.79-29.25,1.43-42.53-5.6-15.69-8.31-22.64-25.26-15.89-40.78.85-1.95,1.91-3.88,3.2-5.77,8.41-9.48,21.84-16.71,34.96-17.98.99-.1,1.97-.16,2.95-.19,3.35-.12,6.63.07,10.03.19,3.19,8.04,10.39,27.55,15.97,33.18,3.72,3.74,9.06,4.39,12.99,6.77,2.18.26,3.97.76,5.36,1.5,2.29,1.19,3.5,3.03,3.63,5.49.54-.15,1.07-.27,1.62-.29.31-.01.85.33,1.53.91,3.44,2.92,10.58,12.02,10.83,14.36Z"/>
      <path class="cls-10" d="M233.78,147.54c1.82.29,5.71,2.29,6.48,4.01.56,1.26.92,6.56.5,6.96-.51.49-12.02,1.78-13.97,2.01-10.39,1.23-21.81.9-31.96,2-1.57-2.47-2.38-5.02-2-7.99l1.04-2.26c6.51-1.78,13.22-3,19.94-3.74,4.33-.6,16.09-1.63,19.97-1Z"/>
      <path class="cls-9" d="M213.8,148.54c-7.25,1-15.14,4.97-20.97,5.99-8.2,1.44-26.21-3.03-34.22-6.23-22.24-8.89-30.49-30.79-13.72-49.7-8.4,19.64-2.88,37.7,16.99,46.43,16.49,7.24,34.5,3.93,51.92,3.51Z"/>
      <path class="cls-63" d="M359.61,113.58c-.02.78-.27,1.47-.7,2.1h0c-2.32,3.42-9.78,4.71-13.56,5.1-35.67,2.36-71.27,4.5-106.78,6.41-1.71.64-3.26.97-4.64.99-1.16.01-2.21-.2-3.15-.62-1.86-1.75-6.88-5.71-8.99-6.99,15.52.48,30.93-2.18,46.4-3.04,18.59-1.03,37.38-.65,55.96-1.96,11.14-.79,22.86-1.59,33.47-4.99.04.42,1.54,2.3,1.99,3Z"/>
      <path class="cls-7" d="M425.53,135.55c2.71,2.37,5.79,3.73,4.99,7.99-1.96,1.82-11.2,2.63-14.49,2.99-5.36.6-23.42,2.22-27.02.07s-2.36-6.67-2.44-10.05c12.74-1.38,27.03.43,38.95-1Z"/>
      <path class="cls-48" d="M273.11,45.99c7.44,4.52,14.8,9.27,22.6,13.14,17.21,8.54,2.73,8.74-6.75,9.61-13.19,1.21-30.34,2.55-41.9.4-4.11-.75-6.34-3.58-8.32-7.29-2.64-4.81-5.48-11.95-6.9-17.3-.98-3.92-1.22-5.69,1.27-7.54,4.3-2.69,14.83-2.97,20.64-3.33,20.19-1.23,12.71,8.65,19.36,12.31Z"/>
      <path class="cls-39" d="M303.69,65.64c-14.05-4.28-49.38-28.4-49.94-31.96,7.92-1,25.01-1.74,34.07-.91,1.69.15,3.13,1.24,3.75,2.81,3.3,8.27,13.35,24.8,12.11,30.06Z"/>
      <path class="cls-14" d="M382.41,141.65c-2.12,2.39-6.84,2.95-10.18,3.38-6.37.79-12.65,1.51-19.01,2.16-13.39,1.35-26.71,2.29-40.09,3.56-10.69.54-21.36,1.77-32.04,2.18-5.86.3-11.85.41-17.51-.94-1.76-.51-4.93-2.16-5.28-2.82.69-.61,6.88,1.5,8.53,1.65,22.43,2.91,45.67-3.49,68.4-3.61,10.7-.05,21.28-1.38,31.89-2.84,3.92-.59,10.83-1.56,9.85-6.85-1.18-4.68-6.34-9.84-10.95-12.87-3.66-2.32-7.93-2.85-12.18-2.8-36.19.24-72.75,5.27-109.18,7.11-2.69.37-5.06.84-4.98,3.47.4,3.37,4.71,7.07,6.25,9.22.33.39,1.28,1.69.17,1.57-1.49-.04-5.59-4.09-7.09-6.42-4.11-5.59-9.74-9.96-.66-10.67,35.91-2.81,74.86-2.69,110.84-6.89,4.36-.53,9.14-6.29,12.24-2.26,1.59,2.07,4.2,3.75,6.26,5.9,2.5,2.71,5.25,5.54,7.96,8.08,2.61,2.96,10.25,6.78,6.86,10.61l-.08.09Z"/>
      <path class="cls-22" d="M258.74,149.53c-4.76-1.71-9.85-3.93-13.98-6.99l1.64-.46c1.15.94,3.08,1.74,5.65,2.4-5.76-3.95-11.5-9.81-12.28-14.92,36.8-1.7,73.52-5.69,110.34-7,4.48-.16,5.55-2.08,10.91.11,4.05,1.65,16.53,12.87,15.45,17.18-.23.91-.81,1.56-1.58,2.04-2.03,1.27-5.41,1.32-7.29,1.65l.28-.66.64-1.48c15.76.73-6.54-18.29-12.28-17.77-37.55,2.87-75.95,5.39-113.85,7.76,3.31,6.34,9.33,11.11,15.7,14.27.47.23.94.45,1.42.67l.23,2.2c1.24.9.91,1.23-1,1Z"/>
      <path class="cls-22" d="M382.58,137.55c-.44.16-.88.28-1.31.25-1.39-.08-18.5-17.2-20.05-19.13-1.37-1.05-2.14-2.04-2.31-2.98-2.32,3.41-9.78,4.7-13.56,5.09-35.67,2.36-71.27,4.5-106.78,6.41-1.71.64-3.26.97-4.64.99,3.44,2.92,10.58,12.02,10.83,14.36-5.52-4.1-9.02-10.33-13.98-14.98,3.52-2.43,9.95-2.59,14.49-2.99,31.18-2.68,62.7-1.39,93.86-5.01,7.68-.89,14.04-1.4,20.48-5.98,4.5,6.93,21.13,18.36,22.97,23.97Z"/>
      <path class="cls-22" d="M382.58,141.54c-.97-.16-1.59-.53-1.89-.99-.67-.98.1-2.38,1.89-3,.32.98-.3,2.96,0,3.99Z"/>
      <path class="cls-34" d="M262.74,92.6c-.77.8-12.61,1.17-9.96-4.94,2.78-1.32,8.5-1.74,9.8,1.61.26.66.31,3.18.16,3.34Z"/>
      <path class="cls-15" d="M314.67,88.6c-.32.49-6.71,1.56-7.83.85-.26-.17-2.53-5.48-2.15-5.82,2.69-1.08,12.56,1.03,9.98,4.97Z"/>
      <path class="cls-53" d="M277.73,91.6c-1.61,1.66-11.49-.64-8.99-5.98,3.41-1.8,12.11,2.77,8.99,5.98Z"/>
      <path class="cls-49" d="M289.68,90.58c-1.57,1.81-9.16-.43-7.96-4.43,1.41-4.7,11.06.87,7.96,4.43Z"/>
      <path class="cls-16" d="M301.69,90.6c-4.19.73-8.23-1.44-7.98-5.98,4.85-.56,8.68.23,7.98,5.98Z"/>
      <path class="cls-35" d="M297.7,263.39c-2.31-1.79-2.18-.21-1.01-2.5,8.66-17.03-1.09-43.37,21.99-48.44.45.29,1.48.04,2.43,1.02,7.9,8.08,5.1,36.62-1.44,45.42-5.89,7.93-13.41,5.74-21.96,4.5Z"/>
      <path class="cls-51" d="M336.64,146.54c-6.79.51-13.68.54-20.46,1.01-4.77.32-10.87.92-15.49,1.98l1.41-2.32h.01c4.17-.6,8.5-1.18,12.88-1.64h.04c5.5-.56,11.06-.91,16.41-.77h.02c.18.01.36.01.54.02,1.14.04,2.2.45,3.22.96.48.24.96.5,1.42.76Z"/>
      <path class="cls-66" d="M258.74,149.53l1-1c1.24.9.91,1.23-1,1Z"/>
      <path class="cls-66" d="M288.71,150.53c-9.11.36-20.39.83-28.97-2l2.53-1.33c7.92,1.94,16.14,1.71,24.22,1.42l2.22,1.91Z"/>
      <path class="cls-66" d="M290.36,150.24c-.16.04-.32.07-.47.1-.5.11-.91.18-1.18.19.36-.09.69-.16,1-.21.23-.04.45-.06.65-.08Z"/>
      <path class="cls-56" d="M367.6,143.54c-2.59.46-5.36.66-7.99,1,.15-.29.32-.55.5-.79h.01c1.66-2.14,4.77-2.45,6.89-.76.21.16.4.35.59.55Z"/>
      <path class="cls-14" d="M349.63,145.54c-2.47.23-5.06.83-6.99,1,.03-.5.22-.94.51-1.31,1.27-1.63,4.53-1.97,5.97-.47.22.22.39.48.51.78Z"/>
      <path class="cls-4" d="M359.61,144.54c-1.86.24-4,.9-4.99,1,.01-.5.11-.93.27-1.29.73-1.6,2.75-1.79,4.16-.4.2.2.39.43.56.69Z"/>
      <path class="cls-57" d="M294.7,149.53c-1.49.08-3.1.44-4.33.71h-.01c-.16.04-.32.07-.47.1-.06-.01-.12-.02-.18-.02-.33-.01-.67.05-1,.21.33-3.09,4.47-3.75,5.99-1Z"/>
      <path class="cls-22" d="M300.69,149.53c-1.96-.08-4.04-.09-5.99,0,1.86-2.84,4.16-2.8,5.99,0Z"/>
      <path class="cls-51" d="M342.64,146.54c-1.98.16-4.02-.15-6,0,.08-.33.21-.63.38-.88,1.05-1.63,3.54-1.68,4.88-.34.33.32.59.73.74,1.22Z"/>
      <path class="cls-32" d="M354.62,145.54c-1.63.17-3.36-.16-4.99,0,.05-.32.14-.6.27-.84.81-1.65,3.03-1.7,4.12-.36.29.32.49.72.6,1.2Z"/>
      <path class="cls-50" d="M381.59,139.85c-.25.91-.87,1.56-1.7,2.04-2.18,1.27-5.82,1.3-7.84,1.65-17.43,3-84.35,7.78-84.64,7.79-9.79.36-18.34,1.54-28.67-2.8-2.3-.97-5.32-2.17-8.27-4.05-6.19-3.95-13.42-10.09-14.26-15.2,39.55-1.7,118.24-10.52,128.76-6.61,4.36,1.62,17.77,12.87,16.61,17.18Z"/>
      <path class="cls-28" d="M137.9,611.96l14.82,4.31c72.11,26.8,144.28,53.47,216.5,80.01,2.15-.83,3.61-.3,4.37,1.57-.63,2.01-1.31,3.96-2.1,5.91l-2.93-.34-244.15-89.2c-3.21.24-2.62,7.87-2.46,10.21.45,6.85,2.6,16.54,5.97,22.48-13.73-5.71-27.32-6.26-29-24.43-.4-4.27.28-17.41,3.04-20.52,1.11-1.24,3.66-1.03,5.23-.8,6.34.92,23.77,8.09,30.72,10.79Z"/>
      <path class="cls-29" d="M377.59,683.87c1.59-.45,1.59.22,0,2,1.49,1.76.67,5.26-2,4.99-1,2.71-1.25,4.63-2,6.99l-4.77.35c-77.23-28.12-154.49-56.53-230.92-86.24,2.74-4.47-2.95-9.12,2-12.98l2.59-.35c78.37,26.97,156.58,54.61,234.61,82.94l.5,2.3Z"/>
      <path class="cls-52" d="M377.59,685.87c1.24-2.31,4.92-4.14,7.68-4.8,12.73-1.41,24.95-3.88,36.66-7.42-.84-1.64,1.28-3.02,2.91-3.39,2.18-.5,35.09,10.97,39.66,12.6s9.44,3.43,14.16,5.17c8.17,3.29-5.72,6.98-9.81,7.55-14.76,2.07-30.36,3.65-44.32,4.89l-2,1.38c-.75,2.32-2.14,4.36-2,6.99-12.76-4.87-31.24-8.26-42.97-14.5-2.01-1.07-2.45-.39-1.98-3.48.59-1.61.17-3.34,2-4.99Z"/>
      <path class="cls-42" d="M692.18,658.9l-.3,2.09c-65.6,12.95-131.23,25.75-196.88,38.42l-1.56-1.57c-3.08.09-8.93-4.86-8.99-7.99-1.79,1.16-3.37.69-4.74-1.43-98.65-32.25-196.94-65.4-294.87-99.45-1.14.63-1.65.17-1-1l2-4,156.43-23.84c27.08.44,54.39,9.99,80.48,17.13,64.86,17.75,129.08,38.01,193.54,57.14,23.21,6.89,55.51,12.47,75.9,24.47Z"/>
      <path class="cls-47" d="M705.17,672.88l-.32,2.09c-67.6,12.86-135.21,25.72-202.83,38.59l-1.59-1.73c-4.26.51-8.04-10.57-6.99-13.98l198.74-38.95c7.57,4.46,9.32,5.51,12.98,13.98Z"/>
      <path class="cls-58" d="M705.17,672.88c1.36,3.15,1.43,3.65,2,6.99l-2.47,3.09-200.82,37.56-4.44-6.7c-1.9-1.87-1.67-2.37,1-2l204.73-38.95Z"/>
      <path class="cls-62" d="M493.44,697.85c3.34,4.77,3.53,9.6,6.99,13.98-.39.49-.65,1.74-1,2-4.36,3.24-28.3,7.38-34.58,7.86-20.2,1.55-29.05-1.75-37.32-20.85l1.43-1.2c17.05,0,33.46-2.24,49.22-6.76,2.29-2.59,4.39-3.6,6.27-3.03,3.69,2.22,6.49,4.42,8.99,7.99Z"/>
      <path class="cls-67" d="M484.45,689.86c-5.42,4.94-14.75,6.39-21.79,7.67-12.06,2.21-23.68,1.34-35.14,3.31-1.6.28-3.45-.24-4.99,1,.23-.72-.24-2.07.01-2.97,15.44-.41,32.94-.84,47.96-4.49,2.54-.62,6.17-1.34,8.33-2.65,1.25-.76,2.22-1.25.64-2.39l-52.5-17.52c-2.75.09-4.34,2.66-7.19,3.8-10.64,4.23-34.9,3.63-42.19,10.24v-2c-.13-2.25,1.94-3.46,3.99-3l1.08-1.68c12.22-2.77,24.25-4.99,36.09-6.68-68.14-22.59-136.09-45.99-203.94-69.56-5.27-1.83-10.44-3.99-15.6-6.15s-10.28-4.47-15.37-6.81c-1.32-1.3-.76-1.62,1-1l280.41,92.61c6.34,2.76,13.25,4.68,19.2,8.26Z"/>
      <path class="cls-43" d="M179.85,587.99c2.22.31,3.55.98,3.99,2,79.02,27.86,158.53,54.47,237.69,81.91,2.02,2.06-5.9,3.29-6.95,3.52-10.84,2.41-22.26,2.35-32.99,5.45l-1.07.91c-77.81-26.81-155.52-54.32-233.13-82.51l-.49-2.3c9.85-2.96,23.02-7.66,32.96-8.99Z"/>
      <path class="cls-24" d="M146.89,596.98l234.7,83.9c-.77,1.71-2.01,2.97-3.99,3l-237.69-84.89c2.96-2.32,4.5-1.25,6.99-2Z"/>
      <path class="cls-13" d="M183.84,587.99c.46.05.89.53,1,1l-1,1c-1.42-.5-3.07-.29-3.99-2,1.07-.14,2.9-.12,3.99,0Z"/>
      <path class="cls-18" d="M301.77,134.63c1.43-2.11,20.85-2.52,24.16-1.85,3.82.78,10.16,5.64,8.61,10.12-1.26,3.64-18.55,2.99-22.12,2.39s-13.29-6.77-10.65-10.67Z"/>
    </g>
  </g>
</svg>