<svg width="281" height="250" viewBox="0 0 281 250" fill="none" xmlns="http://www.w3.org/2000/svg">
<path d="M199.885 188.003C173.373 195.81 144.54 192.26 120.79 178.271C119.7 177.629 118.674 176.969 117.688 176.306L115.458 178.52C115.502 180.144 115.472 181.965 115.197 183.912C114.634 187.911 113.011 191.317 111.492 194.12C111.065 194.915 110.537 195.653 109.93 196.321C96.9011 210.629 82.9209 224.352 69.1895 237.661C85.6655 245.559 104.205 250 123.814 250C180.791 250 228.77 212.542 243.191 161.557C231.196 174.062 216.317 183.165 199.885 188.003Z" fill="#F3B932"/>
<path d="M64.5559 156.754C64.7784 156.531 65.014 156.317 65.254 156.112C70.9438 151.313 78.4662 148.484 85.4127 148.523C85.6658 148.523 85.9145 148.532 86.1588 148.549L88.0394 146.672C77.3798 129.831 71.8863 110.882 72.1263 91.6438C72.3619 72.6505 78.0779 54.0894 88.6503 37.9691C96.2556 26.3767 106.008 16.605 117.318 9.16919C51.9545 12.457 0 65.075 0 129.499C0 155.3 8.33837 179.205 22.5236 198.81L64.5515 156.754H64.5559Z" fill="#F3B932"/>
<path d="M35.7271 185.602C24.3868 167.8 17.8286 146.829 17.8286 124.395C17.8286 67.1184 60.5328 19.3601 116.606 9.63637C121.135 6.60181 125.913 3.93838 130.909 1.69412C132.236 1.09594 133.575 0.537052 134.928 0C101.871 0.685505 70.8914 13.5355 47.4296 36.3711C23.2785 59.8747 9.97461 91.1373 9.97461 124.395C9.97461 148.488 16.9603 171.529 29.9893 191.339L35.7271 185.597V185.602Z" fill="black"/>
<path d="M255.574 145.772C245.22 199.875 196.311 240.966 137.716 240.966C116.964 240.966 97.4247 235.81 80.3858 226.749C78.4093 228.692 76.4327 230.627 74.4561 232.552C93.5152 243.171 115.17 248.825 137.72 248.825C171.82 248.825 203.886 235.897 228.007 212.419C251.944 189.125 265.213 158.212 265.449 125.29C262.983 132.447 259.676 139.315 255.579 145.772H255.574Z" fill="black"/>
<path d="M259.336 84.3565C256.085 45.8197 226.419 13.1818 188.532 5.99053C110.393 -8.83299 54.4021 77.3836 99.1483 143.314C99.7766 144.24 102.613 147.371 102.264 148.183L90.2776 160.168C89.4311 160.557 86.5208 159.662 85.3427 159.653C80.8135 159.622 75.848 161.736 72.4228 164.626L29.5222 207.556C14.8919 224.942 35.2208 248.206 54.3454 236.543C70.4069 220.999 86.6735 205.342 101.71 188.824C102.783 186.838 103.865 184.624 104.179 182.362C104.568 179.585 104.157 176.821 104.162 174.057L116.327 161.972C119.77 164.015 122.933 166.622 126.432 168.683C147.669 181.192 173.064 184.301 196.744 177.332C229.08 167.814 253.908 139.594 258.694 106.07H242.746C234.683 148.999 190.975 175.066 149.048 161.692C99.1483 145.773 82.4716 82.3961 118.024 43.6628C158.363 -0.288182 230.747 20.4822 242.659 78.545C243.047 80.4313 243.017 82.7366 243.868 84.3565H259.336Z" fill="black"/>
<path d="M141.281 89.4215C140.692 89.8057 130.905 89.2293 129.037 89.4564C122.902 90.1987 122.575 100.307 129.989 100.966C133.841 101.311 142.158 101.363 145.95 100.957C148.821 100.647 150.073 99.4246 151.133 96.8878C153.455 91.3295 155.161 83.7322 156.945 77.8028C157.081 77.3487 156.745 77.2395 157.587 77.3312L165.41 113.392C167.108 118.514 174.512 118.566 176.336 113.484L183.104 87.2252L190.53 123.042C192.393 128.447 199.802 128.517 201.617 123.142L210.222 84.0335L216.27 97.9226C217.19 99.608 218.752 100.547 220.611 100.918L275.441 100.944C282.256 100.254 282.959 91.5653 276.702 89.4782L225.262 89.404C222.775 83.6361 220.554 77.7155 217.932 72.0044C215.833 67.4329 213.638 59.8006 207.264 61.1236C202.429 62.1235 201.264 71.3276 200.234 75.4712C198.816 81.1648 197.712 86.9501 196.351 92.6481C195.753 91.7923 195.622 90.4912 195.386 89.4607C193.061 79.3004 191.363 68.9742 189.012 58.8182C186.956 53.9673 180.429 53.618 178.169 58.4951C175.564 66.9832 174.137 76.0388 171.641 84.5225C171.506 84.9853 171.824 85.077 171 84.9897L163.752 51.8627C161.763 46.8415 155.274 46.597 152.901 51.4043L141.29 89.4171L141.281 89.4215Z" fill="black"/>
</svg>
