<svg width="274" height="262" viewBox="0 0 274 262" fill="none" xmlns="http://www.w3.org/2000/svg">
<g clip-path="url(#clip0_553_378)">
<path d="M22.2086 111.255C26.0146 111.935 28.6505 115.414 30.9596 118.068L92.7242 117.423C93.8324 117.127 93.2452 117.127 93.2275 116.447C93.179 114.937 92.4902 113.485 92.3577 111.975C91.8676 106.358 93.2938 100.742 96.6979 96.1989C102.16 88.9094 110.041 87.735 117.736 83.6553C112.562 76.6881 107.824 67.8488 112.716 59.5835C116.134 53.8128 120.346 53.8172 125.966 51.3005C133.848 47.7728 142.51 43.437 150.851 40.9821C164.728 36.8981 171.434 50.806 172.958 62.1355L181.74 58.7137C188.437 53.4507 195.727 44.7218 203.652 36.6861C184.256 24.7032 161.244 17.7581 136.567 17.7581C77.5314 17.7581 28.0456 57.473 14.7822 110.924C18.1952 110.946 21.1137 111.052 22.2175 111.246L22.2086 111.255Z" fill="#F3B932"/>
<path d="M237.124 126.638C236.502 127.967 240.144 135.132 240.806 137.225C242.696 143.256 242.868 149.248 238.824 154.414C233.636 161.054 215.525 166.145 207.03 169.536C199.745 172.445 192.283 175.284 184.985 178.128C167.646 184.879 147.168 194.557 129.75 199.696C123.476 201.551 115.123 198.464 111.365 193.259C110.319 191.806 109.105 188.212 107.727 187.338C107.18 186.989 105.886 187.047 105.091 186.702C80.4322 175.956 54.8195 167.266 30.0854 156.674C28.4164 156.334 27.008 158.807 25.4097 159.646C23.5994 160.599 18.544 161.076 13.2236 161.156C23.6833 218.178 74.922 261.465 136.559 261.465C205.754 261.465 261.845 206.911 261.845 139.614C261.845 127.997 260.172 116.765 257.05 106.124C250.339 112.902 243.557 119.622 237.12 126.638H237.124Z" fill="#F3B932"/>
<path d="M264.834 51.3403C260.595 46.5586 247.01 31.5866 241.985 29.5202C235.084 26.6768 227.415 29.1096 221.887 33.6396C210.408 43.0529 199.696 56.8593 188.517 66.9437L156.643 79.3681L151.879 67.4956L161.668 63.6808C163.518 62.9567 160.533 48.9207 154.105 50.5985C147.173 52.4088 140.25 56.3251 133.746 59.1376C131.004 60.3297 123.317 62.5064 121.838 64.3034C121.366 64.8774 120.871 66.4403 121.021 67.2351C121.361 68.9879 125.066 78.5204 127.234 77.6727L137.018 73.8579L141.786 85.7305L109.913 98.1549C108.367 98.7554 105.109 101.948 104.213 103.511C103.14 105.387 102.221 110.085 102.99 112.005L109.445 128.081L23.8246 128.399C20.2703 127.883 23.7936 123.004 19.7802 121.511C18.6676 121.101 4.4947 121.145 3.13481 121.507C1.54091 121.935 0.154533 122.381 0 124.196L0.0662284 148.789C0.635792 150.122 1.88089 150.493 3.19221 150.74C4.53002 150.992 17.9082 151.001 19.034 150.723C20.4337 150.374 21.1445 149.941 21.6567 148.612C22.5353 146.343 20.1776 142.391 23.5464 143.23L115.666 179.682C118.408 183.876 120.129 190.627 126.562 189.917C134.572 189.025 145.959 182.574 153.557 179.505C176.353 168.966 203.608 162.295 225.896 151.354C238.073 145.385 225.896 133.569 224.236 124.615L269.717 77.421C277.122 67.4603 271.982 59.4069 264.834 51.3403ZM255.889 71.1072L219.401 108.411L217.971 109.237L203.277 72.6305L231.243 45.4018C233.429 43.777 236.956 43.9713 239.023 45.7153L256.962 64.5948C257.946 66.9084 257.474 69.2087 255.889 71.1072Z" fill="black"/>
<path d="M256.3 106.884C257.328 113.052 257.871 119.379 257.871 125.825C257.871 190.822 203.449 243.703 136.559 243.703C82.1632 243.703 36.0197 208.739 20.6723 160.723C18.3014 160.997 15.3961 161.142 12.4468 161.165C18.4471 181.245 29.5734 199.643 45.1945 214.836C69.6019 238.577 102.049 251.65 136.554 251.65C171.059 251.65 203.507 238.577 227.914 214.836C252.352 191.069 265.814 159.456 265.814 125.825C265.814 117.03 264.887 108.376 263.09 99.9651C260.839 102.283 258.573 104.588 256.295 106.884H256.3Z" fill="black"/>
<path d="M16.2085 110.946C23.7629 52.9474 74.8515 7.94741 136.559 7.94741C163.739 7.94741 188.861 16.6763 209.11 31.4055C211.176 29.5158 213.278 27.732 215.428 26.1161C192.923 9.17925 165.465 0 136.559 0C102.054 0 69.6062 13.0735 45.1988 36.8141C24.3899 57.0535 11.546 82.9753 8.19043 110.99C10.8793 110.924 13.7404 110.91 16.2129 110.941L16.2085 110.946Z" fill="black"/>
</g>
<defs>
<clipPath id="clip0_553_378">
<rect width="273.333" height="261.465" fill="white"/>
</clipPath>
</defs>
</svg>
