<svg width="254" height="254" viewBox="0 0 254 254" fill="none" xmlns="http://www.w3.org/2000/svg">
<g clip-path="url(#clip0_553_480)">
<path d="M222.274 204.885C220.096 197.129 208.269 186.937 202.307 181.025C197.728 176.482 192.787 172.19 188.191 167.66C158.904 138.825 129.554 110.051 100.203 81.2689C100.417 66.6466 104.295 52.6505 98.3708 38.6674C88.7737 16.0257 62.6263 7.34134 40.6389 16.9413L69.7077 46.4967L70.0323 48.1291L62.4426 67.2728L46.392 73.8757L17.998 42.1912C5.59917 69.6523 25.1692 103.284 55.3527 104.183C59.5298 104.308 73.3082 101.747 75.8281 103.349L184.134 229.197C202.448 245.133 228.984 228.748 222.274 204.885ZM200.551 222.025C183.873 224.262 181.981 199.456 197.293 197.997C213.031 196.494 214.953 220.094 200.551 222.025Z" fill="black"/>
<path d="M221.3 189.675C206.211 173.99 189.301 159.947 174.545 143.886L161.266 131.406C159.861 130.016 162.291 128.072 162.992 126.185C164.145 123.084 164.277 120.312 163.449 117.108C163.039 115.527 161.429 113.951 162.334 112.578C173.118 101.592 184.031 90.709 195.05 79.9993C197.434 77.6846 198.518 75.1928 201.67 73.7375C206.074 71.7079 214.163 70.5246 217.853 68.076C219.049 67.2814 220.929 63.3819 221.736 61.8531C222.159 62.1036 222.573 62.3714 222.949 62.6823C226.246 65.4591 231.107 77.1923 232.905 81.8217C243.809 109.827 243.497 141.809 232.486 169.732C230.671 174.336 225.785 186.086 222.517 188.85C222.146 189.165 221.736 189.429 221.313 189.679L221.3 189.675Z" fill="#F3B932"/>
<path d="M127.722 172.013C127.273 171.486 117.189 169.292 116.023 168.078C115.682 167.724 112.256 159.519 112.149 159.018C111.855 157.628 113.426 156.518 112.423 155.326L100.011 141.507C99.3746 141.222 98.0506 142.725 96.8291 142.604C94.9028 142.41 90.273 139.041 87.7189 139.05L83.2898 127.114L69.6609 127.256L65.6119 138.709C63.0621 139.123 58.6245 142.181 56.5445 142.531C54.3492 142.906 47.7846 138.208 45.333 137.599C44.7906 137.465 44.6496 137.353 44.0687 137.62C41.7795 138.67 37.534 145.359 35.185 147.134C35.1252 147.907 40.9039 156.825 40.9039 158.366C40.9039 159.804 36.7524 165.695 37.0044 168.078L25.2334 172.233L25.4555 185.806C26.1688 186.885 35.4882 188.803 36.7823 189.9C37.1966 190.245 38.8282 195.324 39.2809 196.442C39.6482 197.345 40.8868 198.999 40.9893 199.495C41.2584 200.769 36.4962 208.953 35.5651 210.697L35.6932 211.259L44.7564 220.267L56.2242 214.869C58.1675 216.912 63.3654 217.279 65.1549 218.648C66.8036 219.9 68.9733 230.04 69.9684 230.281L83.7298 230.225L87.7104 218.704C90.4353 218.449 95.5691 214.705 97.8712 215.34C99.6779 215.836 107.643 220.587 108.536 220.142L117.445 210.987C117.68 209.747 112.218 201.598 112.06 199.75C111.991 198.977 113.854 195.92 114.306 194.849C114.827 193.601 115.101 191.441 115.605 190.552C116.6 188.803 124.967 187.412 127.055 186.151C127.581 185.832 127.653 185.78 127.769 185.145C128.443 181.53 127.299 175.865 127.722 172.013ZM78.4294 198.735C52.4144 200.946 49.6211 161.104 75.5806 159.558C100.451 158.077 102.847 196.662 78.4294 198.735Z" fill="black"/>
<path d="M157.662 13.9141C162.249 14.6136 166.614 16.4144 170.902 18.2325C171.304 18.1634 171.705 18.1116 172.107 18.1202C175.207 18.1936 191.527 28.2038 193.069 30.9374C193.265 31.2872 193.411 31.6672 193.539 32.0559C191.852 33.088 187.405 35.6963 186.124 36.8666C183.028 39.7039 182.549 50.7202 180.303 54.7321L143.371 91.6807C142.025 92.4797 139.587 90.627 137.754 90.4025C132.198 89.7245 128.666 91.521 124.621 95.0751L107.686 78.8247C107.767 76.4107 107.597 73.9708 107.678 71.5524C108.036 60.6613 109.899 52.4174 106.721 41.4658C104.09 32.4014 99.0459 24.0797 91.9004 18.0209C91.9175 16.937 105.354 13.5643 107.178 13.1799C126.364 9.17672 138.801 10.7184 157.666 13.9184L157.662 13.9141Z" fill="#F3B931"/>
<path d="M85.9081 236.314C89.7734 234.608 90.3927 224.685 93.0535 223.026C93.7198 222.612 96.3892 221.61 97.1281 221.709C98.9134 221.955 104.167 225.363 106.413 226.153C110.104 227.453 110.988 226.624 113.683 224.02C115.912 221.865 119.594 217.961 121.571 215.586C122.306 214.705 123.997 212.744 124.164 211.716C124.647 208.75 118.394 201.97 118.864 199.068C118.932 198.649 120.286 195.427 120.542 195.112C121.674 193.713 129.563 191.739 131.852 190.547C132.522 190.198 133.74 188.781 133.74 188.159V181.897L134.88 182.476C148.577 197.979 161.348 214.454 175.169 229.832L175.16 230.925C148.005 245.361 114.926 247.275 86.3437 237.247L85.9038 236.306L85.9081 236.314Z" fill="#F3B932"/>
<path d="M17.9983 168.947C12.322 153.348 11.1817 132.08 13.3599 115.674C13.7486 112.755 17.3063 94.233 19.0703 93.3779L25.4811 99.8427C36.0477 108.428 49.1214 111.986 62.6479 111.097L72.3731 110.185C74.7264 114.05 78.9291 116.983 80.7828 121.012H66.4747C63.9292 121.012 62.1567 133.203 60.4141 134.425C60.0767 134.662 55.8398 136.109 55.4725 136.053C52.8244 135.656 46.4819 130.495 43.8381 130.486C41.9418 130.478 38.6317 134.429 37.2052 135.897C35.2021 137.962 30.5167 142.522 29.103 144.547C28.0566 146.041 28.3086 146.832 29.0219 148.516C29.9401 150.688 33.972 156.583 34.13 158.435C34.1514 158.664 32.6437 162.266 32.4302 162.594C31.341 164.248 23.4567 166.131 20.988 167.651L20.0783 168.446C19.3308 170.341 18.6389 170.51 17.9983 168.947Z" fill="#F3BA33"/>
<path d="M213.506 28.2254C214.112 28.0699 214.258 28.2686 214.702 28.5666C215.658 29.2187 224.115 37.7649 224.747 38.7236C224.931 39.0043 225.187 39.2202 225.153 39.6002L213.984 61.5725C208.761 64.4961 202.367 65.6793 196.729 67.8774L152.118 112.586C156.107 115.773 159.357 121.854 154.488 125.745L129.059 100.957C133.295 95.1441 139.019 96.9277 142.927 102.002L186.474 58.3768C188.584 52.9917 189.212 47.0539 191.386 41.7508L213.502 28.2254H213.506Z" fill="black"/>
<path d="M221.727 61.8489C223.039 59.3571 224.205 56.7401 225.153 54.0757C226.165 53.8381 225.84 54.257 226.101 54.6371C227.344 56.4638 228.728 58.6532 229.847 60.5533C251.919 93.7881 253.585 138.868 238.115 175.234C236.138 179.881 230.594 192.275 227.207 194.952C226.836 195.246 226.421 195.492 225.998 195.721C224.593 193.087 223.282 191.735 221.3 189.675C245.914 151.534 246.542 100.028 221.727 61.8489Z" fill="#010001"/>
<path d="M10.3059 76.9634C10.3871 77.0498 10.5964 78.6174 10.8398 79.2349C11.835 81.7742 13.0821 84.1579 14.1114 86.6713C5.04826 113.014 5.53943 141.688 15.1151 167.759C16.0206 170.229 18.784 175.053 19.1812 177.035C19.8304 180.239 18.5533 185.75 19.3648 188.509C20.2319 191.463 27.0869 192.119 29.4146 193.678C30.0852 196.192 34.2794 198.886 33.6131 201.343C33.438 201.991 30.8924 206.88 30.5849 206.953C29.9528 207.1 27.5354 203.943 26.9759 203.269C-0.337538 170.41 -8.23472 116.879 9.41755 77.568C9.58412 77.1923 9.60975 76.2163 10.3102 76.9591L10.3059 76.9634Z" fill="black"/>
<path d="M160.651 13.914C140.253 6.98722 119.384 5.22961 98.2896 10.239C95.9961 10.7831 87.6889 13.9356 86.5357 13.8838C85.1946 13.8233 79.7874 9.06008 77.3657 9.59125C77.4725 8.95644 78.1516 8.75347 78.647 8.51595C81.7265 7.03041 86.7279 5.50167 90.0892 4.53866C128.17 -6.38702 169.945 2.8156 200.372 27.9576C200.543 28.817 200.188 28.4845 199.83 28.6918C197.805 29.8793 195.52 30.838 193.538 32.0515C186.722 26.4937 179.064 21.6268 170.902 18.2325L160.651 13.914Z" fill="black"/>
<path d="M225.999 195.721C233.622 184.519 239.375 171.805 242.963 158.677C252.039 125.473 247.174 90.0354 229.842 60.5533C233.37 64.1938 236.168 69.0046 238.607 73.5001C257.515 108.354 258.164 150.679 240.823 186.311C237.667 192.797 233.785 198.904 229.629 204.781C228.322 201.814 227.532 198.593 225.999 195.721Z" fill="#F3B831"/>
<path d="M180.298 235.451L180.567 236.431C161.898 247.197 138.399 251.973 116.583 250.734C111.355 250.436 104.192 250.021 99.2933 248.553C98.2981 248.255 97.4055 247.75 96.5854 247.11C95.1076 247.374 93.6299 246.886 92.3144 246.247C91.6481 246.8 90.3027 246.294 90.1789 245.383C85.9761 245.059 81.846 243.764 77.7928 241.496L67.9736 236.319C73.6285 236.811 80.3981 235.636 85.9078 236.314C88.8292 236.673 93.7025 238.772 97.0083 239.558C122.4 245.603 147.855 242.878 171.483 231.935C172.713 231.365 174.144 230.718 175.173 229.837C176.779 231.625 178.526 233.887 180.298 235.451Z" fill="#010000"/>
<path d="M180.298 235.451C182.643 237.519 185.462 238.525 187.862 240.097C188.276 240.369 188.627 240.05 188.409 241.056C158.862 256.08 106.328 258.554 77.7886 241.496C78.1046 241.686 89.8159 245.461 90.1746 245.383C119.914 253.977 153.271 251.027 180.294 235.451H180.298Z" fill="#F4BB32"/>
<path d="M64.9757 235.019C60.8114 232.432 56.3738 230.156 52.4572 227.168C51.8507 226.706 49.0916 224.957 49.6041 224.231C51.4279 224.123 54.3365 221.744 55.8228 221.649C56.7496 221.588 60.0212 222.966 60.6918 223.597C62.2934 225.108 63.72 232.713 64.9757 235.023V235.019Z" fill="#010101"/>
<path d="M20.9878 167.651L19.0658 171.097C18.2629 170.553 18.2757 169.706 17.998 168.946C19.6424 170.121 19.1171 168.661 19.8901 168.052C20.3044 167.724 20.7742 167.785 20.9878 167.651Z" fill="#F4DB97"/>
</g>
<defs>
<clipPath id="clip0_553_480">
<rect width="253.333" height="253.333" fill="white"/>
</clipPath>
</defs>
</svg>
