<svg width="81" height="32" viewBox="0 0 81 32" fill="none" xmlns="http://www.w3.org/2000/svg">
<path d="M81.0707 14.4626C80.92 13.6213 80.6814 12.6425 80.0525 11.7618C79.7643 11.3593 79.4255 11.0176 79.0443 10.7405C78.7996 8.75556 78.1191 6.26706 75.6994 5.06983C75.4142 4.57941 74.9935 4.00708 74.3515 3.52779C73.9399 3.2214 73.5162 3.02321 73.1239 2.89378C72.9449 2.59852 72.774 2.35179 72.5799 2.13236C70.513 -0.204462 67.6251 0.0766448 66.5381 0.182818C65.4784 0.285958 64.1406 0.668182 62.9616 1.76126C61.9383 1.88361 61.0161 2.52369 60.5651 3.50554C60.5378 3.55205 60.4711 3.65115 60.4205 3.72598C60.2183 4.02731 59.9463 4.43178 59.7299 4.95455C59.2273 5.6462 58.7955 6.4521 58.3789 7.24891C58.3456 7.21554 58.3112 7.18318 58.2758 7.15184C57.6205 6.57243 56.76 6.3975 55.9016 6.41267C54.1593 6.443 48.6727 6.49356 46.8394 6.42379C45.3439 6.42885 44.0738 7.52294 43.8494 9.00229L43.7978 9.34508C42.6966 9.15498 31.3664 9.44619 31.3664 9.44619C31.2976 9.44822 31.2299 9.45428 31.1621 9.46136C31.2319 8.9669 31.2825 8.54726 31.3118 8.21559C31.3654 7.61293 31.5282 5.78068 29.8405 4.77052C29.2763 4.43279 28.619 4.28819 27.9648 4.35695C27.1599 4.44189 26.2327 4.41762 25.2518 4.39234C23.7381 4.3529 22.013 4.30841 20.2869 4.68659C20.1363 4.30841 19.9644 3.93124 19.7692 3.56722C18.3152 0.859294 16.2433 0.154505 14.7589 0.0382202C13.3371 -0.0709868 11.336 0.000806664 9.88398 0.970524C9.27121 1.37904 8.80708 1.93316 8.4107 2.52773C8.17105 2.59649 7.91927 2.69053 7.66546 2.81895C6.79686 3.25881 6.21847 3.94034 5.82613 4.54402C5.62895 4.61985 5.42166 4.71592 5.21134 4.83928C3.23146 6.00112 2.58228 8.39862 2.26579 10.0984C2.25466 10.156 2.24556 10.2147 2.23646 10.2774C1.95738 10.4624 1.6793 10.6899 1.41943 10.9731C-0.291477 12.8296 -0.347092 16.3343 0.674195 18.4426C1.07664 19.2728 1.6611 19.9331 2.35982 20.381C2.37701 20.4801 2.39724 20.5802 2.42151 20.6834C2.56408 21.2931 2.80676 21.8766 3.00192 22.3447L3.07371 22.5197C3.07371 22.5197 3.07675 22.5268 3.07776 22.5308C3.38111 23.272 4.00703 24.8029 5.87669 25.6806C6.30543 26.3793 7.10628 27.3288 8.61698 27.7737L8.62608 27.7768C8.72113 27.9052 8.82629 28.0326 8.93954 28.1539C9.5513 28.8082 10.7121 29.6515 11.9781 29.878C12.2997 29.9346 12.8063 29.97 13.3877 29.97C14.5172 29.97 15.9268 29.8386 16.8014 29.4826C18.1584 28.9326 19.2626 27.7566 20.0847 25.989C20.1585 25.8293 20.2303 25.6654 20.2981 25.4996C20.4214 25.5037 20.5438 25.5057 20.6661 25.5077C20.6833 25.624 20.7066 25.7403 20.7369 25.8576C20.7521 25.9172 20.7693 25.9759 20.7885 26.0345C21.1171 27.0437 21.9321 27.798 22.9696 28.0518C22.9918 28.0569 25.2053 28.5786 26.6159 27.1933C26.716 27.0952 26.806 26.9941 26.8869 26.891C27.1184 26.8971 27.3601 26.9021 27.6109 26.9021C28.2216 26.9021 28.8829 26.8718 29.5604 26.7535C29.338 27.2944 29.3238 27.7899 29.3137 28.1519C29.3117 28.2096 29.3097 28.3006 29.3066 28.3724C29.1459 29.1904 29.3279 30.0499 29.8294 30.7395C30.7385 31.7942 31.6728 32.0217 33.0136 31.9984C41.9332 31.4969 50.8659 31.5272 59.7915 31.9266C60.2466 31.9266 60.7077 31.9287 61.1516 31.8164C61.5368 31.7234 61.8938 31.5343 62.2436 31.3351C62.8959 30.8477 63.3246 30.1187 63.4328 29.3117L63.4368 29.2844C64.1396 29.7192 64.8444 29.9326 65.4572 30.0266C66.077 30.1217 66.6665 30.1702 67.2257 30.1702C69.3401 30.1702 71.0115 29.4877 72.2088 28.1317C72.232 28.1054 72.2543 28.0791 72.2765 28.0528C72.5222 27.9922 72.7821 27.9092 73.042 27.793C73.8833 27.4148 74.4607 26.8323 74.852 26.3207C77.4679 25.353 78.288 22.4722 78.6479 20.924C79.9615 20.0959 80.7744 18.6438 81.0303 17.3698C81.1304 16.8824 81.1617 16.2524 81.1698 15.7944C81.1769 15.578 81.1769 15.0633 81.0707 14.4677V14.4626ZM71.9732 27.8981C71.9762 27.8961 71.9792 27.8941 71.9823 27.8931C71.9792 27.8951 71.9772 27.8961 71.9742 27.8981H71.9732ZM72.8054 19.2556C72.8044 19.2617 72.8023 19.2677 72.8013 19.2738C72.8044 19.2617 72.8064 19.2516 72.8084 19.2425C72.8084 19.2465 72.8064 19.2516 72.8054 19.2556ZM73.7013 16.5659C73.0693 17.2828 72.9763 17.9724 72.8468 18.9249C72.8306 19.0463 72.8064 19.2232 72.7932 19.3062C72.6648 19.8744 72.5445 20.3042 72.4363 20.5914C72.23 20.6409 72.0086 20.7137 71.781 20.8229C71.4575 20.9786 71.1936 21.1698 70.9772 21.37C71.1319 20.6399 71.2471 19.9685 71.3169 19.4781C71.5738 17.665 71.9934 13.7265 71.508 9.77381C71.5161 9.7819 71.5242 9.78898 71.5323 9.79707C71.9742 10.2147 72.4515 10.4311 72.8509 10.5464C73.0197 11.0914 73.0895 12.1622 73.1229 12.6648C73.134 12.8346 73.1451 12.9985 73.1562 13.1542C73.2432 14.3099 73.9682 15.2696 74.9652 15.7064C74.5496 15.854 74.1007 16.1119 73.7013 16.5649V16.5659ZM78.2607 20.5691C78.2607 20.5691 78.2556 20.5752 78.2526 20.5772C78.2576 20.5722 78.2627 20.5661 78.2667 20.561C78.2647 20.5641 78.2617 20.5661 78.2596 20.5691H78.2607Z" fill="#131313"/>
<path d="M5.81036 13.9461C4.29562 13.8773 4.30978 14.2565 4.41191 15.5973C4.43415 15.8825 4.26731 16.2425 4.65156 16.4831C4.83862 16.6014 5.38972 16.6156 5.61217 16.5772C5.81845 16.5418 5.90845 16.5741 5.81441 16.3274C5.57274 16.2425 4.91345 16.3618 4.76885 16.3021C4.58482 16.2243 4.61111 15.93 4.5555 15.7743C4.53729 15.6267 4.48674 14.9714 4.62931 14.932C4.94075 15.1059 5.2977 14.9856 5.63341 15.021C5.64655 15.0493 5.6597 15.0746 5.67284 15.0958C5.72745 15.2778 5.64049 15.6216 5.66475 15.6337C5.94283 15.7834 5.8498 15.2091 5.85283 15.0756C5.85587 14.9057 5.86598 13.9805 5.81239 13.9461H5.81036ZM8.18561 8.71529C7.38072 8.36947 7.03894 9.09145 6.80536 9.70118C5.89935 12.0582 6.04799 18.011 6.81143 20.4014C6.9085 20.7068 7.225 21.4237 7.51925 21.5501C7.65879 21.6108 8.37369 21.6543 8.37369 21.4065C8.37369 21.0718 7.70025 21.36 7.44139 21.1406C6.9813 20.7473 6.68604 18.7168 6.60919 18.0687C6.49493 17.104 6.44033 15.9209 6.44235 14.9472C6.51414 14.9826 6.61728 15.0907 6.68301 15.1019C6.97928 15.1494 7.31398 15.0746 7.6143 15.1059L7.94293 10.5101C7.92574 10.3059 7.33926 10.2563 7.18455 10.2755C7.0076 10.2978 6.9813 10.6011 6.80839 10.4687C6.97827 10.0794 7.01771 9.20975 7.49195 9.05302C7.53846 9.03785 8.7276 8.94887 8.1846 8.7163L8.18561 8.71529ZM10.5194 6.7981C9.43138 6.60901 9.11084 7.34312 8.81457 8.18543C7.66587 11.4394 7.67093 19.3711 9.03803 22.4936C9.38183 23.2803 9.72867 23.5725 10.6145 23.4845C10.6974 23.4754 10.8824 23.5361 10.8703 23.3429C10.8379 22.7959 9.90663 23.2226 9.64373 22.9739C9.52441 22.8626 9.216 22.2398 9.15028 22.0537C8.30898 19.6734 8.18056 16.654 8.23415 14.1402L8.35448 14.2171C8.39897 15.4275 8.63356 15.0078 9.67811 15.0665C9.68418 12.9582 9.81967 10.8357 10.2666 8.77697C9.79338 8.63743 9.09668 8.48777 8.99557 9.10762L8.87524 9.03077C8.98748 8.58282 9.24027 7.38559 9.68923 7.21572C9.95012 7.11864 10.661 7.34211 10.7125 7.02258C10.753 6.76473 10.6782 6.82439 10.5204 6.79709L10.5194 6.7981ZM15.8099 18.4853C15.5439 19.1061 15.1607 19.5692 14.646 18.8432L14.2982 18.1961C14.3265 18.5611 14.4327 18.7704 14.5904 19.0626C15.2042 20.1982 15.6724 19.2972 15.9302 18.5621C16.089 18.1091 16.275 17.643 16.2406 17.1485C15.9454 17.5307 16.0111 18.0151 15.8099 18.4853ZM16.5774 19.2709C16.548 19.4378 16.5349 19.6137 16.5076 19.7816C16.3792 20.5733 16.2214 21.5572 15.8048 22.261C15.549 22.6938 15.2729 23.0608 14.7208 22.9678C15.4216 23.6483 16.0485 22.4602 16.2609 21.8727C16.4934 21.2316 16.5581 20.5278 16.6279 19.8574C16.6572 19.5773 16.7179 19.2841 16.7513 19.003C16.457 19.0121 16.6047 19.1081 16.5763 19.2689L16.5774 19.2709ZM14.4761 13.4274C14.3083 13.8996 14.376 14.209 14.3528 14.664C14.3184 15.3466 14.2112 15.8532 14.464 16.5468C14.7492 17.3285 15.461 17.6601 15.728 16.6914C15.3821 16.7359 15.3882 17.1091 14.9423 16.8593C14.552 16.6409 14.3204 15.2283 14.4964 14.84C14.5742 14.8481 14.7583 14.756 14.7926 14.7763C14.8078 14.7854 14.7441 15.0159 14.7653 15.1403C14.8149 15.4214 14.8806 15.7612 14.9645 16.0301C15.0019 16.1474 15.1162 16.5499 15.279 16.5317C14.9271 15.8562 15.0131 15.1818 14.828 14.4689L14.825 14.4567C14.8422 14.1787 14.912 13.03 15.3923 13.2383C15.5308 13.2989 15.551 13.6397 15.7806 13.6266C15.6066 12.6518 14.8594 12.3454 14.4761 13.4264V13.4274ZM15.368 15.9957C15.5813 16.293 16.0202 16.2293 16.3418 16.195C16.541 15.928 15.4782 15.8977 15.368 15.9957ZM15.4236 10.5415C14.83 10.1461 14.4155 11.042 14.2739 11.4707C14.5762 11.406 14.6056 11.0066 14.8644 10.8661C15.6592 10.4313 15.9454 12.0997 16.0697 12.58C16.1001 12.7003 16.0748 12.9642 16.2437 12.9036L15.8432 11.0764C15.8341 11.0329 15.4903 10.587 15.4226 10.5415H15.4236ZM15.2628 14.0583C15.2295 14.0958 15.2345 14.749 15.2285 14.8855C15.4469 14.7834 16.4661 14.9148 16.5501 14.7995C16.5733 14.7651 16.5935 14.0897 16.5804 13.9714C16.3418 14.0796 15.3771 13.9319 15.2618 14.0593L15.2628 14.0583ZM15.2274 6.86989C14.9089 6.74956 14.9635 6.80518 14.7279 6.92247C14.3032 7.1328 14.098 7.50693 13.9129 7.92859C12.9634 10.0945 12.9907 14.4153 13.1616 16.7885C13.2294 17.7259 13.2486 18.5813 13.4488 19.5207C13.374 19.9454 13.5398 20.5622 13.6642 20.9738C13.7046 21.1052 13.8431 21.5602 13.9999 21.5734C13.918 21.2498 13.8735 20.908 13.7845 20.5865C13.4619 19.4034 13.3942 18.1799 13.3022 16.9655C13.1242 14.6165 13.1636 10.1714 14.0322 8.00747C14.1738 7.65355 14.4347 7.24504 14.7481 7.02258C15.3144 6.95685 15.5884 7.50794 15.825 7.92657C16.276 8.72338 16.4773 9.54243 16.635 10.4393C16.635 10.4393 16.635 10.4414 16.635 10.4424C16.6279 10.4677 16.5652 10.5799 16.5844 10.7012C16.635 11.0187 16.7412 11.3302 16.7968 11.6457L16.7776 10.6163C16.5197 9.58591 16.367 7.30571 15.2274 6.87192V6.86989ZM16.0799 6.00534C15.7462 5.35111 15.4095 4.67665 14.5934 4.54823C14.2547 4.49464 12.9209 4.50273 12.6125 4.58464C11.3556 4.91428 10.6964 8.30172 10.4972 9.43423C9.81057 13.3576 9.80653 18.7775 10.9168 22.6098C11.1453 23.3986 11.7803 25.2642 12.6732 25.4351C12.9351 25.4856 14.4377 25.5048 14.7026 25.4593C15.1213 25.3886 15.2942 25.2409 15.5702 24.9558C16.6117 23.8829 16.9383 21.6057 17.1092 20.1689L16.2952 23.3399C16.094 23.9537 15.8382 24.4633 15.3508 24.9002C14.285 24.9982 13.9574 24.0265 13.6338 23.1407C12.1939 19.2103 12.1686 11.1735 13.4124 7.14089C13.8775 5.63019 14.8331 3.78884 16.003 6.12567C16.546 7.20965 16.9656 9.2047 17.1517 10.4282C17.1699 10.5496 17.0435 10.9247 17.2053 11.1411L17.3024 11.1189C17.2801 10.9146 17.2943 10.7103 17.273 10.5051C17.1052 8.94988 16.7937 7.40177 16.0809 6.00433L16.0799 6.00534ZM14.2203 24.9406C12.8906 24.8466 12.4528 25.433 11.7793 24.0467C10.7702 21.9708 10.4072 18.7674 10.3273 16.4589C10.302 15.7612 10.2737 14.8865 10.3182 14.2019L10.4597 14.3779C10.4628 14.569 10.5194 14.7833 10.4891 14.9917C10.9289 14.8824 11.5943 15.0675 11.9957 14.9826C12.2354 14.931 12.0058 14.7389 12.1909 14.7237C12.4336 18.1506 12.4437 21.899 14.2203 24.9406ZM25.7548 11.4434L25.9702 9.59501L25.775 9.49389C22.9103 9.54344 20.1438 8.93168 18.3712 11.763C17.266 13.5285 16.5379 18.1688 18.2064 19.7149C19.5694 20.9768 23.2127 20.5531 24.7477 19.7128L25.506 14.2889C25.3796 14.1857 22.5858 14.1686 22.244 14.2019C22.1004 14.2161 21.9386 14.1959 21.8274 14.3162C21.7708 14.3748 21.5351 15.8491 21.5675 15.924C21.6838 16.1798 23.3532 15.8127 23.4503 16.0382C23.2289 16.7147 23.3108 17.737 23.1146 18.368C23.0752 18.4923 23.0752 18.5419 22.9296 18.5773C22.6687 18.642 20.9638 18.6167 20.6352 18.5732C18.6412 18.3134 19.166 15.4285 19.5027 14.0159C20.346 10.4929 22.9548 11.585 25.7538 11.4424L25.7548 11.4434ZM28.2827 7.37042C24.9863 7.71726 21.1701 6.62923 18.353 8.81944C17.8221 6.7617 17.1466 3.26708 14.5257 3.06282C13.6591 2.99608 12.2869 3.01428 11.567 3.4956C10.9886 3.88086 10.3667 5.24696 10.2686 5.29954C10.117 5.38245 9.47082 5.30662 9.03702 5.52604C8.34943 5.87389 7.96012 7.08527 7.78114 7.19044C7.58396 7.3047 7.13096 7.23088 6.74772 7.45637C5.81946 8.0014 5.43421 9.65973 5.24916 10.6567C5.19557 10.9449 5.12378 12.3828 5.06311 12.4485C5.00951 12.5072 4.16923 12.4667 3.65252 13.03C2.66258 14.1038 2.77178 18.1627 4.7365 18.013C4.88312 18.1061 5.01659 17.9756 5.09344 18.187C5.11366 18.2395 5.12984 18.2942 5.144 18.3488C5.16928 18.4741 5.19456 18.5995 5.22186 18.7249C5.2886 19.1658 5.29163 19.6289 5.37657 19.9939C5.47566 20.4176 5.71026 20.9515 5.87407 21.3489L5.88822 21.3833C6.18248 22.1022 6.46662 22.622 7.21489 22.9567C7.42218 23.0497 7.70632 22.987 7.87013 23.1266C8.39088 23.5695 8.29583 24.5159 9.47486 24.8627C9.73878 24.9406 10.4193 24.8981 10.48 24.9517C10.5781 25.0397 10.8673 25.7718 11.1575 26.0802C11.4628 26.4068 12.0695 26.8113 12.5074 26.8891C13.1616 27.0044 15.0636 26.9144 15.6643 26.6697C17.0334 26.1146 17.9566 23.5078 18.0608 22.1326C18.1497 22.0112 18.8646 22.3085 19.0709 22.3439C20.6312 22.6048 22.335 22.3874 23.9124 22.4076C24.144 22.5815 23.5686 24.6817 23.6758 25.0943C23.6879 25.1327 24.4018 25.1155 24.4918 25.0276C24.6566 24.8648 24.9994 21.9051 25.049 21.4308C23.4149 21.4116 21.4411 21.7251 19.8414 21.54C19.44 21.4935 18.9162 21.3408 18.5421 21.1821C18.2994 21.0779 17.8241 20.6886 17.6856 20.6633C17.4925 20.6279 17.5734 20.7655 17.5592 20.8342C17.2286 22.4309 16.7937 25.7334 14.83 26.0478C14.3305 26.1287 12.7116 26.1186 12.2728 25.9285C11.3152 25.517 11.2555 24.3966 10.9178 24.1357C10.7904 24.0376 9.86821 24.1802 9.46071 23.9567C8.75491 23.5674 8.64974 22.4056 8.39594 22.172C8.29482 22.078 7.68609 22.1892 7.42015 22.1043C6.19158 21.7129 5.95901 18.2729 5.78812 17.1637C4.11665 17.4569 3.86486 16.6854 3.86082 15.2C3.85677 13.7054 4.15103 13.1614 5.78104 13.3323C5.85991 12.0977 5.96912 9.69613 6.6729 8.6799C7.30286 7.77186 7.90552 8.30172 8.33325 7.95994C8.43133 7.88006 8.71143 6.98213 8.97939 6.67575C9.74586 5.80007 10.4284 6.38352 10.8167 6.0741C11.0756 5.86984 11.2798 4.63924 12.0068 4.19938C12.6388 3.81817 14.7178 3.76255 15.368 4.13669C15.7259 4.34196 16.182 4.97192 16.3812 5.33796C16.723 5.96489 16.8716 6.68283 17.1962 7.31279C17.3135 8.01353 17.5016 8.79113 17.6714 9.4858L17.7331 10.7134L18.9071 9.55557C21.2116 7.65659 24.5029 8.58181 27.2503 8.32093L26.8398 11.1542C26.8671 11.2452 27.7013 11.3767 27.8216 11.0208C27.9106 10.7589 28.4425 7.46345 28.2837 7.36941L28.2827 7.37042ZM31.477 12.4748L30.6691 18.0292C30.1059 18.4438 28.4162 18.9716 28.0603 18.1081C27.8439 17.3477 28.9612 12.8348 28.7782 12.5021C28.6933 12.3495 27.2887 12.4455 27.0107 12.4536C26.8489 14.21 26.2664 16.1191 26.1552 17.8553C26.0551 19.4439 26.5041 20.3782 28.215 20.3984C28.4526 20.4014 28.7782 20.4166 28.9996 20.364C29.5356 20.2366 30.023 19.7887 30.5569 19.6572C30.3223 20.1264 30.3526 20.7574 30.0695 21.2124C29.3758 22.3257 27.2564 22.0335 26.1117 22.0274L25.8852 23.8344C27.5072 23.8364 29.3343 24.1094 30.7217 23.074C31.7804 22.2842 32.0028 21.2731 32.2486 20.0607C32.7552 17.5489 32.9088 14.9219 33.4215 12.4051L31.479 12.4769L31.477 12.4748ZM36.544 23.8334C36.2073 23.6999 34.1445 23.8465 33.7603 24.0012C32.653 24.4492 32.3163 26.6313 33.6146 26.9478C34.1829 27.0863 35.3276 26.6818 35.1243 27.509C34.9625 28.1642 32.5317 27.6839 32.3679 27.9074C32.3365 27.9499 32.3588 28.78 32.2839 28.957C33.3497 28.864 35.008 29.2735 35.8352 28.4737C36.5976 27.7365 36.7331 26.1631 35.4823 25.8881C35.1193 25.8082 34.282 25.9255 34.1091 25.8426C33.9059 25.7455 33.9595 25.2197 34.1263 25.0832C34.4479 24.8193 36.4995 25.0185 36.5733 24.9133C36.4267 24.6484 36.8231 23.9436 36.544 23.8334ZM41.1479 26.9114C41.6383 25.2996 41.6555 23.4107 39.3814 23.7757C37.9202 24.0103 37.3691 24.98 37.1497 26.3431C36.6654 29.3342 38.3348 28.8872 40.5968 28.9004L40.8102 27.7132C39.9325 27.6961 38.1811 28.2653 38.1579 26.9468L41.1479 26.9124V26.9114ZM40.0841 24.9982C40.3551 25.1883 40.2287 25.5736 40.2965 25.8537L38.4572 25.9477C38.3085 25.1256 39.528 24.6089 40.0841 24.9982ZM45.4393 23.799C44.5829 23.7323 44.0813 23.8415 43.3877 24.3521C43.327 24.2186 43.327 23.8324 43.2481 23.7727C43.1864 23.7252 42.3815 23.7292 42.3896 24.0103L41.6939 28.9155L42.8285 28.9206L43.3755 25.1944C43.6799 24.9173 45.23 25.1277 45.3675 24.9406C45.4019 24.8951 45.4858 23.8324 45.4393 23.799ZM40.1964 13.3404C39.6443 12.4091 38.4369 12.1927 37.4622 12.5294C37.0001 12.6882 36.6633 13.0977 36.183 13.1968C36.1214 13.1624 36.3286 12.6457 36.0233 12.4536C35.8756 12.3606 34.7027 12.3495 34.6339 12.4991L33.3881 20.2801C33.4195 20.3883 35.1729 20.3842 35.2548 20.2922L36.0839 14.5781C36.9738 14.1746 38.3075 13.484 38.619 14.8804L37.7311 20.2609C37.7756 20.4146 39.2661 20.2912 39.5381 20.3185L40.4269 14.5579C41.4078 14.0947 42.8113 13.4142 42.8831 15.0705L42.0832 20.2882L43.9418 20.2538C44.2441 18.0798 44.8286 15.8522 44.7608 13.6579C44.1117 11.5435 41.5028 12.2746 40.1964 13.3394V13.3404ZM50.4881 23.8101C50.3425 23.7778 49.5568 23.7454 49.4729 23.801C49.0209 24.0922 48.1483 26.8618 47.5679 27.3705C47.3848 26.9316 47.22 23.8718 47.0774 23.7616C47.0137 23.712 46.0521 23.8202 45.858 23.8111L46.6447 28.8549C46.6709 28.9054 47.7246 28.9691 47.7812 28.9631C48.0846 28.9287 50.2333 24.4876 50.6489 23.9517C50.6398 23.7545 50.6004 23.8344 50.4891 23.8091L50.4881 23.8101ZM51.2354 23.7757L50.3921 28.9246C50.6873 28.7952 51.5185 29.0288 51.649 28.7558L52.4599 23.712L51.2354 23.7747V23.7757ZM51.5448 21.8494C51.4942 21.904 51.4235 22.7898 51.3638 22.9648C51.4356 23.1286 52.3901 23.0002 52.6227 23.0548L52.7613 21.7837C52.5398 21.9374 51.6439 21.7392 51.5448 21.8505V21.8494ZM46.8489 9.45547L45.1987 20.3317L47.0592 20.2973L47.6841 16.0655L52.2142 15.9593C52.2445 15.6762 52.6399 14.0644 52.5014 13.9734L48.0522 13.9643L48.4365 11.4495L53.0312 11.4677C53.1708 11.3979 53.2972 9.73759 53.371 9.43626L46.8489 9.45648V9.45547ZM56.7635 24.9426L56.9232 23.7697C54.3144 23.4865 52.8199 24.1954 52.7077 26.97C52.6126 29.3372 54.3619 28.9024 56.0809 28.9216L56.2417 27.7486C54.7492 27.8053 53.641 28.1258 53.9827 26.1732C54.274 24.5139 55.451 24.9153 56.7635 24.9426ZM54.0606 12.3919C53.9757 12.4121 53.919 12.4384 53.8938 12.5284L52.6561 20.3549C53.0504 20.1689 54.3266 20.4955 54.5308 20.1557L55.7857 12.4263C55.3458 12.493 54.4347 12.2999 54.0606 12.3919ZM54.4095 9.4585L54.099 11.3443C54.4105 11.31 55.8231 11.4586 55.9576 11.309L56.266 9.42311C55.9151 9.52625 54.6006 9.27346 54.4095 9.4585ZM58.2236 24.0508C57.0567 24.6352 56.6179 27.0004 57.0577 28.1329C57.4956 29.2603 59.4876 28.7588 60.427 28.9034L60.5847 27.7304C59.6827 27.604 58.0285 28.2107 58.0113 26.8436C58.4845 26.7415 60.6707 27.0085 60.8972 26.786C61.0569 26.6283 61.2309 25.1924 61.1924 24.9264C61.0023 23.5765 59.1691 23.5775 58.2236 24.0508ZM60.069 25.8719C60.0124 25.9467 58.2236 25.9204 58.2014 25.8193C58.436 24.6908 60.3157 24.4714 60.069 25.8719ZM65.6467 22.9435C65.0066 22.6149 64.6072 20.2579 64.4818 19.5268C64.4798 19.5177 64.5708 19.5187 64.5455 19.3599C64.4949 19.0424 64.4039 18.733 64.3422 18.4205L64.3615 19.4499C64.4575 20.3913 64.6011 22.4905 65.405 23.0568C65.6679 23.2418 66.133 23.3682 66.2695 22.9668C66.0592 23.0153 65.8519 23.0477 65.6477 22.9435H65.6467ZM64.1582 10.954L61.6465 10.8297C62.1116 9.38064 62.4422 7.88714 62.8558 6.42498C62.8649 6.39262 62.9852 6.29251 63.0247 6.15398C63.148 5.71614 63.2805 5.2237 63.321 4.77069C63.0692 5.33392 62.5656 5.80007 62.4392 6.41284C61.6636 7.29256 60.8769 9.13493 60.2187 10.2128C60.0417 10.503 58.984 12.2392 58.8657 12.3211C58.5978 12.5092 57.1053 12.2847 56.6967 12.3282C57.0132 13.7702 57.8161 15.0564 58.2064 16.4781C57.2721 18.1293 56.2903 19.7604 55.3731 21.4167C55.1557 21.809 54.8847 22.1862 54.6997 22.5977C55.1183 22.3641 55.3863 21.8858 55.7119 21.5491C56.8322 20.3863 57.9779 19.2568 59.0285 18.0272L59.9194 20.2184C60.0276 20.3256 61.9953 20.3529 62.055 20.2629L60.4927 16.3213C61.6313 14.481 62.966 12.762 64.1572 10.953L64.1582 10.954ZM65.7104 16.1535C65.5061 16.0241 62.1844 16.106 61.6647 16.108C61.6748 16.3689 61.7415 16.2779 61.9144 16.3062C62.3826 16.3851 63.0803 16.3476 63.5818 16.3618C64.1825 16.378 65.043 16.4356 65.6133 16.3749C65.8105 16.3537 65.7943 16.2081 65.7114 16.1545L65.7104 16.1535ZM66.5345 18.9737C66.0319 19.6289 65.6214 19.2204 65.4171 18.5975C65.3221 18.3093 65.2907 17.9615 65.2118 17.6581C65.1805 17.5398 65.2058 17.2749 65.0389 17.3356C65.0218 17.9645 65.1401 18.461 65.405 19.0141C65.7953 19.8301 66.1917 19.8321 66.6548 19.0505C66.7852 18.8311 66.944 18.5389 66.8975 18.2729C66.6973 18.4246 66.673 18.7916 66.5345 18.9737ZM65.1633 12.2352C65.0935 12.5446 64.9297 12.8581 65.0622 13.1887L65.2836 12.312C65.3827 11.7893 65.7185 10.9136 66.3616 10.9328L67.1038 12.1189C66.6892 9.80837 65.5981 10.3008 65.1633 12.2342V12.2352ZM65.8813 14.1625C65.7953 14.0755 63.6122 14.0118 63.4352 14.0563C63.2482 14.1038 62.7062 14.7045 62.7415 14.8865C63.1844 14.8632 65.7427 15.1494 65.9288 15.0594C66.1189 14.9674 65.9743 14.2575 65.8813 14.1625ZM66.2736 14.477L66.1492 16.2637C66.4637 15.7622 66.4172 15.026 66.2736 14.477ZM66.3747 13.0603C65.8721 12.7701 65.4626 13.5952 65.587 13.6953C65.9399 13.3485 66.126 13.3465 66.309 13.8207C66.5244 14.3799 66.8277 15.5518 66.7408 16.1343C66.6952 16.4407 66.3626 17.3133 65.9379 17.197C65.7538 17.1465 65.7366 16.8755 65.5658 16.9088C65.5546 17.2152 65.8509 17.5145 66.1502 17.464C66.5668 17.3932 66.7832 16.5853 66.8611 16.2111C67.0188 15.4578 67.1189 13.4911 66.3737 13.0603H66.3747ZM64.6436 9.86398C64.8428 10.0207 64.8236 9.66984 64.8448 9.61523C65.2028 8.68799 65.4353 7.23493 66.6376 7.14999C65.5415 6.06702 64.4899 9.74264 64.6436 9.86398ZM66.9298 7.29054C66.675 7.13887 66.7428 7.26425 66.8459 7.422C67.5932 8.56867 67.8925 10.948 67.9815 12.3424C68.1685 15.2879 67.6943 18.3093 67.2312 21.2013C67.58 20.4095 67.7327 19.3721 67.851 18.4994C68.117 16.5428 68.208 14.393 68.1028 12.4192C68.0148 10.7558 67.9309 8.65866 66.9308 7.28953L66.9298 7.29054ZM76.1821 12.9278C76.0547 11.223 76.0436 8.508 74.2113 7.72332C74.0293 7.64546 73.7138 7.6849 73.6157 7.59288C73.3457 7.33706 73.184 6.44115 72.5388 5.95984C72.0413 5.58975 71.3345 5.70805 71.1889 5.61502C71.1161 5.56952 70.56 4.42588 70.3072 4.14174C69.4072 3.1245 68.119 3.07697 66.8328 3.20135C63.6961 3.50774 63.5009 7.44424 62.8781 9.83769L62.6596 9.78107C62.4756 10.3089 63.7912 10.0015 64.0723 10.0945C63.9893 9.92668 64.0551 9.82151 64.0854 9.67691L64.2239 9.72545C64.5384 8.64754 64.957 6.065 65.8317 5.36122C66.8409 4.54925 67.5911 6.17218 67.8318 6.94371C68.9502 10.5051 68.8359 15.3729 68.3131 19.0525C68.1301 20.3418 67.4344 23.9446 66.5072 24.7748C66.0764 25.16 65.7478 25.2905 65.3312 24.8274C65.1107 24.5816 64.7144 23.7484 64.6112 23.4319C64.415 22.8242 64.3453 22.0901 64.1784 21.4561L63.9216 19.3387L63.8154 17.9129L63.78 19.1627C63.9317 19.6279 63.8427 20.2599 63.9064 20.6876L63.7871 20.6542C63.5191 21.0688 63.6284 21.5006 63.6718 21.9809C63.598 21.81 63.5525 21.1659 63.4696 21.1042C63.4372 21.0799 62.8872 21.1366 62.7436 21.0456C62.9488 22.9718 63.5586 26.6626 65.9166 27.0256C67.3293 27.2431 68.9279 27.2582 69.932 26.1206C70.109 25.9204 70.4204 25.2915 70.4639 25.2662C70.6166 25.1782 71.3568 25.2187 71.7956 25.0225C72.5368 24.6898 72.828 23.6847 73.0929 23.5573C73.2315 23.4906 73.4681 23.5725 73.6703 23.5138C75.0142 23.1235 75.4945 21.1133 75.7625 19.9211C75.812 19.7068 75.9313 18.6218 75.9768 18.5702C76.0223 18.5176 76.5087 18.5651 76.714 18.5004C77.4086 18.284 77.9233 17.4367 78.0548 16.7622C78.1225 16.4437 78.1347 15.7096 78.1347 15.7096C78.1347 15.7096 78.1509 15.3799 78.0821 14.9967C77.8839 13.8905 77.5805 12.8692 76.1791 12.9278H76.1821Z" fill="#131313"/>
<path d="M27.8204 11.0216C27.6991 11.3775 26.8659 11.2461 26.8386 11.1551L27.2491 8.32176C24.5018 8.58265 21.2104 7.65742 18.9059 9.55641L17.732 10.7142L17.6703 9.48664C17.5833 8.82634 17.4043 7.96482 17.2274 7.23475C17.2264 7.22969 17.2122 7.2661 17.195 7.31362C16.8694 6.68366 16.7218 5.96572 16.38 5.3388C16.1808 4.97275 15.7238 4.34279 15.3668 4.13752C14.7166 3.76338 12.6377 3.819 12.0057 4.20021C11.2786 4.64007 11.0744 5.86966 10.8155 6.07493C10.4282 6.38435 9.74569 5.8009 8.97821 6.67658C8.71025 6.98297 8.43015 7.88089 8.33207 7.96077C7.90434 8.30154 7.30269 7.77168 6.67172 8.68073C5.96794 9.69696 5.85772 12.0985 5.77986 13.3331C4.15086 13.1623 3.85559 13.7063 3.85964 15.2008C3.86368 16.6862 4.11547 17.4577 5.78694 17.1645C5.95884 18.2737 6.1904 21.7138 7.41898 22.1051C7.68491 22.191 8.29364 22.0798 8.39476 22.1728C8.64856 22.4064 8.75272 23.5683 9.45953 23.9576C9.86804 24.181 10.7892 24.0385 10.9166 24.1365C11.2544 24.3984 11.314 25.5178 12.2716 25.9294C12.7105 26.1184 14.3283 26.1296 14.8289 26.0487C16.7916 25.7342 17.2274 22.4317 17.558 20.8351C17.5722 20.7663 17.4913 20.6288 17.6844 20.6642C17.824 20.6894 18.2992 21.0788 18.5409 21.1829C18.914 21.3427 19.4378 21.4943 19.8403 21.5409C21.4399 21.7259 23.4137 21.4124 25.0478 21.4316C24.9983 21.9059 24.6555 24.8656 24.4906 25.0284C24.4017 25.1164 23.6878 25.1336 23.6746 25.0951C23.5674 24.6826 24.1428 22.5824 23.9112 22.4084C22.3328 22.3872 20.63 22.6056 19.0697 22.3447C18.8635 22.3093 18.1496 22.0121 18.0596 22.1334C17.9544 23.5086 17.0322 26.1144 15.6631 26.6705C15.0624 26.9153 13.1604 27.0052 12.5062 26.89C12.0684 26.8121 11.4617 26.4076 11.1563 26.081C10.8661 25.7726 10.5769 25.0415 10.4788 24.9526C10.4181 24.899 9.73861 24.9404 9.47368 24.8636C8.29465 24.5167 8.3897 23.5703 7.86895 23.1274C7.70514 22.9878 7.421 23.0505 7.21371 22.9575C6.46544 22.6228 6.1813 22.1031 5.88705 21.3841C5.85064 21.2597 5.81525 21.1354 5.78087 21.01C5.56852 20.2546 5.38247 19.4922 5.22068 18.7257C5.19338 18.6004 5.1681 18.475 5.14282 18.3496C5.1226 18.2464 5.10136 18.1433 5.08215 18.0402L4.73431 18.0139C2.7706 18.1635 2.6614 14.1047 3.65033 13.0308C4.16805 12.4686 5.00732 12.508 5.06091 12.4494C5.12159 12.3837 5.19338 10.9458 5.24697 10.6576C5.43202 9.66056 5.81727 8.00223 6.74553 7.45721C7.12877 7.23273 7.58177 7.30654 7.77895 7.19127C7.95793 7.08712 8.34723 5.87573 9.03483 5.52687C9.46964 5.30745 10.1148 5.38329 10.2664 5.30037C10.3645 5.24779 10.9864 3.88169 11.5648 3.49643C12.2848 3.01613 13.6569 2.99691 14.5235 3.06365C17.1445 3.26791 17.8199 6.76253 18.3508 8.82027C21.1669 6.63007 24.9841 7.71809 28.2805 7.37126C28.4393 7.46631 27.9064 10.7617 27.8184 11.0226L27.8204 11.0216Z" fill="#FCD925"/>
<path d="M77.5119 15.7868C77.4361 17.2551 77.1438 18.0741 75.4319 17.8658C75.348 18.7577 75.2014 19.6374 74.9941 20.506C74.625 21.7305 74.1497 23.1553 72.5804 22.8105C72.1871 24.1027 71.5622 24.763 70.1586 24.4961C69.466 26.3334 68.1798 26.6357 66.3971 26.4102C65.1402 26.2505 64.7317 25.8996 64.1796 24.7054C64.0087 24.3373 63.315 22.2998 63.5466 22.0733C63.584 22.0369 63.6275 22.0076 63.673 21.9813C63.6295 21.501 63.5203 21.0702 63.7882 20.6546L63.9076 20.688C64.0572 20.7568 64.0946 21.0409 64.0158 21.1815C64.2412 21.9712 64.4182 22.7741 64.5456 23.5881C64.5497 23.6093 64.5527 23.6295 64.5567 23.6507C64.7873 24.0208 65.0178 24.4577 65.211 24.8561C65.2261 24.8874 65.2413 24.9167 65.2544 24.9471C65.8702 25.5154 67.9978 25.5831 68.6257 25.118C69.9402 24.1432 70.6066 19.3725 70.7603 17.7698C71.0758 14.4764 71.2254 8.21617 69.3376 5.42735C68.7298 4.52841 66.5457 4.70537 65.7105 5.28275C64.939 6.60233 64.4283 8.04022 64.1796 9.59541L64.0845 9.67529C64.0542 9.8209 63.9884 9.92505 64.0714 10.0929C63.7913 9.99887 62.4757 10.3063 62.6587 9.77945L62.8772 9.83607C62.9753 9.73698 63.138 9.69451 63.3635 9.70866C63.5921 8.58828 63.8428 7.43959 64.2696 6.36774C64.7559 5.14523 65.1917 4.15832 66.5578 3.87418C68.8765 3.39286 70.0302 4.08248 70.7714 6.29595C72.2811 6.11495 72.7978 6.96433 73.2124 8.27077C74.6877 8.19392 75.0881 9.29914 75.352 10.5338C75.5179 11.5369 75.6119 12.543 75.6331 13.5562C77.2601 13.4126 77.5867 14.3591 77.5119 15.7848V15.7868Z" fill="#101010"/>
<path d="M44.7604 13.6589C44.8291 15.8531 44.2437 18.0807 43.9413 20.2548L42.0828 20.2891L42.8826 15.0715C42.8108 13.4142 41.4083 14.0957 40.4265 14.5588L39.5377 20.3195C39.2657 20.2922 37.7752 20.4155 37.7307 20.2618L38.6185 14.8814C38.3071 13.4849 36.9733 14.1756 36.0835 14.579L35.2543 20.2932C35.1714 20.3852 33.418 20.3892 33.3877 20.281L34.6335 12.5001C34.7022 12.3504 35.8752 12.3615 36.0228 12.4546C36.3282 12.6467 36.1209 13.1634 36.1826 13.1978C36.6629 13.0987 36.9996 12.6902 37.4617 12.5304C38.4365 12.1937 39.6448 12.4111 40.1959 13.3414C41.5024 12.2766 44.1112 11.5455 44.7604 13.6599V13.6589Z" fill="#FBFBFB"/>
<path d="M19.5044 14.0167C19.1677 15.4293 18.6429 18.3142 20.6369 18.5741C20.9665 18.6165 22.6704 18.6418 22.9312 18.5781C23.0769 18.5427 23.0769 18.4932 23.1163 18.3688C23.3125 17.7378 23.2306 16.7155 23.452 16.0391C23.3549 15.8126 21.6855 16.1806 21.5692 15.9248C21.5358 15.85 21.7724 14.3767 21.8291 14.317C21.9403 14.1977 22.1021 14.2169 22.2457 14.2028C22.5874 14.1694 25.3813 14.1866 25.5077 14.2897L24.7493 19.7137C23.2144 20.554 19.5711 20.9766 18.2081 19.7157C16.5396 18.1706 17.2677 13.5293 18.3729 11.7638C20.1455 8.93252 22.911 9.54428 25.7767 9.49474L25.9719 9.59585L25.7565 11.4443C22.9575 11.5869 20.3487 10.4948 19.5054 14.0177L19.5044 14.0167Z" fill="#FBFBFB"/>
<path d="M33.4206 12.4037C32.9089 14.9206 32.7552 17.5476 32.2476 20.0593C32.0029 21.2717 31.7804 22.2829 30.7207 23.0726C29.3334 24.1081 27.5062 23.8351 25.8843 23.8331L26.1108 22.0261C27.2554 22.0321 29.3749 22.3254 30.0685 21.2111C30.3516 20.7571 30.3213 20.1261 30.5559 19.6559C30.022 19.7873 29.5346 20.2343 28.9987 20.3627C28.7773 20.4153 28.4517 20.3991 28.214 20.3971C26.5031 20.3769 26.0542 19.4425 26.1543 17.854C26.2655 16.1188 26.8479 14.2097 27.0097 12.4523C27.2878 12.4442 28.6913 12.3481 28.7772 12.5008C28.9613 12.8335 27.8439 17.3464 28.0593 18.1068C28.4152 18.9713 30.1049 18.4425 30.6681 18.0279L31.4761 12.4735L33.4185 12.4017L33.4206 12.4037Z" fill="#FBFBFB"/>
<path d="M78.0848 14.9957C78.1536 15.3789 78.1374 15.7086 78.1374 15.7086C78.1374 15.7086 78.1253 16.4427 78.0576 16.7612C77.9261 17.4356 77.4114 18.283 76.7167 18.4994C76.5115 18.5641 76.0251 18.5166 75.9796 18.5692C75.9341 18.6207 75.8148 19.7057 75.7652 19.9201C75.4973 21.1123 75.0169 23.1215 73.6731 23.5128C73.4709 23.5715 73.2342 23.4895 73.0957 23.5563C72.8308 23.6837 72.5396 24.6888 71.7984 25.0215C71.3595 25.2176 70.6193 25.1772 70.4667 25.2652C70.4222 25.2905 70.1107 25.9194 69.9348 26.1196C68.9307 27.2572 67.332 27.242 65.9194 27.0246C63.5603 26.6626 62.9516 22.9708 62.7463 21.0445C62.8899 21.1355 63.44 21.0789 63.4724 21.1032C63.5553 21.1649 63.6008 21.809 63.6746 21.9799C63.7727 23.0689 64.2783 25.0013 65.1216 25.7515C65.2338 25.8496 65.5938 26.0832 65.7293 26.1277C66.0074 26.2197 67.5332 26.2592 67.875 26.2248C68.5485 26.155 68.9266 26.0104 69.3574 25.4947C69.5728 25.2399 69.9014 24.4016 70.0581 24.3248C70.5091 24.1013 71.0936 24.7475 71.854 23.8677C72.1078 23.5745 72.3859 22.714 72.4354 22.6685C72.5972 22.5158 73.1513 22.6877 73.394 22.6311C74.3556 22.4106 74.8339 20.4429 75.0028 19.6006C75.0614 19.3063 75.2 17.7966 75.2647 17.7279C75.5215 17.4518 76.5398 18.0322 77.0221 17.2193C77.288 16.7713 77.3892 15.2909 77.287 14.7793C77.0888 13.7853 76.3274 13.6397 75.4467 13.8136C75.3597 12.5385 75.3911 9.18445 74.0745 8.60101C73.7863 8.47259 73.1463 8.50798 73.0745 8.43922C73.0199 8.38866 72.7287 7.51096 72.5648 7.24603C71.8055 6.02554 71.1229 6.74955 70.6517 6.45529C70.3615 6.27328 70.0763 4.42586 68.9034 4.08105C68.4099 3.93544 66.5291 3.98803 66.067 4.19329C64.5857 4.85359 63.8596 8.32698 63.5442 9.79622C63.4147 10.0177 63.079 9.95295 62.8798 9.83565C63.5027 7.44119 63.6979 3.5057 66.8345 3.19931C68.1207 3.07392 69.41 3.12246 70.3089 4.1397C70.5617 4.42384 71.1179 5.56849 71.1907 5.61298C71.3363 5.70601 72.0431 5.5877 72.5406 5.95779C73.1847 6.43911 73.3475 7.33502 73.6175 7.59084C73.7156 7.68286 74.0321 7.64342 74.2131 7.72128C76.0453 8.50596 76.0554 11.221 76.1838 12.9258C77.5853 12.8672 77.8887 13.8874 78.0869 14.9947L78.0848 14.9957Z" fill="#FCD725"/>
<path d="M60.4926 16.3219L62.0548 20.2635C61.9952 20.3535 60.0274 20.3252 59.9192 20.219L59.0284 18.0278C57.9778 19.2574 56.8321 20.3878 55.7117 21.5497C55.3962 21.7974 55.2173 21.8834 55.372 21.4172C56.2901 19.7609 57.271 18.1299 58.2053 16.4786C57.814 15.0569 57.0121 13.7707 56.6956 12.3288C57.1041 12.2853 58.5966 12.5098 58.8646 12.3217C58.9829 12.2398 60.0406 10.5036 60.2175 10.2134C60.8758 9.13549 61.6635 7.29313 62.4381 6.41341C62.6696 5.98164 63.0286 5.6975 62.8547 6.42554C62.4411 7.8877 62.1105 9.38121 61.6453 10.8302L64.1571 10.9546C62.9649 12.7626 61.6301 14.4826 60.4926 16.3229V16.3219Z" fill="#FDD323"/>
<path d="M53.3706 9.43509C53.2967 9.73642 53.1704 11.3968 53.0308 11.4665L48.436 11.4483L48.0518 13.9631L52.501 13.9722C52.6395 14.0632 52.2441 15.6751 52.2138 15.9582L47.6837 16.0644L47.0588 20.2961L45.1982 20.3305L46.8485 9.45431L53.3706 9.43408V9.43509Z" fill="#FDD221"/>
<path d="M69.4205 24.3466C69.2405 24.6854 68.8481 25.3022 68.4993 25.4549C68.0665 25.645 66.3526 25.643 65.8844 25.4883C65.487 25.3578 65.4799 25.2304 65.2544 24.9473C65.2322 24.9078 65.216 24.8775 65.2109 24.8563C65.1958 24.8057 65.2261 24.7997 65.3323 24.827C65.7489 25.2911 66.0765 25.1596 66.5083 24.7744C67.4365 23.9442 68.1312 20.3414 68.3142 19.0521C68.837 15.3715 68.9513 10.5047 67.8329 6.94331C67.5912 6.17178 66.842 4.54885 65.8328 5.36082C65.6832 5.46194 65.6559 5.46295 65.7125 5.28397C66.4284 4.49121 67.1807 4.57413 68.1878 4.66716C68.9068 4.7349 69.1555 4.78647 69.5762 5.41542C71.9363 8.95454 71.4367 20.5537 69.4205 24.3466Z" fill="#FBFBFB"/>
<path d="M16.08 6.00553C15.7463 5.3513 15.4096 4.67685 14.5935 4.54843C14.2548 4.49484 12.9211 4.50292 12.6126 4.58483C11.3558 4.91447 10.6965 8.30191 10.4973 9.43443C9.81068 13.3578 9.80664 18.7777 10.9169 22.61C11.1454 23.3988 11.7805 25.2644 12.6733 25.4353C12.9352 25.4858 14.4378 25.505 14.7027 25.4595C15.1214 25.3887 15.2943 25.2411 15.5703 24.956C15.6603 24.7578 15.5875 24.7396 15.3509 24.9004C14.2851 24.9984 13.9575 24.0267 13.6339 23.1409C12.194 19.2105 12.1687 11.1736 13.4125 7.14108C13.8776 5.63039 14.8332 3.78904 16.0031 6.12586C16.1083 6.13597 16.1063 6.09957 16.08 6.00553ZM14.2204 24.9408C12.8907 24.8468 12.4529 25.4332 11.7794 24.0469C10.7703 21.971 10.4073 18.7676 10.3274 16.4591C10.3021 15.7613 10.2738 14.8867 10.3183 14.2021L10.4599 14.3781C10.4629 14.5692 10.5195 14.7835 10.4892 14.9918C10.929 14.8826 11.5944 15.0677 11.9958 14.9827C12.2355 14.9312 12.0059 14.7391 12.191 14.7239C12.4337 18.1508 12.4438 21.8992 14.2204 24.9408Z" fill="#FAFAFA"/>
<path d="M55.7844 12.4263L54.5295 20.1557C54.3253 20.4955 53.0491 20.1689 52.6548 20.3549L53.8925 12.5284C53.9167 12.4384 53.9744 12.4121 54.0593 12.3919C54.4334 12.2999 55.3445 12.493 55.7844 12.4263Z" fill="#FCD423"/>
<path d="M41.1477 26.9113C41.6381 25.2995 41.6553 23.4106 39.3811 23.7756C37.92 24.0102 37.3689 24.9799 37.1495 26.343C36.6651 29.3341 38.3346 28.8871 40.5966 28.9003L40.8099 27.7131C39.9322 27.696 38.1809 28.2652 38.1576 26.9467L41.1477 26.9123V26.9113ZM40.0839 24.9981C40.3549 25.1882 40.2285 25.5735 40.2963 25.8536L38.4569 25.9476C38.3083 25.1255 39.5278 24.6088 40.0839 24.9981Z" fill="#FCFCFC"/>
<path d="M58.2234 24.0507C57.0565 24.6352 56.6176 27.0003 57.0575 28.1328C57.4953 29.2603 59.4873 28.7588 60.4267 28.9034L60.5845 27.7304C59.6825 27.604 58.0282 28.2107 58.011 26.8436C58.4842 26.7415 60.6704 27.0084 60.8969 26.786C61.0567 26.6282 61.2306 25.1923 61.1922 24.9264C61.0021 23.5765 59.1688 23.5775 58.2234 24.0507ZM60.0687 25.8719C60.0121 25.9467 58.2234 25.9204 58.2011 25.8193C58.4357 24.6908 60.3155 24.4714 60.0687 25.8719Z" fill="#FCFCFC"/>
<path d="M10.7115 7.02363C10.6599 7.34316 9.95005 7.11868 9.68816 7.21677C9.24021 7.38665 8.9864 8.58388 8.87416 9.03183C8.8145 9.49697 8.85495 9.52225 8.99449 9.10868C9.09561 8.48782 9.79231 8.63848 10.2655 8.77802C9.81759 10.8378 9.6831 12.9602 9.67704 15.0675C8.63249 15.0089 8.3979 15.4285 8.35341 14.2181C8.33723 13.6933 8.29678 13.6681 8.23308 14.1413C8.17847 16.6551 8.30791 19.6755 9.1492 22.0548C9.21493 22.2398 9.52334 22.8627 9.64266 22.9749C9.90657 23.2237 10.8369 22.797 10.8692 23.344C10.8813 23.5381 10.6963 23.4775 10.6134 23.4856C9.7276 23.5725 9.38177 23.2813 9.03696 22.4946C7.66884 19.3721 7.6648 11.4404 8.81349 8.18648C9.11078 7.34418 9.43132 6.60905 10.5183 6.79915C10.6761 6.82645 10.7519 6.76781 10.7105 7.02464L10.7115 7.02363Z" fill="#FAFAFA"/>
<path d="M36.5729 24.9122C36.499 25.0174 34.4474 24.8182 34.1258 25.0821C33.959 25.2186 33.9054 25.7444 34.1086 25.8415C34.2815 25.9234 35.1188 25.8071 35.4818 25.887C36.7326 26.162 36.5971 27.7344 35.8347 28.4726C35.0076 29.2724 33.3492 28.8629 32.2834 28.9559C32.3583 28.779 32.336 27.9488 32.3674 27.9063C32.5312 27.6828 34.962 28.1632 35.1238 27.5079C35.3271 26.6808 34.1824 27.0852 33.6142 26.9467C32.3158 26.6292 32.6535 24.4481 33.7598 24.0001C34.144 23.8454 36.2068 23.6988 36.5435 23.8323C36.8226 23.9425 36.4262 24.6473 36.5729 24.9122Z" fill="#FCFCFC"/>
<path d="M50.6467 23.9514C50.2311 24.4873 48.0823 28.9284 47.779 28.9628C47.7223 28.9689 46.6687 28.9041 46.6424 28.8546L45.8557 23.8109C46.0499 23.82 47.0125 23.7118 47.0752 23.7613C47.2188 23.8715 47.3826 26.9303 47.5656 27.3702C48.146 26.8616 49.0187 24.092 49.4707 23.8007C49.5546 23.7461 50.3403 23.7785 50.4859 23.8098C50.5971 23.8341 50.6365 23.7552 50.6456 23.9524L50.6467 23.9514Z" fill="#FBFBFB"/>
<path d="M53.9827 26.1742C53.6409 28.1267 54.7491 27.8062 56.2416 27.7496L56.0808 28.9225C54.3618 28.9033 52.6125 29.3381 52.7076 26.971C52.8198 24.1963 54.3133 23.4885 56.9232 23.7706L56.7634 24.9436C55.4509 24.9163 54.2729 24.5148 53.9827 26.1742Z" fill="#FBFBFB"/>
<path d="M7.4935 9.05205C7.01824 9.20878 6.97881 10.0784 6.80994 10.4677C6.98285 10.6002 7.00813 10.2968 7.1861 10.2746C7.34081 10.2554 7.92729 10.3049 7.94448 10.5092L7.61585 15.1049C7.31452 15.0736 6.98083 15.1484 6.68456 15.1009C6.58243 15.0675 6.54097 14.8977 6.52681 14.7126C6.50962 14.8249 6.48232 14.9159 6.44289 14.9462C6.44086 15.92 6.49547 17.103 6.60973 18.0677C6.68658 18.7169 6.98184 20.7473 7.44193 21.1396C7.69978 21.3591 8.37423 21.0709 8.37423 21.4056C8.37423 21.6533 7.65933 21.6098 7.51979 21.5492C7.22554 21.4228 6.90904 20.7069 6.81196 20.4005C6.04853 18.0101 5.89887 12.0563 6.8059 9.70022C7.04049 9.09149 7.38227 8.36951 8.18615 8.71432C8.73016 8.94689 7.54001 9.03587 7.4935 9.05104V9.05205Z" fill="#FBFBFA"/>
<path d="M45.6736 25.1908C45.5361 25.3778 43.987 25.1675 43.6816 25.4446L43.1345 29.1707L42 29.1657L42.6957 24.2605C42.6876 23.9794 43.4925 23.9753 43.5542 24.0228C43.632 24.0825 43.633 24.4688 43.6937 24.6023C44.3874 24.0926 44.8889 23.9824 45.7454 24.0491C45.7919 24.0825 45.708 25.1453 45.6736 25.1908Z" fill="#FBFCFC"/>
<path d="M52.4585 23.7131L51.6475 28.7568C51.5171 29.0299 50.6859 28.7963 50.3906 28.9257L51.2339 23.7768L52.4585 23.7141V23.7131Z" fill="#FBFBFB"/>
<path d="M56.2656 9.42345L55.9572 11.3093C55.8227 11.4589 54.4101 11.3103 54.0986 11.3447L54.4091 9.45884C54.6002 9.27278 55.9147 9.52558 56.2656 9.42345Z" fill="#FBD722"/>
<path d="M65.9273 15.0589C65.7413 15.1489 63.183 14.8627 62.7401 14.886C62.7057 14.704 63.2467 14.1033 63.4338 14.0558C63.6117 14.0113 65.7938 14.075 65.8798 14.162C65.9728 14.256 66.1164 14.9659 65.9273 15.0589Z" fill="#FAFAFA"/>
<path d="M5.85044 15.0766C5.81505 15.2363 5.75438 15.2434 5.67045 15.0968C5.65731 15.0746 5.64416 15.0493 5.63102 15.022C5.29531 14.9866 4.93836 15.1069 4.62692 14.933C4.48435 14.9724 4.53592 15.6277 4.55311 15.7753C4.49041 15.9017 4.4439 15.8441 4.41154 15.5994C4.30941 14.2585 4.29424 13.8783 5.81 13.9481C5.86359 13.9835 5.85348 14.9087 5.85044 15.0776V15.0766Z" fill="#F6F6F4"/>
<path d="M14.033 8.00537C13.1644 10.1693 13.125 14.6144 13.3029 16.9634C13.2463 17.0251 13.1988 16.9664 13.1614 16.7874C12.9905 14.4152 12.9642 10.0945 13.9127 7.92751C14.0229 7.76572 14.0856 7.81021 14.033 8.00436V8.00537Z" fill="#D6D6D6"/>
<path d="M52.761 21.7839L52.6224 23.0549C52.3899 23.0003 51.4363 23.1297 51.3635 22.9649C51.4232 22.79 51.495 21.9042 51.5445 21.8496C51.6436 21.7394 52.5385 21.9376 52.761 21.7829V21.7839Z" fill="#F9F9F9"/>
<path d="M68.1019 12.4199C68.207 14.3937 68.117 16.5435 67.8501 18.5001C67.7318 19.3727 67.5791 20.4102 67.2302 21.202C67.6944 18.31 68.1686 15.2876 67.9805 12.3431C68.022 12.246 68.0624 12.2723 68.1008 12.4199H68.1019Z" fill="#CAC9C9"/>
<path d="M66.8613 16.2112C66.7601 16.3709 66.7369 16.3204 66.7409 16.1343C66.8279 15.5519 66.5245 14.3809 66.3092 13.8207C66.1251 13.3465 65.9401 13.3485 65.5872 13.6954C65.4628 13.5953 65.8723 12.7701 66.3749 13.0603C67.1191 13.4911 67.02 15.4578 66.8623 16.2112H66.8613Z" fill="#F6F6F6"/>
<path d="M15.7805 13.6263C15.551 13.6394 15.5308 13.2987 15.3922 13.238C14.9119 13.0297 14.8411 14.1784 14.825 14.4565L14.828 14.4686C14.8674 14.6506 14.7572 14.774 14.4953 14.8397C14.3932 15.0733 14.3588 14.864 14.3538 14.6638C14.377 14.2087 14.3093 13.8993 14.4771 13.4271C14.8604 12.3451 15.6076 12.6525 15.7815 13.6273L15.7805 13.6263Z" fill="#F4F4F4"/>
<path d="M16.5814 13.9703C16.5936 14.0886 16.5744 14.765 16.5511 14.7984C16.4672 14.9137 15.4489 14.7832 15.2295 14.8844C15.2356 14.7478 15.2295 14.0946 15.2639 14.0572C15.3791 13.9298 16.3438 14.0774 16.5824 13.9692L16.5814 13.9703Z" fill="#F8F8F8"/>
<path d="M65.612 16.3742C65.0417 16.4349 64.1812 16.3783 63.5805 16.3611C63.079 16.3479 62.3823 16.3843 61.9131 16.3055C61.7402 16.2772 61.6745 16.3682 61.6633 16.1073C62.1831 16.1053 65.5048 16.0244 65.709 16.1528C65.792 16.2064 65.8081 16.352 65.611 16.3732L65.612 16.3742Z" fill="#E9E9E8"/>
<path d="M66.2682 22.9668C66.1317 23.3682 65.6665 23.2408 65.4036 23.0568C64.5998 22.4905 64.4572 20.3913 64.3601 19.4499C64.4572 19.2952 64.4986 19.3427 64.4804 19.5268C64.6068 20.2578 65.0052 22.6149 65.6453 22.9435C65.8496 23.0477 66.0569 23.0143 66.2672 22.9668H66.2682Z" fill="#E6E6E6"/>
<path d="M68.1019 12.4199L67.9815 12.343C67.8926 10.9486 67.5933 8.56934 66.846 7.42266C66.7429 7.26492 66.6751 7.14055 66.9299 7.29121C67.929 8.66034 68.0139 10.7565 68.1019 12.4209V12.4199Z" fill="#DBDBDB"/>
<path d="M16.628 19.8594C16.5583 20.5298 16.4935 21.2336 16.261 21.8747C16.0486 22.4611 15.4217 23.6503 14.7209 22.9698C15.273 23.0618 15.5491 22.6957 15.8049 22.263C16.2215 21.5592 16.3783 20.5753 16.5077 19.7836C16.5724 19.6299 16.6118 19.6551 16.628 19.8604V19.8594Z" fill="#EDEEEE"/>
<path d="M16.7771 10.6129C16.6497 10.7444 16.6345 10.5877 16.6345 10.44C16.6345 10.439 16.6345 10.438 16.6345 10.437C16.4768 9.54008 16.2756 8.72102 15.8246 7.92422C15.588 7.50559 15.314 6.9545 14.7477 7.02023C14.6557 7.01113 14.6496 6.97776 14.7265 6.92113C14.9631 6.80384 14.9085 6.74822 15.226 6.86855C16.3666 7.30235 16.5193 9.58255 16.7761 10.6129H16.7771Z" fill="#F0EFF0"/>
<path d="M66.6377 7.15022C65.4354 7.23415 65.2029 8.68822 64.8449 9.61547C64.8237 9.67108 64.8429 10.0209 64.6437 9.86422C64.49 9.74288 65.5416 6.06725 66.6377 7.15022Z" fill="#E7E7E8"/>
<path d="M17.272 10.5052C17.2184 10.6428 17.1779 10.6155 17.1516 10.4284C16.9656 9.20386 16.5449 7.20982 16.0029 6.12584L16.0798 6.00551C16.7927 7.40295 17.1041 8.95106 17.272 10.5063V10.5052Z" fill="#C3C4C1"/>
<path d="M67.1033 12.1201L66.3611 10.934C65.718 10.9148 65.3823 11.7904 65.2832 12.3132C65.1831 12.472 65.1467 12.4224 65.1629 12.2364C65.5977 10.303 66.6887 9.81056 67.1033 12.1211V12.1201Z" fill="#E6E7E6"/>
<path d="M65.8315 5.36026C64.9568 6.06404 64.5382 8.64658 64.2237 9.7245L64.0852 9.67596C64.3623 8.35638 64.8072 6.2865 65.7112 5.28341L65.8315 5.36026Z" fill="#CECFD0"/>
<path d="M17.1093 20.169C16.9384 21.6059 16.6118 23.8831 15.5703 24.9559C15.5237 24.8629 15.4348 24.8922 15.3508 24.9003C15.8382 24.4635 16.094 23.9528 16.2953 23.3401L17.1093 20.169Z" fill="#C9CBC9"/>
<path d="M15.8442 11.0767L16.2447 12.9039C16.0758 12.9646 16.1011 12.7017 16.0707 12.5803C15.9454 12.099 15.6602 10.4316 14.8654 10.8664C14.6076 11.0069 14.5772 11.4054 14.2749 11.4711C14.4155 11.0413 14.83 10.1454 15.4246 10.5418C15.4924 10.5883 15.8351 11.0332 15.8453 11.0767H15.8442Z" fill="#EBEBEB"/>
<path d="M15.7267 16.6914C15.4608 17.6591 14.7479 17.3284 14.4627 16.5468C14.211 15.8531 14.3171 15.3465 14.3515 14.664C14.3636 14.7692 14.3738 14.8278 14.4931 14.8399C14.3171 15.2282 14.5487 16.6398 14.939 16.8593C15.3849 17.109 15.3789 16.7359 15.7247 16.6914H15.7267Z" fill="#DDDEDE"/>
<path d="M15.9301 18.563C15.6732 19.2981 15.204 20.199 14.5903 19.0635C14.5367 18.9169 14.5549 18.8441 14.6459 18.8441C15.1606 19.5701 15.5438 19.107 15.8097 18.4861C15.92 18.3243 15.9826 18.3688 15.9301 18.563Z" fill="#ECECEB"/>
<path d="M13.785 20.5843C13.5575 20.3376 13.4453 19.9826 13.4483 19.5195C13.2481 18.5801 13.2279 17.7247 13.1611 16.7873L13.3027 16.9633C13.3947 18.1777 13.4625 19.4012 13.785 20.5843Z" fill="#CCCDCE"/>
<path d="M63.3207 4.77114C63.2803 5.22414 63.1478 5.71658 63.0244 6.15442C62.985 6.29194 62.8657 6.39306 62.8556 6.42542C62.7019 5.78534 62.627 6.3243 62.6038 6.34756C62.534 6.41126 62.4471 6.40519 62.439 6.41328C62.5644 5.80051 63.0689 5.33436 63.3207 4.77114Z" fill="#E2D349"/>
<path d="M5.61196 16.5769C5.3895 16.6153 4.83841 16.6011 4.65135 16.4828C4.2671 16.2432 4.43394 15.8822 4.4117 15.597C4.41979 15.6729 4.54315 15.7437 4.55326 15.773C4.60888 15.9287 4.5836 16.2229 4.76662 16.3008C4.91122 16.3615 5.5705 16.2422 5.81218 16.3261C5.90723 16.5738 5.81622 16.5405 5.60994 16.5758L5.61196 16.5769Z" fill="#DDDDDC"/>
<path d="M66.6543 19.0512C66.1912 19.8328 65.7938 19.8308 65.4045 19.0147C65.3216 18.8085 65.3256 18.6689 65.4166 18.5981C65.6209 19.221 66.0314 19.6306 66.534 18.9743C66.6442 18.8125 66.7069 18.857 66.6543 19.0512Z" fill="#EDEDED"/>
<path d="M5.77993 21.0083C5.8133 21.1569 5.84465 21.2752 5.87195 21.348C5.70814 20.9506 5.47354 20.4167 5.37445 19.993C5.28951 19.628 5.28648 19.1649 5.21974 18.724C5.19952 18.5956 5.17525 18.4702 5.14188 18.3479C5.12772 18.2933 5.11053 18.2387 5.09132 18.1861C5.01447 17.9737 4.881 18.1052 4.73438 18.0122C4.83549 18.0051 5.10244 17.908 5.12974 17.9242C5.25412 18.0071 5.57062 20.0911 5.78094 21.0083H5.77993Z" fill="#E8CF69"/>
<path d="M66.861 16.2113C66.7822 16.5854 66.5658 17.3933 66.1502 17.4641C65.8509 17.5147 65.5546 17.2154 65.5657 16.909C65.7376 16.8756 65.7538 17.1466 65.9379 17.1972C66.3615 17.3134 66.6942 16.4408 66.7407 16.1344L66.861 16.2113Z" fill="#D5D5D3"/>
<path d="M63.9235 19.3385L64.1804 21.4559C64.1227 21.3902 64.0681 21.2982 64.0166 21.1809C63.9883 21.015 63.9337 20.8522 63.9084 20.6874C63.8447 20.2597 63.9326 19.6277 63.782 19.1626C63.8376 19.1019 63.8851 19.1606 63.9235 19.3385Z" fill="#BDBDBD"/>
<path d="M55.7117 21.5498C55.3861 21.8875 55.1181 22.3648 54.6995 22.5984C54.8835 22.1868 55.1555 21.8097 55.3729 21.4173C55.384 21.6914 55.4791 21.6054 55.7127 21.5498H55.7117Z" fill="#D4C04B"/>
<path d="M15.2778 16.5313C15.115 16.5495 14.9997 16.1471 14.9633 16.0298C14.8794 15.7608 14.8136 15.4211 14.7641 15.14C14.7418 15.0156 14.8066 14.785 14.7914 14.7759C14.757 14.7557 14.573 14.8477 14.4951 14.8396C14.5497 14.7193 14.8076 14.6526 14.8258 14.4564L14.8288 14.4685C15.0128 15.1814 14.9279 15.8559 15.2798 16.5313H15.2778Z" fill="#B0B0AF"/>
<path d="M17.8228 9.7127C17.7126 9.91089 17.6853 9.54788 17.6701 9.48721C17.4992 8.79253 17.3111 8.01494 17.1949 7.3142C17.1766 7.20297 17.0563 7.0068 17.2282 6.9977L17.8238 9.7127H17.8228Z" fill="#F2D765"/>
<path d="M14.0009 21.5727C13.8442 21.5596 13.7047 21.1045 13.6652 20.9731C13.5408 20.5625 13.375 19.9447 13.4498 19.52C13.5378 19.9336 13.6986 20.2683 13.7866 20.5848C13.8755 20.9074 13.919 21.2481 14.0019 21.5717L14.0009 21.5727Z" fill="#767779"/>
<path d="M65.4168 18.5975L65.4047 19.0141C65.1398 18.461 65.0205 17.9645 65.0387 17.3355C65.2055 17.2739 65.1802 17.5398 65.2116 17.6581C65.2904 17.9615 65.3218 18.3093 65.4168 18.5975Z" fill="#B0AFAE"/>
<path d="M65.3323 24.8273L65.2555 24.9476C64.9289 24.5391 64.7175 24.171 64.5578 23.6513C64.5537 23.63 64.5517 23.6088 64.5467 23.5886C64.5376 23.5067 64.5598 23.4551 64.6124 23.4319C64.7145 23.7484 65.1119 24.5816 65.3323 24.8273Z" fill="#C0C0BC"/>
<path d="M64.6122 23.4317L64.5566 23.6511C64.3382 22.9433 64.142 21.9241 64.0156 21.1819C64.1552 21.2011 64.1501 21.3487 64.1794 21.4569C64.3463 22.0899 64.416 22.824 64.6122 23.4327V23.4317Z" fill="#EAEAE8"/>
<path d="M66.1492 16.2638L66.2735 14.4771C66.4171 15.0261 66.4636 15.7623 66.1492 16.2638Z" fill="#9F9F9D"/>
<path d="M16.2403 17.1495C16.2747 17.6439 16.0887 18.1101 15.9299 18.5631L15.8096 18.4863C16.0108 18.0171 15.9451 17.5317 16.2403 17.1495Z" fill="#B9B8B7"/>
<path d="M16.3424 16.1942C16.0209 16.2295 15.581 16.2922 15.3687 15.995C15.4799 15.8959 16.5416 15.9262 16.3424 16.1942Z" fill="#CDCDCC"/>
<path d="M8.99538 9.10848L8.6627 10.422C8.57473 9.94675 8.76179 9.47959 8.87505 9.03062L8.99538 9.10747V9.10848Z" fill="#4D4F4E"/>
<path d="M63.8159 17.9129L63.9231 19.3386L63.7805 19.1627L63.8159 17.9129Z" fill="#838384"/>
<path d="M14.7276 6.92236L14.7488 7.02146C14.4354 7.24392 14.1745 7.65243 14.0329 8.00634L13.9126 7.92949C14.0976 7.50682 14.3019 7.13269 14.7276 6.92337V6.92236Z" fill="#B4B4B4"/>
<path d="M16.7978 11.6438C16.7422 11.3293 16.637 11.0168 16.5854 10.6993C16.5662 10.578 16.6289 10.4668 16.636 10.4405C16.636 10.4395 16.636 10.4384 16.636 10.4374L16.7776 10.6134L16.7968 11.6428L16.7978 11.6438Z" fill="#6B6A6B"/>
<path d="M64.5455 19.3601C64.5708 19.5188 64.4798 19.5188 64.4818 19.5269L64.3615 19.4501L64.3423 18.4207C64.404 18.7331 64.495 19.0436 64.5455 19.3601Z" fill="#919190"/>
<path d="M6.56549 14.0914L6.6838 15.1006C6.61807 15.0905 6.51493 14.9813 6.44314 14.9459C6.44314 14.6891 6.32483 14.2735 6.56549 14.0914Z" fill="#4D4D4C"/>
<path d="M65.2833 12.3134L65.0618 13.1901C64.9294 12.8584 65.0922 12.546 65.1629 12.2365L65.2833 12.3134Z" fill="#8D8D8B"/>
<path d="M14.6462 18.8446L14.5906 19.0641C14.4328 18.7718 14.3267 18.5625 14.2983 18.1975L14.6462 18.8446Z" fill="#A2A2A1"/>
<path d="M66.8972 18.2728C66.9437 18.5388 66.785 18.832 66.6545 19.0504L66.5342 18.9736C66.6727 18.7926 66.698 18.4245 66.8972 18.2728Z" fill="#A9A9A9"/>
<path d="M16.7522 19.005C16.7189 19.2861 16.6572 19.5793 16.6289 19.8594L16.5085 19.7825C16.5358 19.6137 16.548 19.4387 16.5783 19.2719C16.6066 19.1111 16.459 19.0151 16.7532 19.006L16.7522 19.005Z" fill="#8E8E8E"/>
<path d="M8.40116 13.4843C8.46183 13.7078 8.34757 14.0303 8.35465 14.2184L8.23432 14.1416C8.23836 13.9474 8.11399 13.4631 8.40116 13.4853V13.4843Z" fill="#8C8D8B"/>
<path d="M5.85077 15.0769C5.84774 15.2103 5.94077 15.7837 5.66269 15.635C5.63944 15.6229 5.72539 15.2791 5.67078 15.0971C5.66168 15.0667 5.64955 15.0405 5.63135 15.0223C5.70314 15.0303 5.77797 15.0667 5.85077 15.0779V15.0769Z" fill="#C3C4C4"/>
<path d="M17.2721 10.5048C17.2944 10.7101 17.2802 10.9143 17.3014 11.1186L17.2044 11.1408C17.0426 10.9244 17.169 10.5493 17.1508 10.4279L17.2711 10.5048H17.2721Z" fill="#828281"/>
<path d="M72.1727 8.32002C72.0705 8.06318 72.115 7.81342 71.8167 7.61725C71.574 7.45749 70.4314 7.60411 70.6852 7.19761C70.7287 7.12885 71.2312 7.10964 71.3738 7.11773C72.0584 7.15413 72.1919 7.54849 72.4295 8.12082C73.6611 11.0886 73.2789 18.4105 72.3264 21.5391C72.1251 22.1994 71.7652 23.522 71.0381 23.6929C70.8955 23.7263 70.0815 23.7556 70.12 23.523C70.3606 22.9628 70.941 23.5281 71.4264 23.0852C71.6489 22.882 71.9553 21.9618 72.0645 21.6261C72.4143 20.5562 72.6186 19.2761 72.744 18.1557C72.8552 17.1627 73.018 15.5894 72.931 14.6227C72.924 14.5408 72.8876 14.2586 72.7905 14.4498L72.7177 15.5509C72.4871 15.5105 71.5558 15.647 71.479 15.464C71.5346 13.7521 71.5285 12.0159 71.3657 10.308C71.3465 10.1047 71.0624 9.21188 71.2768 9.13098L72.2697 9.23109L72.3931 9.31906C72.3547 8.97627 72.2819 8.64359 72.1737 8.32002H72.1727Z" fill="#FBFBFB"/>
<path d="M74.1529 9.80144C73.9577 9.37271 72.8282 9.57393 73.081 9.15632C73.1761 8.99857 73.9557 9.18159 74.1549 9.40102C74.8384 10.1513 74.9517 13.1363 74.9719 14.2314C74.9932 15.3619 74.9123 16.7199 74.7778 17.8433C74.6767 18.6917 74.2651 21.7313 73.3571 21.9881C72.7817 22.1509 72.17 21.6726 72.9263 21.6555C73.3642 21.6464 73.4107 21.8516 73.7221 21.3268C74.613 19.8272 74.5786 16.5612 74.6312 14.8199C74.4441 14.9311 74.5836 15.5864 74.5058 15.6754C74.4754 15.7108 73.6159 15.6956 73.5785 15.6683C73.3874 15.5257 73.6958 11.5053 73.3793 10.9178C73.3945 10.6286 73.9446 10.7884 74.1761 10.8278L74.5766 11.7267C74.3733 11.1857 74.3784 10.2919 74.1549 9.80043L74.1529 9.80144Z" fill="#FBFBFB"/>
<path d="M76.8446 15.4747C76.7637 15.5333 76.6575 15.5222 76.5271 15.4403C76.1439 15.502 75.8648 15.4241 75.4957 15.4585C75.4077 15.6213 75.3602 15.5627 75.3541 15.2826C75.3642 14.9772 75.3248 14.6577 75.3582 14.3493C76.518 14.3755 76.8082 14.1996 76.8456 15.4737L76.8446 15.4747Z" fill="#F8F8F8"/>
<path d="M76.526 15.4406C76.5654 15.4345 76.6059 15.1453 76.8435 15.4749C76.8799 16.7298 76.6494 17.3497 75.2529 16.9624C75.2833 16.4841 76.1943 16.9907 76.528 16.5883C76.6332 16.4608 76.7545 15.5771 76.526 15.4406Z" fill="#DADBD9"/>
<path d="M72.1726 8.32014C72.39 8.86516 72.5579 9.41827 72.6489 10.026L72.6377 10.9087C72.5427 10.3496 72.3516 9.78937 72.2697 9.23019C72.2393 9.02796 72.3364 8.60023 72.1736 8.31913L72.1726 8.32014Z" fill="#494847"/>
<path d="M75.4953 15.4594C75.5125 15.5534 75.3952 16.0903 75.3082 16.0175C75.2 15.7748 75.3467 15.4897 75.3537 15.2834C75.3568 15.3572 75.4933 15.4462 75.4953 15.4594Z" fill="#8D8D8E"/>
<path d="M60.8836 12.5518C60.9645 12.7126 60.8563 12.7642 60.8017 12.8805C60.7167 13.0594 59.931 14.3082 59.838 14.3861C59.7298 14.4771 59.6833 14.4963 59.5771 14.3912C59.3355 14.1505 59.0695 12.9563 58.8218 12.5892L60.8836 12.5528V12.5518Z" fill="#131412"/>
<path d="M70.8129 15.3462C70.7876 17.1259 70.6622 18.9218 70.3073 20.6691C70.1405 21.4922 69.2931 24.6389 68.6136 25.0191C68.2061 25.2467 67.2768 25.0707 66.8147 24.9676C68.472 21.8683 68.7956 18.1897 68.919 14.7254C69.1647 14.7335 69.0039 15.2269 69.2526 15.329C69.3062 15.3513 70.2284 15.3857 70.4034 15.3897C70.6046 15.3948 70.7815 15.4585 70.6713 15.1693C70.736 15.0813 70.7836 15.14 70.8129 15.3452V15.3462Z" fill="#121212"/>
<path d="M69.9498 7.1499C70.0904 7.45427 70.1086 7.69189 70.0024 7.86278C70.1005 6.84554 68.4897 7.41685 68.2157 7.20451C68.062 7.08519 67.6363 5.38641 67.2358 5.15688C69.0287 5.02239 69.5615 5.37428 69.9488 7.1499H69.9498Z" fill="#111111"/>
<path d="M69.9502 7.15004C70.386 8.00954 70.4325 9.07431 70.5761 10.0147C70.4083 10.0754 70.4345 9.81044 70.4032 9.69214C70.2465 9.09453 70.1271 8.46962 70.0028 7.86393C69.9795 7.74967 70.0099 7.42609 69.9502 7.15105V7.15004Z" fill="#464645"/>
<path d="M70.8127 15.3467L70.6711 15.1708L70.8279 13.9988C70.9037 14.4468 70.8198 14.9028 70.8137 15.3467H70.8127Z" fill="#494846"/>
<path d="M14.2201 24.9406C12.8905 24.8466 12.4526 25.4331 11.7792 24.0467C10.77 21.9708 10.407 18.7674 10.3271 16.4589C10.3018 15.7612 10.2735 14.8865 10.318 14.2019L10.4596 14.3779C10.4626 14.569 10.5192 14.7834 10.4889 14.9917C10.9288 14.8825 11.5941 15.0675 11.9956 14.9826C12.2352 14.931 12.0057 14.7389 12.1907 14.7237C12.4334 18.1506 12.4435 21.899 14.2201 24.9406Z" fill="#131313"/>
<path d="M10.4597 14.3776L10.3181 14.2017C10.3879 14.0975 10.4354 14.1562 10.4597 14.3776Z" fill="#131313"/>
<path d="M11.0267 8.45657C11.1743 7.70527 11.6749 5.25519 12.499 5.04284C12.5829 5.02161 13.9338 4.97307 13.9986 5.0115C14.1796 5.11868 13.8509 5.31586 13.7953 5.42911C13.679 5.66573 13.2422 6.84779 13.1704 6.90441C12.8529 7.1562 11.7457 6.84172 11.5444 7.04193C11.3847 7.20271 11.2107 8.2513 11.147 8.53342C11.0459 8.69217 10.9944 8.64566 11.0267 8.45657Z" fill="#121212"/>
<path d="M11.1473 8.53437C11.0947 8.76391 11.0523 9.14107 10.9046 9.31196C10.7752 8.99546 10.9795 8.70121 11.027 8.45752L11.1473 8.53437Z" fill="#858685"/>
<path d="M10.4597 14.3778L10.3181 14.2018C10.3313 14.0016 10.304 13.6649 10.4839 13.5446C10.58 13.8065 10.4566 14.1422 10.4607 14.3778H10.4597Z" fill="#8E8E8D"/>
</svg>
