<svg width="32" height="32" viewBox="0 0 32 32" fill="none" xmlns="http://www.w3.org/2000/svg">
<path fill-rule="evenodd" clip-rule="evenodd" d="M20 2.66675C20.3536 2.66675 20.6927 2.80722 20.9428 3.05727C21.1928 3.30732 21.3333 3.64646 21.3333 4.00008V5.33341H22.6667C23.7275 5.33341 24.7449 5.75484 25.4951 6.50499C26.2452 7.25513 26.6667 8.27255 26.6667 9.33341V10.6667H28C28.3536 10.6667 28.6927 10.8072 28.9428 11.0573C29.1928 11.3073 29.3333 11.6465 29.3333 12.0001C29.3333 12.3537 29.1928 12.6928 28.9428 12.9429C28.6927 13.1929 28.3536 13.3334 28 13.3334H26.6667V18.6667H28C28.3536 18.6667 28.6927 18.8072 28.9428 19.0573C29.1928 19.3073 29.3333 19.6465 29.3333 20.0001C29.3333 20.3537 29.1928 20.6928 28.9428 20.9429C28.6927 21.1929 28.3536 21.3334 28 21.3334H26.6667V22.6667C26.6667 23.7276 26.2452 24.745 25.4951 25.4952C24.7449 26.2453 23.7275 26.6667 22.6667 26.6667H21.3333V28.0001C21.3333 28.3537 21.1928 28.6928 20.9428 28.9429C20.6927 29.1929 20.3536 29.3334 20 29.3334C19.6464 29.3334 19.3072 29.1929 19.0572 28.9429C18.8071 28.6928 18.6667 28.3537 18.6667 28.0001V26.6667H13.3333V28.0001C13.3333 28.3537 13.1928 28.6928 12.9428 28.9429C12.6927 29.1929 12.3536 29.3334 12 29.3334C11.6464 29.3334 11.3072 29.1929 11.0572 28.9429C10.8071 28.6928 10.6667 28.3537 10.6667 28.0001V26.6667H9.33332C8.27246 26.6667 7.25504 26.2453 6.5049 25.4952C5.75475 24.745 5.33332 23.7276 5.33332 22.6667V21.3334H3.99999C3.64637 21.3334 3.30723 21.1929 3.05718 20.9429C2.80713 20.6928 2.66666 20.3537 2.66666 20.0001C2.66666 19.6465 2.80713 19.3073 3.05718 19.0573C3.30723 18.8072 3.64637 18.6667 3.99999 18.6667H5.33332V13.3334H3.99999C3.64637 13.3334 3.30723 13.1929 3.05718 12.9429C2.80713 12.6928 2.66666 12.3537 2.66666 12.0001C2.66666 11.6465 2.80713 11.3073 3.05718 11.0573C3.30723 10.8072 3.64637 10.6667 3.99999 10.6667H5.33332V9.33341C5.33332 8.27255 5.75475 7.25513 6.5049 6.50499C7.25504 5.75484 8.27246 5.33341 9.33332 5.33341H10.6667V4.00008C10.6667 3.64646 10.8071 3.30732 11.0572 3.05727C11.3072 2.80722 11.6464 2.66675 12 2.66675C12.3536 2.66675 12.6927 2.80722 12.9428 3.05727C13.1928 3.30732 13.3333 3.64646 13.3333 4.00008V5.33341H18.6667V4.00008C18.6667 3.64646 18.8071 3.30732 19.0572 3.05727C19.3072 2.80722 19.6464 2.66675 20 2.66675ZM22.6667 8.00008H9.33332C8.9797 8.00008 8.64056 8.14056 8.39051 8.39061C8.14047 8.64065 7.99999 8.97979 7.99999 9.33341V22.6667C7.99999 23.0204 8.14047 23.3595 8.39051 23.6096C8.64056 23.8596 8.9797 24.0001 9.33332 24.0001H22.6667C23.0203 24.0001 23.3594 23.8596 23.6095 23.6096C23.8595 23.3595 24 23.0204 24 22.6667V9.33341C24 8.97979 23.8595 8.64065 23.6095 8.39061C23.3594 8.14056 23.0203 8.00008 22.6667 8.00008ZM18.6667 10.6667C19.3394 10.6665 19.9874 10.9206 20.4807 11.3781C20.974 11.8355 21.2762 12.4625 21.3267 13.1334L21.3333 13.3334V18.6667C21.3335 19.3395 21.0794 19.9875 20.622 20.4808C20.1645 20.9741 19.5375 21.2763 18.8667 21.3267L18.6667 21.3334H13.3333C12.6606 21.3336 12.0126 21.0795 11.5193 20.6221C11.026 20.1646 10.7238 19.5376 10.6733 18.8667L10.6667 18.6667V13.3334C10.6664 12.6606 10.9205 12.0127 11.378 11.5194C11.8354 11.026 12.4624 10.7239 13.1333 10.6734L13.3333 10.6667H18.6667ZM18.6667 13.3334H13.3333V18.6667H18.6667V13.3334Z" fill="black"/>
</svg>
