<svg width="32" height="32" viewBox="0 0 32 32" fill="none" xmlns="http://www.w3.org/2000/svg">
<path d="M29.482 8.62407L19.482 3.12407C19.3343 3.04284 19.1685 3.00024 19 3.00024C18.8315 3.00024 18.6657 3.04284 18.518 3.12407L8.51799 8.62407C8.36121 8.7104 8.23046 8.83722 8.1394 8.99131C8.04834 9.14539 8.00031 9.32109 8.00031 9.50007C8.00031 9.67905 8.04834 9.85475 8.1394 10.0088C8.23046 10.1629 8.36121 10.2897 8.51799 10.3761L18 15.5911V26.3101L14.964 24.6401L14 26.3911L18.518 28.8761C18.6657 28.9573 18.8315 28.9999 19 28.9999C19.1685 28.9999 19.3343 28.9573 19.482 28.8761L29.482 23.3761C29.6388 23.2898 29.7696 23.163 29.8608 23.0089C29.9519 22.8548 30 22.6791 30 22.5001V9.50007C30 9.32106 29.9519 9.14534 29.8608 8.99125C29.7696 8.83716 29.6388 8.71036 29.482 8.62407ZM19 5.14207L26.925 9.50007L19 13.8581L11.075 9.50007L19 5.14207ZM28 21.9091L20 26.3091V15.5901L28 11.1901V21.9091Z" fill="black"/>
<path d="M10 16H2V14H10V16ZM12 24H4V22H12V24ZM14 20H6V18H14V20Z" fill="black"/>
</svg>
