<svg width="32" height="32" viewBox="0 0 32 32" fill="none" xmlns="http://www.w3.org/2000/svg">
<path fill-rule="evenodd" clip-rule="evenodd" d="M16 11C14.6739 11 13.4021 11.5268 12.4645 12.4645C11.5268 13.4021 11 14.6739 11 16C11 17.3261 11.5268 18.5979 12.4645 19.5355C13.4021 20.4732 14.6739 21 16 21C17.3261 21 18.5979 20.4732 19.5355 19.5355C20.4732 18.5979 21 17.3261 21 16C21 14.6739 20.4732 13.4021 19.5355 12.4645C18.5979 11.5268 17.3261 11 16 11ZM13 16C13 15.2044 13.3161 14.4413 13.8787 13.8787C14.4413 13.3161 15.2044 13 16 13C16.7956 13 17.5587 13.3161 18.1213 13.8787C18.6839 14.4413 19 15.2044 19 16C19 16.7956 18.6839 17.5587 18.1213 18.1213C17.5587 18.6839 16.7956 19 16 19C15.2044 19 14.4413 18.6839 13.8787 18.1213C13.3161 17.5587 13 16.7956 13 16Z" fill="black"/>
<path fill-rule="evenodd" clip-rule="evenodd" d="M15.9006 1.33325C15.3073 1.33325 14.8126 1.33325 14.4072 1.35992C13.9929 1.37661 13.5842 1.46222 13.1979 1.61325C12.7529 1.79737 12.3485 2.06735 12.0079 2.40777C11.6673 2.74819 11.397 3.15238 11.2126 3.59725C11.0192 4.06392 10.9673 4.55725 10.9459 5.09325C10.9435 5.28923 10.8915 5.48141 10.7948 5.65185C10.698 5.82229 10.5596 5.96543 10.3926 6.06792C10.2203 6.16168 10.0272 6.21025 9.83106 6.20908C9.63496 6.20792 9.44236 6.15705 9.27125 6.06125C8.79658 5.81059 8.34325 5.60925 7.84192 5.54259C7.36451 5.47979 6.87941 5.51164 6.41431 5.63632C5.94921 5.761 5.51323 5.97607 5.13125 6.26925C4.80777 6.52856 4.52975 6.83993 4.30858 7.19059C4.08192 7.52925 3.83392 7.95725 3.53792 8.47059L3.50458 8.52925C3.20725 9.04258 2.96058 9.47058 2.78192 9.83592C2.59525 10.2173 2.44858 10.5933 2.39525 11.0093C2.26805 11.9732 2.52896 12.9483 3.12058 13.7199C3.42858 14.1213 3.82992 14.4133 4.28325 14.6986C4.45209 14.7987 4.59277 14.94 4.69211 15.1093C4.79145 15.2786 4.84621 15.4704 4.85125 15.6666C4.84621 15.8628 4.79145 16.0546 4.69211 16.2239C4.59277 16.3932 4.45209 16.5345 4.28325 16.6346C3.82992 16.9199 3.42992 17.2119 3.12058 17.6133C2.82741 17.9952 2.61234 18.4312 2.48765 18.8963C2.36297 19.3614 2.33112 19.8465 2.39392 20.3239C2.44858 20.7399 2.59392 21.1159 2.78058 21.4972C2.96058 21.8626 3.20725 22.2906 3.50458 22.8039L3.53792 22.8626C3.83392 23.3759 4.08192 23.8039 4.30858 24.1426C4.54458 24.4933 4.79792 24.8093 5.13125 25.0626C5.51313 25.356 5.94907 25.5713 6.41417 25.6962C6.87927 25.8211 7.36442 25.8532 7.84192 25.7906C8.34325 25.7239 8.79658 25.5239 9.27125 25.2719C9.44219 25.1764 9.63455 25.1256 9.83039 25.1245C10.0262 25.1233 10.2192 25.1717 10.3913 25.2652C10.5597 25.3665 10.6993 25.5093 10.7966 25.6799C10.894 25.8506 10.9458 26.0434 10.9473 26.2399C10.9673 26.7759 11.0193 27.2693 11.2139 27.7359C11.398 28.1809 11.668 28.5853 12.0084 28.9259C12.3489 29.2666 12.753 29.5368 13.1979 29.7213C13.5846 29.8813 13.9846 29.9439 14.4072 29.9719C14.8126 29.9999 15.3073 29.9999 15.9006 29.9999H15.9672C16.5606 29.9999 17.0553 29.9999 17.4606 29.9732C17.8846 29.9439 18.2833 29.8813 18.6699 29.7199C19.1149 29.5358 19.5193 29.2658 19.8599 28.9254C20.2006 28.585 20.4708 28.1808 20.6553 27.7359C20.8486 27.2693 20.9006 26.7759 20.9219 26.2399C20.9241 26.0437 20.976 25.8513 21.0727 25.6806C21.1695 25.5099 21.308 25.3665 21.4753 25.2639C21.6476 25.1704 21.8408 25.122 22.0369 25.1234C22.233 25.1248 22.4256 25.1759 22.5966 25.2719C23.0713 25.5226 23.5246 25.7239 24.0259 25.7892C24.9899 25.9164 25.9649 25.6555 26.7366 25.0639C27.0699 24.8079 27.3233 24.4933 27.5593 24.1426C27.7859 23.8039 28.0339 23.3759 28.3299 22.8626L28.3633 22.8039C28.6606 22.2906 28.9073 21.8626 29.0859 21.4972C29.2726 21.1159 29.4192 20.7386 29.4726 20.3239C29.5998 19.3599 29.3389 18.3849 28.7473 17.6133C28.4393 17.2119 28.0379 16.9199 27.5846 16.6346C27.4157 16.5345 27.2751 16.3932 27.1757 16.2239C27.0764 16.0546 27.0216 15.8628 27.0166 15.6666C27.0166 15.2959 27.2193 14.9279 27.5846 14.6986C28.0379 14.4133 28.4379 14.1213 28.7473 13.7199C29.0404 13.3379 29.2555 12.902 29.3802 12.4369C29.5049 11.9718 29.5367 11.4867 29.4739 11.0093C29.4111 10.5994 29.2804 10.2028 29.0873 9.83592C28.8595 9.39296 28.6181 8.95719 28.3633 8.52925L28.3299 8.47059C28.0864 8.03602 27.8294 7.60915 27.5593 7.19059C27.338 6.8404 27.0599 6.52949 26.7366 6.27059C26.3547 5.97717 25.9188 5.76186 25.4537 5.63695C24.9886 5.51204 24.5034 5.47998 24.0259 5.54259C23.5246 5.60925 23.0713 5.80925 22.5966 6.06125C22.4256 6.15682 22.2333 6.20755 22.0374 6.20871C21.8416 6.20988 21.6487 6.16144 21.4766 6.06792C21.309 5.96575 21.1701 5.82275 21.0729 5.65229C20.9757 5.48183 20.9232 5.28948 20.9206 5.09325C20.9006 4.55725 20.8486 4.06392 20.6539 3.59725C20.4698 3.15225 20.1998 2.74788 19.8594 2.40723C19.519 2.06659 19.1148 1.79634 18.6699 1.61192C18.2833 1.45192 17.8833 1.38925 17.4606 1.36125C17.0553 1.33325 16.5606 1.33325 15.9672 1.33325H15.9006ZM13.9633 3.45992C14.0659 3.41725 14.2219 3.37859 14.5433 3.35592C14.8726 3.33325 15.2993 3.33325 15.9339 3.33325C16.5686 3.33325 16.9953 3.33325 17.3246 3.35592C17.6459 3.37859 17.8019 3.41725 17.9046 3.45992C18.3139 3.62925 18.6379 3.95325 18.8073 4.36259C18.8606 4.49059 18.9046 4.69192 18.9219 5.16792C18.9619 6.22392 19.5073 7.24125 20.4753 7.79992C21.4433 8.35858 22.5966 8.32259 23.5313 7.82925C23.9526 7.60659 24.1486 7.54392 24.2872 7.52658C24.7253 7.4687 25.1685 7.58716 25.5192 7.85592C25.6072 7.92392 25.7193 8.03992 25.8993 8.30658C26.0846 8.58125 26.2979 8.95058 26.6153 9.49992C26.9326 10.0493 27.1446 10.4199 27.2899 10.7159C27.4326 11.0053 27.4766 11.1599 27.4899 11.2706C27.5478 11.7087 27.4293 12.1518 27.1606 12.5026C27.0753 12.6133 26.9233 12.7519 26.5206 13.0053C25.6246 13.5679 25.0166 14.5493 25.0166 15.6666C25.0166 16.7839 25.6246 17.7653 26.5206 18.3279C26.9233 18.5813 27.0753 18.7199 27.1606 18.8306C27.4299 19.1813 27.5473 19.6239 27.4899 20.0626C27.4766 20.1733 27.4313 20.3293 27.2899 20.6173C27.1446 20.9146 26.9326 21.2839 26.6153 21.8333C26.2979 22.3826 26.0833 22.7519 25.8993 23.0266C25.7193 23.2933 25.6072 23.4093 25.5192 23.4773C25.1685 23.746 24.7253 23.8645 24.2872 23.8066C24.1486 23.7893 23.9539 23.7266 23.5313 23.5039C22.5979 23.0106 21.4433 22.9733 20.4753 23.5319C19.5073 24.0906 18.9619 25.1093 18.9219 26.1653C18.9046 26.6413 18.8606 26.8426 18.8073 26.9706C18.7235 27.173 18.6007 27.3569 18.4458 27.5118C18.2909 27.6667 18.107 27.7895 17.9046 27.8733C17.8019 27.9159 17.6459 27.9546 17.3246 27.9773C16.9953 27.9999 16.5686 27.9999 15.9339 27.9999C15.2993 27.9999 14.8726 27.9999 14.5433 27.9773C14.2219 27.9546 14.0659 27.9159 13.9633 27.8733C13.7609 27.7895 13.577 27.6667 13.4221 27.5118C13.2672 27.3569 13.1443 27.173 13.0606 26.9706C13.0073 26.8426 12.9633 26.6413 12.9459 26.1653C12.9059 25.1093 12.3606 24.0919 11.3926 23.5333C10.4246 22.9746 9.27125 23.0106 8.33658 23.5039C7.91525 23.7266 7.71925 23.7893 7.58058 23.8066C7.1425 23.8645 6.69935 23.746 6.34858 23.4773C6.26058 23.4093 6.14858 23.2933 5.96858 23.0266C5.71776 22.6362 5.47898 22.2383 5.25258 21.8333C4.93525 21.2839 4.72325 20.9133 4.57792 20.6173C4.43525 20.3279 4.39125 20.1733 4.37792 20.0626C4.32003 19.6245 4.43849 19.1814 4.70725 18.8306C4.79258 18.7199 4.94458 18.5813 5.34725 18.3279C6.24325 17.7653 6.85125 16.7839 6.85125 15.6666C6.85125 14.5493 6.24325 13.5679 5.34725 13.0053C4.94458 12.7519 4.79258 12.6133 4.70725 12.5026C4.43849 12.1518 4.32003 11.7087 4.37792 11.2706C4.39125 11.1599 4.43658 11.0039 4.57792 10.7159C4.72325 10.4186 4.93525 10.0493 5.25258 9.49992C5.56992 8.95058 5.78458 8.58125 5.96858 8.30658C6.14858 8.03992 6.26058 7.92392 6.34858 7.85592C6.69935 7.58716 7.1425 7.4687 7.58058 7.52658C7.71925 7.54392 7.91392 7.60659 8.33658 7.82925C9.26992 8.32259 10.4246 8.35992 11.3926 7.79992C12.3606 7.24125 12.9059 6.22392 12.9459 5.16792C12.9633 4.69192 13.0073 4.49059 13.0606 4.36259C13.2299 3.95325 13.5539 3.62925 13.9633 3.45992Z" fill="black"/>
</svg>
