<svg width="32" height="32" viewBox="0 0 32 32" fill="none" xmlns="http://www.w3.org/2000/svg">
<path d="M6.30399 21.5159C4.24399 19.4546 3.21333 18.4253 2.83066 17.0879C2.44666 15.7506 2.77466 14.3306 3.43066 11.4919L3.80799 9.85459C4.35866 7.46525 4.63466 6.27059 5.45199 5.45192C6.26933 4.63325 7.46533 4.35859 9.85466 3.80792L11.492 3.42925C14.332 2.77459 15.7507 2.44659 17.088 2.82925C18.4253 3.21325 19.4547 4.24392 21.5147 6.30392L23.9547 8.74392C27.5427 12.3306 29.3333 14.1226 29.3333 16.3493C29.3333 18.5773 27.5413 20.3693 23.956 23.9546C20.3693 27.5413 18.5773 29.3333 16.3493 29.3333C14.1227 29.3333 12.3293 27.5413 8.744 23.9559L6.30399 21.5159Z" stroke="black" stroke-width="2"/>
<path d="M20.52 20.52C21.3 19.7373 21.4053 18.5773 20.7547 17.9253C20.104 17.2733 18.9427 17.38 18.1613 18.1613C17.3813 18.9426 16.22 19.048 15.5693 18.3973C14.9187 17.7466 15.024 16.5853 15.8053 15.8053M15.8053 15.8053L15.3333 15.3333M15.8053 15.8053C16.2467 15.3626 16.8093 15.1386 17.3333 15.1426M20.9907 20.9906L20.5187 20.5186C19.9853 21.0533 19.272 21.272 18.6667 21.1466" stroke="black" stroke-width="2" stroke-linecap="round"/>
<path d="M13.3616 13.7242C14.403 12.6828 14.403 10.9944 13.3616 9.953C12.3202 8.91161 10.6318 8.91161 9.59039 9.953C8.54899 10.9944 8.54899 12.6828 9.59039 13.7242C10.6318 14.7656 12.3202 14.7656 13.3616 13.7242Z" stroke="black" stroke-width="2"/>
</svg>
