<svg width="32" height="32" viewBox="0 0 32 32" fill="none" xmlns="http://www.w3.org/2000/svg">
<path fill-rule="evenodd" clip-rule="evenodd" d="M20.928 12.3762C21.1819 12.6223 21.3276 12.9592 21.3331 13.3128C21.3386 13.6663 21.2035 14.0076 20.9573 14.2615L15.584 19.8069C15.4385 19.9575 15.2642 20.0772 15.0714 20.159C14.8787 20.2409 14.6714 20.283 14.462 20.283C14.2526 20.283 14.0453 20.2409 13.8526 20.159C13.6598 20.0772 13.4855 19.9575 13.34 19.8069L11.0427 17.4362C10.9192 17.3108 10.8218 17.1622 10.7561 16.999C10.6903 16.8358 10.6575 16.6611 10.6596 16.4852C10.6616 16.3092 10.6985 16.1354 10.768 15.9738C10.8376 15.8122 10.9384 15.6659 11.0648 15.5434C11.1911 15.4209 11.3405 15.3247 11.5042 15.2602C11.6679 15.1957 11.8428 15.1643 12.0187 15.1677C12.1947 15.1711 12.3682 15.2093 12.5293 15.2801C12.6904 15.3509 12.8358 15.4529 12.9573 15.5802L14.4613 17.1322L19.0427 12.4055C19.2888 12.1516 19.6257 12.0059 19.9793 12.0004C20.3328 11.9949 20.6741 12.1301 20.928 12.3762Z" fill="black"/>
<path fill-rule="evenodd" clip-rule="evenodd" d="M14.748 3.14678C15.5596 2.86904 16.4405 2.86904 17.252 3.14678L25.06 5.80812C25.8864 6.09066 26.5933 6.64372 27.0663 7.37784C27.5393 8.11195 27.7509 8.98419 27.6667 9.85345L26.656 20.2428C26.603 20.7942 26.4321 21.3278 26.1549 21.8074C25.8777 22.2871 25.5007 22.7015 25.0494 23.0228L18.2254 27.8988C17.5769 28.3617 16.8015 28.6138 16.0048 28.6207C15.208 28.6276 14.4285 28.389 13.772 27.9374L7.0027 23.2774C6.53615 22.9564 6.14555 22.5371 5.85831 22.049C5.57108 21.5609 5.39418 21.0159 5.34003 20.4521L4.3267 9.84812C4.24394 8.97939 4.45646 8.10813 4.92992 7.37507C5.40338 6.64201 6.11014 6.08997 6.93603 5.80812L14.748 3.14678ZM16.4694 5.44012C16.1649 5.33729 15.8351 5.33729 15.5307 5.44012L7.7187 8.10412C7.40885 8.20951 7.14365 8.41641 6.96603 8.6913C6.78841 8.9662 6.70878 9.29299 6.74003 9.61878L7.7547 20.2228C7.7947 20.6494 8.02403 21.0388 8.3787 21.2828L15.1467 25.9414C15.6507 26.2881 16.32 26.2828 16.8174 25.9281L23.6427 21.0521C23.811 20.9307 23.9516 20.775 24.0552 20.5953C24.1589 20.4156 24.2233 20.2159 24.244 20.0094L25.256 9.62012C25.2879 9.2939 25.2086 8.96648 25.0309 8.69103C24.8532 8.41559 24.5877 8.20828 24.2774 8.10278L16.4694 5.44012Z" fill="black"/>
</svg>
