<svg width="32" height="32" viewBox="0 0 32 32" fill="none" xmlns="http://www.w3.org/2000/svg">
<path d="M16 6.25L17.431 12.04C17.5517 12.5281 17.8323 12.9616 18.2282 13.2716C18.624 13.5815 19.1122 13.7499 19.615 13.75H28" stroke="black" stroke-width="2" stroke-linecap="round" stroke-linejoin="round"/>
<path d="M1 6.25H17.6035C19.927 6.25 21.088 6.25 22.0735 6.769C23.0575 7.288 23.7145 8.2465 25.0285 10.162C25.948 11.506 26.9155 12.481 28.2745 13.3495C29.6425 14.2225 30.2935 14.65 30.6535 15.3355C31 15.991 31 16.768 31 18.3235C31 20.374 31 21.3985 30.3805 22.0495L30.2995 22.1305C29.65 22.75 28.624 22.75 26.575 22.75M5.5 22.75C5.02 22.75 4.5775 22.75 4.345 22.7005C4.111 22.6495 3.892 22.5505 3.4525 22.354L1 21.25C1 16.459 1.7185 13.693 2.659 11.425C3.274 9.937 3.583 9.193 3.454 8.53C3.3295 7.87 1.75 6.25 1.75 6.25M11.5 22.75H20.5" stroke="black" stroke-width="2" stroke-linecap="round" stroke-linejoin="round"/>
<path d="M23.5001 25.7502C25.157 25.7502 26.5001 24.4071 26.5001 22.7502C26.5001 21.0934 25.157 19.7502 23.5001 19.7502C21.8433 19.7502 20.5001 21.0934 20.5001 22.7502C20.5001 24.4071 21.8433 25.7502 23.5001 25.7502Z" stroke="black" stroke-width="2"/>
<path d="M8.50012 25.7502C10.157 25.7502 11.5001 24.4071 11.5001 22.7502C11.5001 21.0934 10.157 19.7502 8.50012 19.7502C6.84327 19.7502 5.50012 21.0934 5.50012 22.7502C5.50012 24.4071 6.84327 25.7502 8.50012 25.7502Z" stroke="black" stroke-width="2"/>
</svg>
