<svg width="32" height="32" viewBox="0 0 32 32" fill="none" xmlns="http://www.w3.org/2000/svg">
<path d="M13.333 16.0001H18.6663M13.333 10.6667H18.6663M18.6663 28.0001V24.0001C18.6663 23.2928 18.3854 22.6146 17.8853 22.1145C17.3852 21.6144 16.7069 21.3334 15.9997 21.3334C15.2924 21.3334 14.6142 21.6144 14.1141 22.1145C13.614 22.6146 13.333 23.2928 13.333 24.0001V28.0001" stroke="black" stroke-width="2.5" stroke-linecap="round" stroke-linejoin="round"/>
<path d="M7.99984 13.3333H5.33317C4.62593 13.3333 3.94765 13.6142 3.44755 14.1143C2.94746 14.6144 2.6665 15.2927 2.6665 15.9999V25.3333C2.6665 26.0405 2.94746 26.7188 3.44755 27.2189C3.94765 27.719 4.62593 27.9999 5.33317 27.9999H26.6665C27.3737 27.9999 28.052 27.719 28.5521 27.2189C29.0522 26.7188 29.3332 26.0405 29.3332 25.3333V11.9999C29.3332 11.2927 29.0522 10.6144 28.5521 10.1143C28.052 9.6142 27.3737 9.33325 26.6665 9.33325H23.9998" stroke="black" stroke-width="2.5" stroke-linecap="round" stroke-linejoin="round"/>
<path d="M8 28V6.66667C8 5.95942 8.28095 5.28115 8.78105 4.78105C9.28115 4.28095 9.95942 4 10.6667 4H21.3333C22.0406 4 22.7189 4.28095 23.219 4.78105C23.719 5.28115 24 5.95942 24 6.66667V28" stroke="black" stroke-width="2.5" stroke-linecap="round" stroke-linejoin="round"/>
</svg>
