<svg width="32" height="32" viewBox="0 0 32 32" fill="none" xmlns="http://www.w3.org/2000/svg">
<path d="M24.0681 11.556C24.1612 11.4631 24.2351 11.3528 24.2855 11.2313C24.3359 11.1098 24.3619 10.9795 24.3619 10.848C24.3619 10.7165 24.3359 10.5862 24.2855 10.4647C24.2351 10.3432 24.1612 10.2329 24.0681 10.14L21.8621 7.934C21.7699 7.83849 21.6595 7.76231 21.5375 7.7099C21.4155 7.65749 21.2843 7.62991 21.1515 7.62875C21.0187 7.6276 20.887 7.6529 20.7641 7.70318C20.6413 7.75346 20.5296 7.82771 20.4357 7.92161C20.3418 8.0155 20.2676 8.12715 20.2173 8.25005C20.167 8.37294 20.1417 8.50462 20.1429 8.6374C20.144 8.77018 20.1716 8.9014 20.224 9.02341C20.2764 9.14541 20.3526 9.25576 20.4481 9.348L22.6541 11.556C22.8416 11.7435 23.0959 11.8488 23.3611 11.8488C23.6263 11.8488 23.8806 11.7435 24.0681 11.556ZM12.3021 21.908C12.3976 22.0002 12.4738 22.1106 12.5262 22.2326C12.5786 22.3546 12.6062 22.4858 12.6074 22.6186C12.6085 22.7514 12.5832 22.8831 12.5329 23.006C12.4826 23.1289 12.4084 23.2405 12.3145 23.3344C12.2206 23.4283 12.109 23.5025 11.9861 23.5528C11.8632 23.6031 11.7315 23.6284 11.5987 23.6273C11.4659 23.6261 11.3347 23.5985 11.2127 23.5461C11.0907 23.4937 10.9803 23.4175 10.8881 23.322L8.6801 21.116C8.58459 21.0238 8.50841 20.9134 8.456 20.7914C8.40359 20.6694 8.37601 20.5382 8.37485 20.4054C8.3737 20.2726 8.399 20.1409 8.44928 20.018C8.49956 19.8952 8.57381 19.7835 8.66771 19.6896C8.7616 19.5957 8.87325 19.5215 8.99615 19.4712C9.11904 19.4209 9.25072 19.3956 9.3835 19.3968C9.51628 19.3979 9.6475 19.4255 9.76951 19.4779C9.89151 19.5303 10.0019 19.6065 10.0941 19.702L12.3021 21.908ZM28.5261 3.508C28.2778 3.25964 27.983 3.06262 27.6585 2.92821C27.3341 2.79379 26.9863 2.72461 26.6351 2.72461C26.2839 2.72461 25.9361 2.79379 25.6117 2.92821C25.2872 3.06262 24.9924 3.25964 24.7441 3.508L23.7641 4.49L23.4321 4.162C23.0884 3.81909 22.6741 3.55521 22.2181 3.38876C21.762 3.22232 21.2751 3.15729 20.7914 3.19822C20.3076 3.23916 19.8386 3.38506 19.417 3.62577C18.9953 3.86648 18.6313 4.19622 18.3501 4.592C17.4936 4.42464 16.606 4.53687 15.8182 4.91214C15.0303 5.28742 14.3838 5.90588 13.974 6.67637C13.5643 7.44686 13.4128 8.32861 13.5421 9.19166C13.6714 10.0547 14.0745 10.8534 14.6921 11.47L15.7381 12.516L12.5141 15.738L11.4681 14.692C10.8514 14.0741 10.0525 13.6708 9.18916 13.5415C8.32583 13.4122 7.4438 13.5638 6.67316 13.9739C5.90252 14.384 5.28407 15.0308 4.90901 15.8191C4.53396 16.6074 4.42216 17.4954 4.5901 18.352C4.19398 18.6332 3.86396 18.9973 3.62303 19.4191C3.38211 19.8409 3.23609 20.3102 3.19515 20.7942C3.15421 21.2782 3.21934 21.7654 3.386 22.2216C3.55266 22.6779 3.81683 23.0923 4.1601 23.436L4.4901 23.764L3.4781 24.774C2.97658 25.2755 2.69482 25.9557 2.69482 26.665C2.69482 27.3743 2.97658 28.0545 3.4781 28.556C3.97963 29.0575 4.65984 29.3393 5.3691 29.3393C6.07836 29.3393 6.75858 29.0575 7.2601 28.556L8.2721 27.546L8.6021 27.876C8.94591 28.2188 9.36032 28.4825 9.81647 28.6488C10.2726 28.8151 10.7595 28.88 11.2433 28.8388C11.7271 28.7977 12.1961 28.6516 12.6176 28.4107C13.0391 28.1698 13.4031 27.8399 13.6841 27.444C14.5406 27.6114 15.4282 27.4991 16.2161 27.1239C17.0039 26.7486 17.6504 26.1301 18.0602 25.3596C18.47 24.5891 18.6214 23.7074 18.4921 22.8443C18.3628 21.9813 17.9597 21.1826 17.3421 20.566L16.2961 19.52L19.5201 16.3L20.5661 17.346C21.1828 17.9639 21.9817 18.3672 22.845 18.4965C23.7084 18.6258 24.5904 18.4742 25.361 18.0641C26.1317 17.654 26.7501 17.0072 27.1252 16.2189C27.5002 15.4306 27.612 14.5427 27.4441 13.686C27.5948 13.5793 27.7381 13.4587 27.8741 13.324C28.4994 12.6978 28.8506 11.849 28.8506 10.964C28.8506 10.079 28.4994 9.23023 27.8741 8.604L27.5441 8.274L28.5241 7.294C28.7725 7.04569 28.9695 6.75089 29.1039 6.42643C29.2383 6.10197 29.3075 5.7542 29.3075 5.403C29.3075 5.0518 29.2383 4.70404 29.1039 4.37958C28.9695 4.05512 28.7725 3.76031 28.5241 3.512M26.1301 6.86L25.1761 5.906L26.1561 4.926C26.2826 4.79923 26.4543 4.7279 26.6334 4.72772C26.8125 4.72753 26.9843 4.79849 27.1111 4.925C27.2379 5.05151 27.3092 5.2232 27.3094 5.4023C27.3096 5.58139 27.2386 5.75323 27.1121 5.88L26.1301 6.86ZM18.1061 14.884L14.8801 18.106L13.9261 17.152L17.1501 13.93L18.1061 14.884ZM6.8581 26.132L5.8461 27.142C5.71959 27.2685 5.54801 27.3396 5.3691 27.3396C5.19019 27.3396 5.01861 27.2685 4.8921 27.142C4.76559 27.0155 4.69452 26.8439 4.69452 26.665C4.69452 26.4861 4.76559 26.3145 4.8921 26.188L5.9041 25.178L6.8581 26.132ZM20.1281 5.576C20.3792 5.32624 20.7189 5.18604 21.0731 5.18604C21.4273 5.18604 21.767 5.32624 22.0181 5.576L26.4581 10.016C26.6194 10.1778 26.7366 10.3782 26.7986 10.598C26.8606 10.8179 26.8654 11.05 26.8125 11.2722C26.7596 11.4945 26.6508 11.6995 26.4963 11.8678C26.3419 12.0362 26.147 12.1622 25.9301 12.234C25.7962 12.2776 25.673 12.3491 25.5686 12.4436C25.4642 12.5382 25.3809 12.6537 25.3243 12.7827C25.2676 12.9116 25.2389 13.0511 25.2399 13.192C25.2409 13.3328 25.2716 13.4719 25.3301 13.6C25.5313 14.0418 25.571 14.5403 25.4425 15.0084C25.314 15.4766 25.0253 15.8848 24.6267 16.162C24.2282 16.4392 23.745 16.5678 23.2614 16.5254C22.7778 16.483 22.3244 16.2723 21.9801 15.93L16.1061 10.056C15.7603 9.71288 15.5464 9.25887 15.5021 8.77373C15.4577 8.28858 15.5857 7.80333 15.8636 7.40319C16.1415 7.00306 16.5515 6.71364 17.0216 6.58577C17.4917 6.45791 17.9918 6.49977 18.4341 6.704C18.5623 6.76282 18.7016 6.79384 18.8427 6.79502C18.9837 6.7962 19.1235 6.76752 19.2527 6.71085C19.3819 6.65418 19.4976 6.57081 19.5923 6.46622C19.687 6.36163 19.7585 6.23819 19.8021 6.104C19.8699 5.90583 19.9813 5.7254 20.1281 5.576ZM7.1201 16.106C7.31254 15.9133 7.54106 15.7605 7.79261 15.6562C8.04416 15.5519 8.3138 15.4983 8.5861 15.4983C8.85841 15.4983 9.12805 15.5519 9.37959 15.6562C9.63114 15.7605 9.85967 15.9133 10.0521 16.106L15.9261 21.982C16.2697 22.3254 16.4817 22.7787 16.525 23.2626C16.5684 23.7464 16.4403 24.2301 16.1633 24.6292C15.8862 25.0282 15.4777 25.3172 15.0092 25.4457C14.5407 25.5742 14.042 25.5339 13.6001 25.332C13.4719 25.2732 13.3326 25.2422 13.1915 25.241C13.0505 25.2398 12.9107 25.2685 12.7815 25.3252C12.6523 25.3818 12.5366 25.4652 12.4419 25.5698C12.3472 25.6744 12.2757 25.7978 12.2321 25.932C12.1604 26.1486 12.0345 26.3434 11.8664 26.4978C11.6984 26.6521 11.4936 26.761 11.2717 26.8141C11.0497 26.8672 10.8179 26.8627 10.5982 26.8011C10.3784 26.7395 10.1781 26.6228 10.0161 26.462L5.5761 22.02C5.41433 21.8584 5.29662 21.658 5.23417 21.438C5.17173 21.218 5.16662 20.9857 5.21935 20.7632C5.27207 20.5406 5.38087 20.3353 5.53539 20.1667C5.68991 19.9981 5.885 19.8719 6.1021 19.8C6.23603 19.7564 6.35923 19.6849 6.46363 19.5904C6.56804 19.4958 6.65129 19.3803 6.70793 19.2513C6.76458 19.1224 6.79334 18.9829 6.79234 18.842C6.79133 18.7012 6.76058 18.5621 6.7021 18.434C6.52688 18.049 6.47321 17.6197 6.54825 17.2034C6.62329 16.7871 6.82348 16.4036 7.1221 16.104" fill="black"/>
</svg>
