<svg width="32" height="32" viewBox="0 0 32 32" fill="none" xmlns="http://www.w3.org/2000/svg">
<path fill-rule="evenodd" clip-rule="evenodd" d="M9.52 3.00005C7.274 3.00005 5.316 3.70805 3.832 5.03005C2.354 6.34805 1.446 8.18405 1.128 10.276C1.09713 10.4714 1.10519 10.6709 1.15171 10.8631C1.19824 11.0553 1.28232 11.2364 1.3991 11.396C1.51589 11.5556 1.66309 11.6906 1.83222 11.793C2.00135 11.8955 2.18908 11.9636 2.3846 11.9932C2.58013 12.0229 2.77959 12.0136 2.97151 11.9659C3.16343 11.9182 3.34402 11.833 3.5029 11.7152C3.66177 11.5974 3.79578 11.4494 3.89722 11.2797C3.99867 11.1099 4.06554 10.9218 4.094 10.726C4.324 9.21805 4.95 8.05405 5.828 7.27005C6.702 6.49005 7.924 5.99805 9.52 5.99805C11.45 5.99805 13.708 7.25805 14.576 9.89805C14.6746 10.1981 14.8655 10.4595 15.1214 10.6447C15.3773 10.8299 15.6851 10.9297 16.001 10.9297C16.3169 10.9297 16.6247 10.8299 16.8806 10.6447C17.1365 10.4595 17.3274 10.1981 17.426 9.89805C18.294 7.25405 20.528 5.99805 22.48 5.99805C24.28 5.99805 25.616 6.62605 26.512 7.60805C27.424 8.60405 28 10.1 28 12.026C28 15.24 26.364 17.996 23.878 20.39C21.584 22.596 18.674 24.382 16.004 25.804C13.326 24.37 10.428 22.604 8.14 20.42C7.99752 20.284 7.82963 20.1773 7.64593 20.1062C7.46223 20.035 7.2663 20.0007 7.06935 20.0053C6.8724 20.0098 6.67827 20.0531 6.49805 20.1327C6.31783 20.2123 6.15505 20.3266 6.019 20.469C5.88295 20.6115 5.7763 20.7794 5.70513 20.9631C5.63396 21.1468 5.59968 21.3427 5.60423 21.5397C5.60878 21.7366 5.65208 21.9308 5.73165 22.111C5.81122 22.2912 5.92552 22.454 6.068 22.59C8.872 25.266 12.388 27.304 15.304 28.83C15.518 28.9415 15.7557 28.9997 15.997 28.9997C16.2383 28.9997 16.476 28.9415 16.69 28.83C19.616 27.318 23.146 25.256 25.956 22.552C28.776 19.842 31 16.356 31 12.026C31 9.50605 30.24 7.24005 28.728 5.58405C27.2 3.91405 25.028 2.99805 22.48 2.99805C20.132 2.99805 17.656 4.10005 16 6.25005C14.334 4.10005 11.848 2.99805 9.52 2.99805M11.22 11.626C11.0977 11.4549 10.9409 11.3115 10.7596 11.2049C10.5783 11.0983 10.3766 11.0311 10.1677 11.0075C9.95872 10.984 9.74713 11.0046 9.54666 11.0681C9.34618 11.1316 9.1613 11.2365 9.004 11.376L4.93 15H1.5C1.10218 15 0.720644 15.1581 0.43934 15.4394C0.158035 15.7207 0 16.1022 0 16.5C0 16.8979 0.158035 17.2794 0.43934 17.5607C0.720644 17.842 1.10218 18 1.5 18H5.5C5.86733 17.9996 6.22173 17.8644 6.496 17.62L9.75 14.73L13.78 20.372C13.9171 20.5638 14.0974 20.7206 14.3064 20.8296C14.5154 20.9386 14.7472 20.9969 14.9829 20.9996C15.2186 21.0023 15.4517 20.9495 15.6631 20.8453C15.8746 20.7411 16.0585 20.5886 16.2 20.4L18.75 17H22C22.3978 17 22.7794 16.842 23.0607 16.5607C23.342 16.2794 23.5 15.8979 23.5 15.5C23.5 15.1022 23.342 14.7207 23.0607 14.4394C22.7794 14.1581 22.3978 14 22 14H18C17.7671 14 17.5375 14.0543 17.3292 14.1584C17.1209 14.2625 16.9397 14.4138 16.8 14.6L15.03 16.96L11.22 11.626Z" fill="black"/>
</svg>
