<svg width="32" height="32" viewBox="0 0 32 32" fill="none" xmlns="http://www.w3.org/2000/svg">
<path d="M8.00016 25.3334H12.0002V18.6667C12.0002 18.289 12.1282 17.9725 12.3842 17.7174C12.6402 17.4623 12.9566 17.3343 13.3335 17.3334H18.6668C19.0446 17.3334 19.3615 17.4614 19.6175 17.7174C19.8735 17.9734 20.0011 18.2899 20.0002 18.6667V25.3334H24.0002V13.3334L16.0002 7.33341L8.00016 13.3334V25.3334ZM5.3335 25.3334V13.3334C5.3335 12.9112 5.42816 12.5112 5.6175 12.1334C5.80683 11.7556 6.06772 11.4445 6.40016 11.2001L14.4002 5.20008C14.8668 4.84453 15.4002 4.66675 16.0002 4.66675C16.6002 4.66675 17.1335 4.84453 17.6002 5.20008L25.6002 11.2001C25.9335 11.4445 26.1948 11.7556 26.3842 12.1334C26.5735 12.5112 26.6677 12.9112 26.6668 13.3334V25.3334C26.6668 26.0667 26.4055 26.6947 25.8828 27.2174C25.3602 27.7401 24.7326 28.001 24.0002 28.0001H18.6668C18.2891 28.0001 17.9726 27.8721 17.7175 27.6161C17.4624 27.3601 17.3344 27.0436 17.3335 26.6667V20.0001H14.6668V26.6667C14.6668 27.0445 14.5388 27.3614 14.2828 27.6174C14.0268 27.8734 13.7104 28.001 13.3335 28.0001H8.00016C7.26683 28.0001 6.63927 27.7392 6.1175 27.2174C5.59572 26.6956 5.33438 26.0676 5.3335 25.3334Z" fill="black"/>
</svg>
