<svg width="32" height="32" viewBox="0 0 32 32" fill="none" xmlns="http://www.w3.org/2000/svg">
<path d="M24.0003 9.99992C24.8844 9.99992 25.7322 9.64873 26.3573 9.02361C26.9825 8.39849 27.3337 7.55064 27.3337 6.66659C27.3337 5.78253 26.9825 4.93468 26.3573 4.30956C25.7322 3.68444 24.8844 3.33325 24.0003 3.33325C23.1163 3.33325 22.2684 3.68444 21.6433 4.30956C21.0182 4.93468 20.667 5.78253 20.667 6.66659C20.667 7.55064 21.0182 8.39849 21.6433 9.02361C22.2684 9.64873 23.1163 9.99992 24.0003 9.99992Z" stroke="black" stroke-width="2.5"/>
<path d="M8.0001 11.18L13.3354 9.33203L20.6668 12.8314L13.3354 18.296L20.6668 23.1227L16.0054 29.332M23.5468 14.4287L25.3348 15.4014L29.3334 11.644M11.2328 21.03L9.25277 23.638L2.66943 27.3314" stroke="black" stroke-width="2.5" stroke-linecap="round" stroke-linejoin="round"/>
</svg>
